<svg width="256" height="120" viewBox="0 0 256 120" fill="none" xmlns="http://www.w3.org/2000/svg">
<g clip-path="url(#clip0_6346_36432)">
<rect width="256" height="120" rx="8" fill="#1E4240"/>
<path d="M70.3999 116.328C70.3999 116.328 73.9081 94.2452 79.7217 69.4091C85.5352 44.573 93.6556 16.9854 102.875 5.97931C104.491 4.05226 106.195 3.15703 107.496 2.74562C108.203 2.50311 108.948 2.38669 109.697 2.40167C111.406 2.4313 112.888 3.16525 114.068 4.03415C115.01 4.7546 115.868 5.57697 116.627 6.48617C120.479 10.8998 126.002 27.0748 130.718 42.7628C135.434 58.4507 139.344 73.6433 139.979 76.1052C140.103 73.7684 140.692 63.9933 143.114 54.3481C145.537 44.703 149.781 35.1895 157.216 33.376C157.745 33.2593 158.281 33.1812 158.82 33.1423C160.018 33.0367 161.225 33.1156 162.398 33.376C171.167 35.4446 176.236 52.189 179.178 70.4722C182.121 88.7553 182.936 108.577 183.2 116.8L126.802 116.567L70.3999 116.328Z" fill="#353519"/>
<path d="M85.5118 25.5996H74.7918C72.811 28.2076 71.0766 30.6492 69.5806 32.854C68.0846 35.0588 66.827 37.0252 65.803 38.6844C62.6974 43.71 60.363 47.5148 58.763 50.9164C57.163 54.318 56.2734 57.3164 56.0622 60.7292C55.9319 62.7167 56.0064 64.7122 56.2846 66.6844C56.7536 70.1196 57.8879 73.4304 59.6238 76.4316C63.4574 82.9692 69.5278 86.478 74.8446 88.3564C78.2814 89.5768 81.8729 90.3072 85.5134 90.526V81.262C83.6832 81.0785 81.8746 80.7217 80.1118 80.1964C77.7543 79.4951 75.5029 78.4773 73.419 77.1708C72.4929 76.608 71.6002 75.992 70.7454 75.326C69.7466 74.5345 68.8568 73.6146 68.099 72.59C67.3854 71.6188 66.7973 70.5613 66.3486 69.4428C65.941 68.4241 65.6386 67.3663 65.4462 66.286C65.1541 64.6566 65.1003 62.9933 65.2862 61.3484C65.4697 59.7008 65.8772 58.0859 66.4974 56.5484C67.499 54.0524 68.6782 51.3868 70.0686 48.598C71.459 45.8092 73.0622 42.8988 74.9102 39.918C76.6814 37.0588 78.4894 34.4396 80.2766 32.0556C82.0638 29.6716 83.8238 27.5244 85.5118 25.5996Z" fill="#F4ECE5"/>
<path d="M164.099 39.9508C164.703 42.4449 164.958 45.0107 164.856 47.5748C164.763 50.1496 164.227 52.689 163.272 55.082C162.628 56.6703 161.776 58.1665 160.739 59.5316C159.704 60.8981 158.475 62.1066 157.091 63.1188C155.629 64.2059 153.923 64.9198 152.122 65.1988C150.418 65.4676 148.637 65.3796 146.693 65.1476C145.397 64.9782 144.08 65.068 142.819 65.4116C141.623 65.7455 140.521 66.3511 139.597 67.1812C138.758 67.9626 138.118 68.9329 137.73 70.0116C137.336 71.0881 137.086 72.212 136.987 73.354C136.951 73.7252 136.899 75.594 136.864 77.3668C136.829 79.1396 136.816 80.8212 136.855 80.8212H131.095C131.095 80.8212 131.043 79.7988 131.037 78.3716C131.018 76.7435 131.087 75.1155 131.243 73.4948C131.383 72.1054 131.637 70.7299 132.005 69.3828C132.496 67.6143 133.239 65.9256 134.211 64.3684C134.838 63.3612 135.597 62.4431 136.469 61.6388C137.339 60.8298 138.344 60.1799 139.439 59.7188C140.696 59.2036 142.023 59.0516 143.365 59.042C144.707 59.0324 146.063 59.1636 147.383 59.2148C148.733 59.2778 150.085 59.1156 151.383 58.7348C152.68 58.3535 153.88 57.6988 154.903 56.8148C158.103 54.0148 158.874 50.0468 158.597 45.9204C158.32 41.794 156.997 37.5076 155.999 34.0804C155.507 32.394 154.957 30.5524 154.343 28.5716C153.728 26.5908 153.048 24.4724 152.301 22.2308L155.237 21.1716L158.179 20.0996C158.94 22.2212 159.68 24.4132 160.4 26.6756C161.12 28.938 161.813 31.2697 162.48 33.6708C162.775 34.7375 163.056 35.794 163.325 36.8404C163.594 37.8868 163.852 38.9236 164.099 39.9508Z" fill="#BAB653"/>
<path d="M158.424 43.9716C158.218 43.0244 158.013 42.0772 157.808 41.13C157.603 40.1828 157.398 39.2377 157.192 38.2948C157.168 38.1972 157.147 38.1188 157.13 38.05L157.083 37.8644C157.048 37.7268 157 37.5444 156.923 37.2756C156.847 37.0068 156.763 36.666 156.626 36.2148C156.079 34.3172 155.586 32.6644 155.229 31.4868C154.872 30.3092 154.653 29.6052 154.653 29.6052C154.333 28.602 153.987 27.4772 153.595 26.2452C153.203 25.0132 152.773 23.6692 152.304 22.2276L155.24 21.1684L158.179 20.0996C158.757 21.6516 159.272 23.0932 159.727 24.3988C160.181 25.7044 160.575 26.8756 160.909 27.8916C160.979 28.1044 161.643 30.1316 162.403 32.8164C163.163 35.5012 164.019 38.8148 164.483 41.5988C164.591 42.2532 164.687 42.946 164.757 43.6884C164.827 44.4308 164.875 45.226 164.883 46.0884C164.883 46.6388 164.883 47.1444 164.859 47.5956C164.835 48.0468 164.811 48.4436 164.783 48.7748L161.607 46.3748L158.424 43.9716Z" fill="#666538"/>
<path d="M186.072 51.3804C185.68 50.7253 185.155 50.16 184.531 49.7212C183.907 49.2824 183.197 48.9798 182.448 48.8332C180.92 48.5389 179.337 48.784 177.97 49.5267C176.603 50.2693 175.536 51.4634 174.95 52.9052C174.514 52.6134 174.048 52.3668 173.562 52.1692C172.646 51.7848 171.662 51.5932 170.669 51.6064C169.676 51.6197 168.697 51.8375 167.792 52.2461C166.887 52.6548 166.076 53.2457 165.41 53.9818C164.744 54.7179 164.237 55.5834 163.92 56.5244C163.85 56.7276 163.789 56.934 163.734 57.142C162.347 56.6332 160.857 56.4653 159.39 56.6524C157.21 56.9164 155.325 57.8796 154.038 59.2236C152.752 60.5676 152.064 62.2892 152.278 64.0748C152.493 65.8604 153.574 67.3676 155.146 68.3628C156.717 69.358 158.778 69.8428 160.958 69.5788C163.139 69.3148 165.024 68.35 166.31 67.006C166.621 66.6827 166.9 66.3307 167.144 65.9548C167.572 66.2374 168.026 66.4774 168.501 66.6716C169.416 67.0562 170.401 67.2479 171.394 67.2347C172.387 67.2215 173.367 67.0036 174.272 66.5947C175.177 66.1859 175.988 65.5948 176.654 64.8584C177.32 64.1219 177.828 63.256 178.144 62.3148C178.381 61.6325 178.523 60.9206 178.565 60.1996C178.67 60.2268 178.776 60.2524 178.885 60.2748C180.486 60.5823 182.144 60.2974 183.55 59.4732C184.957 58.649 186.016 57.3417 186.53 55.7948C186.768 55.0681 186.85 54.2994 186.772 53.5388C186.693 52.7781 186.454 52.0427 186.072 51.3804Z" fill="#BAB653"/>
<path d="M156.776 63.3219C156.73 63.3216 156.685 63.3052 156.65 63.2755C156.613 63.245 156.588 63.2025 156.58 63.1555C156.571 63.1038 156.582 63.0507 156.612 63.0076C156.642 62.9645 156.688 62.9348 156.74 62.9251C158.252 62.6563 159.764 62.3475 161.266 62.0019C162.768 61.6563 164.26 61.2691 165.736 60.8547C169.276 59.8405 172.749 58.6077 176.136 57.1635C179.542 55.7109 182.854 54.0508 186.056 52.1923C186.102 52.1661 186.157 52.1592 186.208 52.1729C186.259 52.1867 186.303 52.2201 186.33 52.2659C186.344 52.2898 186.353 52.3163 186.357 52.3438C186.36 52.3713 186.358 52.3992 186.351 52.4259C186.337 52.4771 186.304 52.5209 186.258 52.5475C183.04 54.4131 179.71 56.0802 176.288 57.5395C172.887 58.9904 169.4 60.2285 165.845 61.2467C164.367 61.6707 162.868 62.0579 161.365 62.4067C159.863 62.7555 158.336 63.0659 156.818 63.3347H156.783L156.776 63.3219Z" fill="#666538"/>
<path d="M141.642 30.1345V30.1425V30.1521C140.327 33.1009 141.176 36.0833 143.093 38.0001C145.01 39.9169 147.992 40.7665 150.941 39.4497C152.099 42.4545 154.819 43.9681 157.525 43.9681C160.231 43.9681 162.946 42.4545 164.099 39.4433H164.109C167.056 40.7601 170.04 39.9089 171.949 37.9937C173.858 36.0785 174.717 33.0945 173.4 30.1457V30.1361V30.1281C176.418 28.9745 177.925 26.2641 177.925 23.5537C177.925 20.8433 176.419 18.1345 173.407 16.9857V16.9777C174.723 14.0289 173.872 11.0465 171.955 9.12967C170.039 7.21287 167.056 6.36327 164.115 7.68007H164.106C162.952 4.66407 160.242 3.15527 157.531 3.15527C154.821 3.15527 152.109 4.66407 150.955 7.68007C148.007 6.36327 145.024 7.21287 143.107 9.12967C141.191 11.0465 140.341 14.0289 141.656 16.9777V16.9857C138.64 18.1393 137.131 20.8497 137.131 23.5617C137.131 26.2737 138.626 28.9825 141.642 30.1345Z" fill="#FF94AC"/>
<path d="M149.922 25.1326C150.2 26.892 151.079 28.5006 152.41 29.6842C153.741 30.8678 155.442 31.5533 157.222 31.6238C159.001 31.6943 160.751 31.1455 162.171 30.0709C163.592 28.9963 164.596 27.4624 165.012 25.7305C165.429 23.9986 165.232 22.1759 164.455 20.573C163.678 18.9701 162.369 17.6861 160.752 16.9398C159.135 16.1935 157.309 16.0311 155.585 16.4802C153.861 16.9294 152.347 17.9623 151.299 19.403C150.704 20.2203 150.275 21.1472 150.039 22.1304C149.803 23.1137 149.763 24.1339 149.922 25.1326Z" fill="#F4ECE5"/>
<path d="M222.296 57.6164C222.101 58.2788 221.574 60.1012 221.08 62.4308C220.586 64.7604 220.128 67.5956 220.067 70.2884C220.051 70.9588 220.035 71.6916 220.067 72.5188C220.097 73.4555 220.184 74.3895 220.328 75.3156C220.448 76.09 220.554 76.554 220.675 77.0836C220.797 77.6132 220.941 78.2036 221.134 79.2516C221.328 80.2996 221.454 81.2116 221.544 82.0212C221.634 82.8308 221.68 83.5172 221.704 84.0468C221.679 84.9503 221.63 85.8777 221.555 86.8292C221.48 87.7807 221.377 88.7513 221.245 89.7412C220.636 94.2409 219.472 98.6478 217.779 102.861C216.393 106.311 214.691 109.625 212.694 112.76H210.4C211.32 110.773 212.432 108.292 213.6 105.474C214.768 102.656 216.009 99.5012 217.176 96.1684C217.632 94.8628 218.11 93.4388 218.497 91.8484C218.927 90.1055 219.185 88.3248 219.269 86.5316C219.325 85.3396 219.298 84.21 219.248 83.2948C219.198 82.3796 219.126 81.6788 219.088 81.3492C218.957 80.1486 218.764 78.9555 218.51 77.7748C218.309 76.8452 218.13 76.2116 218.064 75.962C217.726 74.682 217.528 72.7764 217.744 69.8036C217.96 66.8308 218.571 62.794 219.87 57.25L221.086 57.4324L222.296 57.6164Z" fill="#F4ECE5"/>
<path d="M206.374 84.3477L205.646 84.3685L204.917 84.3877C204.915 84.3879 204.913 84.3877 204.911 84.3871C204.909 84.3864 204.907 84.3854 204.905 84.3841C204.904 84.3827 204.903 84.381 204.902 84.3792C204.901 84.3773 204.901 84.3753 204.901 84.3733C204.9 84.3692 204.9 84.365 204.902 84.3614C204.905 84.3578 204.908 84.3552 204.912 84.3541C205.45 84.1724 205.944 83.8785 206.36 83.4917C206.724 83.1562 206.986 82.7239 207.113 82.2453C207.219 81.7855 207.193 81.3054 207.038 80.8597C206.959 80.6085 206.848 80.3686 206.707 80.1461C206.302 79.5358 205.699 79.0838 205 78.8661C204.222 78.6202 203.39 78.5969 202.6 78.7989C203.357 78.6278 204.033 78.2061 204.52 77.6021C204.954 77.0745 205.199 76.4175 205.218 75.7348C205.236 75.0522 205.027 74.3828 204.622 73.8325C204.253 73.3058 203.722 72.9142 203.109 72.7175C202.497 72.5208 201.837 72.5297 201.23 72.7429C200.58 72.9619 200.009 73.371 199.593 73.9173C199.939 73.2374 200.067 72.4676 199.96 71.7125C199.86 70.9799 199.523 70.3003 199 69.7781C198.459 69.2581 197.765 68.9265 197.021 68.8325C196.296 68.7265 195.557 68.8801 194.934 69.2661C194.561 69.5225 194.245 69.8543 194.008 70.2401C193.771 70.6259 193.617 71.0572 193.557 71.5061C193.402 72.5355 193.648 73.5849 194.243 74.4389C194.248 74.4452 194.251 74.4531 194.251 74.4613C194.251 74.4694 194.248 74.4774 194.243 74.4837C194.237 74.4892 194.229 74.4922 194.221 74.4922C194.212 74.4922 194.204 74.4892 194.198 74.4837C193.89 74.2586 193.541 74.0966 193.17 74.0071C192.799 73.9176 192.414 73.9023 192.037 73.9621C191.676 74.0026 191.329 74.1241 191.022 74.3175C190.715 74.5109 190.456 74.7711 190.263 75.0787C190.071 75.3864 189.95 75.7336 189.911 76.0943C189.871 76.4551 189.914 76.82 190.035 77.1621C190.15 77.5522 190.346 77.9136 190.611 78.2227C190.875 78.5318 191.202 78.7815 191.569 78.9557C191.105 78.8582 190.625 78.8536 190.158 78.942C189.691 79.0304 189.247 79.2102 188.849 79.4709C188.117 79.9509 187.614 80.6821 187.509 81.4517C187.434 82.1606 187.63 82.8714 188.057 83.4421C188.517 84.086 189.178 84.5588 189.936 84.7861L189.187 84.8053L188.438 84.8245C187.947 84.8375 187.464 84.9472 187.015 85.1474C186.566 85.3475 186.162 85.634 185.824 85.9906C185.486 86.3473 185.222 86.767 185.047 87.2258C184.871 87.6846 184.788 88.1735 184.801 88.6645C184.814 89.156 184.923 89.6403 185.123 90.0896C185.323 90.5388 185.61 90.9442 185.967 91.2825C186.323 91.6208 186.744 91.8853 187.203 92.061C187.662 92.2366 188.152 92.3199 188.643 92.3061L191.725 92.2229L194.806 92.1413L195.062 102.306L195.318 112.471H200.958L200.686 102.231L200.414 91.9909L203.496 91.9093L206.577 91.8277C207.069 91.8146 207.552 91.7049 208.001 91.5048C208.449 91.3047 208.854 91.0181 209.192 90.6615C209.53 90.3049 209.794 89.8851 209.969 89.4264C210.145 88.9676 210.228 88.4787 210.214 87.9877C210.201 87.4966 210.092 87.013 209.891 86.5644C209.691 86.1158 209.405 85.7111 209.048 85.3733C208.691 85.0356 208.272 84.7714 207.813 84.596C207.354 84.4205 206.865 84.3372 206.374 84.3509V84.3477Z" fill="#666538"/>
<path d="M205.211 84.4664H201.184C201.144 84.4668 201.105 84.4553 201.072 84.4333C201.038 84.4114 201.012 84.38 200.997 84.3432C200.982 84.3064 200.978 84.2659 200.986 84.2268C200.994 84.1878 201.013 84.152 201.041 84.124C201.079 84.0871 201.131 84.0664 201.184 84.0664H205.211C205.264 84.0664 205.315 84.0875 205.352 84.125C205.39 84.1625 205.411 84.2134 205.411 84.2664C205.411 84.2926 205.406 84.3186 205.395 84.3427C205.385 84.3669 205.37 84.3888 205.352 84.4072C205.333 84.426 205.311 84.441 205.287 84.4512C205.263 84.4613 205.237 84.4665 205.211 84.4664Z" fill="#2B3D0A"/>
<path d="M200.409 91.9863H197.406C197.927 92.6839 198.446 93.3821 198.963 94.0807C199.48 94.7794 199.999 95.4775 200.52 96.1751C200.503 95.4775 200.485 94.7794 200.465 94.0807C200.446 93.3821 200.428 92.6839 200.409 91.9863Z" fill="#353519"/>
<path d="M192.448 78.9977H191.155C191.115 78.9982 191.076 78.9868 191.043 78.9649C191.01 78.9431 190.984 78.9118 190.969 78.875C190.954 78.8383 190.95 78.7979 190.958 78.759C190.966 78.7201 190.986 78.6845 191.014 78.6569C191.032 78.638 191.054 78.623 191.078 78.6128C191.103 78.6026 191.129 78.5975 191.155 78.5977H192.448C192.487 78.5976 192.526 78.6093 192.559 78.6314C192.592 78.6535 192.618 78.6849 192.633 78.7216C192.648 78.7583 192.652 78.7987 192.644 78.8376C192.636 78.8765 192.617 78.9122 192.589 78.9401C192.551 78.9768 192.5 78.9974 192.448 78.9977Z" fill="#2B3D0A"/>
<path d="M199.329 74.5114C199.31 74.5138 199.29 74.5138 199.27 74.5114C199.25 74.505 199.231 74.4953 199.214 74.4826C199.192 74.4678 199.174 74.4487 199.16 74.4263C199.146 74.404 199.137 74.379 199.133 74.353C199.128 74.3272 199.128 74.3007 199.134 74.2751C199.14 74.2496 199.151 74.2254 199.166 74.2042L199.373 73.913L199.579 73.6202C199.594 73.5987 199.613 73.5805 199.636 73.5665C199.658 73.5526 199.683 73.5431 199.709 73.5388C199.734 73.5345 199.761 73.5354 199.786 73.5414C199.812 73.5474 199.836 73.5584 199.857 73.5738C199.879 73.5885 199.897 73.6075 199.911 73.6294C199.925 73.6514 199.935 73.676 199.939 73.7018C199.948 73.7544 199.936 73.8084 199.905 73.8522L199.699 74.1434L199.493 74.4346C199.474 74.462 199.449 74.4841 199.419 74.4986C199.391 74.5099 199.36 74.5143 199.329 74.5114Z" fill="#2B3D0A"/>
<path d="M123.147 46.7281L122.042 46.7569L120.936 46.7857C120.933 46.7862 120.93 46.786 120.927 46.7852C120.924 46.7843 120.921 46.7829 120.919 46.781C120.916 46.779 120.914 46.7766 120.913 46.7738C120.911 46.771 120.911 46.768 120.91 46.7649C120.909 46.7588 120.911 46.7525 120.914 46.7472C120.917 46.7419 120.922 46.738 120.928 46.7361C121.745 46.4603 122.495 46.0136 123.126 45.4257C123.68 44.9178 124.076 44.2621 124.269 43.5361C124.428 42.8381 124.39 42.1093 124.157 41.4321C124.035 41.0542 123.866 40.6931 123.654 40.3569C123.037 39.4324 122.121 38.7483 121.059 38.4193C119.875 38.0436 118.61 38.0082 117.406 38.3169C118.552 38.0556 119.576 37.4152 120.312 36.4993C120.971 35.699 121.344 34.7021 121.373 33.666C121.402 32.6299 121.085 31.6136 120.472 30.7777C119.911 29.9787 119.105 29.3846 118.175 29.086C117.246 28.7874 116.244 28.8005 115.323 29.1233C114.335 29.4564 113.47 30.0778 112.838 30.9073C113.362 29.8749 113.557 28.7066 113.395 27.5601C113.244 26.4489 112.733 25.418 111.939 24.6257C111.12 23.8343 110.066 23.3292 108.936 23.1857C107.844 23.0269 106.73 23.2568 105.79 23.8353C104.67 24.5521 103.926 25.8081 103.701 27.2369C103.464 28.796 103.832 30.3865 104.73 31.6833C104.738 31.6925 104.743 31.7045 104.743 31.7169C104.743 31.7294 104.738 31.7414 104.73 31.7505C104.72 31.7583 104.708 31.7626 104.696 31.7626C104.684 31.7626 104.672 31.7583 104.662 31.7505C104.195 31.4071 103.665 31.1596 103.102 31.0223C102.538 30.885 101.953 30.8606 101.381 30.9505C100.853 31.0232 100.346 31.2043 99.8917 31.4824C99.4374 31.7605 99.0455 32.1296 98.7408 32.5665C98.1344 33.4881 98.0112 34.6881 98.3424 35.8033C98.5176 36.3952 98.8159 36.9435 99.2176 37.4122C99.6193 37.8809 100.115 38.2596 100.674 38.5233C99.9691 38.3766 99.2426 38.3702 98.5357 38.5044C97.8288 38.6387 97.1552 38.911 96.5536 39.3057C95.4288 40.0545 94.6592 41.1649 94.4992 42.3329C94.3616 43.3489 94.6784 44.4337 95.3328 45.3537C96.0325 46.3321 97.0387 47.0489 98.192 47.3905L97.0592 47.4145L95.9232 47.4449C95.1784 47.4646 94.4447 47.6309 93.7642 47.9342C93.0837 48.2375 92.4696 48.6719 91.9569 49.2126C91.4443 49.7533 91.0433 50.3896 90.7767 51.0854C90.5101 51.7811 90.3832 52.5225 90.4032 53.2673C90.4438 54.771 91.0797 56.197 92.1711 57.232C93.2626 58.2671 94.7203 58.8265 96.224 58.7873L100.902 58.6625L105.581 58.5377C105.819 76.3681 106.003 89.9841 106.126 99.1441C106.25 108.304 106.314 113.015 106.314 113.015H108.525H114.947C114.81 107.051 114.666 96.3585 114.52 85.6657C114.374 74.9729 114.232 64.2785 114.094 58.3153L118.771 58.1905L123.45 58.0657C124.194 58.0459 124.928 57.8796 125.608 57.5762C126.288 57.2729 126.902 56.8386 127.415 56.298C127.927 55.7574 128.328 55.1212 128.595 54.4256C128.862 53.7301 128.989 52.9888 128.969 52.2441C128.949 51.4995 128.783 50.766 128.479 50.0857C128.176 49.4053 127.742 48.7913 127.201 48.2788C126.66 47.7663 126.024 47.3653 125.329 47.0987C124.633 46.8321 123.892 46.7051 123.147 46.7249V46.7281Z" fill="#666538"/>
<path d="M102.299 38.5856H100.339C100.286 38.5856 100.236 38.5645 100.198 38.527C100.161 38.4895 100.139 38.4386 100.139 38.3856C100.139 38.3592 100.144 38.333 100.154 38.3085C100.164 38.2841 100.178 38.2618 100.197 38.2432C100.216 38.2245 100.238 38.2098 100.262 38.1999C100.287 38.19 100.313 38.1851 100.339 38.1856H102.299C102.326 38.1851 102.352 38.19 102.376 38.1999C102.401 38.2098 102.423 38.2245 102.442 38.2432C102.46 38.2618 102.475 38.2841 102.485 38.3085C102.495 38.333 102.5 38.3592 102.499 38.3856C102.499 38.4386 102.478 38.4895 102.441 38.527C102.403 38.5645 102.352 38.5856 102.299 38.5856Z" fill="#2B3D0A"/>
<path d="M121.299 46.8893H115.186C115.159 46.8895 115.133 46.8843 115.109 46.8741C115.085 46.864 115.063 46.849 115.045 46.8301C115.026 46.8118 115.011 46.7899 115.001 46.7657C114.991 46.7415 114.985 46.7155 114.986 46.6893C114.986 46.6362 115.007 46.5853 115.044 46.5478C115.082 46.5103 115.133 46.4893 115.186 46.4893H121.299C121.352 46.4893 121.403 46.5103 121.441 46.5478C121.478 46.5853 121.499 46.6362 121.499 46.6893C121.499 46.7155 121.494 46.7415 121.484 46.7657C121.474 46.7899 121.459 46.8118 121.44 46.8301C121.422 46.849 121.4 46.864 121.376 46.8741C121.351 46.8843 121.325 46.8895 121.299 46.8893Z" fill="#2B3D0A"/>
<path d="M231.363 77.6719H234.171C233.717 78.1519 233.194 78.7343 232.637 79.4191C232.08 80.1039 231.485 80.8895 230.89 81.7791C230.459 82.4191 229.918 83.2383 229.371 84.2223C228.75 85.3283 228.227 86.4869 227.81 87.6847C227.284 89.199 226.946 90.7716 226.802 92.3679C226.694 93.6743 226.661 94.9858 226.704 96.2959C226.722 97.8592 226.883 99.4177 227.184 100.952C227.475 102.384 227.631 103.841 227.653 105.302C227.672 106.773 227.573 108.243 227.357 109.697C227.194 110.799 226.967 111.89 226.675 112.965H224C224.38 111.833 224.68 110.675 224.898 109.501C225.182 107.958 225.313 106.392 225.288 104.824C225.265 103.448 225.1 102.078 224.795 100.736C224.472 99.2346 224.297 97.705 224.275 96.1695C224.232 94.9128 224.262 93.6546 224.366 92.4015C224.517 90.7168 224.861 89.0552 225.392 87.4495C225.786 86.2661 226.274 85.1163 226.851 84.0111C227.342 83.0703 227.797 82.3455 228.101 81.8655C228.626 81.0362 229.194 80.235 229.803 79.4655C230.357 78.7727 230.888 78.1743 231.363 77.6719Z" fill="#F4ECE5"/>
<path d="M236.882 83.0124L231.775 79.5948L226.666 76.1772C226.626 76.1497 226.596 76.1113 226.578 76.0667C226.559 76.0222 226.554 75.9733 226.563 75.926C226.571 75.875 226.592 75.8267 226.622 75.7852C226.653 75.7437 226.693 75.7102 226.739 75.6876L229.333 74.4476L231.925 73.2076C232.522 72.9162 233.181 72.7771 233.845 72.8028C234.479 72.8282 235.093 73.0275 235.621 73.3788C236.106 73.7048 236.501 74.1492 236.767 74.67C237.045 75.2152 237.192 75.8179 237.197 76.43L237.248 79.5868L237.298 82.742C237.298 82.7953 237.285 82.8477 237.26 82.8947C237.235 82.9416 237.198 82.9815 237.154 83.0108C237.113 83.0372 237.066 83.0513 237.018 83.0516C236.97 83.0519 236.923 83.0383 236.882 83.0124Z" fill="#F98638"/>
<path d="M83.588 78.19C83.2869 79.474 83.16 80.7952 83.2109 82.1155C83.2594 83.439 83.5274 84.7441 84.0031 85.9736C84.3269 86.7902 84.7531 87.559 85.2707 88.2603C85.7852 88.9623 86.3952 89.5833 87.0818 90.1041C87.8082 90.6618 88.655 91.0278 89.5489 91.1703C90.4436 91.2898 91.35 91.281 92.2425 91.1441C92.8851 91.0576 93.5379 91.1045 94.1629 91.2819C94.7564 91.4531 95.3036 91.7641 95.7616 92.1907C96.1781 92.5923 96.4959 93.0912 96.6886 93.6457C96.8846 94.1987 97.0087 94.7763 97.0578 95.3632C97.0752 95.5534 97.1021 96.5114 97.118 97.4251C97.1338 98.3388 97.1433 99.2 97.118 99.2H99.9701C99.9701 99.2 99.9954 98.6751 99.9986 97.9418C100.008 97.1039 99.9726 96.2661 99.894 95.432C99.825 94.7182 99.6989 94.0115 99.5169 93.3192C99.272 92.4105 98.9028 91.5427 98.4204 90.7422C98.1101 90.2243 97.7333 89.7525 97.3002 89.3397C96.8683 88.925 96.3696 88.5919 95.8266 88.3555C95.2047 88.1104 94.5429 87.9923 93.8777 88.0077C93.2122 88.0077 92.5388 88.07 91.8828 88.0963C91.2117 88.1265 90.5403 88.0417 89.8959 87.8453C89.2538 87.6494 88.6596 87.3138 88.1529 86.8611C86.5684 85.4241 86.1818 83.3835 86.3181 81.2641C86.4543 79.1447 87.1103 76.9401 87.6094 75.1783C87.8513 74.3111 88.1254 73.3673 88.4318 72.347C88.736 71.33 89.0735 70.2408 89.4443 69.0892L87.9865 68.5446L86.5288 68C86.1517 69.0936 85.782 70.22 85.4197 71.3792C85.0573 72.5384 84.7135 73.7364 84.3882 74.9733C84.2424 75.52 84.1024 76.063 83.9683 76.6021C83.8341 77.1413 83.7074 77.6706 83.588 78.19Z" fill="#BAB653"/>
<path d="M86.44 79.9664C86.5466 79.4917 86.6496 79.0165 86.7488 78.5408C86.8512 78.0608 86.9552 77.5904 87.0576 77.1152C87.0704 77.0672 87.08 77.0272 87.0896 76.9936C87.0992 76.96 87.1056 76.9296 87.112 76.9008C87.1296 76.8304 87.1536 76.7408 87.1904 76.6048C87.2272 76.4688 87.2752 76.2992 87.3392 76.0736C87.6128 75.1136 87.8608 74.2944 88.04 73.704C88.2192 73.1136 88.328 72.76 88.328 72.76C88.488 72.2576 88.6624 71.6944 88.8592 71.0752C89.056 70.456 89.2704 69.784 89.4992 69.0624L88.0272 68.5312L86.5552 68C86.2672 68.7776 86.008 69.5008 85.7808 70.1552C85.5536 70.8096 85.3552 71.3968 85.1872 71.9056C85.152 72.0128 84.8192 73.0256 84.4384 74.3744C84.0146 75.8222 83.6679 77.2915 83.4 78.776C83.3472 79.096 83.2992 79.4512 83.2624 79.824C83.2256 80.1968 83.2032 80.5952 83.2 81.024C83.2 81.2992 83.2 81.5536 83.2128 81.7792C83.2256 82.0048 83.2352 82.2048 83.2496 82.3696L84.8416 81.168L86.44 79.9664Z" fill="#666538"/>
<path d="M88.4705 87.3659C87.7511 86.6412 86.8043 86.1859 85.7889 86.0763C85.0563 85.9852 84.3125 86.0702 83.6193 86.3243C83.5921 86.2187 83.5617 86.1147 83.5265 86.0043C83.3676 85.5327 83.1133 85.0989 82.7793 84.7299C82.4453 84.3609 82.0388 84.0648 81.5853 83.8599C81.1318 83.6549 80.6409 83.5457 80.1432 83.5389C79.6456 83.5321 79.1519 83.6279 78.6929 83.8203C78.4487 83.9213 78.215 84.0462 77.9953 84.1931C77.7041 83.469 77.1699 82.8689 76.4843 82.4957C75.7988 82.1226 75.0048 81.9998 74.2385 82.1483C73.8621 82.2193 73.5053 82.37 73.192 82.5904C72.8787 82.8108 72.6163 83.0958 72.4224 83.4261C72.2285 83.7565 72.1076 84.1245 72.0679 84.5055C72.0282 84.8864 72.0706 85.2715 72.1921 85.6347C72.449 86.4109 72.9794 87.0672 73.6845 87.4811C74.3896 87.8951 75.2212 88.0384 76.0241 87.8843C76.0785 87.8731 76.1313 87.8571 76.1841 87.8427C76.206 88.2055 76.2776 88.5635 76.3969 88.9067C76.5548 89.378 76.808 89.8117 77.1407 90.1808C77.4735 90.5499 77.8787 90.8465 78.3311 91.0521C78.7836 91.2578 79.2735 91.368 79.7704 91.3761C80.2673 91.3841 80.7605 91.2897 81.2193 91.0987C81.4577 91.0011 81.6859 90.8806 81.9009 90.7387C82.0228 90.9278 82.1627 91.1046 82.3185 91.2667C83.0476 91.9796 83.9911 92.4326 85.0033 92.5555C86.0156 92.6784 87.0401 92.4645 87.9185 91.9467C88.7057 91.4475 89.2481 90.6907 89.3585 89.7963C89.4689 88.9019 89.1153 88.0379 88.4705 87.3659Z" fill="#BAB653"/>
<path d="M87.0977 89.518H87.0817H87.0641C86.3009 89.3836 85.5377 89.2283 84.7793 89.0523C84.0209 88.8763 83.2673 88.6827 82.5249 88.4699C80.739 87.9591 78.9868 87.3371 77.2785 86.6076C75.5596 85.8722 73.8872 85.0328 72.2705 84.094C72.2247 84.0673 72.1913 84.0236 72.1777 83.9723C72.1679 83.9341 72.1695 83.8937 72.1825 83.8564C72.1954 83.8191 72.219 83.7863 72.2504 83.7623C72.2817 83.7383 72.3195 83.724 72.3589 83.7212C72.3983 83.7184 72.4377 83.7273 72.4721 83.7468C75.6687 85.6035 79.0823 87.0588 82.6353 88.0795C83.3713 88.2907 84.1185 88.4828 84.8753 88.6572C85.6321 88.8316 86.3841 88.9852 87.1393 89.118C87.1916 89.1279 87.238 89.1577 87.2689 89.2011C87.2988 89.2446 87.3103 89.2981 87.3009 89.3499C87.2916 89.3953 87.267 89.436 87.2311 89.4651C87.1952 89.4943 87.1503 89.5101 87.1041 89.5099L87.0977 89.518Z" fill="#666538"/>
<path d="M96.9791 59.3708C101.472 56.286 102.84 53.542 102.062 52.4188C101.285 51.2956 98.3599 51.79 94.2671 55.182C96.7055 50.2524 96.4159 47.2556 95.0223 46.918C93.6287 46.5804 91.1327 48.9036 89.1615 54.614C88.8415 48.51 87.0415 45.5916 85.6015 45.5996C84.1615 45.6076 83.0735 48.5404 84.1711 54.1404C81.0847 49.6476 78.3391 48.2796 77.2191 49.054C76.0991 49.8284 76.5903 52.7564 79.9823 56.8476C75.0527 54.4092 72.0559 54.7004 71.7183 56.094C71.3807 57.4876 73.7039 59.982 79.4143 61.9532C73.3103 62.2732 70.3919 64.0732 70.3999 65.5148C70.4079 66.9564 73.3407 68.0412 78.9407 66.9452C74.4495 70.03 73.0815 72.774 73.8591 73.8988C74.6367 75.0236 77.5615 74.526 81.6527 71.134C79.2143 76.0636 79.5055 79.062 80.8991 79.398C82.2927 79.734 84.7871 77.4124 86.7599 71.702C87.0799 77.806 88.8783 80.7244 90.3199 80.718C91.7615 80.7116 92.8463 77.7756 91.7503 72.1756C94.8367 76.6684 97.5791 78.0364 98.7039 77.2572C99.8287 76.478 99.3327 73.5564 95.9407 69.4636C100.87 71.902 103.867 71.6108 104.205 70.2188C104.542 68.8268 102.218 66.334 96.5055 64.3628C102.611 64.0428 105.53 62.2428 105.522 60.8012C105.514 59.3596 102.579 58.2748 96.9791 59.3708Z" fill="#F98638"/>
<path d="M91.4595 63.9089C91.3073 64.8164 90.8452 65.6431 90.1519 66.2481C89.4585 66.8531 88.5769 67.1989 87.6572 67.2268C86.7374 67.2547 85.8365 66.9628 85.1078 66.4009C84.3791 65.839 83.8678 65.0419 83.6609 64.1453C83.454 63.2487 83.5644 62.3081 83.9733 61.4837C84.3821 60.6594 85.0641 60.0023 85.9031 59.6244C86.7421 59.2465 87.6861 59.1711 88.5744 59.4112C89.4627 59.6513 90.2403 60.1919 90.7747 60.9409C91.0792 61.3659 91.2965 61.847 91.414 62.3564C91.5316 62.8659 91.547 63.3935 91.4595 63.9089Z" fill="#FF94AC"/>
<path d="M187.263 125.068H132.578H77.8914V119.04V113.011H132.578H187.263V119.04V125.068Z" fill="#666538"/>
<path d="M61.2848 82.0446L56.4576 97.5342L51.6304 113.024H71.2432L66.416 97.5342L61.5872 82.0446C61.5771 82.0125 61.5571 81.9844 61.5301 81.9643C61.5031 81.9442 61.4704 81.9331 61.4368 81.9326C61.4028 81.9328 61.3698 81.9437 61.3425 81.9638C61.3152 81.9839 61.295 82.0122 61.2848 82.0446Z" fill="#666538"/>
<path d="M57.293 113.015C58.781 110.571 59.2402 107.975 58.8546 105.674C58.469 103.373 57.2434 101.368 55.3554 100.107C53.9192 99.1835 52.2827 98.6168 50.5826 98.4547C48.7522 98.2771 46.813 98.5699 45.1426 99.6355C43.7964 100.495 42.7786 101.783 42.253 103.291C41.9645 104.081 41.8025 104.912 41.773 105.752C41.2534 105.652 40.7223 105.626 40.1954 105.675C39.2051 105.742 38.2676 106.147 37.5394 106.821C36.7681 107.581 36.3024 108.598 36.2306 109.679C36.1439 110.855 36.4464 112.027 37.0914 113.015H57.293Z" fill="#BAB653"/>
<path d="M183.213 113.014C182.265 112.527 181.526 111.713 181.133 110.723C180.757 109.81 180.752 108.786 181.122 107.87C181.423 107.173 181.933 106.586 182.581 106.19C183.261 105.769 184.045 105.544 184.845 105.539C184.556 104.796 184.37 104.018 184.291 103.225C184.165 101.96 184.291 100.379 185.285 99.0172C186.363 97.5324 188.165 96.7084 189.987 96.598C191.81 96.4876 193.667 97.078 194.866 98.446C195.939 99.6684 196.203 101.188 196.192 102.43C196.185 103.212 196.073 103.989 195.858 104.74C197.136 103.916 198.682 103.613 200.178 103.894C200.879 104.019 201.549 104.281 202.149 104.666C202.75 105.05 203.268 105.549 203.675 106.134C204.344 107.14 204.664 108.337 204.587 109.542C204.514 110.807 204.054 112.019 203.269 113.014H183.213Z" fill="#BAB653"/>
<path d="M131.746 37.8911C124.686 50.4116 117.628 62.9316 110.57 75.4511L89.3921 113.014H108.086C108.805 111.792 109.779 110.083 110.888 107.968C111.997 105.853 113.24 103.328 114.496 100.47C119.718 88.5644 124.043 76.2849 127.434 63.7343C130.128 53.7455 131.392 46.5919 131.792 44.0127C131.795 43.9867 131.808 43.9628 131.827 43.9455C131.847 43.9281 131.872 43.9185 131.898 43.9185C131.925 43.9185 131.95 43.9281 131.97 43.9455C131.989 43.9628 132.002 43.9867 132.005 44.0127C132.613 49.5055 133.373 54.5327 134.184 59.0399C134.995 63.5471 135.856 67.5311 136.664 70.9343C139.4 82.4447 143.115 91.6639 146.478 98.4015C149.842 105.139 152.854 109.397 154.189 110.982C154.558 111.421 154.899 111.816 155.2 112.155C155.501 112.494 155.757 112.781 155.96 113.003H165.47H174.982L153.661 75.4575L132.339 37.8911C132.31 37.8385 132.266 37.7947 132.214 37.7643C132.162 37.7338 132.103 37.7178 132.042 37.7178C131.982 37.7178 131.923 37.7338 131.871 37.7643C131.818 37.7947 131.775 37.8385 131.746 37.8911Z" fill="#F4ECE5"/>
<path d="M116.307 115.449L117.107 118.254L117.907 121.059C117.907 121.253 117.86 121.444 117.77 121.616C117.679 121.785 117.548 121.931 117.389 122.038L115.459 123.332L113.522 124.628C113.479 124.657 113.446 124.698 113.429 124.747C113.411 124.795 113.41 124.848 113.426 124.897C113.439 124.947 113.469 124.99 113.51 125.021C113.55 125.052 113.6 125.069 113.651 125.068H126.744C126.863 125.069 126.981 125.045 127.091 124.999C127.201 124.953 127.301 124.885 127.384 124.8C127.552 124.629 127.647 124.399 127.648 124.16L126.848 119.808L126.048 115.457H116.307V115.449Z" fill="#F98638"/>
<path d="M171.76 112.855C171.745 112.856 171.729 112.856 171.714 112.855C171.698 112.851 171.683 112.846 171.669 112.839C170.181 112.08 168.724 111.266 167.298 110.395C165.872 109.525 164.485 108.605 163.138 107.637C154.15 101.146 147.749 92.9857 143.187 84.6721C138.626 76.3585 135.915 67.8785 134.294 60.7745C134.288 60.7475 134.287 60.7194 134.291 60.6919C134.295 60.6644 134.305 60.6381 134.32 60.6145C134.341 60.5809 134.372 60.5542 134.408 60.538C134.444 60.5218 134.484 60.5167 134.523 60.5234C134.563 60.5301 134.599 60.5482 134.628 60.5756C134.656 60.6029 134.676 60.6382 134.685 60.6769C136.298 67.7473 139.005 76.1745 143.541 84.4481C148.077 92.7217 154.443 100.855 163.379 107.301C164.713 108.261 166.088 109.175 167.506 110.043C168.92 110.906 170.373 111.717 171.85 112.471C171.873 112.482 171.894 112.498 171.911 112.518C171.928 112.538 171.941 112.561 171.949 112.586C171.958 112.612 171.962 112.639 171.96 112.667C171.958 112.694 171.951 112.721 171.938 112.746C171.921 112.779 171.895 112.807 171.862 112.826C171.832 112.845 171.796 112.855 171.76 112.855Z" fill="#F98638"/>
<path d="M92.653 113.044C92.6135 113.044 92.575 113.032 92.542 113.01C92.5091 112.988 92.4832 112.957 92.4674 112.921C92.4562 112.896 92.4504 112.869 92.4504 112.841C92.4504 112.814 92.4562 112.786 92.4674 112.761C92.4879 112.712 92.527 112.673 92.5762 112.652C94.1878 111.99 95.7571 111.23 97.2754 110.376C98.7816 109.533 100.234 108.597 101.624 107.574C102.744 106.744 104.792 105.227 107.744 101.51C110.696 97.7932 114.552 91.878 119.288 82.2492C120.991 78.79 122.6 75.2444 124.107 71.6396C125.615 68.0348 127.021 64.3692 128.314 60.67C128.331 60.6205 128.368 60.5797 128.415 60.5564C128.439 60.5439 128.466 60.5368 128.494 60.5354C128.521 60.534 128.549 60.5385 128.575 60.5484C128.599 60.5566 128.622 60.5698 128.642 60.5871C128.661 60.6044 128.677 60.6256 128.688 60.6492C128.701 60.6738 128.708 60.7007 128.709 60.7282C128.711 60.7557 128.707 60.7833 128.698 60.8092C127.402 64.5164 125.994 68.1884 124.483 71.7996C122.973 75.4108 121.359 78.9644 119.653 82.4332C115.437 91.0044 111.954 96.6588 109.043 100.526C106.133 104.393 103.787 106.454 101.859 107.894C100.457 108.932 98.9911 109.881 97.4706 110.737C95.9375 111.599 94.3533 112.367 92.7266 113.036L92.6882 113.048L92.653 113.044Z" fill="#F98638"/>
<path d="M136.664 71.0191C135.864 67.6079 134.995 63.6143 134.184 59.0959C133.373 54.5775 132.613 49.5391 132.006 44.0351C132.003 44.0087 131.99 43.9844 131.971 43.9668C131.951 43.9492 131.925 43.9395 131.898 43.9395C131.872 43.9395 131.846 43.9492 131.826 43.9668C131.806 43.9844 131.794 44.0087 131.79 44.0351C130.389 53.0966 128.395 62.0566 125.822 70.8575C122.836 81.0618 119.05 91.0148 114.499 100.624C113.465 102.804 112.411 104.925 111.339 106.985C110.267 109.046 109.183 111.056 108.086 113.014H155.909C155.65 112.749 155.374 112.462 155.086 112.157C154.798 111.851 154.499 111.526 154.189 111.182C152.232 109.008 149.413 105.555 146.301 99.3503C143.189 93.1455 139.787 84.1903 136.664 71.0191Z" fill="#353519"/>
<path d="M134.272 65.8147C134.571 65.6275 134.887 65.4163 135.213 65.1747C135.539 64.9331 135.877 64.6675 136.218 64.3747C136.669 63.9811 137.096 63.5611 137.498 63.1171C137.869 62.7059 138.186 62.3171 138.458 61.9443L139.352 65.6547C139.651 66.8931 139.95 68.1315 140.248 69.3699L137.261 67.5907L134.272 65.8147Z" fill="#FF94AC"/>
<path d="M125.89 68.726C126.283 68.6908 126.707 68.6396 127.157 68.566C127.607 68.4924 128.08 68.406 128.576 68.2812C129.072 68.1564 129.578 68.0172 130.027 67.8684C130.477 67.7196 130.89 67.5644 131.267 67.4092C131.079 68.6625 130.889 69.9148 130.699 71.166C130.51 72.4172 130.32 73.6689 130.13 74.9212L128.01 71.822L125.89 68.726Z" fill="#F4ECE5"/>
<path d="M116.779 67.2012C117.162 67.3468 117.565 67.4908 117.99 67.6284C118.416 67.766 118.866 67.9004 119.334 68.0252C119.854 68.1628 120.357 68.2796 120.84 68.3788C121.323 68.478 121.784 68.5564 122.224 68.622L120.077 71.4492L117.931 74.278L117.355 70.7404L116.779 67.2012Z" fill="#F98638"/>
<path d="M124.551 51.7344L124.296 55.6128C124.21 56.9056 124.125 58.1984 124.04 59.4912L126.659 56.864L129.275 54.2352C128.795 54.0592 128.291 53.8528 127.762 53.608C127.232 53.3632 126.682 53.0784 126.119 52.7504C125.832 52.5818 125.558 52.4133 125.298 52.2448C125.038 52.0762 124.789 51.9061 124.551 51.7344Z" fill="#FF94AC"/>
<path d="M132.802 55.2207C133.157 56.3546 133.513 57.489 133.87 58.6239C134.228 59.7588 134.584 60.8927 134.939 62.0255L136.403 58.7999L137.867 55.5743C137.482 55.5887 137.067 55.5967 136.643 55.5903C136.219 55.5839 135.766 55.5679 135.298 55.5343C134.829 55.5007 134.403 55.4575 133.987 55.4047C133.571 55.3519 133.174 55.2879 132.802 55.2207Z" fill="#F98638"/>
<path d="M174.979 113.028L173.327 113.015H171.671V104.626H174.979V113.028Z" fill="#AD4D4D"/>
<path d="M92.7154 113.011H91.0594H89.405V108.915V104.817H91.0594H92.7154V108.915V113.011Z" fill="#AD4D4D"/>
<path d="M124.456 68.9729C122.457 68.9675 120.47 68.6579 118.565 68.0545C117.487 67.7217 116.443 67.2894 115.446 66.7633C115.4 66.7378 115.365 66.6949 115.35 66.6439C115.335 66.5928 115.341 66.538 115.366 66.4913C115.392 66.4446 115.435 66.41 115.486 66.395C115.537 66.38 115.592 66.3858 115.638 66.4113C117.327 67.2748 119.135 67.8825 121.003 68.2145C123.929 68.7569 127.747 68.7953 131.723 66.9937C134.754 65.6153 137.335 63.4091 139.168 60.6289C140.285 58.9625 141.137 57.1334 141.694 55.2065C139.293 55.7637 136.815 55.9119 134.365 55.6449C132.519 55.4407 130.708 54.9987 128.976 54.3297C127.708 53.842 126.49 53.2322 125.339 52.5089C124.869 52.2193 124.419 51.8986 123.992 51.5489C123.952 51.5141 123.927 51.4655 123.921 51.4129C123.918 51.36 123.935 51.3079 123.969 51.2673C123.986 51.2471 124.007 51.2304 124.03 51.2183C124.054 51.2062 124.079 51.1989 124.105 51.1969C124.132 51.1948 124.158 51.198 124.183 51.2063C124.208 51.2145 124.231 51.2276 124.251 51.2449C124.288 51.2753 126.097 52.7873 129.201 53.9745C133.263 55.5316 137.705 55.7998 141.925 54.7425L142.085 54.7025L142.245 54.6641L142.205 54.8241L142.165 54.9841C141.654 56.9005 140.854 58.7276 139.79 60.4017C138.18 63.0212 135.926 65.1843 133.242 66.6843C130.558 68.1843 127.534 68.9711 124.459 68.9697L124.456 68.9729Z" fill="#666538"/>
<path d="M146.853 90.4656C146.755 89.9475 146.619 89.4373 146.445 88.9392C146.175 88.1755 145.803 87.4516 145.339 86.7872C145.263 86.6784 145.179 86.568 145.101 86.4672C145.023 86.3664 144.93 86.2496 144.84 86.1472C144.234 85.4504 143.528 84.848 142.744 84.36C141.772 83.7442 140.714 83.2777 139.603 82.976C139.365 82.912 139.152 82.8672 138.984 82.8368C138.816 82.8064 138.696 82.7904 138.642 82.7824C138.094 82.7004 137.539 82.6726 136.986 82.6992C136.496 82.7216 136.059 82.7792 135.642 82.8272C135.301 82.8688 134.698 82.9392 133.947 83.0048C133.197 83.0704 132.295 83.1296 131.355 83.1488C131.064 83.1488 130.699 83.1568 130.235 83.1664C129.771 83.176 129.223 83.1936 128.554 83.2256C128.167 83.2396 127.782 83.2733 127.399 83.3264C127.04 83.3808 126.689 83.4786 126.354 83.6176C126.087 83.7283 125.83 83.8605 125.584 84.0128C125.375 84.1424 125.215 84.2592 125.115 84.3328C125.115 84.3328 124.955 84.448 124.73 84.6528C124.44 84.9068 124.169 85.1822 123.92 85.4768C123.721 85.7186 123.541 85.9754 123.381 86.2448C123.213 86.5248 123.061 86.8224 122.914 87.1248C122.556 87.8806 122.272 88.6694 122.067 89.48C121.863 90.2918 121.731 91.1201 121.672 91.9552L121.527 94.0352L121.379 96.1152L124.563 98.0352L127.746 99.9472L134.48 99.5408L141.219 99.104C141.283 99.6864 141.354 100.277 141.431 100.875C141.507 101.474 141.592 102.079 141.683 102.691C141.853 103.83 142.039 104.94 142.24 106.019C142.442 107.099 142.655 108.148 142.88 109.166L146.528 108.582L150.179 108C149.712 106.682 149.314 105.341 148.989 103.981C148.704 102.787 148.519 101.75 148.391 100.904C148.231 99.8592 148.003 98.0112 147.735 96.0448C147.466 94.0784 147.155 91.9904 146.853 90.4656Z" fill="#FF94AC"/>
<path d="M123.227 115.449L124.014 118.254L124.8 121.059C124.8 121.252 124.754 121.443 124.666 121.616C124.578 121.785 124.45 121.93 124.293 122.038L122.402 123.332L120.51 124.628C120.468 124.657 120.437 124.699 120.42 124.748C120.403 124.796 120.402 124.848 120.418 124.897C120.43 124.946 120.458 124.989 120.498 125.02C120.538 125.051 120.586 125.068 120.637 125.068H133.416C133.533 125.068 133.648 125.044 133.755 124.998C133.862 124.952 133.958 124.884 134.038 124.8C134.202 124.627 134.295 124.398 134.296 124.16L133.51 119.808L132.725 115.457H123.227V115.449Z" fill="#F98638"/>
<path d="M154.731 116.386C154.731 116.386 154.375 116.136 153.931 115.826C153.488 115.515 152.971 115.146 152.661 114.906C152.611 114.881 152.564 114.852 152.52 114.818C152.474 114.782 152.432 114.741 152.395 114.696L152.499 114.781L152.659 114.906C152.781 114.966 152.918 114.991 153.053 114.978C153.177 114.967 153.294 114.914 153.384 114.829C153.429 114.787 153.465 114.737 153.491 114.682C153.561 114.535 153.574 114.367 153.527 114.211C153.497 114.117 153.45 114.029 153.389 113.952C153.29 113.827 153.189 113.701 153.09 113.571L152.797 113.175C152.739 113.099 152.637 112.957 152.503 112.779C152.368 112.602 152.221 112.394 152.075 112.183C152.075 112.183 151.927 111.968 151.711 111.632C151.495 111.296 151.213 110.832 150.941 110.338C150.787 110.034 150.66 109.718 150.562 109.392C150.432 108.995 150.303 108.523 150.171 107.997L146.525 108.579L142.877 109.175C143.013 110.167 143.127 110.987 143.216 111.6C143.306 112.213 143.376 112.616 143.405 112.773C143.434 112.93 143.471 113.059 143.498 113.165C143.525 113.271 143.544 113.339 143.544 113.339C143.704 113.938 143.932 114.515 144.224 115.061C144.511 115.6 144.864 116.155 145.344 116.887C145.431 117.028 145.532 117.161 145.645 117.283C145.777 117.427 145.942 117.537 146.125 117.603C146.238 117.644 146.356 117.669 146.475 117.679C146.656 117.694 146.835 117.641 146.978 117.53C147.102 117.424 147.189 117.282 147.226 117.123C147.248 117.034 147.259 116.942 147.256 116.85C147.389 117 147.538 117.159 147.704 117.319C147.881 117.488 148.066 117.648 148.259 117.799C148.692 118.142 149.156 118.446 149.643 118.706C150.176 118.981 150.739 119.167 151.202 119.082C151.325 119.059 151.441 119.01 151.544 118.939C151.588 118.91 151.628 118.876 151.664 118.837C151.733 118.764 151.787 118.678 151.824 118.584C151.852 118.518 151.872 118.45 151.885 118.379C152.044 118.486 152.213 118.577 152.389 118.651C152.543 118.718 152.704 118.766 152.869 118.794C152.99 118.816 153.113 118.821 153.235 118.81C153.363 118.796 153.484 118.745 153.583 118.663C153.697 118.564 153.777 118.432 153.813 118.285C153.866 118.094 153.851 117.89 153.768 117.709C153.751 117.676 153.733 117.643 153.712 117.611C153.88 117.727 154.085 117.774 154.287 117.743C154.486 117.713 154.665 117.607 154.787 117.447C154.902 117.295 154.959 117.107 154.947 116.917C154.941 116.72 154.864 116.532 154.731 116.386Z" fill="#FFAA9F"/>
<path d="M127.634 99.9182C126.107 98.9262 124.765 98.099 123.611 97.4126C122.458 96.7262 121.494 96.187 120.731 95.7678C120.587 95.6894 120.395 95.5774 120.152 95.467C119.868 95.3369 119.571 95.2371 119.266 95.1694C118.368 94.9862 117.439 95.0414 116.57 95.3294C115.649 95.6234 114.822 96.1529 114.17 96.8654C113.746 97.3353 113.409 97.8772 113.176 98.4654C113.012 98.8861 112.886 99.3203 112.798 99.763C112.623 100.591 112.59 101.444 112.702 102.283C112.806 103.008 112.964 103.725 113.174 104.427C113.974 107.321 114.774 110.105 115.366 112.168C115.958 114.23 116.35 115.574 116.35 115.574H132.755L132.595 114.294L132.435 113.014C133.648 113.033 134.858 112.885 136.03 112.576C137.864 112.096 139.962 111.081 141.205 108.992C141.51 108.48 141.748 107.932 141.914 107.36C142.059 106.857 142.155 106.342 142.198 105.821C142.109 105.328 142.021 104.83 141.938 104.323C141.854 103.816 141.778 103.302 141.693 102.782C141.599 102.152 141.512 101.53 141.432 100.918C141.352 100.306 141.281 99.7011 141.219 99.1038L134.426 99.5118L127.634 99.9182Z" fill="#BAB653"/>
<path d="M132.438 113.211C132.391 113.211 132.345 113.194 132.309 113.165C132.273 113.133 132.248 113.09 132.24 113.043L131.939 111.243L131.643 109.441C131.639 109.415 131.639 109.389 131.645 109.363C131.651 109.338 131.663 109.314 131.678 109.293C131.693 109.271 131.713 109.253 131.735 109.239C131.757 109.225 131.782 109.215 131.808 109.211C131.834 109.206 131.86 109.207 131.886 109.213C131.911 109.219 131.936 109.23 131.957 109.246C132 109.277 132.029 109.324 132.038 109.376L132.333 111.177L132.629 112.979C132.633 113.005 132.632 113.031 132.626 113.057C132.62 113.083 132.609 113.107 132.593 113.128C132.578 113.149 132.559 113.167 132.537 113.181C132.515 113.195 132.49 113.205 132.464 113.209H132.432L132.438 113.211Z" fill="#2B3D0A"/>
<path d="M120.646 125.269H120.622H120.597C120.5 125.242 120.415 125.186 120.352 125.109C120.289 125.034 120.252 124.941 120.246 124.843C120.242 124.757 120.262 124.671 120.304 124.595C120.346 124.518 120.409 124.455 120.485 124.411L122.433 123.152L124.382 121.891C124.432 121.86 124.479 121.824 124.523 121.785C124.562 121.751 124.597 121.713 124.629 121.672C124.657 121.633 124.682 121.592 124.704 121.549C124.726 121.506 124.744 121.461 124.758 121.416C124.778 121.344 124.787 121.271 124.785 121.197C124.784 121.117 124.772 121.039 124.749 120.963L123.949 118.243L123.149 115.523C122.339 113.473 121.685 111.606 121.219 110.113C120.753 108.621 120.472 107.504 120.419 106.955C120.366 106.483 120.366 106.006 120.419 105.534C120.473 105.017 120.642 104.517 120.913 104.073C121.152 103.717 121.445 103.402 121.784 103.139C122.12 102.877 122.471 102.633 122.833 102.409L122.905 102.361L122.979 102.313C123.619 101.904 124.278 101.513 125.017 101.11C125.757 100.707 126.569 100.31 127.494 99.8734C126.889 99.3159 126.373 98.6683 125.965 97.9534C125.718 97.5416 125.507 97.1096 125.334 96.6622C125.1 96.0435 124.978 95.3878 124.974 94.7262C124.972 94.0553 125.089 93.3893 125.321 92.7598C125.501 92.2682 125.742 91.8016 126.04 91.371C126.07 91.3275 126.116 91.2977 126.168 91.2878C126.194 91.2828 126.22 91.283 126.246 91.2885C126.272 91.294 126.297 91.3046 126.318 91.3198C126.362 91.3499 126.392 91.3959 126.401 91.4478C126.411 91.5002 126.399 91.5541 126.369 91.5982C126.092 91.9999 125.866 92.4347 125.697 92.8926C125.483 93.4793 125.374 94.0997 125.377 94.7246C125.382 95.3433 125.497 95.9562 125.718 96.5342C125.883 96.9567 126.083 97.365 126.315 97.755C126.532 98.135 126.782 98.4958 127.061 98.8334C127.342 99.1726 127.652 99.4874 127.987 99.7742L128.105 99.875L128.225 99.9758L128.083 100.041L127.941 100.107C126.957 100.561 126.099 100.984 125.323 101.4C124.547 101.816 123.856 102.224 123.2 102.648L123.126 102.696L123.053 102.744C122.71 102.956 122.378 103.186 122.059 103.432C121.748 103.673 121.478 103.962 121.259 104.289C121.015 104.69 120.866 105.141 120.822 105.608C120.774 106.041 120.774 106.477 120.822 106.91C120.869 107.337 121.096 108.315 121.537 109.755C121.979 111.195 122.633 113.101 123.534 115.382V115.392L124.334 118.112L125.134 120.832C125.168 120.945 125.186 121.061 125.189 121.179C125.189 121.287 125.174 121.395 125.144 121.499V121.507C125.124 121.572 125.098 121.635 125.069 121.696C125.036 121.759 124.998 121.82 124.955 121.877C124.91 121.935 124.859 121.988 124.803 122.037C124.742 122.092 124.676 122.142 124.606 122.185L122.653 123.449L120.697 124.713C120.683 124.72 120.671 124.731 120.662 124.744C120.655 124.753 120.651 124.765 120.651 124.777C120.653 124.79 120.658 124.803 120.667 124.813C120.677 124.823 120.69 124.83 120.704 124.833C120.729 124.84 120.753 124.852 120.774 124.868C120.795 124.884 120.813 124.903 120.826 124.926C120.839 124.949 120.848 124.974 120.851 125C120.855 125.026 120.853 125.053 120.846 125.078C120.835 125.122 120.81 125.16 120.774 125.187C120.744 125.23 120.698 125.259 120.646 125.269Z" fill="#2B3D0A"/>
<path d="M230.248 59.4007L221.307 57.8263L212.368 56.2519C212.299 56.2379 212.235 56.2044 212.184 56.1554C212.133 56.1064 212.097 56.0438 212.08 55.9751C212.06 55.9026 212.059 55.8264 212.075 55.7531C212.092 55.6797 212.126 55.6115 212.174 55.5543L214.931 52.3815L217.688 49.2119C218.324 48.471 219.133 47.8988 220.043 47.5463C220.916 47.2099 221.864 47.1164 222.786 47.2759C223.635 47.4276 224.433 47.7901 225.106 48.3303C225.803 48.8927 226.362 49.6083 226.738 50.4215L228.696 54.6055L230.656 58.7895C230.688 58.8604 230.702 58.9382 230.695 59.0157C230.689 59.0932 230.664 59.1678 230.621 59.2327C230.582 59.2942 230.526 59.3428 230.46 59.3727C230.393 59.4026 230.32 59.4123 230.248 59.4007Z" fill="#F98638"/>
<path d="M147.264 117.038C147.236 117.038 147.208 117.032 147.183 117.02C147.156 117.008 147.133 116.99 147.114 116.968C146.981 116.808 146.855 116.657 146.733 116.488C146.611 116.318 146.496 116.158 146.386 115.987C146.275 115.816 146.176 115.646 146.08 115.47C145.984 115.294 145.895 115.115 145.811 114.932C145.791 114.884 145.791 114.829 145.811 114.78C145.82 114.756 145.834 114.733 145.852 114.714C145.87 114.695 145.892 114.679 145.916 114.668C145.94 114.657 145.966 114.651 145.992 114.65C146.018 114.65 146.044 114.654 146.069 114.664C146.094 114.672 146.116 114.686 146.136 114.704C146.155 114.722 146.17 114.744 146.181 114.768C146.259 114.94 146.341 115.112 146.437 115.28C146.533 115.448 146.626 115.611 146.728 115.771C146.831 115.931 146.943 116.091 147.058 116.251C147.173 116.411 147.295 116.556 147.421 116.702C147.455 116.743 147.472 116.795 147.469 116.848C147.465 116.9 147.44 116.949 147.4 116.984C147.382 117 147.361 117.012 147.338 117.02C147.315 117.031 147.29 117.037 147.264 117.038Z" fill="#AD4D4D"/>
<path d="M151.901 118.528C151.881 118.528 151.861 118.525 151.842 118.518C151.822 118.512 151.803 118.503 151.786 118.491C151.478 118.27 151.172 118.042 150.871 117.806C150.571 117.571 150.275 117.326 149.987 117.08C149.618 116.76 149.253 116.429 148.899 116.085C148.546 115.741 148.2 115.387 147.869 115.024C147.851 115.005 147.837 114.982 147.828 114.957C147.819 114.933 147.815 114.906 147.816 114.88C147.818 114.827 147.841 114.777 147.88 114.741C147.92 114.706 147.972 114.687 148.024 114.69C148.077 114.692 148.127 114.715 148.163 114.754C148.49 115.111 148.828 115.459 149.178 115.797C149.528 116.135 149.885 116.462 150.25 116.778C150.533 117.021 150.823 117.258 151.119 117.493C151.415 117.728 151.714 117.949 152.018 118.165C152.046 118.185 152.068 118.212 152.082 118.243C152.097 118.274 152.103 118.309 152.101 118.343C152.098 118.377 152.087 118.411 152.068 118.439C152.049 118.468 152.023 118.491 151.992 118.507C151.964 118.52 151.933 118.528 151.901 118.528Z" fill="#AD4D4D"/>
<path d="M153.733 117.752C153.714 117.751 153.695 117.748 153.677 117.744C153.658 117.738 153.64 117.73 153.624 117.72L153.331 117.524L153.045 117.324C153.045 117.324 152.885 117.217 152.673 117.057C152.462 116.897 152.169 116.678 151.891 116.452C151.376 116.035 150.87 115.564 150.451 115.16C150.032 114.755 149.718 114.419 149.577 114.268C149.559 114.249 149.545 114.227 149.536 114.203C149.526 114.178 149.522 114.152 149.523 114.126C149.524 114.086 149.537 114.048 149.56 114.015C149.583 113.983 149.616 113.958 149.653 113.944C149.69 113.93 149.731 113.928 149.77 113.937C149.808 113.946 149.843 113.967 149.87 113.996C150.008 114.144 150.323 114.476 150.729 114.873C151.136 115.27 151.632 115.732 152.136 116.142C152.409 116.363 152.691 116.576 152.904 116.734C153.117 116.892 153.265 116.996 153.267 116.998L153.55 117.193L153.837 117.384C153.881 117.413 153.912 117.458 153.923 117.51C153.928 117.536 153.929 117.562 153.924 117.588C153.919 117.614 153.909 117.638 153.894 117.66C153.876 117.689 153.851 117.712 153.821 117.728C153.794 117.742 153.764 117.751 153.733 117.752Z" fill="#AD4D4D"/>
<path d="M152.667 115.016C152.644 115.016 152.621 115.012 152.6 115.005C152.578 114.997 152.557 114.985 152.539 114.97C152.453 114.898 152.366 114.822 152.283 114.746C152.2 114.669 152.123 114.586 152.037 114.509C151.859 114.331 151.69 114.143 151.533 113.947C151.374 113.75 151.226 113.545 151.089 113.333C151.06 113.288 151.05 113.234 151.061 113.182C151.073 113.131 151.104 113.085 151.149 113.056C151.193 113.028 151.247 113.018 151.299 113.029C151.351 113.04 151.396 113.071 151.425 113.115C151.554 113.316 151.694 113.51 151.845 113.696C151.995 113.881 152.155 114.059 152.325 114.227C152.4 114.304 152.485 114.378 152.557 114.451C152.629 114.525 152.717 114.594 152.8 114.662C152.82 114.679 152.837 114.7 152.849 114.723C152.862 114.746 152.869 114.772 152.872 114.798C152.874 114.824 152.871 114.851 152.863 114.876C152.855 114.901 152.842 114.924 152.825 114.944C152.807 114.967 152.782 114.986 152.755 114.998C152.727 115.011 152.697 115.017 152.667 115.016Z" fill="#AD4D4D"/>
<path d="M141.106 99.3037C141.056 99.3036 141.009 99.2853 140.972 99.2525C140.935 99.2193 140.912 99.1737 140.908 99.1245L140.57 95.9165L140.234 92.7165C140.23 92.6777 140.238 92.6387 140.256 92.6042C140.274 92.5698 140.302 92.5414 140.336 92.5226C140.37 92.5038 140.409 92.4955 140.447 92.4987C140.486 92.5019 140.523 92.5164 140.554 92.5405C140.574 92.5569 140.592 92.5772 140.604 92.6003C140.617 92.6234 140.625 92.6487 140.628 92.6749L140.964 95.8749L141.3 99.0749C141.302 99.101 141.3 99.1275 141.293 99.1528C141.285 99.178 141.273 99.2016 141.256 99.2221C141.24 99.2425 141.22 99.2595 141.197 99.2719C141.173 99.2842 141.148 99.2918 141.122 99.2941H141.101L141.106 99.3037Z" fill="#2B3D0A"/>
<path d="M106.447 26.9443L81.0967 25.7139L55.7447 24.4851C55.6695 24.4816 55.5958 24.4633 55.5277 24.4312C55.4596 24.3991 55.3985 24.3539 55.348 24.2981C55.2974 24.2424 55.2584 24.1772 55.2331 24.1063C55.2079 24.0354 55.1968 23.9602 55.2007 23.8851C55.5342 17.013 58.5839 10.555 63.6788 5.9314C68.7738 1.30785 75.4967 -1.10247 82.3687 -0.769347H82.3959C85.7988 -0.604617 89.1359 0.228802 92.2167 1.68332C95.2974 3.13783 98.0615 5.18495 100.351 7.70778C102.641 10.2306 104.411 13.1797 105.561 16.3867C106.71 19.5937 107.217 22.9958 107.052 26.3987C107.044 26.5502 106.977 26.6925 106.864 26.7944C106.752 26.8963 106.603 26.9496 106.452 26.9427L106.447 26.9443Z" fill="#F98638"/>
<path d="M79.6544 16.0523H79.624C79.5715 16.0489 79.5202 16.0349 79.4732 16.0113C79.4262 15.9877 79.3844 15.9548 79.3504 15.9147C79.316 15.8748 79.2899 15.8286 79.2734 15.7786C79.2569 15.7287 79.2505 15.6759 79.2544 15.6235L79.8352 7.90187L80.416 0.178668L74.5168 4.12587L68.6224 8.07307C68.5788 8.10258 68.5297 8.12316 68.4781 8.13359C68.4264 8.14403 68.3733 8.14412 68.3216 8.13387C68.2181 8.11229 68.1269 8.05152 68.0672 7.96427C68.0379 7.92052 68.0177 7.87142 68.0075 7.81979C67.9973 7.76816 67.9975 7.71503 68.008 7.66347C68.0179 7.61192 68.0381 7.56288 68.0672 7.5192C68.0963 7.47552 68.1338 7.43808 68.1776 7.40907L74.0784 3.45707L79.9792 -0.494933C80.0873 -0.598179 80.2241 -0.66616 80.3717 -0.689874C80.5193 -0.713588 80.6705 -0.691915 80.8055 -0.627726C80.9405 -0.563537 81.0528 -0.459861 81.1275 -0.330429C81.2022 -0.200996 81.2359 -0.0519152 81.224 0.0970678L80.6384 7.88907L80.0528 15.6811C80.0451 15.7815 79.9999 15.8754 79.926 15.9439C79.8521 16.0124 79.7551 16.0506 79.6544 16.0507V16.0523Z" fill="#AD4D4D"/>
<path d="M91.9678 12.4226C91.9127 12.4226 91.8583 12.4111 91.8078 12.389C91.7556 12.3658 91.7088 12.332 91.6702 12.2898L86.0702 6.04019L80.4702 -0.211005L80.5918 -0.505405L80.7118 -0.799805L80.8974 -0.740604L81.0814 -0.683005L87.395 1.6626L93.7166 4.00819C93.8161 4.04511 93.8969 4.12005 93.9412 4.21652C93.9854 4.31299 93.9895 4.42308 93.9526 4.52259C93.9157 4.6221 93.8408 4.70287 93.7443 4.74713C93.6478 4.79139 93.5377 4.79551 93.4382 4.75859L87.867 2.68819L82.2974 0.617795L87.2814 6.1874L92.2654 11.7538C92.3007 11.7928 92.3279 11.8384 92.3455 11.8879C92.3631 11.9375 92.3707 11.99 92.3678 12.0425C92.365 12.095 92.3518 12.1465 92.329 12.1938C92.3062 12.2412 92.2743 12.2836 92.235 12.3186C92.198 12.3518 92.1552 12.3779 92.1086 12.3954C92.0638 12.4132 92.016 12.4224 91.9678 12.4226Z" fill="#AD4D4D"/>
<path d="M152.669 114.906L152.509 114.781L152.405 114.696C152.442 114.741 152.484 114.782 152.53 114.818C152.573 114.852 152.62 114.881 152.669 114.906Z" fill="#AD4D4D"/>
<path d="M136.2 79.3099C136.202 80.2208 135.888 81.1042 135.311 81.8093C134.735 82.5145 133.931 82.9979 133.038 83.177C132.145 83.3561 131.217 83.2199 130.413 82.7916C129.61 82.3633 128.979 81.6694 128.629 80.8283C128.28 79.9871 128.233 79.0507 128.497 78.1788C128.76 77.3069 129.318 76.5534 130.075 76.0467C130.832 75.5401 131.741 75.3118 132.648 75.4006C133.555 75.4894 134.402 75.89 135.047 76.5339C135.412 76.8981 135.702 77.3307 135.9 77.8071C136.098 78.2834 136.2 78.7941 136.2 79.3099Z" fill="#FFAA9F"/>
<path d="M130.696 79.1104C130.681 79.1872 130.636 79.2549 130.571 79.2992C130.506 79.3429 130.426 79.359 130.349 79.344C130.311 79.337 130.274 79.3224 130.242 79.3009C130.209 79.2795 130.181 79.2517 130.16 79.2192C130.117 79.1542 130.101 79.0747 130.116 78.9979C130.131 78.9212 130.175 78.8535 130.24 78.8096C130.305 78.7664 130.384 78.7504 130.461 78.7651C130.537 78.7797 130.605 78.8239 130.65 78.888C130.694 78.9532 130.71 79.0331 130.696 79.1104Z" fill="#353519"/>
<path d="M132.857 79.3102C132.842 79.387 132.797 79.4547 132.733 79.499C132.684 79.5316 132.627 79.5491 132.569 79.5494C132.51 79.5497 132.453 79.5327 132.404 79.5005C132.356 79.4683 132.318 79.4225 132.295 79.3687C132.272 79.3149 132.266 79.2556 132.277 79.1982C132.283 79.1588 132.296 79.1209 132.317 79.087C132.338 79.053 132.366 79.0236 132.398 79.0006C132.431 78.9776 132.468 78.9614 132.507 78.9529C132.546 78.9445 132.586 78.9441 132.625 78.9516C132.665 78.9592 132.702 78.9746 132.735 78.9969C132.768 79.0192 132.796 79.048 132.818 79.0815C132.84 79.115 132.854 79.1525 132.861 79.1918C132.868 79.2311 132.867 79.2714 132.857 79.3102Z" fill="#353519"/>
<path d="M131.44 81.1521C131.148 81.1509 130.861 81.0714 130.61 80.9217C130.46 80.8363 130.324 80.7284 130.206 80.6017C130.171 80.5621 130.153 80.5105 130.155 80.4577C130.157 80.4315 130.163 80.4058 130.175 80.3822C130.187 80.3585 130.203 80.3374 130.222 80.3201C130.242 80.3023 130.264 80.2886 130.289 80.2798C130.314 80.271 130.34 80.2673 130.366 80.2689C130.393 80.2698 130.418 80.2761 130.442 80.2873C130.466 80.2986 130.487 80.3147 130.504 80.3345C130.594 80.4317 130.697 80.5152 130.811 80.5825C131.002 80.6955 131.22 80.7557 131.442 80.7569C131.654 80.7561 131.863 80.701 132.048 80.5969C132.159 80.5365 132.26 80.4605 132.349 80.3713C132.387 80.3341 132.437 80.3132 132.49 80.3132C132.543 80.3132 132.594 80.3341 132.632 80.3713C132.67 80.4084 132.692 80.459 132.693 80.5121C132.693 80.5385 132.688 80.5647 132.678 80.5891C132.668 80.6136 132.654 80.6358 132.635 80.6545C132.519 80.7723 132.385 80.8725 132.24 80.9521C131.995 81.0857 131.719 81.1545 131.44 81.1521Z" fill="#AD4D4D"/>
<path d="M131.151 77.3629C131.383 77.6987 131.707 77.9608 132.083 78.1181C132.462 78.2779 132.879 78.3283 133.285 78.2637C133.361 78.4949 133.483 78.7086 133.643 78.8919C133.803 79.0752 133.999 79.2245 134.218 79.3309C134.412 79.4303 134.625 79.4871 134.843 79.4973C135.06 79.5075 135.278 79.4709 135.48 79.3901C135.623 79.3283 135.754 79.2429 135.867 79.1373C135.983 79.0273 136.082 78.9012 136.162 78.7629C136.079 78.1733 135.864 77.6101 135.532 77.1158C135.2 76.6214 134.761 76.2088 134.247 75.9089C133.732 75.609 133.157 75.4297 132.563 75.3844C131.969 75.3392 131.373 75.4292 130.819 75.6477C130.752 75.9393 130.746 76.2415 130.8 76.5357C130.856 76.8334 130.976 77.1155 131.151 77.3629Z" fill="#AD4D4D"/>
<path d="M138.805 73.2828C138.806 74.0387 138.544 74.7713 138.065 75.3561C137.587 75.9408 136.92 76.3413 136.179 76.4895C135.437 76.6377 134.668 76.5244 134.001 76.1688C133.334 75.8132 132.811 75.2374 132.521 74.5394C132.231 73.8414 132.192 73.0645 132.41 72.341C132.629 71.6174 133.092 70.9921 133.719 70.5714C134.347 70.1507 135.102 69.9608 135.854 70.0339C136.606 70.107 137.31 70.4387 137.845 70.9724C138.15 71.2753 138.391 71.6353 138.556 72.0318C138.721 72.4283 138.805 72.8535 138.805 73.2828Z" fill="#AD4D4D"/>
<path d="M140.099 68.978C140.099 69.4848 139.923 69.9758 139.601 70.3673C139.279 70.7589 138.831 71.0267 138.334 71.1252C137.837 71.2237 137.321 71.1467 136.875 70.9075C136.428 70.6682 136.078 70.2814 135.884 69.8131C135.691 69.3447 135.666 68.8237 135.813 68.3388C135.961 67.854 136.272 67.4353 136.693 67.1542C137.115 66.873 137.621 66.7467 138.125 66.7969C138.63 66.8471 139.101 67.0705 139.459 67.4292C139.869 67.8405 140.099 68.3974 140.099 68.978Z" fill="#AD4D4D"/>
<path d="M92.7154 104.818C92.7154 105.008 92.5298 105.181 92.2354 105.306C91.4782 105.575 90.6517 105.575 89.8946 105.306C89.5954 105.181 89.4146 105.008 89.4146 104.818C89.4146 104.628 89.6002 104.455 89.8946 104.338C90.6513 104.067 91.4786 104.067 92.2354 104.338C92.5298 104.455 92.7154 104.628 92.7154 104.818Z" fill="#353519"/>
<path d="M174.979 104.625C174.979 104.817 174.794 104.99 174.499 105.115C173.742 105.384 172.915 105.384 172.157 105.115C171.858 104.99 171.677 104.817 171.677 104.625C171.677 104.433 171.863 104.262 172.157 104.137C172.915 103.868 173.742 103.868 174.499 104.137C174.797 104.262 174.979 104.435 174.979 104.625Z" fill="#353519"/>
<path d="M105.4 43.9387C105.399 44.5135 105.2 45.0702 104.834 45.5141C104.469 45.9581 103.962 46.2617 103.398 46.3734C102.834 46.4851 102.249 46.3979 101.742 46.1266C101.236 45.8554 100.839 45.4168 100.619 44.8857C100.399 44.3546 100.371 43.7638 100.538 43.2139C100.705 42.6639 101.057 42.1889 101.535 41.8697C102.013 41.5505 102.587 41.4068 103.159 41.4631C103.731 41.5195 104.266 41.7724 104.672 42.1787C104.903 42.4096 105.087 42.684 105.212 42.9861C105.337 43.2881 105.401 43.6119 105.4 43.9387Z" fill="#FF94AC"/>
<path d="M115.122 51.7339C115.122 52.3095 114.922 52.8673 114.557 53.3122C114.192 53.7572 113.684 54.0618 113.12 54.1742C112.555 54.2866 111.969 54.1998 111.461 53.9286C110.954 53.6574 110.556 53.2186 110.335 52.6869C110.115 52.1552 110.086 51.5635 110.253 51.0127C110.42 50.4618 110.772 49.9859 111.251 49.6659C111.729 49.346 112.304 49.2018 112.877 49.258C113.449 49.3141 113.985 49.5672 114.392 49.9739C114.624 50.2046 114.808 50.4788 114.933 50.7809C115.058 51.083 115.122 51.4069 115.122 51.7339Z" fill="#FF94AC"/>
<path d="M117.699 37.4671C117.699 38.0418 117.499 38.5985 117.134 39.0425C116.769 39.4864 116.261 39.7901 115.697 39.9017C115.134 40.0134 114.548 39.9262 114.042 39.6549C113.535 39.3837 113.138 38.9452 112.918 38.4141C112.699 37.883 112.67 37.2921 112.837 36.7422C113.004 36.1923 113.356 35.7172 113.834 35.398C114.312 35.0788 114.886 34.9351 115.458 34.9915C116.03 35.0478 116.565 35.3007 116.971 35.7071C117.203 35.938 117.386 36.2123 117.511 36.5144C117.636 36.8164 117.7 37.1402 117.699 37.4671Z" fill="#FF94AC"/>
<path d="M226.464 55.1843C226.416 55.337 226.334 55.4765 226.222 55.5918C226.111 55.707 225.975 55.7948 225.824 55.8483C225.473 55.9747 225.09 55.9891 224.73 55.8894C224.37 55.7897 224.05 55.5808 223.813 55.2915C223.708 55.171 223.634 55.0263 223.598 54.8704C223.563 54.7144 223.566 54.5521 223.609 54.3979C223.651 54.2436 223.731 54.1024 223.842 53.9866C223.952 53.8709 224.09 53.7844 224.242 53.7347C224.594 53.6057 224.979 53.5901 225.341 53.6899C225.703 53.7897 226.024 54 226.261 54.2915C226.362 54.4145 226.432 54.5591 226.468 54.714C226.503 54.8689 226.502 55.0299 226.464 55.1843Z" fill="#AD4D4D"/>
<path d="M228.166 57.2978C228.138 57.3907 228.088 57.4756 228.02 57.5458C227.953 57.6161 227.871 57.6698 227.779 57.7026C227.564 57.7812 227.329 57.7906 227.108 57.7295C226.887 57.6685 226.69 57.5399 226.545 57.3618C226.479 57.2881 226.433 57.199 226.41 57.1027C226.387 57.0063 226.389 56.9058 226.415 56.8103C226.441 56.7148 226.491 56.6273 226.559 56.556C226.628 56.4846 226.713 56.4316 226.808 56.4018C227.023 56.3239 227.258 56.3149 227.479 56.3759C227.7 56.437 227.896 56.5651 228.041 56.7426C228.105 56.8188 228.149 56.9087 228.17 57.0052C228.192 57.1017 228.191 57.202 228.166 57.2978Z" fill="#AD4D4D"/>
<path d="M235.138 74.7982C235.091 74.8914 235.024 74.9724 234.94 75.0346C234.857 75.0969 234.76 75.1387 234.658 75.1566C234.419 75.2021 234.172 75.172 233.951 75.0705C233.73 74.969 233.546 74.8011 233.426 74.5902C233.369 74.5019 233.336 74.4008 233.328 74.2963C233.321 74.1918 233.34 74.087 233.383 73.9916C233.427 73.8963 233.493 73.8132 233.577 73.7501C233.661 73.687 233.759 73.6458 233.862 73.6302C234.101 73.5813 234.35 73.6116 234.57 73.7166C234.792 73.8154 234.976 73.9839 235.094 74.1966C235.149 74.2863 235.181 74.3876 235.188 74.4922C235.196 74.5968 235.179 74.7017 235.138 74.7982Z" fill="#AD4D4D"/>
<path d="M232.522 75.2745C232.491 75.337 232.446 75.3915 232.39 75.4334C232.335 75.4754 232.27 75.5037 232.202 75.5161C232.041 75.5473 231.874 75.5271 231.725 75.4585C231.576 75.3899 231.452 75.2763 231.371 75.1337C231.334 75.0744 231.313 75.0069 231.309 74.9373C231.304 74.8677 231.317 74.798 231.347 74.7346C231.376 74.6713 231.42 74.6161 231.476 74.574C231.531 74.532 231.597 74.5044 231.666 74.4937C231.827 74.4626 231.993 74.4828 232.142 74.5514C232.291 74.62 232.415 74.7336 232.496 74.8761C232.531 74.936 232.552 75.0031 232.556 75.0723C232.561 75.1415 232.549 75.2107 232.522 75.2745Z" fill="#AD4D4D"/>
</g>
<defs>
<clipPath id="clip0_6346_36432">
<rect width="256" height="120" rx="8" fill="white"/>
</clipPath>
</defs>
</svg>
