<svg width="256" height="120" viewBox="0 0 256 120" fill="none" xmlns="http://www.w3.org/2000/svg">
<g clip-path="url(#clip0_6346_36430)">
<rect width="256" height="120" rx="8" fill="#1E4240"/>
<path d="M20.1948 82.7188L21.7132 86.36L23.2315 90.0013C23.586 90.8487 24.1645 91.5836 24.9051 92.127L25.5533 92.6009L26.2001 93.0748C26.3081 93.1539 26.4337 93.2057 26.566 93.2256C26.6984 93.2456 26.8337 93.2332 26.9602 93.1894C27.0867 93.1456 27.2008 93.0718 27.2925 92.9743C27.3842 92.8768 27.451 92.7584 27.4869 92.6295L27.683 91.9268L27.8791 91.2228C27.8944 91.1676 27.9145 91.1139 27.939 91.0621C27.9641 91.0105 27.9952 90.9621 28.0316 90.9178C28.1006 90.831 28.1919 90.7646 28.2958 90.7258C28.3922 90.6895 28.4961 90.6778 28.5981 90.6917C28.6664 90.7014 28.7335 90.7183 28.7983 90.7421C28.876 90.7702 28.9494 90.8092 29.0162 90.8579C29.0589 90.8896 29.0994 90.9242 29.1374 90.9614C29.2809 91.1106 29.3873 91.2916 29.4478 91.4897C29.5024 91.657 29.5393 91.8295 29.5581 92.0045C29.5718 92.1256 29.584 92.2468 29.5976 92.3667C29.6113 92.4865 29.6249 92.6077 29.6412 92.7289C29.6948 93.1474 29.7483 93.5655 29.8019 93.9831C29.855 94.4011 29.9095 94.8192 29.9626 95.2372C30.0235 95.7128 30.1819 96.1706 30.4279 96.5821C30.6739 96.9935 31.0023 97.3498 31.3924 97.6284L32.1087 98.1404L32.8236 98.6525C33.0723 98.8305 33.3608 98.9452 33.6639 98.9865C33.967 99.0278 34.2756 98.9944 34.5629 98.8893C34.8502 98.7843 35.1076 98.6106 35.3125 98.3835C35.5175 98.1565 35.6639 97.8828 35.7391 97.5862C35.7555 97.5213 35.7788 97.4583 35.8085 97.3983C35.8384 97.3384 35.8764 97.283 35.9216 97.2335C35.9573 97.1937 35.9975 97.158 36.0414 97.1273C36.1195 97.0722 36.2087 97.0346 36.3027 97.0172C36.3967 96.9998 36.4934 97.003 36.5861 97.0265C36.6745 97.0486 36.76 97.0811 36.8407 97.1232C36.9851 97.1972 37.1104 97.3034 37.207 97.4337C37.2914 97.5482 37.3589 97.6744 37.4072 97.8082C37.4381 97.8942 37.4622 97.9826 37.4794 98.0724C37.4958 98.1624 37.5063 98.2533 37.5107 98.3447C37.5379 98.9371 37.5788 99.46 37.6224 99.957C37.6659 100.454 37.715 100.927 37.7585 101.422C37.8067 101.962 37.9687 102.485 38.2339 102.957C38.4992 103.43 38.8616 103.84 39.2973 104.162L40.2641 104.876L41.231 105.589C41.5226 105.805 41.8547 105.959 42.2075 106.042C42.5602 106.126 42.9262 106.138 43.2835 106.076C43.6407 106.015 43.982 105.882 44.2866 105.686C44.5912 105.489 44.853 105.233 45.0561 104.933L46.0447 103.473L47.0333 102.012L33.6148 92.364L20.1948 82.7188Z" fill="#666538"/>
<path d="M239.235 57.3377C239.235 57.4238 239.206 57.5075 239.152 57.5744C239.098 57.6414 239.022 57.6874 238.937 57.7047C238.853 57.722 238.765 57.7094 238.689 57.6692C238.613 57.629 238.553 57.5636 238.52 57.4841C238.487 57.4047 238.482 57.3162 238.507 57.2337C238.532 57.1512 238.584 57.0798 238.656 57.0318C238.727 56.9838 238.813 56.9622 238.899 56.9705C238.985 56.9788 239.065 57.0167 239.126 57.0776C239.195 57.1464 239.234 57.24 239.235 57.3377Z" fill="#2B3D0A"/>
<path d="M243.016 57.3374C243.016 57.4229 242.986 57.5057 242.932 57.5717C242.878 57.6378 242.803 57.683 242.719 57.6997C242.635 57.7164 242.548 57.7035 242.473 57.6632C242.398 57.6229 242.339 57.5578 242.306 57.4788C242.273 57.3999 242.269 57.3121 242.294 57.2303C242.319 57.1486 242.371 57.0781 242.442 57.0307C242.513 56.9833 242.599 56.9621 242.684 56.9706C242.769 56.9791 242.848 57.0168 242.908 57.0774C242.977 57.1464 243.016 57.2399 243.016 57.3374Z" fill="#2B3D0A"/>
<path d="M212.759 80.3357L205.023 81.3175L197.288 82.2993L195.006 64.3284L192.725 46.3562L200.461 45.3744L208.197 44.3926L210.478 62.3648L212.759 80.3357Z" fill="#95D8E5"/>
<path d="M223.85 76.8441L218.305 78.5899L212.758 80.3356L210.478 62.3647L208.197 44.3925L213.746 43.4052L219.293 42.418L221.572 59.6317L223.85 76.8441Z" fill="#95D8E5"/>
<path d="M211.465 34.6152L204.097 35.5862L196.727 36.5584L194.726 41.4566L192.725 46.3562L200.461 45.3743L208.197 44.3925L209.831 39.5039L211.465 34.6152Z" fill="#F4ECE5"/>
<path d="M211.465 34.6152L215.38 38.5166L219.293 42.418L213.746 43.4053L208.197 44.3925L209.831 39.5039L211.465 34.6152Z" fill="#353519"/>
<path d="M201.647 42.9125C200.97 42.9134 200.314 42.6795 199.79 42.2506C199.266 41.8218 198.907 41.2246 198.775 40.5608C198.642 39.8971 198.744 39.2078 199.062 38.6106C199.381 38.0134 199.897 37.5452 200.522 37.2858C201.147 37.0264 201.843 36.9919 202.491 37.1881C203.139 37.3843 203.698 37.7991 204.075 38.3619C204.451 38.9246 204.62 39.6003 204.554 40.274C204.488 40.9476 204.19 41.5774 203.711 42.056C203.44 42.3276 203.118 42.5431 202.764 42.69C202.41 42.837 202.03 42.9126 201.647 42.9125ZM201.647 37.4111C201.048 37.4111 200.468 37.6187 200.005 37.9986C199.542 38.3785 199.226 38.9071 199.109 39.4944C198.992 40.0816 199.083 40.6911 199.365 41.219C199.648 41.7469 200.105 42.1605 200.658 42.3893C201.211 42.6181 201.827 42.648 202.399 42.4738C202.972 42.2996 203.467 41.9321 203.799 41.434C204.131 40.936 204.28 40.3381 204.221 39.7423C204.162 39.1465 203.898 38.5897 203.474 38.1669C203.234 37.9264 202.95 37.7359 202.636 37.6061C202.322 37.4764 201.986 37.4101 201.647 37.4111Z" fill="#2B3D0A"/>
<path d="M211.52 34.6599L204.143 35.5954L196.767 36.5323L196.639 35.5205L196.511 34.5101C196.49 34.3466 196.502 34.1806 196.545 34.0216C196.589 33.8627 196.663 33.7139 196.765 33.5838C196.866 33.4537 196.992 33.3449 197.135 33.2637C197.278 33.1824 197.437 33.1302 197.6 33.1102L203.735 32.3327L209.869 31.5538C210.033 31.5332 210.199 31.5451 210.357 31.5887C210.516 31.6324 210.665 31.7069 210.795 31.8081C210.925 31.9093 211.033 32.0352 211.115 32.1785C211.196 32.3218 211.248 32.4797 211.268 32.6431L211.397 33.6536L211.52 34.6599Z" fill="#353519"/>
<path d="M195.201 49.8988C195.16 49.8992 195.12 49.8841 195.089 49.8566C195.064 49.8348 195.047 49.8064 195.038 49.7747C195.029 49.743 195.029 49.7095 195.039 49.6781C195.049 49.6467 195.068 49.6188 195.093 49.5978C195.118 49.5768 195.149 49.5635 195.182 49.5597L198.858 49.1253L202.535 48.6895C202.58 48.6845 202.625 48.6973 202.66 48.725C202.696 48.7528 202.719 48.7934 202.724 48.838C202.729 48.8828 202.717 48.9277 202.689 48.9633C202.675 48.9811 202.658 48.9959 202.638 49.0069C202.619 49.0179 202.597 49.0248 202.575 49.0273L198.898 49.463L195.221 49.8988H195.201Z" fill="#2B3D0A"/>
<path d="M195.512 52.0071C195.471 52.0066 195.431 51.9917 195.399 51.9649C195.368 51.9368 195.349 51.8987 195.343 51.8573C195.341 51.8351 195.342 51.8126 195.348 51.7911C195.354 51.7696 195.365 51.7495 195.379 51.7321C195.392 51.7143 195.409 51.6995 195.429 51.6884C195.448 51.6774 195.47 51.6705 195.492 51.6681L197.898 51.3834L200.304 51.0988C200.326 51.0962 200.349 51.098 200.37 51.1041C200.392 51.1102 200.412 51.1205 200.429 51.1345C200.447 51.1484 200.461 51.1657 200.472 51.1853C200.483 51.2049 200.49 51.2264 200.492 51.2486C200.495 51.2708 200.493 51.2933 200.487 51.3148C200.481 51.3363 200.471 51.3564 200.457 51.3739C200.443 51.3914 200.426 51.4059 200.406 51.4167C200.387 51.4274 200.366 51.4342 200.344 51.4366L197.937 51.7212L195.533 52.0058H195.512V52.0071Z" fill="#2B3D0A"/>
<path d="M214.353 70.7409C214.315 70.7408 214.277 70.7278 214.247 70.7041C214.216 70.6801 214.195 70.6458 214.187 70.6074C214.183 70.5851 214.183 70.5622 214.187 70.5399C214.191 70.5176 214.2 70.4963 214.213 70.4775C214.225 70.4586 214.242 70.4424 214.261 70.4299C214.28 70.4174 214.301 70.4087 214.323 70.4045L217.485 69.7236L220.649 69.0428C220.682 69.0358 220.716 69.0387 220.747 69.0511C220.778 69.0636 220.805 69.085 220.824 69.1127C220.843 69.1403 220.854 69.173 220.854 69.2066C220.855 69.2402 220.845 69.2732 220.827 69.3015C220.815 69.3203 220.799 69.3364 220.781 69.3491C220.762 69.3617 220.741 69.3705 220.719 69.375L217.557 70.0559L214.394 70.7368H214.376L214.353 70.7409Z" fill="#2B3D0A"/>
<path d="M214.677 72.8139C214.639 72.8138 214.601 72.8008 214.571 72.7771C214.54 72.7525 214.519 72.7178 214.511 72.679C214.502 72.635 214.51 72.5891 214.534 72.551C214.546 72.5322 214.562 72.5159 214.581 72.5033C214.599 72.4907 214.62 72.4819 214.642 72.4775L217.804 71.7966L220.966 71.1158C220.988 71.1112 221.011 71.1111 221.033 71.1156C221.056 71.12 221.077 71.1287 221.096 71.1414C221.115 71.1541 221.131 71.1704 221.143 71.1894C221.156 71.2083 221.164 71.2296 221.169 71.2519C221.178 71.296 221.17 71.3419 221.146 71.3799C221.133 71.3987 221.118 71.4149 221.099 71.4275C221.081 71.4401 221.06 71.449 221.038 71.4535L217.875 72.1344L214.713 72.8152H214.695L214.677 72.8139Z" fill="#2B3D0A"/>
<path d="M216.023 74.7329C215.984 74.7327 215.946 74.7193 215.917 74.6947C215.887 74.6699 215.865 74.636 215.857 74.5981C215.852 74.5762 215.852 74.5536 215.856 74.5316C215.86 74.5096 215.869 74.4887 215.881 74.4701C215.905 74.4322 215.944 74.4054 215.987 74.3952L218.114 73.9403L220.24 73.4841C220.284 73.4749 220.33 73.4832 220.368 73.5073C220.406 73.5322 220.433 73.5707 220.443 73.6149C220.448 73.6368 220.448 73.6594 220.444 73.6814C220.439 73.7033 220.431 73.7243 220.418 73.7429C220.394 73.7807 220.356 73.8076 220.312 73.8178L218.181 74.2726L216.055 74.7288H216.038L216.023 74.7329Z" fill="#2B3D0A"/>
<path d="M206.598 52.791C206.828 53.19 206.681 53.7565 206.256 54.3502C205.831 54.9439 205.131 55.5649 204.253 56.0714C203.375 56.578 202.483 56.8749 201.762 56.9457C201.042 57.0165 200.472 56.8599 200.241 56.4609C200.011 56.0619 200.158 55.4968 200.583 54.9031C201.008 54.3093 201.708 53.6884 202.586 53.1818C203.465 52.6753 204.357 52.3784 205.077 52.3076C205.797 52.2368 206.368 52.392 206.598 52.791Z" fill="#353519"/>
<path d="M219.867 66.83L217.073 67.2576L214.279 67.6852C214.168 67.7027 214.055 67.698 213.946 67.6714C213.837 67.6447 213.734 67.5966 213.644 67.53C213.461 67.3956 213.339 67.1944 213.305 66.9703L211.827 57.3265L210.349 47.6717C210.315 47.4479 210.371 47.2199 210.505 47.0374C210.639 46.855 210.84 46.733 211.064 46.6981L213.858 46.2705L216.652 45.8416C216.876 45.8079 217.104 45.8642 217.286 45.9982C217.469 46.1321 217.591 46.3328 217.626 46.5565L219.105 56.2058L220.582 65.8564C220.599 65.9673 220.594 66.0804 220.567 66.1894C220.541 66.2983 220.493 66.4009 220.426 66.4914C220.36 66.5818 220.276 66.6582 220.181 66.7163C220.085 66.7745 219.978 66.8131 219.867 66.83Z" fill="#BAB653"/>
<path d="M232.727 59.6691C232.56 61.1493 232.014 62.4457 231.268 63.3458C230.521 64.2459 229.572 64.7443 228.6 64.634C227.628 64.5237 226.815 63.8251 226.285 62.7834C225.755 61.7417 225.514 60.3568 225.682 58.8766C225.849 57.3964 226.394 56.1013 227.142 55.1999C227.889 54.2984 228.836 53.8014 229.809 53.9117C230.783 54.022 231.593 54.7205 232.124 55.7623C232.655 56.804 232.895 58.1889 232.727 59.6691Z" fill="#F4ECE5"/>
<path d="M238.829 73.2199C238.183 74.5626 237.24 75.6057 236.242 76.2062C235.244 76.8068 234.181 76.9661 233.299 76.5412C232.418 76.1164 231.882 75.189 231.728 74.0302C231.574 72.8713 231.803 71.4851 232.448 70.1438C233.094 68.8025 234.039 67.7594 235.036 67.1575C236.032 66.5556 237.097 66.3976 237.978 66.8225C238.859 67.2474 239.396 68.1761 239.55 69.3335C239.704 70.491 239.476 71.8786 238.829 73.2199Z" fill="#F4ECE5"/>
<path d="M60.2584 46.8859C60.2134 46.7375 60.1603 46.5877 60.1127 46.4583C60.065 46.3289 60.0214 46.2227 59.9956 46.1601C59.512 45.0071 58.7963 43.966 57.893 43.1016C57.2922 42.5202 56.6233 42.0136 55.9008 41.5928C55.1421 41.1568 54.3288 40.8234 53.4824 40.6015C52.8625 40.439 52.2288 40.3346 51.5896 40.2896C51.6658 39.4344 51.7425 38.5788 51.8197 37.7227C51.8969 36.8667 51.974 36.011 52.0512 35.1559L50.5356 35.1041L49.02 35.051L49.1248 36.9452L49.2297 38.8394L47.4281 35.2907L45.6265 31.7393L44.1531 32.6339L42.6797 33.5286L43.4164 34.6588L44.1531 35.7904L43.2979 36.5925L42.4427 37.3946L44.435 39.7095L46.4272 42.0245C45.8417 42.6219 45.3285 43.2859 44.898 44.0031C44.2107 45.1421 43.7579 46.4069 43.5662 47.7234C43.4829 48.2976 43.4514 48.8783 43.4722 49.4582C43.4887 49.9433 43.5401 50.4267 43.6261 50.9044C43.652 51.061 43.6819 51.2189 43.7173 51.3755C43.7527 51.5321 43.795 51.6887 43.8413 51.844C44.469 53.9179 45.956 55.5207 47.8529 56.4276C49.8834 57.3608 52.1851 57.5187 54.3239 56.8715C56.4627 56.2242 58.2908 54.8167 59.4631 52.9143C60.5307 51.1168 60.8875 48.9612 60.2584 46.8859Z" fill="#E9CF81"/>
<path d="M47.6197 41.3775C47.5859 41.3776 47.5526 41.3692 47.523 41.353C47.4925 41.3366 47.4667 41.3127 47.4481 41.2835L45.7146 38.5914L43.9811 35.8992C43.9663 35.8768 43.9561 35.8516 43.9512 35.8252C43.9462 35.7988 43.9466 35.7716 43.9524 35.7454C43.9581 35.7191 43.969 35.6942 43.9844 35.6723C43.9999 35.6503 44.0196 35.6316 44.0424 35.6173C44.0648 35.6025 44.09 35.5923 44.1164 35.5874C44.1428 35.5825 44.17 35.5829 44.1962 35.5886C44.2225 35.5943 44.2474 35.6052 44.2693 35.6207C44.2913 35.6361 44.31 35.6558 44.3243 35.6786L46.0578 38.3694L47.7912 41.0616C47.806 41.084 47.8162 41.1092 47.8211 41.1356C47.826 41.162 47.8256 41.1892 47.8198 41.2154C47.8077 41.2685 47.7755 41.3149 47.73 41.3448C47.6972 41.3663 47.6588 41.3776 47.6197 41.3775Z" fill="#666538"/>
<path d="M54.3235 57.0529H54.3004H54.2772C52.7916 56.6478 51.4538 55.8239 50.4235 54.6794C49.3899 53.5356 48.6192 52.0499 48.1371 50.2538C47.8285 49.0759 47.6459 47.8685 47.5925 46.652C47.5629 46.1199 47.5629 45.5867 47.5925 45.0547C47.5936 45.0322 47.5994 45.0101 47.6095 44.99C47.6196 44.9698 47.6337 44.952 47.651 44.9375C47.6855 44.9085 47.73 44.8943 47.7749 44.8981C47.8199 44.9015 47.8616 44.9227 47.891 44.9569C47.9203 44.9911 47.9349 45.0356 47.9315 45.0805C47.9025 45.6021 47.9025 46.1249 47.9315 46.6465C47.9838 47.8377 48.1623 49.0199 48.464 50.1734C48.9369 51.931 49.6673 53.3581 50.655 54.4547C51.6469 55.554 52.9356 56.3429 54.3657 56.7261C54.3872 56.7321 54.4073 56.7423 54.4248 56.7561C54.4424 56.7699 54.457 56.787 54.4679 56.8065C54.4791 56.8259 54.4862 56.8473 54.4888 56.8696C54.4914 56.8918 54.4894 56.9144 54.4829 56.9358C54.473 56.9718 54.4514 57.0034 54.4216 57.0257C54.3924 57.0446 54.3582 57.0541 54.3235 57.0529Z" fill="#2B3D0A"/>
<path d="M57.1876 55.6114H57.1617C57.1395 55.6081 57.1182 55.6003 57.099 55.5886C57.0798 55.5769 57.0632 55.5615 57.05 55.5433C57.0367 55.5256 57.0271 55.5054 57.0217 55.4839C57.0163 55.4623 57.0153 55.44 57.0187 55.418C57.2896 53.7317 57.1456 52.0047 56.5993 50.3864C56.1752 49.1662 55.5339 48.0327 54.7065 47.0406C54.0736 46.2809 53.3532 45.5984 52.5604 45.0075C52.2315 44.7577 51.8862 44.5302 51.5268 44.3267C51.497 44.3109 51.4726 44.2867 51.4566 44.257C51.4407 44.2273 51.4338 44.1936 51.4371 44.1601C51.4403 44.1265 51.4533 44.0947 51.4747 44.0686C51.496 44.0425 51.5245 44.0233 51.5568 44.0135C51.5791 44.0062 51.6027 44.0035 51.6261 44.0056C51.6495 44.0077 51.6723 44.0145 51.6929 44.0257C52.0725 44.2365 52.4366 44.474 52.7823 44.7366C53.5912 45.3405 54.3261 46.0375 54.972 46.8132C55.8246 47.8381 56.4844 49.0091 56.9193 50.2693C57.486 51.9405 57.6361 53.7247 57.3564 55.4671C57.3497 55.5074 57.329 55.5441 57.2979 55.5706C57.2671 55.5969 57.228 55.6113 57.1876 55.6114Z" fill="#2B3D0A"/>
<path d="M41.5506 56.3768C41.5576 56.7342 41.4672 57.0868 41.2891 57.3968C41.1284 57.6582 40.9051 57.8189 40.66 57.8189C40.4149 57.8189 40.1916 57.6582 40.0309 57.3968C39.8586 57.0839 39.7683 56.7326 39.7683 56.3755C39.7683 56.0183 39.8586 55.667 40.0309 55.3542C40.1916 55.0927 40.4135 54.9307 40.66 54.9307C40.9065 54.9307 41.1284 55.0927 41.2891 55.3542C41.4677 55.6649 41.5581 56.0185 41.5506 56.3768Z" fill="#E9CF81"/>
<path d="M59.6335 90.6333L53.9932 96.1184L48.3529 101.603C48.0936 101.854 47.7543 102.005 47.3945 102.03C47.0348 102.055 46.6778 101.952 46.3865 101.74L33.2934 92.2279L20.1948 82.7188C19.9942 82.5728 19.8322 82.3802 19.7226 82.1576C19.613 81.935 19.5592 81.689 19.5657 81.441C19.5723 81.193 19.6391 80.9503 19.7603 80.7338C19.8815 80.5173 20.0535 80.3335 20.2615 80.1983L26.2859 76.2819L32.3143 72.3696C32.5588 72.2113 32.8433 72.1258 33.1346 72.1231C33.4259 72.1205 33.7119 72.2008 33.9593 72.3546L46.6684 80.2977L59.3761 88.2407C59.5729 88.3635 59.7392 88.5295 59.8623 88.7261C59.9855 88.9227 60.0623 89.1447 60.087 89.3753C60.1116 89.606 60.0835 89.8392 60.0047 90.0574C59.9259 90.2756 59.7985 90.473 59.6321 90.6346L59.6335 90.6333Z" fill="#E9CF81"/>
<path d="M228.258 39.1405C228.357 39.4561 228.361 39.7937 228.269 40.1114C228.245 40.2397 228.187 40.3589 228.099 40.4556C228.011 40.5524 227.899 40.6229 227.774 40.6594C227.648 40.6958 227.515 40.6967 227.39 40.662C227.264 40.6273 227.15 40.5583 227.061 40.4627C226.82 40.2393 226.645 39.9544 226.553 39.6386C226.462 39.3229 226.459 38.9882 226.544 38.6707C226.568 38.5424 226.626 38.4232 226.714 38.3265C226.802 38.2297 226.914 38.1592 227.039 38.1227C227.165 38.0863 227.298 38.0854 227.423 38.1201C227.549 38.1548 227.663 38.2238 227.752 38.3194C227.997 38.5382 228.173 38.8235 228.258 39.1405Z" fill="#E9CF81"/>
<path d="M198.055 97.1316C198.222 97.4961 198.284 97.8994 198.237 98.2972C198.185 98.639 198.024 98.9045 197.767 99.0162C197.509 99.1279 197.206 99.0639 196.921 98.8678C196.604 98.6254 196.353 98.3059 196.194 97.9396C196.035 97.5732 195.972 97.1723 196.011 96.7748C196.065 96.433 196.225 96.1661 196.481 96.0544C196.737 95.9428 197.044 96.0081 197.328 96.2029C197.651 96.4397 197.903 96.761 198.055 97.1316Z" fill="#E9CF81"/>
<path d="M225.255 36.3318C225.422 36.6963 225.484 37.0996 225.436 37.4974C225.385 37.8392 225.224 38.1047 224.967 38.2164C224.709 38.3281 224.406 38.2641 224.121 38.068C223.804 37.8256 223.553 37.5061 223.394 37.1398C223.235 36.7734 223.172 36.3725 223.211 35.975C223.264 35.6332 223.425 35.3663 223.681 35.2546C223.937 35.143 224.244 35.2083 224.528 35.4031C224.851 35.6399 225.103 35.9612 225.255 36.3318Z" fill="#E9CF81"/>
<path d="M202.115 101.753C201.977 102.162 201.735 102.528 201.414 102.816C201.133 103.052 200.828 103.15 200.566 103.055C200.303 102.959 200.13 102.688 200.066 102.329C200.012 101.902 200.06 101.468 200.207 101.063C200.354 100.658 200.594 100.293 200.909 99.999C201.189 99.7635 201.494 99.6654 201.757 99.7607C202.02 99.8561 202.193 100.127 202.257 100.488C202.319 100.915 202.271 101.351 202.115 101.753Z" fill="#E9CF81"/>
<path d="M43.5847 62.9338C43.4699 63.0108 43.3375 63.0574 43.1999 63.0693C43.0622 63.0812 42.9238 63.0581 42.7976 63.0019C42.4656 62.8657 42.1758 62.6435 41.958 62.3582C41.7403 62.073 41.6023 61.7349 41.5584 61.3787C41.5288 61.2419 41.5388 61.0995 41.5872 60.9682C41.6356 60.8369 41.7205 60.7221 41.8318 60.6372C41.943 60.5523 42.0762 60.5009 42.2157 60.489C42.3551 60.4771 42.4951 60.5051 42.6192 60.5699C42.9513 60.706 43.2411 60.9281 43.4589 61.2134C43.6767 61.4987 43.8146 61.8368 43.8584 62.1931C43.8791 62.3296 43.8648 62.4692 43.817 62.5987C43.7691 62.7283 43.6892 62.8436 43.5847 62.9338Z" fill="#E9CF81"/>
<path d="M37.4288 55.5151C37.6847 55.7614 37.8639 56.0763 37.9449 56.422C37.9903 56.5536 37.9979 56.6952 37.9666 56.8309C37.9353 56.9665 37.8666 57.0906 37.7682 57.189C37.6698 57.2874 37.5457 57.3561 37.4101 57.3874C37.2745 57.4186 37.1328 57.4111 37.0013 57.3657C36.6578 57.2781 36.3442 57.0996 36.0936 56.849C35.843 56.5983 35.6645 56.2848 35.5769 55.9413C35.5315 55.8098 35.524 55.6681 35.5552 55.5325C35.5865 55.3969 35.6552 55.2728 35.7536 55.1744C35.852 55.076 35.9761 55.0072 36.1117 54.976C36.2473 54.9447 36.389 54.9522 36.5206 54.9976C36.8671 55.0783 37.1827 55.2581 37.4288 55.5151Z" fill="#E9CF81"/>
<path d="M42.5082 94.8019C42.3967 94.5003 42.3471 94.1794 42.3625 93.8582C42.3785 93.5366 42.4581 93.2214 42.5967 92.9309C42.8412 92.4106 43.1305 91.9125 43.4614 91.4425C43.7894 90.9764 44.1813 90.5588 44.6257 90.2019C45.0578 89.8439 45.5922 89.6318 46.1522 89.596C46.4321 89.5857 46.7107 89.64 46.9662 89.7548C47.2217 89.8696 47.4473 90.0417 47.6256 90.2578C47.8982 90.5875 48.0924 90.9749 48.1934 91.3907C48.301 91.8059 48.3644 92.2313 48.3827 92.6599C48.4007 93.0288 48.3961 93.3985 48.3691 93.767C48.3419 94.136 48.2956 94.5037 48.2329 94.8672C48.1574 95.3007 47.9696 95.7069 47.6882 96.0451C47.4088 96.3832 47.0404 96.6365 46.6247 96.7764C46.195 96.9226 45.7403 96.9814 45.2875 96.9493C44.8362 96.9188 44.3966 96.7925 43.9979 96.579C43.6191 96.3757 43.2881 96.0939 43.027 95.7524C42.8066 95.4639 42.6316 95.1433 42.5082 94.8019Z" fill="#F4ECE5"/>
<path d="M34.2982 89.1451C34.1867 88.8436 34.1371 88.5226 34.1525 88.2014C34.1685 87.8799 34.2481 87.5647 34.3867 87.2741C34.6312 86.7538 34.9205 86.2558 35.2514 85.7857C35.5794 85.3196 35.9713 84.902 36.4157 84.5452C36.8486 84.1891 37.3828 83.979 37.9422 83.9446C38.2222 83.9342 38.5008 83.9884 38.7563 84.1032C39.0119 84.218 39.2375 84.3902 39.4156 84.6064C39.6883 84.9362 39.8824 85.3236 39.9835 85.7394C40.0897 86.1542 40.1514 86.5793 40.1673 87.0072C40.1852 87.3757 40.1807 87.745 40.1537 88.1129C40.1265 88.4819 40.0802 88.8496 40.0175 89.2132C39.9432 89.6475 39.7553 90.0543 39.4728 90.3925C39.1929 90.7294 38.8253 90.9824 38.4107 91.1237C37.9802 91.2689 37.5252 91.3272 37.0721 91.2953C36.6212 91.2647 36.1821 91.1385 35.7839 90.9249C35.4049 90.7213 35.0735 90.4396 34.8116 90.0983C34.5936 89.8082 34.4205 89.4868 34.2982 89.1451Z" fill="#F4ECE5"/>
<path d="M26.6331 83.4941C26.5213 83.1926 26.4721 82.8715 26.4887 82.5504C26.5043 82.2293 26.5834 81.9146 26.7216 81.6244C26.9659 81.1027 27.2552 80.6033 27.5863 80.1319C27.9143 79.6658 28.3062 79.2482 28.7506 78.8914C29.1833 78.5334 29.718 78.3213 30.2785 78.2854C30.5582 78.2751 30.8365 78.3295 31.0918 78.4443C31.3471 78.5591 31.5725 78.7312 31.7505 78.9472C32.0234 79.2768 32.2176 79.6643 32.3184 80.0802C32.4246 80.495 32.4862 80.92 32.5022 81.348C32.5208 81.7165 32.5163 82.0858 32.4886 82.4537C32.4627 82.8227 32.415 83.1904 32.3524 83.5553C32.2778 83.9891 32.0899 84.3955 31.8077 84.7332C31.528 85.0704 31.1603 85.3235 30.7455 85.4645C30.315 85.6094 29.8602 85.6682 29.407 85.6374C28.9561 85.6058 28.5171 85.4791 28.1187 85.2657C27.7402 85.0622 27.4088 84.7809 27.1465 84.4405C26.9292 84.1523 26.7561 83.8333 26.6331 83.4941Z" fill="#F4ECE5"/>
<path d="M48.1225 87.7657C48.0106 87.4643 47.9614 87.1432 47.9782 86.822C47.9938 86.501 48.073 86.1863 48.211 85.8961C48.4554 85.3755 48.7452 84.8774 49.0771 84.4077C49.4038 83.9406 49.7954 83.5224 50.24 83.1658C50.6733 82.8088 51.2077 82.5969 51.7679 82.5598C52.0476 82.5496 52.3259 82.604 52.5812 82.7188C52.8365 82.8336 53.0619 83.0056 53.2399 83.2216C53.5131 83.5516 53.7073 83.9395 53.8078 84.3559C53.9139 84.7703 53.9756 85.1949 53.9916 85.6223C54.0102 85.9913 54.0057 86.3611 53.978 86.7294C53.9521 87.0971 53.9045 87.4648 53.8418 87.8297C53.7672 88.2635 53.5793 88.6699 53.2971 89.0076C53.0182 89.3456 52.6503 89.5989 52.235 89.7389C51.8045 89.8839 51.3496 89.9427 50.8964 89.9118C50.4455 89.8813 50.0064 89.755 49.6082 89.5414C49.2292 89.3378 48.8978 89.0561 48.6359 88.7149C48.4183 88.4259 48.2453 88.106 48.1225 87.7657Z" fill="#F4ECE5"/>
<path d="M40.1851 82.1085C40.0744 81.8066 40.0253 81.4856 40.0407 81.1645C40.0562 80.8434 40.1358 80.5286 40.2749 80.2388C40.5183 79.7179 40.8077 79.2198 41.1396 78.7504C41.466 78.2834 41.8576 77.8657 42.3026 77.5099C42.7355 77.152 43.27 76.9395 43.8304 76.9025C44.1103 76.8926 44.3888 76.9471 44.6442 77.0618C44.8997 77.1766 45.1254 77.3485 45.3038 77.5643C45.576 77.895 45.7701 78.2827 45.8717 78.6987C45.9765 79.1133 46.0381 79.5377 46.0555 79.9651C46.073 80.3341 46.068 80.7038 46.0405 81.0722C46.0147 81.4398 45.9684 81.8075 45.9044 82.1725C45.8293 82.6061 45.6415 83.0123 45.3597 83.3504C45.0808 83.6881 44.7128 83.941 44.2975 84.0803C43.8675 84.2252 43.4131 84.2839 42.9603 84.2532C42.509 84.2228 42.0693 84.0965 41.6707 83.8828C41.2919 83.6796 40.9609 83.3978 40.6998 83.0562C40.4815 82.768 40.3079 82.4485 40.1851 82.1085Z" fill="#F4ECE5"/>
<path d="M32.2475 76.4545C32.1369 76.1525 32.0878 75.8313 32.1032 75.5099C32.1187 75.1886 32.1983 74.8736 32.3374 74.5835C32.5813 74.0629 32.8707 73.5649 33.2021 73.0951C33.5292 72.6288 33.9207 72.2111 34.365 71.8546C34.798 71.497 35.3325 71.2845 35.8929 71.2473C36.1729 71.2373 36.4515 71.2919 36.707 71.4069C36.9625 71.5219 37.1881 71.6942 37.3663 71.9104C37.6384 72.2406 37.8325 72.6278 37.9341 73.0434C38.0396 73.4579 38.1012 73.8824 38.118 74.3098C38.1359 74.6788 38.1313 75.0485 38.1043 75.4169C38.0771 75.7859 38.0308 76.1522 37.9682 76.5172C37.8926 76.9507 37.7048 77.3568 37.4235 77.6951C37.144 78.0331 36.7757 78.2864 36.36 78.4263C35.93 78.5719 35.4755 78.6307 35.0227 78.5993C34.5715 78.5687 34.1319 78.4425 33.7332 78.2289C33.3543 78.0257 33.0233 77.7439 32.7622 77.4023C32.5441 77.114 32.3706 76.7945 32.2475 76.4545Z" fill="#F4ECE5"/>
<path d="M235.637 43.1914L233.102 38.9033L230.573 34.6152L231.468 34.129L232.362 33.6415L233.484 35.6065L234.608 37.5715L233.024 32.5018L231.443 27.432L233.197 27.063L234.951 26.6953L235.846 30.6947L236.742 34.6942L237.39 31.8005L238.039 28.9054L239.584 29.4665L241.126 30.0275C240.591 31.3816 240.15 32.7712 239.807 34.1862C239.223 36.572 238.794 39.5719 239.408 42.0285L237.518 42.61L235.637 43.1914Z" fill="#BAB653"/>
<path d="M235.637 43.1916L240.124 57.4368L244.618 71.6819C244.805 72.4091 245.114 73.0996 245.53 73.7246C246.183 74.6505 247.222 75.3859 248.778 74.6219C248.778 74.6219 249.36 74.3387 249.595 73.4971C249.831 72.6556 249.715 71.2544 248.329 69.0184C247.425 67.0398 246.52 64.925 245.635 62.6808C244.75 60.4367 243.876 58.0605 243.055 55.5562C242.259 53.1351 241.563 50.7924 240.964 48.5283C240.366 46.2642 239.847 44.0972 239.408 42.0273L237.518 42.6102L235.637 43.1916Z" fill="#F4ECE5"/>
<path d="M240.957 94.5444C240.999 94.5852 241.044 94.6275 241.093 94.6683C241.139 94.7112 241.188 94.7516 241.239 94.7895C241.498 94.9958 241.785 95.1653 242.091 95.2933C242.573 95.5046 243.115 95.5393 243.62 95.3914C244.118 95.2288 244.544 94.8999 244.828 94.46C245.12 94.0214 245.276 93.5066 245.277 92.9798C245.273 92.5098 245.139 92.0502 244.889 91.6521C244.637 91.2473 244.284 90.9154 243.864 90.6893C244.195 90.8104 244.544 90.8788 244.896 90.8922C245.355 90.9112 245.811 90.8088 246.217 90.5953C246.769 90.2981 247.205 89.8231 247.454 89.2472C247.717 88.6432 247.785 87.9718 247.648 87.3272C247.556 87.0188 247.422 86.7246 247.249 86.4529C246.949 85.9547 246.495 85.5676 245.956 85.3499C245.308 85.1154 244.596 85.1305 243.959 85.3921C243.251 85.6756 242.655 86.1824 242.261 86.8356C242.274 86.1779 242.064 85.5351 241.665 85.0122C241.292 84.5158 240.751 84.1722 240.144 84.0454C239.668 83.954 239.177 84.0013 238.728 84.1816C238.261 84.3644 237.858 84.6785 237.567 85.0857C237.202 85.603 237.038 86.236 237.107 86.8655L237.05 86.7525L236.993 86.6381C236.69 86.0341 236.159 85.5751 235.518 85.3622C234.877 85.1492 234.177 85.1996 233.573 85.5024C233.274 85.6525 233.008 85.8601 232.789 86.1132C232.57 86.3663 232.403 86.6601 232.298 86.9778C232.192 87.2955 232.15 87.6307 232.175 87.9645C232.199 88.2983 232.289 88.6241 232.439 88.9231L233.011 90.0643L233.584 91.2054L231.95 92.0224L230.316 92.8395L231.14 94.4817L231.957 96.124L233.591 95.307L235.225 94.4899L235.809 95.6338L236.383 96.7749C236.533 97.074 236.74 97.3406 236.993 97.5595C237.246 97.7784 237.54 97.9453 237.857 98.0506C238.175 98.156 238.51 98.1977 238.844 98.1734C239.177 98.1492 239.503 98.0594 239.802 97.9093C240.396 97.6103 240.849 97.0909 241.065 96.4621C241.281 95.8333 241.242 95.145 240.957 94.5444Z" fill="#BAB653"/>
<path d="M203.706 110.669C203.197 110.851 202.638 110.829 202.145 110.607C201.639 110.385 201.233 109.985 201.004 109.483C200.774 108.981 200.737 108.412 200.9 107.884C201.057 107.368 201.41 106.934 201.883 106.675L213.205 99.2438L224.526 91.81C225.14 91.3975 225.836 91.123 226.566 91.0054C227.296 90.8879 228.043 90.9301 228.756 91.1292C229.487 91.331 230.169 91.6809 230.759 92.1571C231.35 92.6333 231.836 93.2257 232.189 93.8976C232.55 94.568 232.77 95.3058 232.834 96.0649C232.898 96.824 232.805 97.5881 232.56 98.3096C232.324 99.0139 231.938 99.6583 231.427 100.198C230.916 100.737 230.294 101.159 229.604 101.433L216.654 106.05L203.706 110.669Z" fill="#F98638"/>
<path d="M226.909 102.491C226.877 102.492 226.846 102.483 226.819 102.465C226.792 102.448 226.769 102.424 226.755 102.395L225.675 100.119L224.596 97.845C224.586 97.8248 224.58 97.8029 224.579 97.7805C224.578 97.7581 224.581 97.7358 224.589 97.7146C224.596 97.6935 224.608 97.674 224.623 97.6574C224.638 97.6407 224.656 97.6272 224.676 97.6176C224.697 97.6083 224.721 97.6035 224.744 97.6035C224.767 97.6035 224.791 97.6083 224.812 97.6176C224.833 97.6246 224.853 97.6359 224.87 97.6509C224.886 97.666 224.9 97.6843 224.909 97.7048L225.99 99.9789L227.07 102.254C227.08 102.274 227.085 102.296 227.086 102.319C227.088 102.341 227.084 102.363 227.077 102.384C227.069 102.405 227.058 102.424 227.043 102.441C227.028 102.457 227.01 102.471 226.99 102.48L226.953 102.493L226.909 102.491Z" fill="#2B3D0A"/>
<path d="M220.938 104.47C220.907 104.47 220.876 104.461 220.848 104.445C220.82 104.427 220.798 104.402 220.784 104.372L219.845 102.395L218.907 100.417C218.897 100.395 218.892 100.372 218.892 100.348C218.892 100.325 218.897 100.302 218.907 100.28C218.922 100.238 218.953 100.203 218.994 100.184C219.014 100.174 219.036 100.168 219.058 100.167C219.08 100.166 219.102 100.169 219.124 100.177C219.145 100.184 219.164 100.196 219.18 100.211C219.197 100.226 219.21 100.244 219.22 100.264L220.159 102.243L221.099 104.22C221.109 104.24 221.114 104.262 221.116 104.284C221.117 104.307 221.113 104.329 221.106 104.35C221.099 104.371 221.087 104.391 221.072 104.408C221.057 104.424 221.039 104.438 221.019 104.447L220.982 104.46L220.938 104.47Z" fill="#2B3D0A"/>
<path d="M215.247 106.724C215.214 106.724 215.181 106.714 215.153 106.697C215.125 106.677 215.103 106.65 215.089 106.619L214.219 104.503L213.349 102.387C213.339 102.365 213.334 102.342 213.334 102.319C213.334 102.295 213.339 102.272 213.349 102.251C213.366 102.209 213.399 102.177 213.44 102.159C213.462 102.15 213.485 102.146 213.508 102.146C213.532 102.146 213.555 102.15 213.576 102.159C213.618 102.177 213.651 102.21 213.669 102.252L214.539 104.368L215.409 106.484C215.419 106.506 215.424 106.529 215.424 106.552C215.424 106.576 215.419 106.599 215.409 106.62C215.392 106.662 215.359 106.694 215.318 106.712C215.307 106.716 215.296 106.719 215.285 106.721C215.273 106.724 215.26 106.725 215.247 106.724Z" fill="#2B3D0A"/>
<path d="M237.566 88.1317C237.526 88.1315 237.487 88.1197 237.454 88.0976C237.42 88.0762 237.394 88.0448 237.378 88.0078L237.149 87.4753L236.92 86.9443C236.91 86.9195 236.905 86.8928 236.905 86.866C236.905 86.8391 236.91 86.8124 236.92 86.7877C236.93 86.7627 236.945 86.7399 236.964 86.7207C236.982 86.7015 237.005 86.6863 237.029 86.676C237.054 86.6655 237.081 86.6602 237.108 86.6602C237.135 86.6602 237.161 86.6655 237.186 86.676C237.211 86.6857 237.234 86.7003 237.253 86.7191C237.272 86.7378 237.287 86.7602 237.298 86.7849L237.526 87.3174L237.757 87.8484C237.777 87.8987 237.777 87.9548 237.757 88.005C237.747 88.03 237.732 88.0528 237.714 88.072C237.695 88.0912 237.672 88.1064 237.648 88.1167C237.635 88.1225 237.622 88.127 237.608 88.1303L237.566 88.1317Z" fill="#666538"/>
<path d="M243.861 90.8912H243.83H243.8L243.226 90.7074L242.651 90.5222C242.625 90.5142 242.602 90.5012 242.581 90.4839C242.561 90.4666 242.544 90.4453 242.532 90.4214C242.507 90.3735 242.503 90.3177 242.519 90.2662C242.526 90.2401 242.539 90.2158 242.556 90.1948C242.573 90.1738 242.595 90.1564 242.619 90.1437C242.643 90.131 242.669 90.1232 242.696 90.1209C242.723 90.1185 242.75 90.1216 242.776 90.13L243.349 90.3138L243.924 90.4977C243.95 90.5053 243.974 90.518 243.995 90.5352C244.016 90.5524 244.034 90.5736 244.047 90.5976C244.059 90.6216 244.067 90.6479 244.069 90.6749C244.072 90.702 244.069 90.7292 244.06 90.7551C244.047 90.7968 244.021 90.8331 243.985 90.8585C243.949 90.8824 243.905 90.8938 243.861 90.8912Z" fill="#666538"/>
<path d="M240.957 94.7463C240.921 94.7461 240.886 94.7367 240.855 94.719C240.823 94.7 240.797 94.6733 240.779 94.6414L240.478 94.0967L240.175 93.552C240.149 93.5046 240.143 93.4488 240.158 93.3968C240.165 93.3709 240.178 93.3467 240.194 93.3256C240.211 93.3046 240.232 93.2871 240.256 93.2742C240.303 93.2497 240.357 93.2443 240.408 93.2593C240.459 93.2743 240.502 93.3085 240.528 93.3546L240.829 93.8993L241.13 94.4439C241.154 94.4908 241.16 94.5452 241.145 94.5959C241.13 94.6466 241.097 94.6897 241.051 94.7163C241.035 94.7244 241.019 94.7308 241.002 94.7354C240.987 94.7406 240.972 94.7443 240.957 94.7463Z" fill="#666538"/>
<path d="M235.232 94.4869L234.685 93.3907L234.137 92.2959L233.464 94.0035L232.792 95.7111L234.012 95.0997L235.232 94.4869Z" fill="#666538"/>
<path d="M235.414 39.594C235.375 39.5934 235.338 39.5821 235.305 39.5613C235.271 39.54 235.244 39.5092 235.228 39.4728L234.819 38.5645L234.41 37.6562C234.388 37.6065 234.387 37.5501 234.406 37.4991C234.425 37.4481 234.463 37.4067 234.513 37.3839C234.563 37.3642 234.619 37.3642 234.669 37.3839C234.72 37.4032 234.761 37.4419 234.784 37.4915L235.192 38.3998L235.601 39.308C235.612 39.3327 235.618 39.3593 235.619 39.3864C235.62 39.4134 235.615 39.4404 235.605 39.4657C235.596 39.491 235.581 39.5142 235.563 39.5338C235.544 39.5535 235.522 39.5693 235.497 39.5804C235.484 39.5857 235.47 39.5903 235.456 39.594C235.442 39.5954 235.428 39.5954 235.414 39.594Z" fill="#666538"/>
<path d="M236.74 35.826C236.686 35.8257 236.634 35.8042 236.596 35.7661C236.557 35.7278 236.536 35.6759 236.536 35.6218V34.6944C236.536 34.6403 236.557 34.5884 236.596 34.5501C236.634 34.5118 236.686 34.4902 236.741 34.4902C236.795 34.4902 236.847 34.5118 236.886 34.5501C236.924 34.5886 236.945 34.6405 236.944 34.6944V35.6218C236.945 35.6757 236.924 35.7276 236.886 35.7661C236.847 35.8044 236.795 35.8259 236.74 35.826Z" fill="#666538"/>
<path d="M202.543 62.0298C202.763 61.8885 202.943 61.6941 203.068 61.4647C203.119 61.3783 203.151 61.2825 203.163 61.1833C203.175 61.084 203.167 60.9833 203.139 60.8873C203.101 60.7806 203.035 60.6864 202.947 60.615C202.897 60.5733 202.841 60.5376 202.782 60.5087C202.528 60.3976 202.24 60.3917 201.982 60.4924C201.647 60.6134 201.341 60.8053 201.087 61.0548C200.729 61.0548 200.341 61.0548 199.951 61.0657C199.562 61.0766 199.174 61.0766 198.817 61.0766C198.542 60.83 198.206 60.6629 197.843 60.5932C197.552 60.551 197.314 60.619 197.176 60.7716C197.039 60.9241 196.99 61.2359 197.081 61.575C197.203 61.9845 197.455 62.3434 197.798 62.5977L198.207 64.7315L198.615 66.8653C198.641 67.0015 198.713 67.1244 198.82 67.2126C198.927 67.3007 199.061 67.3488 199.2 67.3488H200.501L200.902 72.4703L201.302 77.5918C201.31 77.6995 201.359 77.8003 201.438 77.8736C201.517 77.9469 201.622 77.9873 201.73 77.9867H203.895C204.007 77.9871 204.114 77.9441 204.195 77.8668C204.274 77.7884 204.32 77.6827 204.324 77.5713L204.404 74.8874L204.485 72.2034L207.359 72.0822L210.232 71.9623L210.793 74.6858L211.355 77.4093C211.37 77.487 211.412 77.5569 211.473 77.6067C211.535 77.6566 211.612 77.6831 211.691 77.6816H212.054H212.418L211.41 69.7413L210.403 61.7997L206.471 61.9236L202.543 62.0298Z" fill="#F4ECE5"/>
<path d="M203.42 39.9913C203.42 40.6277 203.199 41.2443 202.795 41.7362C202.391 42.2281 201.83 42.5647 201.206 42.6888C200.581 42.813 199.934 42.7168 199.372 42.4169C198.811 42.1169 198.371 41.6316 198.128 41.0437C197.884 40.4558 197.852 39.8017 198.037 39.1927C198.221 38.5838 198.611 38.0577 199.14 37.704C199.67 37.3504 200.305 37.1912 200.938 37.2534C201.571 37.3157 202.164 37.5956 202.614 38.0454C202.87 38.3005 203.073 38.6037 203.211 38.9377C203.35 39.2717 203.421 39.6298 203.42 39.9913Z" fill="#353519"/>
<path d="M202.571 78.161C202.526 78.161 202.483 78.1431 202.451 78.1111C202.419 78.0792 202.401 78.0359 202.401 77.9908V69.5589C202.401 69.5137 202.419 69.4704 202.451 69.4385C202.483 69.4066 202.526 69.3887 202.571 69.3887C202.617 69.3887 202.66 69.4066 202.692 69.4385C202.724 69.4704 202.742 69.5137 202.742 69.5589V77.9908C202.742 78.0359 202.724 78.0792 202.692 78.1111C202.66 78.1431 202.617 78.161 202.571 78.161Z" fill="#2B3D0A"/>
<path d="M199.511 66.5864C199.511 66.6261 199.497 66.6646 199.472 66.6953C199.447 66.726 199.412 66.7471 199.373 66.7549C199.334 66.7627 199.293 66.7567 199.258 66.738C199.223 66.7194 199.196 66.6891 199.181 66.6525C199.165 66.6158 199.163 66.575 199.175 66.537C199.186 66.499 199.21 66.4662 199.243 66.4441C199.276 66.422 199.316 66.412 199.356 66.4158C199.395 66.4197 199.432 66.4371 199.46 66.4652C199.476 66.481 199.489 66.4999 199.497 66.5207C199.506 66.5415 199.511 66.5638 199.511 66.5864Z" fill="#2B3D0A"/>
<path d="M200.242 66.5866C200.242 66.6092 200.237 66.6315 200.229 66.6523C200.22 66.6731 200.207 66.692 200.191 66.7078C200.159 66.74 200.115 66.7581 200.07 66.7582C200.047 66.7584 200.025 66.754 200.004 66.7454C199.983 66.7367 199.965 66.7239 199.949 66.7078C199.917 66.6757 199.899 66.6321 199.899 66.5866C199.899 66.5412 199.917 66.4976 199.949 66.4654C199.965 66.4493 199.983 66.4365 200.004 66.4279C200.025 66.4192 200.047 66.4149 200.07 66.415C200.115 66.4151 200.159 66.4332 200.191 66.4654C200.207 66.4813 200.22 66.5002 200.229 66.521C200.237 66.5418 200.242 66.5641 200.242 66.5866Z" fill="#2B3D0A"/>
<path d="M200.503 67.5231C200.483 67.5229 200.462 67.5192 200.443 67.5122C200.423 67.505 200.405 67.4939 200.389 67.4795C200.356 67.4487 200.336 67.4063 200.334 67.3612C200.332 67.3162 200.348 67.2722 200.378 67.2385L200.963 66.593L201.55 65.9476C201.565 65.9309 201.584 65.9174 201.604 65.9078C201.624 65.8982 201.646 65.8928 201.669 65.8917C201.714 65.8899 201.758 65.9055 201.791 65.9353C201.824 65.9661 201.844 66.0087 201.846 66.0538C201.847 66.0761 201.844 66.0984 201.836 66.1194C201.829 66.1405 201.817 66.1598 201.802 66.1763L201.217 66.8218L200.63 67.4673C200.614 67.4856 200.594 67.5 200.571 67.5095C200.55 67.5187 200.527 67.5233 200.503 67.5231Z" fill="#2B3D0A"/>
<path d="M201.139 64.4237C201.272 64.5086 201.415 64.5772 201.564 64.628C201.813 64.716 202.083 64.7302 202.34 64.6689C202.735 64.564 203.08 64.2481 203.325 63.7824C203.596 63.2257 203.731 62.6122 203.717 61.993L203.13 62.0107L202.543 62.0298C202.763 61.8885 202.944 61.6941 203.069 61.4647C203.119 61.3783 203.151 61.2825 203.163 61.1833C203.175 61.084 203.167 60.9833 203.139 60.8873C203.102 60.7806 203.035 60.6864 202.947 60.615C202.897 60.5733 202.842 60.5376 202.783 60.5087C202.528 60.3976 202.241 60.3917 201.982 60.4924C201.647 60.6134 201.342 60.8053 201.087 61.0548H200.581L200.054 61.0616C199.965 61.7459 200.018 62.4412 200.209 63.1042C200.393 63.6939 200.706 64.1514 201.139 64.4237Z" fill="#F98638"/>
<path d="M205.879 65.9645C206.412 66.0326 206.933 65.6745 207.335 65.2837C207.609 65.0088 207.855 64.7062 208.067 64.3808C208.316 64.5872 208.598 64.7489 208.902 64.8588C209.207 64.9785 209.537 65.0211 209.862 64.9829C210.187 64.9446 210.498 64.8267 210.766 64.6396L210.585 63.2138L210.404 61.7881L207.219 61.8875L204.034 61.9883C203.971 63.1321 204.188 64.0962 204.542 64.7894C204.896 65.4825 205.388 65.906 205.879 65.9645Z" fill="#F98638"/>
<path d="M206.707 69.559C206.363 68.856 205.772 68.3043 205.047 68.0093C204.406 67.7561 203.747 67.7642 203.284 68.0243C202.76 68.3185 202.467 68.8523 202.366 69.4378C202.266 70.0167 202.324 70.6121 202.535 71.1604C202.717 71.6153 202.979 72.0343 203.307 72.3982C203.634 72.7636 204.022 73.0692 204.454 73.3011L204.47 72.7564L204.486 72.2117L206.853 72.1123L209.218 72.0129C209.228 71.6043 209.176 70.9507 208.834 70.421C208.493 69.8913 207.861 69.48 206.707 69.559Z" fill="#F98638"/>
<path d="M199.001 61.0807H198.817C198.542 60.8341 198.206 60.667 197.843 60.5973C197.552 60.5551 197.314 60.6231 197.176 60.7757C197.039 60.9282 196.99 61.24 197.081 61.5791C197.203 61.9886 197.455 62.3474 197.798 62.6017L198.014 63.7265L198.227 64.8459C198.832 64.4796 199.073 63.781 199.14 63.0525C199.184 62.392 199.137 61.7285 199.001 61.0807Z" fill="#F98638"/>
<path d="M212.746 80.4125C212.705 80.4128 212.665 80.3978 212.635 80.3702C212.604 80.3426 212.584 80.305 212.577 80.264L210.303 62.3395L208.028 44.4135C208.023 44.3689 208.035 44.3241 208.062 44.2882C208.09 44.2528 208.13 44.2298 208.175 44.2242C208.197 44.2212 208.22 44.2226 208.241 44.2283C208.263 44.2341 208.283 44.2441 208.301 44.2578C208.319 44.2715 208.334 44.2886 208.345 44.3081C208.356 44.3276 208.363 44.349 208.366 44.3713L210.641 62.2959L212.917 80.2205C212.919 80.2429 212.918 80.2656 212.911 80.2873C212.905 80.309 212.895 80.3293 212.881 80.3471C212.868 80.3647 212.851 80.3795 212.831 80.3905C212.812 80.4015 212.79 80.4085 212.768 80.4111H212.746V80.4125Z" fill="#2B3D0A"/>
<path d="M49.5889 40.4184C49.5438 40.4184 49.4999 40.4034 49.4642 40.3758C49.4285 40.3482 49.4029 40.3096 49.3915 40.2659L49.2117 39.5782L49.032 38.8974C49.0248 38.8714 49.0231 38.8442 49.0268 38.8175C49.0306 38.7908 49.0397 38.7652 49.0538 38.7421C49.0809 38.6953 49.1255 38.661 49.1777 38.6468C49.2303 38.6337 49.286 38.6415 49.3329 38.6686C49.3796 38.6963 49.4133 38.7414 49.4269 38.7939L49.6066 39.4748L49.7864 40.1556C49.7936 40.1816 49.7954 40.2087 49.792 40.2353C49.7885 40.262 49.7797 40.2877 49.7661 40.311C49.7525 40.3342 49.7344 40.3545 49.7129 40.3706C49.6913 40.3867 49.6668 40.3983 49.6407 40.4048H49.6148L49.5889 40.4184Z" fill="#666538"/>
<path d="M233.216 72.6135C233.216 72.7147 233.182 72.8129 233.118 72.8913C233.054 72.9697 232.964 73.0234 232.865 73.0434C232.766 73.0633 232.663 73.0483 232.574 73.0007C232.484 72.9532 232.414 72.8761 232.375 72.7827C232.337 72.6893 232.331 72.5853 232.361 72.4884C232.39 72.3916 232.452 72.3078 232.536 72.2516C232.62 72.1953 232.721 72.1699 232.822 72.1798C232.922 72.1897 233.017 72.2342 233.088 72.3058C233.17 72.3874 233.216 72.498 233.216 72.6135Z" fill="#E9CF81"/>
<path d="M234.199 74.5457C234.199 74.6972 234.146 74.8439 234.05 74.9609C233.954 75.0778 233.82 75.1578 233.671 75.1872C233.523 75.2166 233.369 75.1936 233.235 75.122C233.102 75.0505 232.997 74.9349 232.939 74.7949C232.881 74.6549 232.874 74.4992 232.918 74.3543C232.962 74.2093 233.055 74.0841 233.181 74C233.307 73.9158 233.458 73.878 233.609 73.8928C233.759 73.9076 233.9 73.9743 234.007 74.0813C234.068 74.1423 234.117 74.2147 234.15 74.2944C234.183 74.374 234.2 74.4595 234.199 74.5457Z" fill="#E9CF81"/>
<path d="M227.551 58.9212C227.552 59.0223 227.517 59.1205 227.453 59.1989C227.389 59.2773 227.3 59.331 227.2 59.351C227.101 59.371 226.998 59.3559 226.909 59.3084C226.819 59.2608 226.749 59.1838 226.711 59.0903C226.672 58.9969 226.666 58.8929 226.696 58.796C226.725 58.6992 226.787 58.6155 226.871 58.5592C226.955 58.5029 227.056 58.4776 227.157 58.4874C227.258 58.4973 227.352 58.5419 227.423 58.6134C227.505 58.695 227.551 58.8057 227.551 58.9212Z" fill="#E9CF81"/>
<path d="M228.53 60.8533C228.53 61.0048 228.477 61.1515 228.381 61.2685C228.285 61.3854 228.151 61.4654 228.003 61.4948C227.854 61.5242 227.7 61.5012 227.566 61.4297C227.433 61.3581 227.328 61.2425 227.27 61.1025C227.212 60.9626 227.205 60.8068 227.249 60.6619C227.293 60.517 227.386 60.3917 227.512 60.3076C227.638 60.2235 227.789 60.1856 227.94 60.2004C228.09 60.2152 228.231 60.2819 228.338 60.3889C228.399 60.4499 228.448 60.5223 228.481 60.602C228.514 60.6817 228.531 60.7671 228.53 60.8533Z" fill="#E9CF81"/>
<path d="M141.598 28.6808C141.606 31.485 140.511 34.1798 138.549 36.1837C137.592 37.167 136.447 37.9485 135.183 38.4821C133.918 39.0158 132.56 39.2907 131.187 39.2907C129.815 39.2907 128.457 39.0158 127.192 38.4821C125.928 37.9485 124.783 37.167 123.826 36.1837C121.872 34.1752 120.779 31.4837 120.779 28.6816C120.779 25.8795 121.872 23.188 123.826 21.1796C124.783 20.1956 125.928 19.4135 127.192 18.8795C128.456 18.3455 129.815 18.0703 131.187 18.0703C132.56 18.0703 133.919 18.3455 135.183 18.8795C136.447 19.4135 137.592 20.1956 138.549 21.1796C140.51 23.1829 141.605 25.8771 141.598 28.6808Z" fill="#353519"/>
<path d="M100.305 62.2172C100.284 58.5865 100.494 54.9582 100.932 51.354C101.568 46.1945 102.84 40.1895 105.373 35.3762C105.99 34.2029 106.773 32.7449 107.901 31.3385C109.779 28.9205 112.456 27.2497 115.454 26.6251C116.234 26.4623 117.026 26.3649 117.822 26.3338C119.102 26.1645 120.396 26.1355 121.682 26.2473C123.518 26.4022 125.312 26.8794 126.983 27.657C128.517 28.3786 129.919 29.3531 131.13 30.5396C132.014 31.4192 132.824 32.3706 133.55 33.384C136.946 37.9576 139.016 44.5235 140.264 50.2672C141.111 54.2083 141.704 58.1999 142.038 62.2172H100.305Z" fill="#FF94AC"/>
<path d="M170.757 64.8532H126.92H83.0828V63.5318V62.2119H126.92H170.757V63.5318V64.8532Z" fill="#666538"/>
<path d="M167.42 117.226H126.919H86.4192V91.0387V64.8535H126.919H167.42V91.0387V117.226Z" fill="#E9CF81"/>
<path d="M113.601 76.0316L113.784 76.0682C113.846 76.0781 113.909 76.0865 113.976 76.0931C114.312 76.1309 114.651 76.1225 114.984 76.0682C115.515 75.9901 116.002 75.728 116.359 75.3275C116.701 74.9172 116.891 74.4019 116.898 73.8679C116.914 73.332 116.771 72.8033 116.487 72.3483C116.231 71.9442 115.867 71.6192 115.437 71.4097C115.001 71.196 114.516 71.1002 114.031 71.1317C114.382 71.0571 114.718 70.9279 115.029 70.7489C115.436 70.5176 115.774 70.1835 116.011 69.7803C116.325 69.225 116.443 68.5798 116.344 67.9495C116.247 67.2848 115.943 66.6675 115.475 66.1853C115.229 65.9687 114.955 65.7867 114.66 65.6444C114.131 65.3771 113.529 65.2884 112.946 65.3914C112.26 65.5376 111.653 65.9347 111.245 66.5048C110.786 67.1318 110.544 67.8916 110.557 68.6685C110.213 68.0942 109.686 67.6531 109.059 67.4169C108.471 67.1904 107.82 67.185 107.228 67.4019C106.768 67.5791 106.368 67.8847 106.077 68.2823C105.772 68.6918 105.594 69.1811 105.562 69.6904C105.543 70.0119 105.584 70.3341 105.682 70.6407C105.78 70.9424 105.93 71.2242 106.127 71.4729L106.015 71.4047L105.904 71.3381C105.613 71.1607 105.29 71.0423 104.953 70.9898C104.616 70.9372 104.272 70.9516 103.941 71.0319C103.61 71.1123 103.298 71.2571 103.022 71.4582C102.747 71.6592 102.514 71.9125 102.337 72.2035C102.16 72.4946 102.041 72.8177 101.989 73.1544C101.936 73.4912 101.95 73.835 102.031 74.1662C102.111 74.4974 102.256 74.8095 102.457 75.0848C102.658 75.36 102.911 75.5929 103.202 75.7702L104.316 76.4476L105.428 77.125L104.457 78.7161L103.484 80.3073L105.083 81.2826L106.681 82.2562L107.651 80.6634L108.622 79.0723L109.732 79.7497L110.843 80.4254C111.134 80.6029 111.458 80.7212 111.794 80.7738C112.131 80.8263 112.475 80.812 112.806 80.7316C113.137 80.6512 113.449 80.5064 113.725 80.3054C114 80.1043 114.233 79.851 114.41 79.56C114.762 78.9824 114.874 78.2904 114.723 77.6314C114.572 76.9724 114.169 76.3984 113.601 76.0316Z" fill="#BAB653"/>
<path d="M118.564 37.3485L118.882 33.1877L119.199 29.0268C119.199 29.0158 119.203 29.0052 119.211 28.9974C119.218 28.9896 119.229 28.9852 119.24 28.9852C119.251 28.9852 119.262 28.9896 119.27 28.9974C119.277 29.0052 119.282 29.0158 119.282 29.0268L119.863 33.1877L120.445 37.3485H129.819V29.3863C129.398 29.059 128.96 28.754 128.507 28.4726C128.015 28.1661 127.506 27.8883 126.983 27.6404C125.312 26.8628 123.518 26.3856 121.682 26.2307C120.396 26.1189 119.102 26.1479 117.822 26.3172C117.026 26.3483 116.234 26.4457 115.454 26.6085C114.434 26.8227 113.444 27.1579 112.505 27.6071C111.921 27.8865 111.36 28.2109 110.827 28.5774C110.328 28.92 109.854 29.2977 109.409 29.7075V37.3419H118.563L118.564 37.3485Z" fill="#F4ECE5"/>
<path d="M125.106 21.2738C125.106 22.7872 124.582 24.2538 123.622 25.4238C122.662 26.5938 121.326 27.3948 119.842 27.6903C118.358 27.9857 116.817 27.7574 115.482 27.0442C114.148 26.331 113.101 25.177 112.522 23.7789C111.943 22.3809 111.866 20.8252 112.306 19.377C112.745 17.9288 113.673 16.6777 114.931 15.8369C116.189 14.996 117.7 14.6176 119.206 14.7659C120.712 14.9142 122.12 15.5802 123.19 16.6503C123.798 17.2569 124.28 17.9776 124.609 18.771C124.938 19.5645 125.107 20.415 125.106 21.2738Z" fill="#A0505A"/>
<path d="M96.3571 55.4372L91.2609 57.724L86.1646 60.0041C86.005 60.0731 85.8248 60.0769 85.6624 60.0147C85.5001 59.9524 85.3685 59.8292 85.2958 59.6713L84.7449 58.4413L84.1957 57.2097C84.1603 57.131 84.1408 57.046 84.1383 56.9597C84.1359 56.8733 84.1506 56.7874 84.1815 56.7068C84.2125 56.6262 84.2591 56.5525 84.3186 56.49C84.3782 56.4275 84.4495 56.3774 84.5286 56.3426L89.6231 54.0624L94.7194 51.7823C94.7981 51.7468 94.8831 51.7273 94.9694 51.7249C95.0557 51.7224 95.1417 51.7371 95.2223 51.7681C95.3029 51.799 95.3766 51.8456 95.4391 51.9052C95.5016 51.9647 95.5517 52.0361 95.5865 52.1151L96.1374 53.3467L96.6883 54.5767C96.7238 54.6556 96.7433 54.7407 96.7458 54.8271C96.7482 54.9135 96.7336 54.9996 96.7026 55.0803C96.6717 55.1611 96.6251 55.2349 96.5655 55.2976C96.5059 55.3603 96.4345 55.4105 96.3554 55.4455L96.3571 55.4372Z" fill="#F98638"/>
<path d="M95.5864 52.1062L105.315 47.5991L115.043 43.0937C115.056 43.0879 115.071 43.0864 115.085 43.0893C115.099 43.0923 115.112 43.0996 115.122 43.1102C115.132 43.1208 115.138 43.1342 115.14 43.1485C115.142 43.1629 115.139 43.1774 115.133 43.1903C114.548 44.1839 113.89 45.1329 113.165 46.0296C112.263 47.1476 111.258 48.1775 110.161 49.1054C107.874 51.0303 105.235 52.4936 102.39 53.4144C100.54 54.0154 98.6268 54.4002 96.6882 54.5611C96.5052 54.1517 96.3221 53.7406 96.1373 53.3311C95.9526 52.9217 95.7712 52.5156 95.5864 52.1062Z" fill="#F4ECE5"/>
<path d="M122.263 117.23C122.251 117.231 122.238 117.231 122.226 117.23C122.214 117.228 122.201 117.225 122.19 117.22C122.164 117.21 122.14 117.195 122.12 117.176C122.1 117.158 122.084 117.135 122.073 117.11C122.052 117.059 122.052 117.002 122.073 116.952L129.761 96.7813L137.437 76.6061C137.481 76.4878 137.56 76.3855 137.663 76.3124C137.766 76.2394 137.888 76.1991 138.014 76.1967C138.141 76.1923 138.266 76.2258 138.373 76.2928C138.48 76.3598 138.565 76.4573 138.617 76.5728L147.673 96.7547L156.723 116.937C156.734 116.963 156.74 116.991 156.74 117.02C156.74 117.048 156.734 117.077 156.723 117.103C156.714 117.129 156.699 117.152 156.68 117.172C156.661 117.191 156.639 117.207 156.613 117.218C156.587 117.229 156.559 117.235 156.53 117.235C156.502 117.235 156.473 117.229 156.447 117.218C156.421 117.208 156.397 117.194 156.377 117.175C156.357 117.156 156.341 117.133 156.331 117.108L147.293 96.9245L138.242 76.7442C138.233 76.7188 138.218 76.6956 138.198 76.6761C138.179 76.6566 138.156 76.6413 138.131 76.6311C138.1 76.6169 138.066 76.6107 138.033 76.6128C138 76.6134 137.967 76.6214 137.938 76.6361C137.888 76.6608 137.85 76.7037 137.831 76.7559L130.145 96.9261L122.458 117.096C122.442 117.136 122.415 117.171 122.379 117.195C122.345 117.218 122.304 117.23 122.263 117.23Z" fill="#2B3D0A"/>
<path d="M115.175 23.7013C115.199 23.7945 115.184 23.8933 115.135 23.9759C115.11 24.017 115.078 24.0529 115.04 24.0814C115.001 24.1099 114.958 24.1306 114.911 24.1422C114.865 24.1538 114.817 24.1561 114.769 24.149C114.722 24.1419 114.677 24.1255 114.636 24.1008C114.595 24.0764 114.559 24.0442 114.531 24.0061C114.503 23.968 114.482 23.9247 114.471 23.8786C114.459 23.8326 114.457 23.7847 114.463 23.7377C114.47 23.6907 114.486 23.6455 114.511 23.6048C114.535 23.564 114.567 23.5285 114.605 23.5001C114.644 23.4718 114.687 23.4512 114.733 23.4396C114.779 23.4281 114.827 23.4257 114.874 23.4326C114.921 23.4395 114.966 23.4556 115.007 23.48C115.09 23.5289 115.15 23.6084 115.175 23.7013Z" fill="#2B3D0A"/>
<path d="M87.0066 54.6299C87.173 54.8579 87.9603 55.9914 88.9156 57.218C89.8709 58.4446 90.9911 59.7645 91.8016 60.3686C92.0881 60.5975 92.4217 60.7601 92.7786 60.8446C92.9279 60.8777 93.0823 60.8811 93.2329 60.8546C93.4439 60.8077 93.64 60.7093 93.8038 60.5683C93.9297 60.4627 94.0416 60.3413 94.1367 60.2072C94.2564 60.2634 94.3837 60.3021 94.5145 60.322C94.7627 60.366 95.0184 60.3217 95.2373 60.1967C95.4563 60.0717 95.6245 59.874 95.7128 59.638C95.8015 59.4082 95.8183 59.1569 95.7611 58.9173C95.8865 58.9502 96.0159 58.9653 96.1455 58.9622C96.3877 58.96 96.6238 58.8863 96.8242 58.7504C97.0247 58.6145 97.1806 58.4224 97.2723 58.1983C97.3697 57.9644 97.4019 57.7084 97.3655 57.4577C97.6331 57.501 97.9072 57.4816 98.1661 57.4011C98.5655 57.2663 98.9616 56.9167 98.955 56.0696C98.9538 55.947 98.9438 55.8246 98.925 55.7034C98.9107 55.6142 98.8913 55.5258 98.8667 55.4388C98.8004 55.206 98.7054 54.9824 98.5838 54.7731C98.4839 54.5967 98.3991 54.4785 98.3991 54.4785C98.2593 54.2821 98.0346 53.9592 97.7333 53.5348C97.4321 53.1104 97.0676 52.5845 96.6415 51.9836C96.6094 51.9391 96.5887 51.8874 96.5814 51.833C96.5741 51.7785 96.5803 51.7232 96.5996 51.6718C96.6189 51.6204 96.6506 51.5745 96.6919 51.5383C96.7332 51.5021 96.7828 51.4767 96.8362 51.4643L98.9633 50.965L101.09 50.4657C101.168 50.4481 101.245 50.4236 101.318 50.3925C101.392 50.3625 101.462 50.324 101.526 50.2777C101.681 50.1666 101.807 50.0206 101.894 49.8516C101.982 49.6812 102.023 49.4904 102.012 49.299C102.009 49.1795 101.98 49.062 101.928 48.9544C101.876 48.8468 101.801 48.7515 101.709 48.6749C101.498 48.4985 101.157 48.3703 100.623 48.342L100.478 48.3337L100.335 48.3221L97.1508 47.9892L93.9669 47.6563C93.2178 47.5793 92.4635 47.7425 91.8132 48.1223L89.588 49.4222L87.3561 50.7337C86.9988 50.9424 86.7075 51.2475 86.5156 51.6141C86.3243 51.9798 86.245 52.3937 86.2876 52.8041C86.3198 53.0994 86.3886 53.3896 86.4923 53.6679C86.6211 54.0096 86.794 54.333 87.0066 54.6299Z" fill="#A0505A"/>
<path d="M97.3543 57.6655H97.326H97.2944C96.9915 57.569 96.4089 56.9165 95.8614 56.2275C95.3138 55.5385 94.7979 54.8145 94.6281 54.5731C94.5965 54.5275 94.584 54.4714 94.5931 54.4167C94.5979 54.3898 94.608 54.3642 94.6229 54.3413C94.6377 54.3184 94.6571 54.2988 94.6797 54.2835C94.7017 54.2674 94.7268 54.256 94.7535 54.25C94.7801 54.244 94.8077 54.2435 94.8345 54.2486C94.8614 54.2532 94.8872 54.263 94.9103 54.2776C94.9335 54.2922 94.9535 54.3112 94.9693 54.3335C95.4469 55.0158 95.9812 55.7249 96.4356 56.2758C96.8899 56.8267 97.2677 57.2178 97.4192 57.2744C97.4456 57.2825 97.4701 57.2958 97.4912 57.3135C97.5124 57.3312 97.5298 57.353 97.5424 57.3776C97.5668 57.4266 97.5716 57.4832 97.5557 57.5357C97.5423 57.5785 97.5155 57.6159 97.4791 57.6422C97.4409 57.6627 97.3973 57.6708 97.3543 57.6655Z" fill="#353519"/>
<path d="M95.7497 59.1249C95.3818 59.1249 94.7311 58.5341 94.102 57.8534C93.4728 57.1727 92.867 56.4037 92.5891 56.0426C92.572 56.0212 92.5596 55.9966 92.5524 55.9703C92.5452 55.944 92.5436 55.9164 92.5475 55.8894C92.5507 55.8624 92.5593 55.8363 92.5727 55.8125C92.5862 55.7888 92.6042 55.768 92.6257 55.7513C92.6698 55.7176 92.7254 55.7027 92.7805 55.7097C92.8076 55.7133 92.8338 55.7221 92.8575 55.7359C92.8812 55.7496 92.902 55.7678 92.9186 55.7896C93.4578 56.4903 94.0753 57.2209 94.6029 57.7751C95.1305 58.3294 95.5699 58.7088 95.7513 58.7088C95.7786 58.7087 95.8057 58.7141 95.8308 58.7247C95.856 58.7353 95.8788 58.7508 95.8978 58.7704C95.9172 58.7896 95.9327 58.8124 95.9432 58.8375C95.9538 58.8626 95.9593 58.8896 95.9594 58.9169C95.9581 58.9722 95.9361 59.0251 95.8978 59.065C95.8582 59.1036 95.805 59.1251 95.7497 59.1249Z" fill="#353519"/>
<path d="M94.2705 60.473C94.2527 60.4746 94.2349 60.4746 94.2172 60.473C94.1997 60.4679 94.1829 60.4606 94.1673 60.4513C94.104 60.4147 94.0391 60.3781 93.9775 60.3398L93.7895 60.2216C93.2321 59.8633 92.7163 59.4441 92.2516 58.9717C91.7697 58.4826 91.3397 57.9449 90.9684 57.3673C90.9384 57.3209 90.928 57.2646 90.9395 57.2106C90.9511 57.1566 90.9836 57.1094 91.03 57.0793C91.0763 57.0493 91.1327 57.039 91.1867 57.0505C91.2407 57.0621 91.2879 57.0946 91.3179 57.1409C91.6731 57.6941 92.0848 58.2089 92.5462 58.6771C92.9899 59.1284 93.4822 59.5292 94.0141 59.8721C94.0741 59.9104 94.134 59.9487 94.1939 59.9836C94.2538 60.0186 94.3137 60.0569 94.3736 60.0901C94.4217 60.1178 94.457 60.1632 94.4718 60.2166C94.479 60.2431 94.4808 60.2707 94.4771 60.2979C94.4733 60.3251 94.4642 60.3512 94.4502 60.3748C94.4327 60.4072 94.4061 60.4339 94.3736 60.4513C94.3416 60.4672 94.3061 60.4746 94.2705 60.473Z" fill="#353519"/>
<path d="M118.099 22.4911C118.122 22.5844 118.107 22.6828 118.059 22.7657C118.01 22.8484 117.929 22.9082 117.836 22.9322C117.79 22.9438 117.742 22.9463 117.696 22.9394C117.649 22.9326 117.604 22.9165 117.563 22.8922C117.5 22.8563 117.449 22.8022 117.417 22.737C117.385 22.6717 117.374 22.5983 117.384 22.5264C117.395 22.4545 117.426 22.3874 117.476 22.3339C117.525 22.2804 117.589 22.243 117.66 22.2265C117.705 22.2144 117.753 22.2117 117.8 22.2185C117.847 22.2254 117.892 22.2417 117.933 22.2664C117.974 22.2909 118.01 22.3233 118.039 22.3619C118.067 22.4005 118.088 22.4445 118.099 22.4911Z" fill="#2B3D0A"/>
<path d="M80.9125 76.5307C80.9458 76.4758 80.9791 76.4175 81.0107 76.3643C81.0424 76.311 81.0723 76.2428 81.1023 76.1779C81.2532 75.8485 81.359 75.5003 81.4168 75.1426C81.5164 74.5752 81.4133 73.9908 81.1256 73.4916C80.8237 73.0061 80.3642 72.6389 79.8241 72.4514C79.2834 72.2531 78.6959 72.2201 78.1364 72.3565C77.6388 72.4817 77.1855 72.7421 76.8266 73.1088C76.4624 73.4793 76.2009 73.9382 76.0676 74.4403C76.1109 74.0572 76.0941 73.6697 76.0177 73.2919C75.9183 72.7984 75.6917 72.3394 75.3603 71.9604C74.9022 71.4504 74.2852 71.1102 73.6094 70.9951C72.9015 70.8757 72.1739 70.9811 71.5289 71.2963C71.2224 71.4718 70.9423 71.6898 70.6968 71.9438C70.2466 72.3939 69.9547 72.9779 69.8646 73.6081C69.7825 74.3569 69.9825 75.1093 70.4255 75.7185C70.9097 76.3971 71.6022 76.8991 72.3977 77.1482C71.6968 77.3031 71.0691 77.6909 70.6169 78.2483C70.1853 78.7722 69.9598 79.4357 69.9828 80.1141C70.0074 80.6425 70.1836 81.1527 70.4904 81.5837C70.8043 82.032 71.2422 82.379 71.7503 82.5823C72.0711 82.7112 72.4132 82.7789 72.7589 82.782C73.099 82.7868 73.4373 82.7304 73.7575 82.6156L73.651 82.7054L73.5445 82.7953C72.9814 83.2735 72.6312 83.9556 72.571 84.6919C72.5107 85.4282 72.7454 86.1582 73.2232 86.7215C73.7011 87.2845 74.383 87.6346 75.119 87.6949C75.855 87.7551 76.5847 87.5205 77.1478 87.0427L78.213 86.1407L79.2765 85.2386L83.1694 89.8272L87.064 94.4175L88.5952 93.1176L90.1264 91.8177L86.2335 87.2291L82.3405 82.6389L83.4041 81.7368L84.4676 80.833C84.7468 80.5968 84.9768 80.3078 85.1442 79.9826C85.3116 79.6574 85.4132 79.3023 85.4432 78.9378C85.4732 78.5732 85.431 78.2063 85.319 77.8581C85.207 77.5099 85.0274 77.1872 84.7905 76.9085C84.3219 76.3509 83.6535 75.999 82.9286 75.9284C82.2037 75.8577 81.4799 76.074 80.9125 76.5307Z" fill="#BAB653"/>
<path d="M117.095 25.6832C116.913 25.6825 116.732 25.6516 116.559 25.5917C116.471 25.5622 116.386 25.5237 116.306 25.4768C116.282 25.4635 116.262 25.4454 116.245 25.4236C116.229 25.4019 116.217 25.3769 116.211 25.3503C116.198 25.2968 116.206 25.2401 116.233 25.1922C116.261 25.1452 116.307 25.1111 116.36 25.0974C116.414 25.0837 116.47 25.0915 116.518 25.119C116.621 25.1771 116.734 25.2187 116.85 25.2422C117.074 25.2955 117.308 25.2746 117.518 25.1827C117.729 25.0908 117.903 24.9329 118.016 24.7329C118.075 24.632 118.119 24.5225 118.145 24.4083C118.158 24.3547 118.19 24.3078 118.235 24.2768C118.282 24.2476 118.338 24.2374 118.392 24.2485C118.419 24.2537 118.445 24.2642 118.468 24.2794C118.491 24.2946 118.511 24.3142 118.526 24.3371C118.542 24.36 118.552 24.3857 118.558 24.4128C118.563 24.4399 118.563 24.4678 118.558 24.4949C118.52 24.6599 118.456 24.8178 118.368 24.9625C118.213 25.2253 117.981 25.4335 117.703 25.5584C117.604 25.6024 117.502 25.6353 117.396 25.6566C117.297 25.6752 117.196 25.6841 117.095 25.6832Z" fill="#353519"/>
<path d="M119.493 41.8335C119.493 41.9659 119.441 42.0929 119.347 42.1866C119.253 42.2802 119.126 42.3328 118.994 42.3328C118.894 42.3348 118.795 42.3064 118.711 42.2515C118.627 42.1966 118.561 42.1176 118.523 42.0249C118.485 41.9322 118.475 41.83 118.495 41.7317C118.516 41.6335 118.565 41.5437 118.638 41.474C118.707 41.4011 118.797 41.351 118.896 41.3301C118.994 41.3093 119.097 41.3188 119.19 41.3573C119.283 41.3958 119.362 41.4616 119.417 41.546C119.472 41.6304 119.501 41.7295 119.498 41.8302L119.493 41.8335Z" fill="#353519"/>
<path d="M148.182 77.9455H127.544C127.247 77.945 126.963 77.827 126.754 77.6174C126.544 77.4077 126.426 77.1235 126.426 76.827V73.4983C126.426 73.2018 126.544 72.9176 126.754 72.708C126.963 72.4983 127.247 72.3803 127.544 72.3799H148.182C148.478 72.3803 148.763 72.4983 148.972 72.708C149.182 72.9176 149.3 73.2018 149.3 73.4983V76.827C149.3 77.1235 149.182 77.4077 148.972 77.6174C148.763 77.827 148.478 77.945 148.182 77.9455Z" fill="#FF94AC"/>
<path d="M119.494 46.0901C119.494 46.2225 119.441 46.3495 119.347 46.4432C119.254 46.5368 119.127 46.5894 118.994 46.5894C118.912 46.5903 118.83 46.5707 118.757 46.5324C118.684 46.4941 118.622 46.4382 118.575 46.3698C118.529 46.3015 118.501 46.2227 118.492 46.1406C118.484 46.0584 118.496 45.9755 118.528 45.8992C118.559 45.823 118.609 45.7557 118.673 45.7035C118.737 45.6512 118.813 45.6157 118.894 45.6C118.975 45.5842 119.059 45.5889 119.137 45.6134C119.216 45.6379 119.288 45.6816 119.346 45.7406C119.439 45.833 119.492 45.9586 119.494 46.0901Z" fill="#353519"/>
<path d="M155.287 49.1966H125.681C125.571 49.1968 125.461 49.1752 125.359 49.133C125.257 49.0907 125.164 49.0287 125.085 48.9504C125.007 48.8722 124.945 48.7793 124.903 48.677C124.861 48.5747 124.839 48.4651 124.839 48.3545V47.8119C124.839 47.7012 124.861 47.5916 124.903 47.4893C124.945 47.3871 125.007 47.2941 125.085 47.2159C125.164 47.1377 125.257 47.0756 125.359 47.0334C125.461 46.9911 125.571 46.9695 125.681 46.9697H155.287C155.397 46.9695 155.507 46.9911 155.609 47.0334C155.712 47.0756 155.805 47.1377 155.883 47.2159C155.961 47.2941 156.023 47.3871 156.065 47.4893C156.108 47.5916 156.129 47.7012 156.129 47.8119V48.3545C156.129 48.4651 156.108 48.5747 156.065 48.677C156.023 48.7793 155.961 48.8722 155.883 48.9504C155.805 49.0287 155.712 49.0907 155.609 49.133C155.507 49.1752 155.397 49.1968 155.287 49.1966Z" fill="#F98638"/>
<path d="M154.08 117.034H154.07C154.041 117.035 154.013 117.031 153.986 117.02C153.959 117.01 153.934 116.994 153.914 116.974C153.895 116.954 153.881 116.93 153.872 116.905C153.863 116.879 153.859 116.852 153.86 116.824L154.526 101.599L155.192 86.3719C155.193 86.3447 155.2 86.318 155.211 86.2934C155.223 86.2688 155.24 86.2468 155.26 86.2288C155.301 86.1926 155.354 86.173 155.408 86.1739C155.436 86.1749 155.462 86.1813 155.487 86.1927C155.512 86.2042 155.535 86.2204 155.553 86.2404C155.59 86.2813 155.61 86.335 155.608 86.3902L154.942 101.617L154.277 116.843C154.274 116.896 154.252 116.947 154.213 116.984C154.175 117.021 154.124 117.042 154.07 117.043L154.08 117.034Z" fill="#2B3D0A"/>
<path d="M151.429 62.2175H129.539C128.833 62.2175 128.156 61.9369 127.656 61.4375C127.157 60.9381 126.876 60.2608 126.876 59.5545V49.1973H154.088V59.5545C154.088 60.2608 153.808 60.9381 153.308 61.4375C152.809 61.9369 152.132 62.2175 151.425 62.2175H151.429Z" fill="#F98638"/>
<path d="M154.26 70.7289L154.341 70.6757L154.425 70.6141C154.565 70.5031 154.69 70.3738 154.796 70.2296C154.968 70.002 155.055 69.7209 155.04 69.4357C155.019 69.1544 154.901 68.8889 154.708 68.6834C154.514 68.4746 154.262 68.3281 153.985 68.2624C153.738 68.2046 153.479 68.2167 153.238 68.2973C152.993 68.38 152.774 68.5245 152.602 68.7167C152.707 68.5576 152.787 68.3829 152.839 68.1991C152.907 67.9603 152.911 67.7077 152.85 67.4668C152.763 67.1388 152.568 66.8498 152.296 66.6463C152.011 66.4319 151.667 66.3115 151.311 66.3018C151.137 66.3126 150.965 66.3462 150.8 66.4016C150.5 66.4974 150.24 66.6878 150.057 66.9442C149.852 67.2551 149.77 67.6313 149.828 67.9994C149.888 68.4075 150.08 68.7848 150.374 69.0746C150.03 68.9844 149.666 69.0137 149.342 69.1578C149.066 69.2736 148.837 69.4781 148.69 69.7388C148.544 69.9996 148.488 70.3017 148.533 70.5974C148.562 70.8155 148.643 71.0234 148.768 71.2042C148.893 71.385 149.06 71.5336 149.254 71.6377C149.403 71.7156 149.565 71.7663 149.733 71.7875L149.665 71.8041L149.598 71.8191C149.422 71.8602 149.255 71.9357 149.108 72.0412C148.961 72.1468 148.837 72.2803 148.741 72.4341C148.646 72.5879 148.582 72.759 148.552 72.9377C148.523 73.1163 148.53 73.2989 148.571 73.4751C148.612 73.6523 148.688 73.8196 148.794 73.9673C148.9 74.1151 149.034 74.2404 149.189 74.336C149.344 74.4316 149.516 74.4957 149.696 74.5244C149.875 74.5532 150.059 74.5462 150.236 74.5037L151.183 74.2623L152.131 74.0227L153.414 80.1924L154.706 86.3688H156.265L154.886 80.0443L153.508 73.7198L154.173 73.5533L154.839 73.3969C155.016 73.3552 155.183 73.279 155.33 73.1728C155.477 73.0666 155.602 72.9323 155.698 72.7777C155.793 72.6231 155.857 72.4512 155.886 72.2719C155.915 72.0925 155.908 71.9092 155.866 71.7325C155.783 71.3829 155.568 71.0793 155.264 70.8863C154.961 70.6932 154.595 70.6261 154.243 70.699L154.26 70.7289Z" fill="#BAB653"/>
<path d="M158.985 74.7768L158.902 74.7219C158.875 74.7035 158.847 74.6819 158.821 74.6603C158.679 74.55 158.554 74.4206 158.448 74.2758C158.276 74.0486 158.19 73.768 158.205 73.4836C158.226 73.2015 158.343 72.9353 158.538 72.7296C158.731 72.5209 158.982 72.3743 159.258 72.3086C159.506 72.2507 159.764 72.2628 160.006 72.3435C160.25 72.4254 160.47 72.57 160.641 72.7629C160.536 72.6035 160.457 72.4289 160.405 72.2453C160.338 72.0062 160.334 71.7538 160.395 71.513C160.482 71.185 160.678 70.896 160.949 70.6925C161.233 70.4774 161.578 70.3574 161.935 70.3496C162.108 70.3585 162.279 70.3916 162.444 70.4478C162.744 70.5434 163.005 70.7338 163.188 70.9904C163.393 71.3013 163.475 71.6775 163.417 72.0456C163.357 72.4536 163.165 72.831 162.872 73.1208C163.215 73.0306 163.579 73.0599 163.903 73.204C164.179 73.3198 164.408 73.5243 164.555 73.785C164.701 74.0458 164.757 74.3479 164.712 74.6436C164.674 74.9121 164.558 75.1637 164.379 75.3676C164.154 75.6254 163.841 75.7913 163.501 75.8336L163.567 75.8503L163.635 75.8653C163.812 75.9067 163.979 75.9828 164.127 76.089C164.274 76.1952 164.399 76.3294 164.495 76.4841C164.59 76.6387 164.654 76.8107 164.683 76.9901C164.712 77.1695 164.705 77.3529 164.662 77.5296C164.621 77.7067 164.545 77.8738 164.439 78.0215C164.333 78.1691 164.199 78.2943 164.044 78.3899C163.889 78.4855 163.717 78.5496 163.538 78.5784C163.358 78.6073 163.175 78.6004 162.998 78.5582L162.049 78.3185L161.102 78.0772L160.067 82.238L159.032 86.3906H157.472L158.594 82.0932L159.739 77.7809L159.073 77.6145L158.408 77.458C158.231 77.417 158.063 77.3412 157.916 77.2351C157.768 77.129 157.643 76.9947 157.547 76.84C157.452 76.6852 157.388 76.5131 157.359 76.3335C157.331 76.1539 157.338 75.9704 157.381 75.7937C157.462 75.4432 157.677 75.1385 157.981 74.9452C158.284 74.7519 158.652 74.6854 159.004 74.7601L158.985 74.7768Z" fill="#BAB653"/>
<path d="M166.345 117.229H146.98L149.968 101.698L152.954 86.166H159.954L163.149 101.698L166.345 117.229ZM147.485 116.808H165.834L162.725 101.693L159.614 86.5771H153.29L150.382 101.693L147.485 116.808Z" fill="#2B3D0A"/>
<path d="M155.202 100.387H149.536H143.871V99.2752V98.165H149.536H155.202V99.2752V100.387Z" fill="#353519"/>
<path d="M143.871 100.388L142.268 108.808L140.664 117.226H149.693H158.72L156.961 108.808L155.202 100.388H149.536H143.871Z" fill="#BAB653"/>
<path d="M152.719 117.434H152.691C152.664 117.431 152.638 117.422 152.614 117.408C152.59 117.395 152.57 117.376 152.553 117.355C152.536 117.333 152.524 117.308 152.517 117.282C152.51 117.256 152.509 117.228 152.513 117.201L153.648 108.745L154.783 100.288C154.788 100.247 154.806 100.209 154.833 100.179C154.86 100.148 154.896 100.126 154.936 100.115C154.975 100.105 155.017 100.106 155.056 100.12C155.095 100.133 155.129 100.157 155.154 100.19C155.188 100.234 155.202 100.29 155.196 100.345L154.06 108.799L152.925 117.256C152.918 117.306 152.893 117.352 152.855 117.386C152.817 117.418 152.769 117.435 152.719 117.434Z" fill="#353519"/>
<path d="M149.952 113.464H144.741C144.635 113.464 144.529 113.441 144.432 113.396C144.336 113.352 144.25 113.286 144.182 113.204C144.113 113.123 144.064 113.027 144.036 112.924C144.009 112.821 144.005 112.713 144.024 112.608L144.729 108.677L145.435 104.748C145.466 104.58 145.554 104.428 145.685 104.318C145.815 104.209 145.98 104.149 146.151 104.148H151.362C151.468 104.148 151.574 104.172 151.67 104.217C151.767 104.262 151.852 104.328 151.921 104.41C151.989 104.491 152.039 104.587 152.066 104.69C152.093 104.793 152.098 104.901 152.079 105.006L151.374 108.935L150.67 112.865C150.639 113.033 150.551 113.185 150.42 113.294C150.288 113.404 150.123 113.464 149.952 113.464Z" fill="#353519"/>
<path d="M133.884 46.9555C132.311 45.1031 130.926 43.5103 129.89 42.3519C128.853 41.1936 128.149 40.4679 127.947 40.3547C127.799 40.2648 127.631 40.2107 127.458 40.1966C127.394 40.1914 127.329 40.1965 127.266 40.2116C127.227 40.2237 127.188 40.2393 127.152 40.2582C127.114 40.2778 127.077 40.3006 127.043 40.3264C126.984 40.373 126.912 40.428 126.832 40.4929C126.752 40.5578 126.666 40.6327 126.554 40.7209L126.12 40.2482L125.729 39.8188L125.935 39.6524L126.121 39.5026C126.522 39.1839 127.023 39.0176 127.534 39.0332C128.046 39.0487 128.535 39.2499 128.909 39.5991C129.049 39.7306 129.177 39.8621 129.287 39.9803C129.397 40.0984 129.487 40.2016 129.553 40.2782C130.33 41.1725 131.218 42.1739 132.216 43.2823C133.215 44.3908 134.314 45.6196 135.513 46.9688L134.696 46.9605L133.884 46.9555Z" fill="#353519"/>
<path d="M129.448 47.4877C128.631 46.9709 127.729 46.6014 126.785 46.3959C125.833 46.1895 124.855 46.1367 123.887 46.2395C122.471 46.3953 121.113 46.8891 119.928 47.6791C119.135 48.2074 118.402 48.8214 117.744 49.5099C117.265 49.9948 116.829 50.5211 116.442 51.0827C116.083 51.597 115.777 52.103 115.494 52.5923C115.036 53.3613 114.629 54.1591 114.274 54.9806C113.956 55.7146 113.72 56.3737 113.543 56.9246H113.513C113.576 57.7384 113.68 58.6189 113.836 59.516C113.993 60.4268 114.216 61.3251 114.502 62.2039H130.879C131.294 61.7011 131.662 61.1619 131.979 60.5928C132.402 59.8441 132.726 59.0435 132.943 58.2111C133.39 56.3825 133.401 54.4744 132.976 52.6405C132.498 50.66 131.428 48.7493 129.448 47.4877Z" fill="#F4ECE5"/>
<path d="M105.578 56.1163C104.658 55.9066 103.791 55.6686 102.979 55.4123C102.166 55.156 101.412 54.8847 100.717 54.6084L100.164 56.3926L99.6116 58.1834L102.486 58.7626L105.357 59.3368L102.596 59.3584L99.8346 59.3801V62.2095H114.512C114.226 61.3307 114.004 60.4324 113.847 59.5215C113.68 58.6245 113.587 57.744 113.524 56.9302C112.309 56.9515 111.094 56.9065 109.884 56.7953C108.435 56.6644 106.997 56.4376 105.578 56.1163Z" fill="#E9CF81"/>
<path d="M113.99 57.9455C113.967 57.9455 113.945 57.9421 113.923 57.9355C113.901 57.9283 113.881 57.9176 113.863 57.9038C113.841 57.8875 113.823 57.8668 113.809 57.843C113.795 57.8193 113.786 57.793 113.783 57.7657C113.779 57.7388 113.78 57.7113 113.787 57.685C113.794 57.6586 113.806 57.634 113.823 57.6126C114.708 56.472 115.742 55.4554 116.897 54.5901C118.62 53.2801 120.599 52.3452 122.705 51.8456C124.811 51.346 126.999 51.2927 129.127 51.6892C130.532 51.9464 131.896 52.3902 133.183 53.009C133.207 53.0207 133.229 53.0372 133.247 53.0575C133.265 53.0778 133.279 53.1015 133.288 53.1272C133.297 53.1529 133.301 53.1803 133.3 53.2077C133.298 53.2351 133.292 53.2619 133.28 53.2866C133.268 53.3113 133.251 53.3333 133.23 53.3514C133.21 53.3695 133.186 53.3832 133.16 53.3918C133.134 53.4012 133.107 53.4053 133.08 53.4038C133.052 53.4024 133.026 53.3955 133.001 53.3835C131.748 52.7807 130.42 52.3481 129.052 52.0969C126.98 51.7123 124.85 51.7653 122.799 52.2526C120.749 52.7398 118.823 53.6506 117.145 54.9263C116.02 55.7689 115.012 56.7586 114.149 57.8689C114.13 57.8956 114.104 57.9168 114.074 57.9305C114.047 57.9411 114.019 57.9462 113.99 57.9455Z" fill="#666538"/>
<path d="M119.863 60.4077C117.86 60.4073 115.867 60.1403 113.935 59.6138C113.907 59.6073 113.882 59.5954 113.859 59.5789C113.837 59.5623 113.818 59.5414 113.804 59.5174C113.79 59.4934 113.781 59.4668 113.777 59.4392C113.773 59.4116 113.775 59.3835 113.782 59.3566C113.79 59.3297 113.802 59.3046 113.82 59.2827C113.837 59.2608 113.858 59.2426 113.883 59.2292C113.907 59.2158 113.934 59.2074 113.962 59.2046C113.99 59.2017 114.018 59.2045 114.044 59.2127C115.636 59.6452 117.271 59.8998 118.919 59.9717C122.554 60.1323 126.171 59.3672 129.43 57.7481C130.748 57.0908 131.997 56.3017 133.156 55.3931C133.2 55.3594 133.255 55.3444 133.309 55.3512C133.364 55.3581 133.413 55.3863 133.447 55.4297C133.481 55.4733 133.496 55.5281 133.491 55.5828C133.487 55.61 133.479 55.6364 133.465 55.6601C133.451 55.6839 133.433 55.7046 133.411 55.7209C132.23 56.647 130.958 57.4512 129.614 58.1209C127.395 59.222 125.005 59.94 122.546 60.2446C121.656 60.353 120.76 60.4075 119.863 60.4077Z" fill="#666538"/>
<path d="M170.774 21.9669C170.322 21.3782 169.78 20.8638 169.169 20.4424C168.556 20.0184 167.894 19.6682 167.199 19.3988C166.135 18.9794 164.988 18.7697 163.923 18.8995C163.373 18.9618 162.842 19.136 162.362 19.4113C161.882 19.6867 161.463 20.0574 161.132 20.5006C160.178 21.7572 159.726 23.1636 159.082 24.4218C158.437 25.6801 157.604 26.7519 155.888 27.3577C154.889 27.7056 153.939 27.7122 152.982 27.6623C152.025 27.6124 151.069 27.5075 150.076 27.6307C149.334 27.7239 148.613 27.9381 147.94 28.2648C147.269 28.5913 146.654 29.0234 146.12 29.5447C145.155 30.5147 144.387 31.6627 143.859 32.925C143.325 34.1836 142.922 35.4944 142.658 36.8362C142.158 39.2402 141.001 41.4585 139.316 43.2439C137.632 45.0256 135.481 46.2988 133.109 46.9188C133.046 46.9371 132.995 46.9488 132.961 46.9571L132.91 46.9704H155.287C156.267 46.6509 157.204 46.2103 158.075 45.6589C158.947 45.1079 159.696 44.3826 160.275 43.5285C160.971 42.4767 161.006 41.3416 160.971 40.1899C160.936 39.0381 160.832 37.8681 161.245 36.7513C161.658 35.6345 162.39 35.1036 163.242 34.7791C164.095 34.4545 165.073 34.318 165.987 33.9203C166.986 33.4651 167.89 32.8247 168.65 32.0329C169.416 31.251 170.082 30.3766 170.632 29.4298C171.315 28.2903 171.728 27.0091 171.837 25.6851C171.948 24.3574 171.57 23.0349 170.774 21.9669ZM151.838 36.4201C151.463 37.3144 150.909 38.1223 150.209 38.7935C149.616 39.3227 149.022 39.5507 148.566 39.3477C148.11 39.1446 147.879 38.5538 147.874 37.7599C147.966 35.8084 148.784 33.9618 150.167 32.5821C150.76 32.0529 151.354 31.8248 151.81 32.0279C152.266 32.2309 152.497 32.8218 152.502 33.6173C152.474 34.5871 152.248 35.5409 151.838 36.4201Z" fill="#E9CF81"/>
<path d="M100.478 66.8242C100.538 66.8242 100.6 66.8109 100.663 66.8026L100.853 66.7677C101.183 66.7004 101.503 66.5884 101.803 66.4348C102.283 66.1947 102.663 65.7935 102.876 65.3014C103.074 64.8059 103.095 64.2574 102.935 63.7485C102.783 63.2338 102.481 62.7756 102.069 62.432C101.699 62.1287 101.252 61.934 100.778 61.8695C100.297 61.7997 99.8074 61.8571 99.3563 62.0359C99.6673 61.8555 99.9481 61.6275 100.188 61.3602C100.503 61.0135 100.72 60.5897 100.818 60.1319C100.946 59.5063 100.858 58.8558 100.57 58.2861C100.269 57.6858 99.7873 57.1946 99.1932 56.8814C98.8913 56.7527 98.5733 56.6659 98.2478 56.6235C97.6625 56.5336 97.0637 56.6364 96.5419 56.9164C95.9354 57.2699 95.483 57.8374 95.2737 58.5075C95.0338 59.2464 95.0414 60.0434 95.2953 60.7777C94.7897 60.3384 94.1503 60.0832 93.4811 60.0537C92.8499 60.0226 92.2288 60.2219 91.7336 60.6146C91.3518 60.9262 91.0676 61.341 90.9147 61.8096C90.782 62.204 90.7455 62.6245 90.8083 63.0359C90.8711 63.4473 91.0315 63.8377 91.2759 64.1746C91.4625 64.4316 91.6936 64.6531 91.9583 64.8287L91.8318 64.7987L91.7053 64.7688C91.373 64.6913 91.0286 64.68 90.6919 64.7357C90.3552 64.7914 90.0328 64.9129 89.7431 65.0933C89.4535 65.2737 89.2022 65.5095 89.0037 65.787C88.8052 66.0646 88.6634 66.3786 88.5863 66.7111C88.4296 67.3816 88.5457 68.0868 88.909 68.6718C89.2723 69.2567 89.8531 69.6733 90.5236 69.83L91.7902 70.1263L93.0567 70.4226L92.6323 72.2367L92.2079 74.0525L94.0304 74.4786L95.8612 74.9046L96.2856 73.0888L96.7083 71.273L97.9749 71.5693L99.2415 71.8655C99.912 72.0222 100.617 71.9061 101.202 71.5428C101.787 71.1795 102.204 70.5987 102.36 69.9283C102.514 69.2689 102.403 68.5757 102.053 67.9965C101.703 67.4173 101.14 66.9979 100.485 66.8276L100.478 66.8242Z" fill="#BAB653"/>
<path d="M114.382 18.5045C115.084 19.4413 116.052 20.1448 117.16 20.5233C118.241 20.8958 119.412 20.9202 120.507 20.5932C121.262 20.3631 121.956 19.9706 122.543 19.4432C123.132 18.9134 123.604 18.2667 123.929 17.5441C123.335 16.6949 122.549 15.9975 121.636 15.5086C120.64 14.9796 119.524 14.717 118.396 14.7464C117.269 14.7757 116.168 15.096 115.201 15.6761C114.234 16.2562 113.433 17.0765 112.877 18.0573C112.32 19.0381 112.026 20.1462 112.024 21.2739C112.024 21.5937 112.048 21.9129 112.094 22.2293C112.14 22.5383 112.208 22.8436 112.297 23.143C112.407 23.0937 112.513 23.0381 112.617 22.9766C112.704 22.9254 112.789 22.8698 112.871 22.8101C113.783 22.1328 114.168 21.1158 114.321 20.2387C114.422 19.6663 114.442 19.0826 114.382 18.5045Z" fill="#353519"/>
<path d="M88.808 106.499C88.6192 107.016 88.2374 107.439 87.7428 107.68C87.2393 107.931 86.6611 107.988 86.1183 107.841C85.5754 107.693 85.1058 107.351 84.7986 106.88C84.4993 106.42 84.3901 105.862 84.494 105.324C85.0166 100.755 85.5387 96.1848 86.0602 91.6145L87.628 77.9053C87.7047 77.1556 87.9435 76.4315 88.3277 75.7832C88.7119 75.1349 89.2324 74.5778 89.8532 74.1505C90.4881 73.7099 91.2067 73.4042 91.9645 73.2525C92.7223 73.1008 93.5032 73.1062 94.2588 73.2684C95.0196 73.4223 95.7405 73.7314 96.3765 74.1764C97.0125 74.6215 97.55 75.1928 97.9553 75.8548C98.3523 76.4989 98.6043 77.2217 98.6937 77.9731C98.7831 78.7244 98.7077 79.4862 98.4729 80.2054L93.6463 93.3538L88.808 106.499Z" fill="#F98638"/>
<path d="M97.4075 83.1016H97.3808H97.3542L94.8693 82.4641L92.3845 81.8267C92.3312 81.8125 92.2857 81.7778 92.258 81.7302C92.2431 81.7054 92.2334 81.6779 92.2294 81.6493C92.2254 81.6207 92.2272 81.5916 92.2347 81.5637C92.2488 81.5104 92.2835 81.4649 92.3312 81.4372C92.3784 81.4097 92.4345 81.4013 92.4877 81.4139L94.9742 82.053L97.4591 82.6888C97.5124 82.703 97.5579 82.7377 97.5856 82.7854C97.6119 82.8287 97.6212 82.8803 97.6117 82.9301C97.6021 82.9799 97.5744 83.0244 97.534 83.055C97.4981 83.0841 97.4536 83.1005 97.4075 83.1016Z" fill="#2B3D0A"/>
<path d="M95.733 87.8215H95.7064H95.6814L93.5178 87.2673L91.3541 86.7114C91.3274 86.7053 91.3022 86.6938 91.2801 86.6774C91.258 86.6611 91.2396 86.6404 91.226 86.6165C91.1982 86.5688 91.1898 86.5122 91.2027 86.4584C91.2168 86.4051 91.2515 86.3596 91.2992 86.3319C91.347 86.3041 91.4036 86.2958 91.4573 86.3086L93.621 86.8645L95.7846 87.4188C95.811 87.4254 95.8357 87.4372 95.8574 87.4535C95.8791 87.4698 95.8974 87.4902 95.9111 87.5136C95.9252 87.5371 95.9346 87.5632 95.9386 87.5904C95.9426 87.6175 95.9412 87.6452 95.9344 87.6717C95.9222 87.7165 95.896 87.7562 95.8595 87.7849C95.8225 87.8107 95.7781 87.8236 95.733 87.8215Z" fill="#2B3D0A"/>
<path d="M117.029 50.251C116.193 50.0087 115.328 49.8837 114.459 49.8799C113.099 49.8799 111.438 50.1795 110.068 51.3778C109.443 51.929 108.94 52.6054 108.592 53.3634C108.333 53.9358 108.128 54.5308 107.978 55.1409C107.688 56.2405 107.575 57.3794 107.645 58.5145C107.725 59.578 108.019 60.4402 108.597 60.6782C108.692 60.7161 108.793 60.7375 108.895 60.7414C109.03 60.7443 109.165 60.7263 109.294 60.6882C109.359 60.9564 109.502 61.1993 109.705 61.3855C109.897 61.5611 110.141 61.6692 110.399 61.6934C110.636 61.7077 110.871 61.6497 111.074 61.527C111.186 61.464 111.288 61.3856 111.378 61.294C111.551 61.5573 111.803 61.7581 112.099 61.8665C112.378 61.9672 112.685 61.9672 112.964 61.8665C113.085 61.8207 113.197 61.7555 113.297 61.6735C113.385 61.599 113.464 61.5134 113.53 61.4188C113.611 61.3048 113.674 61.179 113.717 61.046C113.759 60.9127 113.786 60.7746 113.795 60.6349L113.85 59.7178L113.905 58.8008C113.989 57.3938 114.254 56.0037 114.695 54.6649C115.137 53.3295 115.763 52.0623 116.556 50.9001C116.631 50.7903 116.707 50.6788 116.787 50.5673C116.867 50.4557 116.947 50.3592 117.029 50.251Z" fill="#A0505A"/>
<path d="M109.294 60.8959C109.243 60.896 109.194 60.8777 109.156 60.8443C109.118 60.8109 109.094 60.7647 109.088 60.7145C109.03 60.2616 108.996 59.8061 108.985 59.3498C108.972 58.8962 108.984 58.4424 109.018 57.99C109.052 57.4312 109.123 56.8752 109.229 56.3256C109.386 55.5298 109.646 54.7577 110.002 54.0288C110.038 53.9523 110.077 53.8774 110.116 53.8025C110.156 53.7276 110.196 53.6527 110.236 53.5795C110.264 53.5316 110.309 53.4964 110.362 53.4815C110.415 53.4666 110.472 53.4731 110.521 53.4996C110.569 53.5266 110.604 53.5714 110.619 53.6244C110.633 53.6775 110.626 53.734 110.601 53.7825C110.561 53.8524 110.523 53.924 110.484 53.9956C110.446 54.0671 110.409 54.1387 110.374 54.2119C110.037 54.9113 109.79 55.6514 109.642 56.4139C109.465 57.3781 109.386 58.3579 109.407 59.3381C109.417 59.7806 109.451 60.2223 109.507 60.6613C109.514 60.7163 109.499 60.7717 109.466 60.8161C109.449 60.8377 109.428 60.8557 109.404 60.8692C109.38 60.8826 109.353 60.8911 109.326 60.8943H109.301L109.294 60.8959Z" fill="#353519"/>
<path d="M111.378 61.5105C111.327 61.51 111.277 61.4905 111.239 61.4555C111.219 61.4383 111.203 61.4174 111.192 61.3939C111.18 61.3705 111.174 61.3451 111.172 61.3191C110.936 58.5063 111.235 56.6589 111.601 55.5205C111.968 54.3821 112.402 53.9227 112.434 53.8861C112.473 53.8477 112.526 53.8262 112.582 53.8262C112.609 53.826 112.636 53.8313 112.661 53.8415C112.686 53.8518 112.709 53.867 112.728 53.8861C112.767 53.925 112.789 53.9776 112.79 54.0326C112.79 54.0597 112.785 54.0866 112.774 54.1118C112.764 54.1369 112.749 54.1597 112.73 54.179C112.718 54.1907 112.32 54.6184 111.979 55.7185C111.638 56.8187 111.357 58.5879 111.583 61.2841C111.588 61.3391 111.57 61.3936 111.535 61.4357C111.499 61.4779 111.448 61.5041 111.393 61.5088H111.375L111.378 61.5105Z" fill="#353519"/>
<path d="M91.4745 110.965C91.1615 111.419 90.6841 111.735 90.143 111.845C89.5921 111.961 89.0177 111.871 88.5286 111.592C88.04 111.315 87.6712 110.867 87.4934 110.334C87.3166 109.814 87.35 109.245 87.5866 108.749C89.231 104.453 90.8759 100.158 92.5214 95.864C94.1669 91.5699 95.8118 87.2748 97.4562 82.9786C97.718 82.2719 98.1301 81.6305 98.664 81.0986C99.1979 80.5667 99.8409 80.157 100.549 79.8979C101.274 79.6291 102.048 79.5122 102.821 79.5543C103.594 79.5963 104.35 79.7966 105.042 80.1425C105.741 80.4818 106.362 80.9611 106.867 81.5507C107.372 82.1402 107.75 82.8274 107.978 83.5694C108.202 84.2922 108.266 85.0551 108.165 85.805C108.064 86.5549 107.801 87.2738 107.394 87.9117L99.4368 99.439L91.4745 110.965Z" fill="#F98638"/>
<path d="M104.726 117.226H81.4584L79.9222 102.889L78.386 88.5539C78.377 88.462 78.3872 88.3692 78.416 88.2815C78.4447 88.1938 78.4914 88.113 78.5531 88.0443C78.6148 87.9756 78.6901 87.9204 78.7742 87.8824C78.8583 87.8443 78.9494 87.8242 79.0417 87.8232H106.861C106.953 87.824 107.044 87.8438 107.128 87.8814C107.212 87.9189 107.287 87.9734 107.348 88.0414C107.41 88.1094 107.457 88.1895 107.486 88.2765C107.516 88.3636 107.527 88.4557 107.519 88.5472L106.122 102.887L104.726 117.226Z" fill="#666538"/>
<path d="M107.183 91.6378H78.6939C78.6664 91.6378 78.6391 91.6324 78.6137 91.6218C78.5882 91.6113 78.5652 91.5957 78.5458 91.5762C78.5168 91.547 78.4972 91.5099 78.4893 91.4695C78.4815 91.4292 78.4857 91.3874 78.5016 91.3495C78.5174 91.3116 78.5441 91.2792 78.5784 91.2565C78.6126 91.2337 78.6528 91.2216 78.6939 91.2217H107.183C107.224 91.2216 107.264 91.2337 107.298 91.2565C107.332 91.2792 107.359 91.3116 107.375 91.3495C107.391 91.3874 107.395 91.4292 107.387 91.4695C107.379 91.5099 107.36 91.547 107.331 91.5762C107.311 91.5957 107.288 91.6113 107.263 91.6218C107.237 91.6324 107.21 91.6378 107.183 91.6378Z" fill="#2B3D0A"/>
<path d="M118.492 107.87C118.503 109.523 117.886 111.119 116.768 112.336C116.242 112.918 115.6 113.384 114.884 113.703C114.167 114.022 113.391 114.187 112.607 114.187C111.822 114.187 111.046 114.022 110.33 113.703C109.613 113.384 108.971 112.918 108.446 112.336C107.339 111.112 106.726 109.52 106.726 107.87C106.726 106.22 107.339 104.629 108.446 103.405C108.971 102.822 109.613 102.356 110.33 102.037C111.046 101.718 111.822 101.554 112.607 101.554C113.391 101.554 114.167 101.718 114.884 102.037C115.6 102.356 116.242 102.822 116.768 103.405C117.886 104.622 118.502 106.217 118.492 107.87Z" fill="#FF94AC"/>
<path d="M126.166 104.46H113.409V104.267C113.409 103.429 113.574 102.599 113.895 101.824C114.216 101.05 114.686 100.346 115.279 99.7533C115.872 99.1608 116.577 98.6911 117.351 98.3709C118.126 98.0508 118.957 97.8866 119.795 97.8877C121.487 97.8881 123.109 98.5604 124.306 99.7567C125.502 100.953 126.174 102.575 126.174 104.267V104.46H126.166Z" fill="#F4ECE5"/>
<path d="M122.511 94.987H121.736C122.387 94.5523 122.882 93.9196 123.146 93.1822C123.41 92.4449 123.43 91.6421 123.203 90.8925C122.976 90.1429 122.514 89.4862 121.885 89.0195C121.256 88.5528 120.493 88.3008 119.71 88.3008C118.927 88.3008 118.164 88.5528 117.535 89.0195C116.906 89.4862 116.444 90.1429 116.217 90.8925C115.99 91.6421 116.01 92.4449 116.274 93.1822C116.539 93.9196 117.033 94.5523 117.685 94.987H116.909C116.527 94.987 116.16 95.1389 115.89 95.4092C115.62 95.6795 115.468 96.0461 115.468 96.4283C115.468 96.8106 115.62 97.1772 115.89 97.4475C116.16 97.7178 116.527 97.8697 116.909 97.8697H122.511C122.893 97.8697 123.26 97.7178 123.53 97.4475C123.801 97.1772 123.953 96.8106 123.953 96.4283C123.953 96.0461 123.801 95.6795 123.53 95.4092C123.26 95.1389 122.893 94.987 122.511 94.987Z" fill="#BAB653"/>
<path d="M119.918 97.8873H119.71H119.501V93.0957V88.3057H119.71H119.918V93.0957V97.8873Z" fill="#2B3D0A"/>
<path d="M82.4848 105.314C82.458 105.314 82.4315 105.309 82.4066 105.299C82.3807 105.288 82.357 105.272 82.3367 105.252C82.298 105.213 82.2762 105.16 82.2762 105.105C82.2762 105.05 82.298 104.997 82.3367 104.958L89.1888 98.1204L96.0409 91.2816C96.0602 91.2625 96.083 91.2473 96.1082 91.2371C96.1333 91.2268 96.1602 91.2216 96.1874 91.2217C96.2148 91.2213 96.2421 91.2263 96.2675 91.2366C96.293 91.2469 96.3161 91.2622 96.3355 91.2816C96.3549 91.301 96.3702 91.3242 96.3805 91.3496C96.3908 91.375 96.3959 91.4023 96.3954 91.4298C96.3956 91.4569 96.3903 91.4838 96.3801 91.5089C96.3698 91.5341 96.3546 91.5569 96.3355 91.5762L89.4817 98.415L82.6296 105.252C82.6107 105.273 82.5873 105.289 82.5614 105.299C82.537 105.308 82.511 105.314 82.4848 105.314Z" fill="#2B3D0A"/>
<path d="M81.4582 117.434C81.4319 117.434 81.4059 117.429 81.3816 117.419C81.3557 117.408 81.3321 117.393 81.3117 117.374C81.2733 117.334 81.2513 117.282 81.2501 117.227C81.2501 117.2 81.2555 117.172 81.2661 117.147C81.2766 117.122 81.2921 117.098 81.3117 117.079L94.0623 104.205L106.813 91.33C106.852 91.2912 106.905 91.2695 106.96 91.2695C107.015 91.2695 107.068 91.2912 107.107 91.33C107.127 91.3489 107.143 91.3717 107.153 91.3969C107.164 91.422 107.169 91.4491 107.169 91.4764C107.169 91.5317 107.148 91.5848 107.109 91.6246L94.3569 104.492L81.6063 117.365C81.5874 117.386 81.564 117.402 81.5381 117.412C81.5131 117.424 81.486 117.432 81.4582 117.434Z" fill="#2B3D0A"/>
<path d="M100.27 117.433C100.244 117.433 100.218 117.429 100.194 117.42C100.168 117.41 100.145 117.395 100.125 117.375L91.063 108.652L81.9989 99.9311C81.9602 99.8919 81.9385 99.839 81.9385 99.7838C81.9385 99.7287 81.9602 99.6758 81.9989 99.6366C82.0174 99.6166 82.0397 99.6006 82.0647 99.5897C82.0896 99.5788 82.1165 99.5732 82.1437 99.5733C82.171 99.5726 82.1982 99.5774 82.2237 99.5874C82.2491 99.5974 82.2723 99.6124 82.2918 99.6316L91.3559 108.353L100.42 117.076C100.459 117.114 100.482 117.167 100.483 117.222C100.484 117.264 100.472 117.305 100.449 117.34C100.426 117.375 100.394 117.402 100.355 117.418C100.328 117.429 100.299 117.434 100.27 117.433Z" fill="#2B3D0A"/>
<path d="M105.447 110.039C105.421 110.039 105.395 110.034 105.37 110.025C105.345 110.015 105.321 110 105.302 109.981L96.7222 101.749L88.1425 93.5151C88.1226 93.4962 88.1067 93.4735 88.0958 93.4484C88.085 93.4232 88.0793 93.3961 88.0792 93.3687C88.0783 93.3414 88.0829 93.3142 88.0927 93.2887C88.1025 93.2632 88.1173 93.2399 88.1362 93.2202C88.1551 93.2005 88.1778 93.1848 88.2029 93.174C88.228 93.1632 88.2549 93.1575 88.2823 93.1573C88.3096 93.1566 88.3368 93.1614 88.3622 93.1714C88.3877 93.1814 88.4108 93.1964 88.4304 93.2155L97.0101 101.447L105.59 109.681C105.609 109.7 105.625 109.723 105.636 109.748C105.646 109.774 105.652 109.801 105.652 109.828C105.652 109.856 105.646 109.883 105.636 109.908C105.625 109.933 105.609 109.956 105.59 109.976C105.57 109.996 105.546 110.012 105.52 110.024C105.497 110.033 105.472 110.038 105.447 110.039Z" fill="#2B3D0A"/>
<path d="M92.408 117.434C92.3825 117.434 92.3572 117.429 92.3331 117.42C92.2949 117.406 92.2618 117.38 92.2381 117.347C92.2144 117.313 92.2012 117.273 92.2 117.232C92.199 117.205 92.2035 117.178 92.2132 117.153C92.2229 117.127 92.2377 117.104 92.2565 117.084L99.1303 109.733L106.006 102.383C106.024 102.363 106.046 102.346 106.071 102.335C106.096 102.323 106.123 102.317 106.151 102.317C106.178 102.316 106.205 102.32 106.23 102.33C106.256 102.339 106.279 102.354 106.299 102.373C106.319 102.391 106.336 102.414 106.347 102.439C106.358 102.464 106.365 102.491 106.365 102.518C106.366 102.545 106.362 102.572 106.352 102.598C106.342 102.623 106.328 102.646 106.309 102.666L99.4349 110.017L92.5595 117.369C92.5403 117.39 92.5163 117.407 92.4896 117.417C92.4639 117.428 92.4361 117.434 92.408 117.434Z" fill="#2B3D0A"/>
<path d="M108.239 99.3591L107.977 99.6453L107.714 99.9316C107.804 99.3481 107.752 98.7515 107.563 98.1924C107.335 97.5217 106.916 96.932 106.358 96.4952C105.801 96.0583 105.128 95.7933 104.422 95.7323C103.716 95.6713 103.008 95.8171 102.383 96.1518C101.759 96.4865 101.245 96.9958 100.906 97.6173C100.566 98.2389 100.414 98.946 100.469 99.6523C100.524 100.359 100.783 101.034 101.216 101.595C101.648 102.156 102.234 102.58 102.903 102.814C103.571 103.048 104.294 103.082 104.982 102.912L104.72 103.199L104.457 103.483C104.205 103.766 104.074 104.136 104.093 104.514C104.111 104.893 104.278 105.248 104.557 105.505C104.836 105.761 105.204 105.897 105.583 105.884C105.961 105.871 106.319 105.709 106.579 105.434L108.473 103.372L110.369 101.31C110.621 101.027 110.752 100.657 110.734 100.279C110.715 99.9004 110.548 99.5447 110.269 99.2884C109.991 99.0322 109.622 98.8959 109.244 98.9091C108.865 98.9223 108.507 99.084 108.247 99.3591H108.239Z" fill="#BAB653"/>
<path d="M123.243 117.226H103.318C102.772 117.226 102.232 117.119 101.729 116.91C101.225 116.702 100.767 116.396 100.381 116.011C99.9959 115.625 99.6902 115.167 99.4817 114.664C99.2733 114.16 99.1662 113.62 99.1666 113.075V105.522C99.1666 105.24 99.2785 104.97 99.4776 104.771C99.6768 104.572 99.9469 104.46 100.228 104.46H126.332C126.614 104.46 126.884 104.572 127.083 104.771C127.282 104.97 127.394 105.24 127.394 105.522V113.075C127.394 113.62 127.287 114.16 127.079 114.664C126.87 115.167 126.565 115.625 126.179 116.011C125.794 116.396 125.336 116.702 124.832 116.91C124.328 117.119 123.788 117.226 123.243 117.226Z" fill="#AD4D4D"/>
<path d="M99.1666 109.831H94.6063C94.5312 109.832 94.4568 109.817 94.3873 109.789C94.3178 109.76 94.2547 109.718 94.2016 109.665C94.1485 109.612 94.1065 109.549 94.078 109.479C94.0494 109.41 94.035 109.335 94.0354 109.26V107.526C94.035 107.451 94.0494 107.376 94.078 107.307C94.1065 107.238 94.1485 107.174 94.2016 107.121C94.2547 107.068 94.3178 107.026 94.3873 106.998C94.4568 106.969 94.5312 106.955 94.6063 106.955H99.1666V109.831Z" fill="#AD4D4D"/>
<path d="M131.954 109.831H127.394V106.955H131.954C132.03 106.955 132.104 106.969 132.173 106.998C132.243 107.026 132.306 107.068 132.359 107.122C132.465 107.229 132.525 107.375 132.525 107.526V109.26C132.525 109.412 132.465 109.557 132.359 109.665C132.306 109.718 132.243 109.76 132.173 109.788C132.104 109.817 132.03 109.831 131.954 109.831Z" fill="#AD4D4D"/>
<path d="M127.394 107.163H113.28H99.1666V106.955V106.747H113.28H127.394V106.955V107.163Z" fill="#2B3D0A"/>
<path d="M108.339 103.539L104.812 100.296L101.284 97.0543L101.425 96.8995L101.565 96.748L105.093 99.9902L108.622 103.232L108.48 103.385L108.339 103.539Z" fill="#2B3D0A"/>
<path d="M163.734 46.3479L157.446 43.6333L151.15 40.9138C151.119 40.8995 151.084 40.8965 151.052 40.9054C151.019 40.9142 150.991 40.9343 150.972 40.962C150.95 40.9881 150.939 41.0208 150.939 41.0544C150.939 41.088 150.95 41.1207 150.972 41.1468L160.219 51.6505L169.464 62.1558C169.486 62.1815 169.517 62.1986 169.55 62.2044C169.583 62.2102 169.618 62.2042 169.647 62.1875C169.676 62.1719 169.699 62.1469 169.711 62.1165C169.724 62.0861 169.725 62.0524 169.715 62.021L167.588 55.1756L165.461 48.3301L166.25 47.6377L167.037 46.9437L167.503 47.473L167.968 48.0022C168.035 48.0788 168.13 48.1255 168.232 48.1321C168.334 48.1386 168.434 48.1045 168.51 48.0372L168.912 47.6827L169.314 47.3282C169.391 47.2611 169.437 47.1666 169.444 47.0652C169.448 47.0149 169.441 46.9644 169.425 46.9167C169.408 46.869 169.383 46.825 169.349 46.7873L167.562 44.7418L165.773 42.7096C165.705 42.633 165.61 42.5863 165.509 42.5798C165.407 42.5732 165.307 42.6073 165.23 42.6746L164.829 43.0292L164.426 43.3837C164.388 43.4168 164.357 43.4572 164.335 43.5023C164.313 43.5475 164.3 43.5966 164.296 43.6469C164.293 43.6971 164.3 43.7475 164.316 43.7952C164.332 43.8428 164.358 43.8868 164.391 43.9246L164.857 44.4538L165.323 44.9831L164.534 45.6755L163.747 46.3695L163.735 46.3545L163.734 46.3479Z" fill="#F98638"/>
<path d="M29.0137 26.2197C31.5701 23.6184 32.1177 21.6411 31.462 21.002C30.8062 20.3629 28.9505 21.0636 26.6969 23.8148C27.6673 20.2664 27.0931 18.3341 26.1344 18.2908C25.1757 18.2475 23.8276 20.0933 23.27 24.096C22.2714 20.1282 20.7236 18.4372 19.7749 18.6303C18.8262 18.8234 18.4917 20.8855 19.9297 24.4239C17.3366 21.8675 15.3527 21.3199 14.7136 21.9773C14.0745 22.6347 14.7752 24.4888 17.5264 26.7423C13.9763 25.772 12.044 26.3462 12.0007 27.3049C11.9575 28.2636 13.8032 29.605 17.8077 30.1692C13.8382 31.1678 12.1489 32.7174 12.3403 33.6644C12.5317 34.6114 14.5971 34.9476 18.1339 33.5096C15.5791 36.1126 15.0315 38.0882 15.6856 38.7273C16.3397 39.3664 18.1988 38.6674 20.4523 35.9146C19.482 39.4646 20.0562 41.3969 21.0132 41.4402C21.9702 41.4835 23.3133 39.6344 23.8775 35.625C24.8761 39.5928 26.4256 41.2838 27.3727 41.0907C28.3197 40.8976 28.6559 38.8338 27.2195 35.2971C29.8209 37.8519 31.7982 38.3994 32.4373 37.7453C33.0764 37.0913 32.3757 35.2322 29.6245 32.9787C33.1746 33.9506 35.1052 33.3748 35.1485 32.4178C35.1918 31.4608 33.3443 30.1326 29.3416 29.5601C33.3094 28.5615 35.0004 27.012 34.8073 26.065C34.6142 25.1179 32.5521 24.7834 29.0137 26.2197Z" fill="#F98638"/>
<path d="M27.4106 29.7614C27.4346 30.6495 27.1499 31.5183 26.605 32.22C26.0601 32.9217 25.2888 33.4127 24.4225 33.6094C23.5562 33.8061 22.6485 33.6963 21.854 33.2987C21.0596 32.9012 20.4275 32.2404 20.0657 31.4291C19.7038 30.6178 19.6344 29.7061 19.8694 28.8494C20.1044 27.9926 20.6292 27.2439 21.3544 26.7307C22.0796 26.2176 22.9603 25.9718 23.8464 26.0352C24.7325 26.0986 25.5692 26.4673 26.2139 27.0785C26.5802 27.4249 26.8745 27.8402 27.0799 28.3006C27.2852 28.761 27.3976 29.2574 27.4106 29.7614Z" fill="#FF94AC"/>
<path d="M160.21 117.229C160.158 117.23 160.107 117.21 160.069 117.174C160.03 117.138 160.007 117.089 160.002 117.036L158.907 101.712L157.81 86.3888C157.806 86.3337 157.824 86.2792 157.86 86.2373C157.897 86.1958 157.948 86.1701 158.003 86.1657C158.03 86.1635 158.058 86.1667 158.084 86.1752C158.11 86.1838 158.134 86.1975 158.155 86.2155C158.175 86.2335 158.192 86.2554 158.204 86.2801C158.216 86.3047 158.223 86.3315 158.224 86.3588L159.323 101.682L160.42 117.006C160.423 117.061 160.405 117.115 160.368 117.157C160.332 117.199 160.282 117.224 160.227 117.229H160.212H160.21Z" fill="#2B3D0A"/>
<path d="M80.2101 77.5289C80.1789 77.5284 80.148 77.5228 80.1186 77.5123C80.0888 77.5005 80.0617 77.483 80.0387 77.4607C79.9906 77.4152 79.9625 77.3525 79.9607 77.2863C79.9588 77.2202 79.9833 77.1559 80.0287 77.1078L80.3799 76.735L80.7311 76.3605C80.7744 76.314 80.834 76.2859 80.8975 76.2823C80.9641 76.2805 81.0287 76.305 81.0773 76.3506C81.1254 76.396 81.1534 76.4587 81.1553 76.5249C81.1572 76.5911 81.1327 76.6553 81.0873 76.7034L80.7361 77.0762L80.3849 77.4507C80.3607 77.4754 80.3318 77.4952 80.3 77.5089C80.2716 77.5214 80.2411 77.5282 80.2101 77.5289Z" fill="#666538"/>
<path d="M73.6171 77.3929H72.3888C72.356 77.3933 72.3234 77.387 72.293 77.3744C72.2627 77.3619 72.2353 77.3432 72.2124 77.3196C72.1891 77.2965 72.1707 77.269 72.1581 77.2388C72.1455 77.2085 72.1391 77.176 72.1392 77.1432C72.1394 77.0771 72.1657 77.0137 72.2124 76.9668C72.2355 76.9435 72.263 76.9251 72.2933 76.9125C72.3236 76.8999 72.356 76.8935 72.3888 76.8936H73.6171C73.6833 76.8936 73.7468 76.9199 73.7936 76.9667C73.8405 77.0135 73.8668 77.077 73.8668 77.1432C73.8668 77.176 73.8604 77.2085 73.8478 77.2388C73.8352 77.269 73.8168 77.2965 73.7935 77.3196C73.7706 77.3431 73.7431 77.3617 73.7128 77.3743C73.6825 77.3869 73.6499 77.3932 73.6171 77.3929Z" fill="#666538"/>
<path d="M79.2694 85.2301L79.9152 84.6626L80.5609 84.0967L80.7856 85.6895L81.012 87.2822L80.1399 86.2553L79.2694 85.2301Z" fill="#666538"/>
<path d="M96.7017 71.2701L95.7131 71.0437L94.7228 70.8174L95.4385 72.2188L96.1525 73.6201L96.4287 72.4451L96.7017 71.2701Z" fill="#666538"/>
<path d="M93.1067 65.4297C93.0934 65.4313 93.08 65.4313 93.0667 65.4297C93.0525 65.4279 93.0386 65.4246 93.0251 65.4197L92.2429 65.1484L91.4606 64.8771C91.3984 64.855 91.3471 64.8097 91.3175 64.7506C91.2886 64.6908 91.2845 64.6221 91.3058 64.5592C91.328 64.497 91.3733 64.4457 91.4323 64.4161C91.4923 64.3881 91.5608 64.3839 91.6237 64.4045L92.406 64.6757L93.1899 64.947C93.2208 64.9578 93.2493 64.9747 93.2736 64.9967C93.2979 65.0187 93.3176 65.0454 93.3314 65.0752C93.346 65.1044 93.3546 65.1362 93.3566 65.1688C93.3586 65.2015 93.354 65.2341 93.343 65.2649C93.3258 65.3144 93.2938 65.3573 93.2515 65.3881C93.2083 65.4159 93.158 65.4303 93.1067 65.4297Z" fill="#666538"/>
<path d="M98.1929 62.4335C98.1318 62.4342 98.0725 62.4123 98.0265 62.372C97.9811 62.3302 97.9526 62.2733 97.9464 62.2119C97.9403 62.1505 97.957 62.089 97.9932 62.0391C98.0341 61.9869 98.0939 61.9528 98.1597 61.9442L98.7405 61.871L99.3214 61.7978C99.354 61.7937 99.3872 61.7963 99.4189 61.8051C99.4506 61.814 99.4802 61.829 99.5061 61.8493C99.5577 61.8903 99.5911 61.9499 99.5992 62.0153C99.6073 62.0806 99.5894 62.1466 99.5494 62.1989C99.5083 62.2508 99.4486 62.2848 99.383 62.2937L98.8021 62.367L98.2212 62.4402H98.1896L98.1929 62.4335Z" fill="#666538"/>
<path d="M113.601 76.2778C113.58 76.2775 113.558 76.2747 113.537 76.2695C113.515 76.2627 113.495 76.2538 113.475 76.2429L112.596 75.7269L111.717 75.2093C111.689 75.1929 111.664 75.1712 111.644 75.1452C111.624 75.1192 111.609 75.0895 111.601 75.0579C111.585 74.9936 111.594 74.9254 111.628 74.8681C111.644 74.8397 111.666 74.8148 111.692 74.7951C111.719 74.7754 111.749 74.7611 111.781 74.7533C111.813 74.7449 111.846 74.743 111.878 74.7475C111.911 74.7521 111.942 74.7631 111.97 74.7799L112.849 75.2959L113.728 75.8135C113.756 75.8296 113.781 75.8514 113.801 75.8774C113.821 75.9034 113.835 75.9332 113.843 75.9649C113.851 75.9967 113.853 76.0299 113.849 76.0625C113.844 76.095 113.833 76.1264 113.816 76.1547C113.795 76.1929 113.763 76.2246 113.725 76.2462C113.687 76.2665 113.644 76.2774 113.601 76.2778Z" fill="#666538"/>
<path d="M110.808 69.8349C110.753 69.8349 110.699 69.8166 110.655 69.7828C110.612 69.7491 110.58 69.7019 110.566 69.6485L110.445 69.1892L110.325 68.7298C110.308 68.6658 110.317 68.5977 110.35 68.5404C110.384 68.4831 110.438 68.4414 110.502 68.4244C110.566 68.4074 110.634 68.4165 110.692 68.4498C110.749 68.483 110.791 68.5376 110.808 68.6016L110.928 69.061L111.049 69.5204C111.058 69.5521 111.06 69.5852 111.056 69.6177C111.051 69.6503 111.041 69.6817 111.024 69.7101C110.99 69.7671 110.935 69.8088 110.871 69.8266H110.839L110.808 69.8349Z" fill="#666538"/>
<path d="M108.627 79.0725L107.845 78.6031L107.061 78.1338L107.034 79.9313L107.008 81.7288L107.818 80.4006L108.627 79.0725Z" fill="#666538"/>
<path d="M107.06 72.3368C107.037 72.3368 107.013 72.3334 106.991 72.3269C106.967 72.3197 106.944 72.3091 106.924 72.2952L106.458 71.989L105.994 71.6811C105.965 71.6625 105.941 71.6381 105.922 71.6094C105.904 71.5807 105.892 71.5484 105.887 71.5146C105.874 71.4498 105.886 71.3823 105.922 71.3266C105.941 71.2987 105.966 71.2749 105.995 71.2566C106.023 71.2384 106.055 71.2259 106.088 71.2201C106.12 71.2133 106.153 71.2131 106.185 71.2194C106.217 71.2257 106.248 71.2384 106.275 71.2567L106.739 71.5629L107.205 71.8708C107.233 71.8898 107.257 71.9143 107.276 71.943C107.294 71.9716 107.306 72.0037 107.312 72.0373C107.318 72.0692 107.319 72.1022 107.312 72.1342C107.306 72.1662 107.293 72.1966 107.275 72.2237C107.253 72.2592 107.221 72.288 107.184 72.3069C107.146 72.3276 107.103 72.3379 107.06 72.3368Z" fill="#666538"/>
<path d="M161.118 78.0684L160.664 77.9786L160.21 77.8887L160.454 78.8224L160.697 79.7577L160.907 78.9139L161.118 78.0684Z" fill="#666538"/>
<path d="M153.511 73.7344L153.105 73.8193L152.699 73.9041L153.248 74.4767L153.797 75.0475L153.654 74.3918L153.511 73.7344Z" fill="#666538"/>
</g>
<defs>
<clipPath id="clip0_6346_36430">
<rect width="256" height="120" rx="8" fill="white"/>
</clipPath>
</defs>
</svg>
