<svg width="256" height="120" viewBox="0 0 256 120" fill="none" xmlns="http://www.w3.org/2000/svg">
<g clip-path="url(#clip0_6346_36431)">
<rect width="256" height="120" rx="8" fill="#1E4240"/>
<path d="M231.761 23.276L229.269 24.556L226.774 25.836C226.709 25.8696 226.652 25.9165 226.606 25.9735C226.56 26.0306 226.526 26.0967 226.507 26.1675C226.488 26.2382 226.484 26.3122 226.495 26.3846C226.507 26.4571 226.533 26.5263 226.573 26.588L228.096 28.9384L229.619 31.2888C229.671 31.3699 229.7 31.4638 229.702 31.5603C229.704 31.6567 229.68 31.7518 229.632 31.8353C229.584 31.9188 229.513 31.9874 229.429 32.0335C229.344 32.0796 229.248 32.1015 229.152 32.0968L226.353 31.9512L223.555 31.7944C223.482 31.7907 223.408 31.8025 223.34 31.8288C223.272 31.8552 223.209 31.8956 223.158 31.9475C223.106 31.9993 223.065 32.0615 223.039 32.1299C223.013 32.1984 223.001 32.2716 223.005 32.3448L223.15 35.1416L223.296 37.9384C223.3 38.0337 223.278 38.1284 223.233 38.2121C223.187 38.2959 223.119 38.3656 223.037 38.4138C222.955 38.4619 222.861 38.4865 222.765 38.4851C222.67 38.4837 222.577 38.4562 222.496 38.4056L220.145 36.8824L217.795 35.3608C217.734 35.321 217.664 35.2944 217.592 35.2829C217.52 35.2714 217.446 35.2752 217.375 35.2941C217.305 35.3129 217.239 35.3464 217.182 35.3924C217.125 35.4383 217.078 35.4957 217.045 35.5608L215.765 38.0552L214.485 40.5496C214.44 40.6352 214.373 40.707 214.291 40.7572C214.209 40.8073 214.114 40.8338 214.018 40.8338C213.922 40.8338 213.827 40.8073 213.745 40.7572C213.663 40.707 213.596 40.6352 213.552 40.5496L212.272 38.0552L210.992 35.5608C210.958 35.4957 210.912 35.4383 210.855 35.3924C210.798 35.3464 210.732 35.3129 210.661 35.2941C210.59 35.2752 210.516 35.2714 210.444 35.2829C210.372 35.2944 210.303 35.321 210.241 35.3608L207.891 36.8824L205.541 38.4056C205.46 38.4584 205.365 38.4877 205.269 38.4902C205.172 38.4928 205.077 38.4686 204.993 38.4202C204.909 38.3718 204.841 38.3011 204.795 38.2161C204.749 38.1311 204.727 38.0349 204.733 37.9384L204.878 35.1416L205.024 32.3448C205.027 32.2716 205.016 32.1984 204.989 32.1299C204.963 32.0615 204.923 31.9993 204.871 31.9475C204.819 31.8956 204.757 31.8552 204.688 31.8288C204.62 31.8025 204.547 31.7907 204.473 31.7944L201.677 31.94L198.878 32.0856C198.782 32.0903 198.686 32.0684 198.601 32.0223C198.517 31.9762 198.446 31.9076 198.398 31.8241C198.35 31.7406 198.325 31.6455 198.328 31.5491C198.33 31.4526 198.359 31.3587 198.411 31.2776L199.934 28.9272L201.475 26.5768C201.514 26.5151 201.541 26.4459 201.552 26.3734C201.563 26.301 201.559 26.227 201.54 26.1563C201.521 26.0855 201.488 26.0194 201.442 25.9623C201.396 25.9053 201.338 25.8584 201.273 25.8248L198.779 24.5448L196.286 23.2648C196.2 23.221 196.128 23.1543 196.077 23.072C196.027 22.9897 196 22.895 196 22.7984C196 22.7018 196.027 22.6071 196.077 22.5248C196.128 22.4425 196.2 22.3758 196.286 22.332L198.779 21.052L201.273 19.772C201.338 19.7384 201.396 19.6915 201.442 19.6345C201.488 19.5774 201.521 19.5114 201.54 19.4406C201.559 19.3698 201.563 19.2958 201.552 19.2234C201.541 19.151 201.514 19.0817 201.475 19.02L199.947 16.6984L198.425 14.348C198.375 14.2672 198.347 14.1742 198.346 14.079C198.344 13.9837 198.369 13.8899 198.417 13.8076C198.465 13.7253 198.534 13.6576 198.618 13.6118C198.701 13.5661 198.796 13.544 198.891 13.548L201.689 13.6936L204.486 13.8392C204.559 13.8429 204.633 13.8312 204.701 13.8048C204.769 13.7784 204.832 13.738 204.883 13.6862C204.935 13.6343 204.976 13.5721 205.002 13.5037C205.028 13.4353 205.04 13.3621 205.037 13.2888L204.891 10.492L204.745 7.69521C204.74 7.59868 204.762 7.50256 204.807 7.41752C204.853 7.33248 204.922 7.26185 205.006 7.21345C205.09 7.16506 205.185 7.1408 205.282 7.14337C205.378 7.14594 205.472 7.17524 205.553 7.22801L207.904 8.75121L210.254 10.2744C210.316 10.314 210.385 10.3402 210.457 10.3514C210.529 10.3627 210.603 10.3587 210.674 10.3397C210.745 10.3207 210.811 10.2872 210.867 10.2412C210.924 10.1952 210.971 10.1379 211.005 10.0728L212.285 7.57841L213.565 5.08401C213.609 4.99839 213.676 4.92658 213.758 4.87645C213.84 4.82632 213.935 4.7998 214.031 4.7998C214.127 4.7998 214.222 4.82632 214.304 4.87645C214.386 4.92658 214.453 4.99839 214.497 5.08401L215.777 7.57841L217.057 10.0728C217.091 10.1379 217.137 10.1952 217.194 10.2412C217.251 10.2872 217.317 10.3207 217.388 10.3397C217.459 10.3587 217.532 10.3627 217.605 10.3514C217.677 10.3402 217.746 10.314 217.808 10.2744L220.158 8.75121L222.51 7.22801C222.591 7.17744 222.684 7.14996 222.78 7.14852C222.875 7.14708 222.969 7.17175 223.051 7.21986C223.134 7.26797 223.201 7.33769 223.247 7.42147C223.293 7.50525 223.314 7.59991 223.31 7.69521L223.165 10.492L223.019 13.2904C223.018 13.3606 223.032 13.4302 223.059 13.4951C223.085 13.56 223.125 13.6188 223.175 13.6681C223.225 13.7174 223.284 13.7561 223.35 13.7819C223.415 13.8077 223.485 13.8201 223.555 13.8184L226.353 13.6728L229.15 13.5272C229.245 13.5235 229.34 13.5457 229.423 13.5914C229.506 13.6372 229.576 13.7048 229.624 13.7869C229.672 13.8691 229.697 13.9628 229.695 14.058C229.694 14.1532 229.667 14.2462 229.617 14.3272L228.096 16.6984L226.573 19.0488C226.533 19.1105 226.507 19.1798 226.495 19.2522C226.484 19.3246 226.488 19.3986 226.507 19.4694C226.526 19.5401 226.56 19.6062 226.606 19.6633C226.652 19.7203 226.709 19.7672 226.774 19.8008L229.269 21.0808L231.761 22.3608C231.847 22.4046 231.92 22.4713 231.97 22.5536C232.021 22.6359 232.047 22.7306 232.047 22.8272C232.047 22.9238 232.021 23.0185 231.97 23.1008C231.92 23.1831 231.847 23.2498 231.761 23.2936V23.276Z" fill="#E9CF81"/>
<path d="M89.4629 50.1531C89.3236 48.6979 89.3606 47.2313 89.5733 45.7851C89.7605 44.3883 90.0533 43.1003 90.2885 42.0699C90.6228 40.6299 91.04 39.2105 91.5381 37.8187C91.9813 36.5771 92.4325 35.5147 92.8309 34.6523L90.3109 34.0459L87.7909 33.4395C87.4709 34.1979 87.0933 35.1339 86.7093 36.2267C86.3253 37.3195 85.9301 38.5723 85.5685 39.9595C84.9573 42.3035 84.4181 44.3147 84.1605 46.2219C83.9029 48.1291 83.9253 49.9323 84.4389 51.8635C84.6775 52.7589 85.005 53.6283 85.4165 54.4587C86.0267 55.6817 86.7902 56.8221 87.6885 57.8523L89.3093 59.8314L90.9349 61.8187C96.3845 68.4779 99.2965 72.0395 100.965 74.0987C102.634 76.1579 103.058 76.7115 103.533 77.3515C106.348 81.1387 108.468 83.9755 109.996 86.4203C111.524 88.8651 112.456 90.9195 112.895 93.1403C114.045 98.9611 111.66 105.123 108.423 110.388C105.186 115.654 101.098 120.023 98.8405 122.262H106.892C107.65 121.539 109.018 120.147 110.432 118.55C111.847 116.953 113.312 115.155 114.247 113.617C115.436 111.601 116.437 109.48 117.239 107.281C118.4 104.127 119.399 100.179 119.253 96.1723C119.114 92.3435 117.951 89.1003 116.015 85.8299C114.079 82.5595 111.375 79.2603 108.141 75.3179C107.429 74.4491 106.173 72.8315 104.479 70.7387C102.784 68.6459 100.65 66.0779 98.1813 63.3035C95.4885 60.2731 93.4325 58.1387 91.9925 56.1803C90.5525 54.2219 89.7189 52.4507 89.4629 50.1531Z" fill="#BAB653"/>
<path d="M227.469 85.0345L226.597 85.0569L225.723 85.0809C225.721 85.0811 225.718 85.0808 225.716 85.08C225.713 85.0793 225.711 85.078 225.709 85.0764C225.707 85.0747 225.706 85.0728 225.705 85.0705C225.703 85.0682 225.703 85.0658 225.702 85.0633C225.702 85.0584 225.703 85.0535 225.706 85.0495C225.708 85.0454 225.712 85.0423 225.717 85.0409C226.362 84.8219 226.954 84.4691 227.453 84.0057C227.89 83.604 228.203 83.0861 228.355 82.5129C228.481 81.9618 228.45 81.3867 228.267 80.8521C228.171 80.5527 228.037 80.2667 227.869 80.0009C227.383 79.2712 226.66 78.7311 225.822 78.4713C224.889 78.1757 223.891 78.148 222.942 78.3913C223.848 78.1839 224.657 77.6764 225.237 76.9513C225.757 76.3191 226.052 75.5316 226.074 74.7132C226.096 73.8948 225.845 73.0924 225.36 72.4329C224.918 71.8011 224.281 71.3314 223.547 71.0954C222.813 70.8594 222.022 70.87 221.294 71.1257C220.514 71.389 219.831 71.8793 219.331 72.5337C219.745 71.7184 219.899 70.7958 219.771 69.8905C219.651 69.0123 219.245 68.1982 218.616 67.5737C217.967 66.9476 217.132 66.5495 216.237 66.4393C215.375 66.3136 214.496 66.4948 213.754 66.9513C212.87 67.5177 212.282 68.5097 212.102 69.6377C211.914 70.8717 212.205 72.1311 212.915 73.1577C212.922 73.1648 212.926 73.1742 212.926 73.1841C212.926 73.1939 212.922 73.2033 212.915 73.2105C212.908 73.2166 212.899 73.2199 212.889 73.2199C212.879 73.2199 212.87 73.2166 212.862 73.2105C212.493 72.9403 212.074 72.7459 211.629 72.6385C211.184 72.5312 210.722 72.5129 210.271 72.5849C209.837 72.6317 209.42 72.7764 209.05 73.008C208.681 73.2396 208.369 73.552 208.138 73.9218C207.906 74.2916 207.762 74.709 207.716 75.1426C207.67 75.5762 207.723 76.0146 207.871 76.4249C208.009 76.891 208.245 77.3227 208.562 77.6918C208.878 78.061 209.269 78.3592 209.709 78.5673C209.152 78.451 208.579 78.4458 208.02 78.5517C207.462 78.6577 206.93 78.8729 206.454 79.1849C205.578 79.7641 204.974 80.6361 204.854 81.5593C204.765 82.4089 205 83.261 205.512 83.9449C206.061 84.7165 206.85 85.2839 207.757 85.5577L206.859 85.5817L205.962 85.6057C205.373 85.6212 204.794 85.7525 204.257 85.992C203.719 86.2315 203.234 86.5746 202.829 87.0016C202.424 87.4287 202.107 87.9313 201.897 88.4808C201.686 89.0302 201.586 89.6158 201.602 90.2041C201.617 90.7923 201.749 91.3717 201.988 91.9092C202.228 92.4467 202.571 92.9318 202.998 93.3366C203.425 93.7415 203.927 94.0583 204.477 94.2689C205.026 94.4795 205.612 94.5798 206.2 94.5641L209.894 94.4649L213.589 94.3673L213.896 108.415L214.203 122.463H220.963L220.643 108.326L220.323 94.1881L224.018 94.0905L227.712 93.9913C228.9 93.9598 230.026 93.4579 230.844 92.5958C231.662 91.7338 232.103 90.5822 232.072 89.3945C232.057 88.8062 231.925 88.2268 231.686 87.6893C231.446 87.1518 231.103 86.6667 230.676 86.2619C230.249 85.857 229.746 85.5402 229.197 85.3296C228.648 85.119 228.062 85.0187 227.474 85.0345H227.469Z" fill="#666538"/>
<path d="M201.549 94.8477H199.749H197.949L199.795 97.3309L201.642 99.8125L201.595 97.3309L201.549 94.8477Z" fill="#353519"/>
<path d="M211.256 78.7701H209.707C209.667 78.7702 209.629 78.7586 209.596 78.7367C209.563 78.7148 209.537 78.6837 209.522 78.6472C209.507 78.6108 209.503 78.5706 209.51 78.5318C209.518 78.4931 209.537 78.4574 209.565 78.4293C209.583 78.4105 209.605 78.3956 209.63 78.3854C209.654 78.3753 209.68 78.3701 209.707 78.3701H211.256C211.282 78.37 211.308 78.3752 211.332 78.3854C211.356 78.3955 211.378 78.4105 211.397 78.4293C211.415 78.4478 211.43 78.4698 211.441 78.4941C211.451 78.5184 211.456 78.5446 211.456 78.5709C211.456 78.5973 211.451 78.6234 211.441 78.6477C211.43 78.672 211.415 78.6941 211.397 78.7125C211.359 78.7494 211.308 78.77 211.256 78.7701Z" fill="#2B3D0A"/>
<path d="M225.883 85.3297H221.054C221.028 85.3297 221.002 85.3245 220.977 85.3144C220.953 85.3042 220.931 85.2893 220.912 85.2705C220.884 85.2424 220.865 85.2068 220.858 85.168C220.85 85.1292 220.854 85.089 220.869 85.0526C220.885 85.0161 220.91 84.985 220.943 84.9631C220.976 84.9413 221.015 84.9296 221.054 84.9297H225.883C225.936 84.9297 225.987 84.9508 226.025 84.9883C226.062 85.0258 226.083 85.0766 226.083 85.1297C226.083 85.1559 226.078 85.1818 226.068 85.206C226.057 85.2302 226.043 85.2521 226.024 85.2705C226.006 85.2893 225.984 85.3043 225.96 85.3144C225.935 85.3246 225.909 85.3298 225.883 85.3297Z" fill="#2B3D0A"/>
<path d="M218.832 73.4374C218.812 73.4374 218.792 73.4342 218.773 73.4278C218.753 73.4217 218.734 73.4125 218.717 73.4006C218.695 73.3855 218.677 73.3663 218.663 73.344C218.649 73.3218 218.639 73.2969 218.635 73.271C218.63 73.2452 218.631 73.2187 218.636 73.1931C218.642 73.1675 218.653 73.1434 218.669 73.1222L218.917 72.7718L219.163 72.4214C219.194 72.3786 219.24 72.3493 219.293 72.3398C219.345 72.3309 219.398 72.343 219.441 72.3734C219.463 72.3884 219.481 72.4076 219.495 72.4298C219.509 72.4521 219.519 72.477 219.523 72.503C219.528 72.529 219.527 72.5557 219.521 72.5816C219.516 72.6074 219.505 72.6318 219.489 72.6534L219.243 72.999L218.995 73.3494C218.976 73.3755 218.951 73.3969 218.923 73.4118C218.895 73.4274 218.864 73.4362 218.832 73.4374Z" fill="#2B3D0A"/>
<path d="M143.732 113.277C143.708 113.277 143.685 113.273 143.663 113.265C143.64 113.257 143.618 113.244 143.599 113.228L139.501 109.61L135.404 105.993C135.364 105.957 135.34 105.908 135.336 105.855C135.333 105.802 135.351 105.749 135.386 105.709C135.421 105.67 135.471 105.645 135.524 105.642C135.577 105.639 135.629 105.657 135.669 105.692L139.767 109.309L143.865 112.927C143.904 112.962 143.928 113.012 143.932 113.065C143.935 113.118 143.917 113.17 143.882 113.21C143.863 113.231 143.84 113.248 143.813 113.26C143.788 113.271 143.76 113.277 143.732 113.277Z" fill="#2B3D0A"/>
<path d="M85.9219 38.6844L87.8323 41.6988L89.7411 44.7116C89.8616 44.0396 89.9869 43.4119 90.1171 42.8284C90.2467 42.2444 90.3779 41.7084 90.5043 41.2204C90.6899 40.5052 90.8707 39.886 91.0131 39.4172C91.1555 38.9484 91.2627 38.6284 91.3011 38.5116C91.4867 37.9612 91.6696 37.4519 91.8499 36.9836C92.0291 36.5164 92.2003 36.0924 92.3603 35.7148L89.5043 35.9484L86.6483 36.182C86.5267 36.6002 86.4061 37.0172 86.2867 37.4332C86.1672 37.8492 86.0456 38.2663 85.9219 38.6844Z" fill="#666538"/>
<path d="M189.376 91.7384C189.261 93.3832 189.145 95.0275 189.029 96.6712C188.913 98.3149 188.797 99.9587 188.682 101.602C188.648 102.078 188.713 102.556 188.872 103.005C189.031 103.455 189.281 103.867 189.607 104.216C189.932 104.564 190.325 104.843 190.763 105.033C191.2 105.223 191.672 105.321 192.149 105.321H203.189C201.401 102.931 199.613 100.544 197.826 98.1576L192.462 91.0024C192.282 90.6972 192.008 90.4578 191.682 90.3194C191.355 90.1809 190.993 90.1505 190.648 90.2328C190.303 90.3151 189.993 90.5056 189.764 90.7765C189.536 91.0475 189.399 91.3845 189.376 91.7384Z" fill="#FF94AC"/>
<path d="M224.496 22.8088C224.496 25.2323 223.656 27.581 222.119 29.4546C220.582 31.3281 218.442 32.6108 216.065 33.0838C213.689 33.5569 211.221 33.1912 209.084 32.0491C206.946 30.9069 205.271 29.0589 204.343 26.8199C203.416 24.581 203.293 22.0897 203.996 19.7705C204.699 17.4512 206.185 15.4476 208.2 14.101C210.215 12.7543 212.634 12.148 215.046 12.3853C217.458 12.6226 219.713 13.6889 221.427 15.4024C222.401 16.3738 223.174 17.5282 223.701 18.7993C224.227 20.0703 224.498 21.433 224.496 22.8088Z" fill="#F98638"/>
<path d="M190.88 99.172H184.875H178.869V97.9976V96.8232H184.875H190.88V97.9976V99.172Z" fill="#F98638"/>
<path d="M178.869 99.1719L178.096 102.242L177.323 105.314H183.345H189.368L190.125 102.242L190.88 99.1719H184.875H178.869Z" fill="#F98638"/>
<path d="M190.685 99.1719L191.424 102.242L192.163 105.314H190.667H189.173L189.93 102.242L190.685 99.1719Z" fill="#353519"/>
<path d="M199.976 97.7565L201.12 95.5165L202.264 93.2765C202.35 93.1471 202.408 93.001 202.434 92.8476C202.459 92.6943 202.452 92.5373 202.413 92.3869C202.386 92.2518 202.328 92.1247 202.244 92.0155C202.16 91.9063 202.052 91.8179 201.928 91.7572C201.804 91.6964 201.668 91.6649 201.53 91.665C201.392 91.6652 201.256 91.6971 201.133 91.7581C200.999 91.8162 200.877 91.9002 200.776 92.0054C200.674 92.1106 200.594 92.2348 200.541 92.3709L198.486 96.2301L196.44 100.091C196.184 100.572 196.119 101.132 196.261 101.659C196.402 102.185 196.737 102.638 197.2 102.926L197.73 103.257L198.261 103.589L197.926 104.451L197.594 105.313H204.71L206.907 100.917L209.099 96.5181C209.207 96.266 209.244 95.9896 209.206 95.7181C209.194 95.5827 209.149 95.4521 209.076 95.3375C209.003 95.2228 208.903 95.1273 208.786 95.0589C208.683 95.0046 208.568 94.9762 208.451 94.9762C208.335 94.9762 208.22 95.0046 208.117 95.0589C207.912 95.1661 207.744 95.3336 207.637 95.5389L206.357 97.9533L205.077 100.368C205.014 100.519 204.921 100.656 204.802 100.769C204.684 100.882 204.543 100.97 204.389 101.025C204.254 101.078 204.108 101.101 203.963 101.091C203.818 101.081 203.677 101.039 203.55 100.968C203.351 100.842 203.204 100.646 203.139 100.419C203.065 100.167 203.076 99.8977 203.17 99.6525L204.29 97.1389L205.41 94.6269C205.489 94.4986 205.54 94.355 205.56 94.2055C205.579 94.056 205.567 93.9041 205.523 93.7597C205.488 93.6317 205.426 93.513 205.339 93.4123C205.253 93.3116 205.145 93.2313 205.024 93.1773C204.912 93.1366 204.793 93.1191 204.674 93.1257C204.555 93.1323 204.438 93.1629 204.331 93.2157C204.085 93.3315 203.891 93.5369 203.79 93.7901L202.55 96.1901L201.307 98.6189C201.188 98.848 201.001 99.0354 200.773 99.1565C200.689 99.2055 200.595 99.2365 200.499 99.2475C200.402 99.2585 200.304 99.2493 200.211 99.2205C200.107 99.1668 200.017 99.0895 199.948 98.9947C199.879 98.9 199.834 98.7905 199.814 98.6749C199.749 98.3594 199.807 98.0306 199.976 97.7565Z" fill="#353519"/>
<path d="M195.931 99.3725C195.899 99.3723 195.867 99.3646 195.838 99.3501C195.809 99.335 195.783 99.3124 195.765 99.2845L193.582 96.0477L191.4 92.8109C191.385 92.7893 191.375 92.765 191.37 92.7395C191.365 92.714 191.365 92.6876 191.37 92.6621C191.374 92.6361 191.384 92.6113 191.399 92.5893C191.413 92.5673 191.432 92.5485 191.454 92.5341C191.499 92.5045 191.553 92.4936 191.605 92.5037C191.63 92.5086 191.655 92.5187 191.677 92.5332C191.698 92.5478 191.717 92.5666 191.731 92.5885L193.914 95.8237L196.096 99.0605C196.111 99.0821 196.122 99.1066 196.127 99.1324C196.133 99.1582 196.133 99.1849 196.128 99.2109C196.116 99.2625 196.086 99.308 196.043 99.3389C196.026 99.3496 196.008 99.3582 195.989 99.3645C195.97 99.3695 195.951 99.3722 195.931 99.3725Z" fill="#2B3D0A"/>
<path d="M186.365 105.314H180.495H174.624V103.588V101.863H180.495H186.365V103.588V105.314Z" fill="#F4ECE5"/>
<path d="M204.607 123.122H188.064H171.522L170.632 114.218L169.743 105.314H188.218H206.693L205.65 114.218L204.607 123.122Z" fill="#FFAA9F"/>
<path d="M80.2693 71.8426C80.2806 73.0691 80.4054 74.2919 80.6421 75.4954C80.9533 77.0761 81.4787 78.607 82.2037 80.0458C83.1797 81.9658 84.5413 83.6378 86.0997 85.1162C87.6581 86.5946 89.4133 87.8842 91.1749 89.0618C92.9077 90.2186 94.7429 91.2218 96.5637 92.2426C98.3845 93.2634 100.192 94.305 101.869 95.5354C103.512 96.7419 105.051 98.0831 106.471 99.545C108.266 101.4 109.882 103.42 111.298 105.579C111.431 105.275 111.565 104.955 111.696 104.619C111.828 104.283 111.956 103.926 112.079 103.555C112.202 103.183 112.308 102.83 112.399 102.484C112.49 102.139 112.578 101.806 112.652 101.486C111.194 99.391 109.487 97.4815 107.568 95.7994C105.651 94.1165 103.606 92.5859 101.45 91.2218C99.1029 89.7162 96.6181 88.4074 94.2421 86.9514C91.8661 85.4954 89.6021 83.8922 87.6821 81.7962C86.8953 80.9378 86.2152 79.9874 85.6565 78.9658C85.1052 77.9453 84.6545 76.8736 84.3109 75.7658C84.2565 75.6058 83.9189 74.5578 83.6709 73.5514C83.4229 72.545 83.2453 71.5754 83.5237 71.5498L81.1541 71.7658L80.2693 71.8426Z" fill="#BAB653"/>
<path d="M80.3364 73.2889L82.45 74.8889L84.5652 76.4889C84.466 76.2115 84.3695 75.9257 84.2756 75.6313C84.1818 75.3369 84.0895 75.0329 83.9988 74.7193C83.8692 74.2697 83.7556 73.8313 83.6532 73.4041C83.5508 72.9769 83.4644 72.5641 83.386 72.1641L81.8612 72.7225L80.3364 73.2889Z" fill="#666538"/>
<path d="M206.408 107.992H169.989C169.936 107.992 169.886 107.971 169.848 107.934C169.821 107.906 169.802 107.87 169.794 107.832C169.787 107.793 169.791 107.753 169.806 107.717C169.821 107.68 169.846 107.649 169.879 107.627C169.911 107.605 169.95 107.592 169.989 107.592H206.408C206.448 107.592 206.487 107.603 206.52 107.626C206.553 107.648 206.578 107.679 206.593 107.716C206.609 107.752 206.612 107.793 206.604 107.832C206.597 107.871 206.577 107.906 206.549 107.934C206.511 107.971 206.461 107.992 206.408 107.992Z" fill="#2B3D0A"/>
<path d="M114.781 84.5559C114.268 83.0988 113.911 81.591 113.717 80.0583C113.458 77.8663 113.602 75.3863 115.071 73.8375C115.308 73.5783 115.573 73.3464 115.861 73.1463C116.279 72.8515 116.769 72.6757 117.279 72.6375C118.002 72.5927 118.737 72.8631 119.404 73.3783C120.141 73.9784 120.733 74.7384 121.133 75.6007C120.525 73.1495 120.618 70.9287 121.161 69.2183C121.703 67.5079 122.698 66.3095 123.895 65.9031C124.284 65.7751 124.694 65.724 125.103 65.7527C125.714 65.7863 126.525 65.9719 127.513 66.5175C127.683 65.4833 127.986 64.4755 128.415 63.5191C129.1 62.0343 130.255 60.5767 132.132 60.6887C132.989 60.7409 133.795 61.1113 134.393 61.7271C134.996 62.3458 135.365 63.1543 135.439 64.0151C135.524 64.882 135.438 65.7572 135.186 66.5911C134.865 67.6055 134.256 68.5045 133.433 69.1783C134.201 69.6934 134.846 70.372 135.322 71.1655C135.558 71.5643 135.718 72.0031 135.794 72.4599C136.021 73.8999 135.381 75.5303 134.021 76.9815C132.661 78.4327 130.583 79.7015 127.933 80.4055C128.681 80.7516 129.384 81.1879 130.026 81.7047C130.986 82.4855 131.906 83.5895 131.916 84.9511C131.915 85.402 131.822 85.8481 131.642 86.2615C131.527 86.527 131.386 86.7805 131.221 87.0183C129.941 88.9191 126.852 89.6247 123.954 89.8407C121.921 89.9754 119.879 89.9379 117.852 89.7287C117.695 89.3959 117.527 89.0556 117.348 88.7079C117.169 88.3607 116.978 88.0055 116.775 87.6471C116.447 87.0663 116.113 86.5271 115.778 86.0039C115.444 85.4807 115.111 85.0055 114.781 84.5559Z" fill="#BAB653"/>
<path d="M84.9747 60.3596C84.5582 59.5193 83.9168 58.811 83.1219 58.3132C82.3096 57.8018 81.3658 57.5384 80.406 57.5555C79.4463 57.5725 78.5124 57.8692 77.7187 58.4092C76.8929 58.9679 76.2492 59.7568 75.8675 60.678C75.4485 60.5792 75.0175 60.5404 74.5875 60.5628C73.8077 60.5859 73.0551 60.8546 72.4371 61.3308C71.6927 61.9395 71.2058 62.8071 71.0739 63.7596C70.9205 64.7108 71.1178 65.6854 71.6291 66.502C72.091 67.2007 72.7703 67.7276 73.5619 68.0012C73.9844 68.1585 74.4274 68.2539 74.8771 68.2844C74.8792 68.8112 74.9546 69.3352 75.1011 69.8412C75.3524 70.7695 75.881 71.599 76.6163 72.2188C77.4514 72.8964 78.4899 73.2739 79.5651 73.2908C80.7122 73.3159 81.8402 72.9948 82.8019 72.3692C83.6844 72.799 84.6804 72.938 85.6467 72.766C86.564 72.6065 87.3991 72.1379 88.0131 71.438C88.6209 70.7113 88.9524 69.7933 88.9491 68.846C88.96 68.3598 88.8996 67.8747 88.7699 67.406C89.4309 66.7464 89.8556 65.887 89.9779 64.9612C90.1001 64.0737 89.9279 63.1707 89.4878 62.3904C89.0476 61.6102 88.3638 60.9957 87.5411 60.6412C86.7357 60.283 85.8387 60.1846 84.9747 60.3596Z" fill="#F4ECE5"/>
<path d="M86.5366 65.7677C86.439 66.8381 85.7366 67.7517 84.6614 68.3629C83.5862 68.9741 82.167 69.2813 80.6342 69.1421C79.1014 69.0029 77.7542 68.4429 76.8118 67.6493C75.8694 66.8557 75.3382 65.8285 75.4358 64.7581C75.5334 63.6877 76.2358 62.7741 77.311 62.1629C78.3862 61.5517 79.807 61.2445 81.3398 61.3837C82.8726 61.5229 84.2198 62.0829 85.1606 62.8765C86.1014 63.6701 86.6342 64.6989 86.5366 65.7677Z" fill="#F98638"/>
<path d="M137.986 100.671L131.447 106.695L124.911 112.725C124.537 113.071 124.214 113.467 123.951 113.903C123.688 114.338 123.493 114.811 123.373 115.305C123.373 115.335 123.359 115.365 123.352 115.396L123.333 115.489C123.209 116.088 123.172 116.702 123.221 117.312C123.27 118.25 123.607 119.15 124.185 119.889C124.763 120.629 125.555 121.173 126.453 121.447C126.904 121.594 127.373 121.681 127.847 121.705H154.46V110.556H147.402C147.976 109.621 148.425 108.615 148.74 107.564C149.128 106.254 149.303 104.89 149.26 103.524C149.23 102.562 149.099 101.605 148.869 100.671H137.989H137.986Z" fill="#F4ECE5"/>
<path d="M97.8452 112.641V118.25C97.8456 118.444 97.894 118.635 97.9861 118.806C98.0783 118.976 98.2113 119.121 98.3732 119.228L100.344 120.524L102.316 121.82C102.359 121.848 102.392 121.889 102.41 121.938C102.427 121.986 102.429 122.039 102.414 122.088C102.4 122.138 102.369 122.181 102.328 122.211C102.286 122.242 102.236 122.259 102.184 122.258H88.8628C88.6198 122.258 88.3869 122.161 88.215 121.989C88.0432 121.817 87.9465 121.584 87.946 121.341V112.641H97.8452Z" fill="#F98638"/>
<path d="M102.659 112.641V118.25C102.66 118.444 102.708 118.635 102.8 118.806C102.892 118.976 103.025 119.121 103.187 119.228L105.159 120.524L107.13 121.82C107.173 121.848 107.206 121.889 107.224 121.938C107.242 121.986 107.243 122.039 107.228 122.088C107.214 122.138 107.183 122.181 107.142 122.211C107.1 122.242 107.05 122.259 106.999 122.258H94.3746C94.1315 122.258 93.8986 122.161 93.7268 121.989C93.5549 121.817 93.4582 121.584 93.4578 121.341V112.641H102.659Z" fill="#F98638"/>
<path d="M102.661 86.0986V112.641H93.4578V86.0986C93.4578 86.0986 95.7586 86.0682 98.0594 86.0538C100.36 86.0394 102.661 86.0394 102.661 86.0986Z" fill="#666538"/>
<path d="M147.607 75.1748C147.607 76.0942 147.288 76.9852 146.705 77.6959C146.121 78.4067 145.31 78.8932 144.408 79.0726C143.506 79.252 142.57 79.1132 141.759 78.6798C140.948 78.2465 140.313 77.5454 139.961 76.6959C139.609 75.8465 139.562 74.9013 139.829 74.0215C140.096 73.1416 140.659 72.3814 141.424 71.8704C142.188 71.3595 143.106 71.1293 144.021 71.2193C144.936 71.3092 145.792 71.7136 146.442 72.3636C146.812 72.7324 147.105 73.1706 147.305 73.653C147.505 74.1354 147.607 74.6526 147.607 75.1748Z" fill="#423C52"/>
<path d="M153.319 78.7637C153.319 79.8797 152.932 80.9613 152.224 81.8239C151.515 82.6866 150.53 83.2771 149.436 83.4948C148.341 83.7125 147.205 83.5439 146.22 83.0177C145.236 82.4916 144.465 81.6405 144.038 80.6093C143.611 79.5782 143.554 78.4309 143.878 77.3629C144.202 76.295 144.887 75.3724 145.815 74.7523C146.743 74.1323 147.857 73.8533 148.968 73.9627C150.078 74.0721 151.117 74.5633 151.906 75.3525C152.355 75.7997 152.711 76.3313 152.953 76.9168C153.196 77.5023 153.32 78.13 153.319 78.7637Z" fill="#423C52"/>
<path d="M156.842 84.1793C156.842 85.2202 156.481 86.2289 155.82 87.0335C155.16 87.8381 154.241 88.3888 153.22 88.5918C152.199 88.7947 151.139 88.6373 150.221 88.1465C149.303 87.6556 148.584 86.8616 148.186 85.8998C147.787 84.938 147.735 83.8679 148.038 82.8719C148.34 81.8758 148.978 81.0154 149.844 80.4373C150.71 79.8592 151.749 79.5992 152.785 79.7015C153.821 79.8038 154.789 80.2622 155.525 80.9985C155.943 81.416 156.274 81.9119 156.5 82.4577C156.726 83.0035 156.842 83.5885 156.842 84.1793Z" fill="#423C52"/>
<path d="M137.474 82.5907C137.474 82.5907 136.167 82.7635 134.762 84.3843C133.357 86.0051 131.858 89.0739 131.469 94.8643L131.012 101.173L130.554 107.483L134.271 104.077L137.986 100.671H148.866L148.999 101.399L149.132 102.128L145.887 105.747L142.647 109.367L145.89 112.531L149.135 115.695L152.773 112.226L156.407 108.759C157.398 107.818 158.179 106.678 158.7 105.415C159.22 104.156 159.456 102.798 159.391 101.437C159.391 101.394 159.391 101.351 159.391 101.307C159.391 101.264 159.391 101.221 159.381 101.176C159.354 100.813 159.306 100.452 159.239 100.095C159.175 99.7539 159.096 99.4355 159.01 99.1347L157.879 94.4611L156.749 89.7875C156.343 88.2185 155.622 86.7486 154.629 85.4675C152.98 83.3395 150.149 81.2835 145.429 81.5603L141.455 82.0739L137.474 82.5907Z" fill="#353519"/>
<path d="M135.588 83.5702L139.626 86.671L141.133 87.8262L140.674 86.335C140.381 85.375 139.959 84.0086 139.445 82.335L138.46 82.463L137.474 82.5894C137.434 82.5894 137.386 82.6054 137.335 82.6182C137.284 82.631 137.224 82.647 137.162 82.6662L137.026 82.7126L136.904 82.7622C136.786 82.8102 136.684 82.8582 136.604 82.8982C136.524 82.9382 136.464 82.9686 136.444 82.983L136.306 83.0614C136.244 83.0982 136.167 83.1462 136.08 83.2022C135.994 83.2582 135.936 83.2998 135.855 83.3622C135.773 83.4246 135.679 83.495 135.588 83.5702Z" fill="#FF94AC"/>
<path d="M141.135 87.8245L142.487 84.7973L143.839 81.7701C144.143 81.7109 144.429 81.6677 144.693 81.6341C144.957 81.6005 145.204 81.5797 145.423 81.5653C145.816 81.5397 146.18 81.5349 146.508 81.5397C146.836 81.5445 147.124 81.5653 147.37 81.5861C147.722 81.6165 148.028 81.6597 148.261 81.6965C148.495 81.7333 148.656 81.7669 148.722 81.7797C148.956 81.8293 149.173 81.8821 149.372 81.9397C149.57 81.9973 149.749 82.0485 149.908 82.0997L145.527 84.9605L141.135 87.8245Z" fill="#FF94AC"/>
<path d="M87.946 86.0985V112.641H97.8084L97.794 99.3689L97.7796 86.0889H87.946V86.0985Z" fill="#666538"/>
<path d="M141.135 87.8242C141.299 88.748 141.463 89.6706 141.628 90.5922L142.122 93.3602C142.132 93.417 142.155 93.4708 142.188 93.5177C142.222 93.5647 142.265 93.6037 142.316 93.632C142.366 93.6603 142.422 93.6771 142.479 93.6813C142.537 93.6855 142.595 93.6769 142.648 93.6562L143.429 93.3538L144.208 93.0514C144.264 93.0299 144.314 92.9961 144.354 92.9525C144.394 92.9089 144.424 92.8567 144.442 92.7998C144.459 92.7429 144.463 92.6829 144.454 92.6242C144.444 92.5655 144.422 92.5097 144.388 92.461L142.76 90.1426L141.135 87.8242Z" fill="#FF94AC"/>
<path d="M141.135 87.8242L141 90.5874L140.866 93.3506C140.863 93.4051 140.847 93.4581 140.82 93.505C140.792 93.5519 140.753 93.5912 140.706 93.6194C140.66 93.6483 140.609 93.6658 140.555 93.6706C140.501 93.6753 140.447 93.6671 140.397 93.6466L139.552 93.2962L138.706 92.9474C138.662 92.9289 138.622 92.9012 138.589 92.866C138.557 92.8309 138.532 92.7892 138.517 92.7438C138.502 92.6983 138.497 92.6501 138.502 92.6025C138.507 92.5548 138.522 92.5088 138.546 92.4674L139.84 90.1442L141.135 87.8242Z" fill="#FF94AC"/>
<path d="M145.469 79.0143C145.469 80.0877 145.096 81.1278 144.415 81.9574C143.734 82.787 142.787 83.3547 141.734 83.564C140.681 83.7733 139.588 83.6111 138.642 83.1051C137.695 82.599 136.953 81.7804 136.542 80.7888C136.132 79.7971 136.077 78.6937 136.389 77.6665C136.7 76.6393 137.358 75.7519 138.251 75.1554C139.143 74.559 140.215 74.2903 141.283 74.3953C142.351 74.5003 143.35 74.9723 144.109 75.7311C144.541 76.1622 144.883 76.674 145.116 77.2373C145.349 77.8007 145.469 78.4045 145.469 79.0143Z" fill="#A0505A"/>
<path d="M142.647 109.367C142.786 109.227 142.647 109.367 142.439 109.578L141.812 110.215C141.812 110.215 141.652 110.365 141.392 110.607C141.133 110.848 140.752 111.181 140.296 111.543C139.365 112.288 138.423 112.747 137.445 113.253C136.468 113.759 135.455 114.307 134.388 115.235C134.213 115.387 133.988 115.591 133.732 115.85C133.435 116.149 133.154 116.463 132.89 116.791C132.685 117.023 132.53 117.295 132.434 117.591C132.396 117.685 132.381 117.788 132.389 117.89C132.397 117.992 132.429 118.09 132.482 118.178C132.507 118.208 132.535 118.236 132.567 118.259C132.612 118.29 132.662 118.314 132.714 118.331C132.576 118.507 132.504 118.724 132.509 118.947C132.511 119.147 132.592 119.338 132.733 119.479C132.865 119.598 133.035 119.667 133.213 119.672C133.309 119.676 133.405 119.667 133.498 119.647C133.567 119.871 133.705 120.069 133.892 120.211C134.197 120.435 134.719 120.546 135.583 120.085C136.114 119.799 136.662 119.549 137.226 119.335C138.205 118.955 139.504 118.573 140.775 118.551C140.931 118.562 141.082 118.612 141.215 118.696C141.388 118.823 141.468 119.059 141.095 119.496C140.906 119.719 140.714 119.939 140.527 120.163C140.34 120.387 140.151 120.613 139.97 120.843L139.856 120.989L139.741 121.135C139.563 121.332 139.464 121.589 139.464 121.855C139.462 121.957 139.482 122.06 139.524 122.153C139.566 122.247 139.629 122.331 139.708 122.397C139.767 122.44 139.835 122.47 139.908 122.485C139.985 122.502 140.064 122.505 140.143 122.496C140.227 122.488 140.309 122.466 140.386 122.432C140.463 122.397 140.536 122.353 140.604 122.301C141.34 121.799 142.089 121.271 142.852 120.717C143.614 120.163 144.387 119.582 145.168 118.973C145.876 118.423 146.559 117.872 147.22 117.328C147.88 116.784 148.516 116.24 149.128 115.704L145.884 112.541L142.647 109.367Z" fill="#BAB653"/>
<path d="M122.05 120.398C122.016 120.398 121.982 120.389 121.952 120.372C121.921 120.356 121.895 120.331 121.877 120.3C121.849 120.252 121.841 120.195 121.855 120.14C121.861 120.115 121.873 120.091 121.888 120.071C121.904 120.05 121.924 120.032 121.946 120.019C122.018 119.976 122.895 119.454 124.015 118.864C125.135 118.273 126.5 117.611 127.546 117.292C127.572 117.284 127.6 117.281 127.627 117.283C127.655 117.286 127.682 117.294 127.706 117.307C127.729 117.319 127.749 117.336 127.766 117.356C127.782 117.377 127.795 117.4 127.802 117.425C127.81 117.45 127.813 117.477 127.811 117.503C127.808 117.529 127.8 117.554 127.788 117.577C127.763 117.624 127.72 117.659 127.669 117.675C126.645 117.995 125.277 118.654 124.159 119.244C123.04 119.835 122.176 120.352 122.159 120.364C122.143 120.374 122.126 120.382 122.108 120.387C122.089 120.394 122.07 120.398 122.05 120.398Z" fill="#2B3D0A"/>
<path d="M121.261 119.082C121.227 119.082 121.192 119.073 121.162 119.056C121.132 119.039 121.107 119.014 121.088 118.985C121.075 118.962 121.066 118.937 121.062 118.911C121.058 118.885 121.059 118.858 121.066 118.833C121.08 118.781 121.113 118.737 121.159 118.71C121.231 118.668 122.119 118.143 123.194 117.574C124.269 117.004 125.532 116.391 126.352 116.174C126.378 116.167 126.404 116.165 126.431 116.169C126.457 116.172 126.482 116.181 126.504 116.194C126.527 116.207 126.547 116.225 126.563 116.246C126.579 116.266 126.59 116.29 126.597 116.315C126.604 116.341 126.605 116.367 126.602 116.393C126.598 116.419 126.59 116.444 126.576 116.466C126.564 116.489 126.546 116.51 126.525 116.526C126.504 116.542 126.48 116.553 126.455 116.559C125.655 116.77 124.396 117.39 123.325 117.958C122.255 118.526 121.38 119.044 121.362 119.054C121.347 119.063 121.33 119.071 121.312 119.076C121.296 119.08 121.279 119.083 121.261 119.082Z" fill="#2B3D0A"/>
<path d="M132.887 116.984C132.85 116.984 132.814 116.974 132.783 116.955C132.751 116.936 132.725 116.907 132.708 116.874C132.696 116.85 132.689 116.825 132.687 116.798C132.685 116.772 132.688 116.746 132.697 116.721C132.705 116.696 132.718 116.673 132.735 116.653C132.753 116.633 132.774 116.617 132.797 116.605C132.86 116.573 133.636 116.186 134.514 115.767C135.392 115.347 136.373 114.898 136.848 114.744C136.874 114.735 136.902 114.731 136.93 114.733C136.957 114.735 136.984 114.742 137.008 114.755C137.032 114.767 137.053 114.784 137.07 114.804C137.087 114.824 137.1 114.847 137.108 114.872C137.116 114.897 137.119 114.923 137.117 114.949C137.115 114.975 137.108 115.001 137.096 115.024C137.072 115.072 137.03 115.108 136.98 115.125C136.519 115.274 135.528 115.73 134.648 116.149C133.768 116.568 133 116.949 132.984 116.963L132.94 116.979C132.922 116.983 132.904 116.985 132.887 116.984Z" fill="#2B3D0A"/>
<path d="M138.54 80.3476C138.54 80.4279 138.508 80.505 138.452 80.562C138.423 80.5903 138.39 80.6128 138.353 80.6281C138.316 80.6434 138.276 80.6513 138.236 80.6513C138.196 80.6513 138.157 80.6434 138.12 80.6281C138.083 80.6128 138.049 80.5903 138.021 80.562C137.965 80.5049 137.933 80.4279 137.933 80.3476C137.933 80.2674 137.965 80.1904 138.021 80.1332C138.049 80.1049 138.083 80.0825 138.12 80.0671C138.157 80.0518 138.196 80.0439 138.236 80.0439C138.276 80.0439 138.316 80.0518 138.353 80.0671C138.39 80.0825 138.423 80.1049 138.452 80.1332C138.508 80.1903 138.54 80.2673 138.54 80.3476Z" fill="#2B3D0A"/>
<path d="M140.925 79.9838C140.925 80.0236 140.918 80.063 140.903 80.0998C140.887 80.1366 140.865 80.17 140.837 80.1981C140.809 80.2263 140.775 80.2485 140.739 80.2636C140.702 80.2788 140.663 80.2864 140.623 80.2862C140.542 80.2864 140.464 80.2548 140.407 80.1982C140.371 80.1629 140.345 80.1194 140.33 80.0715C140.316 80.0236 140.313 79.9728 140.323 79.9237C140.333 79.8746 140.354 79.8286 140.386 79.7899C140.418 79.7512 140.459 79.7209 140.505 79.7018C140.551 79.6826 140.602 79.6752 140.651 79.6802C140.701 79.6852 140.749 79.7024 140.791 79.7303C140.832 79.7582 140.866 79.796 140.89 79.8402C140.913 79.8844 140.925 79.9338 140.925 79.9838Z" fill="#2B3D0A"/>
<path d="M139.735 82.2882C139.483 82.2846 139.236 82.2233 139.011 82.109C138.903 82.0567 138.801 81.9917 138.707 81.9154C138.686 81.8989 138.668 81.8783 138.655 81.8547C138.642 81.8312 138.634 81.8052 138.631 81.7785C138.628 81.7517 138.631 81.7246 138.639 81.6989C138.647 81.6731 138.66 81.6492 138.677 81.6286C138.695 81.608 138.716 81.5912 138.74 81.579C138.764 81.5669 138.79 81.5597 138.817 81.558C138.844 81.5562 138.871 81.5599 138.896 81.5688C138.922 81.5777 138.945 81.5917 138.965 81.6098C139.062 81.6873 139.17 81.7504 139.285 81.797C139.5 81.892 139.739 81.9137 139.968 81.8587C140.196 81.8038 140.4 81.6753 140.547 81.493C140.621 81.405 140.683 81.3069 140.73 81.2018C140.751 81.1529 140.791 81.1144 140.84 81.0946C140.864 81.0844 140.89 81.0791 140.916 81.0791C140.942 81.0791 140.968 81.0844 140.992 81.0946C141.041 81.1156 141.079 81.1546 141.099 81.2034C141.111 81.2286 141.116 81.2559 141.116 81.2834C141.116 81.311 141.111 81.3383 141.099 81.3634C141.033 81.5127 140.945 81.6512 140.839 81.7746C140.663 81.981 140.434 82.1354 140.176 82.221C140.102 82.2454 140.025 82.2636 139.947 82.2754C139.877 82.2849 139.806 82.2892 139.735 82.2882Z" fill="#423C52"/>
<path d="M107.927 59.9707C108.077 61.1579 107.308 62.3483 105.94 63.3131C104.572 64.2779 102.608 65.0187 100.37 65.2987C98.1317 65.5787 96.0501 65.3595 94.4821 64.7675C92.9141 64.1755 91.8741 63.2155 91.7237 62.0283C91.5733 60.8411 92.3429 59.6507 93.7109 58.6859C95.0789 57.7211 97.0421 56.9835 99.2789 56.6987C101.516 56.4139 103.599 56.6395 105.167 57.2315C106.735 57.8235 107.776 58.7787 107.927 59.9707Z" fill="#E9CF81"/>
<path d="M96.2502 66.0556C94.7654 65.9981 93.2855 66.2606 91.911 66.8252C89.687 67.758 87.3526 69.7884 86.9094 74.1852L87.4278 80.1468L87.9462 86.1068H102.666L104.948 78.854L107.225 71.5948C107.225 71.5948 107.029 70.2156 105.559 68.8332C104.089 67.4508 101.345 66.0668 96.2502 66.0556Z" fill="#FF94AC"/>
<path d="M104.472 122.458C104.449 122.459 104.425 122.454 104.404 122.445C104.38 122.438 104.359 122.425 104.341 122.409C104.321 122.392 104.305 122.371 104.294 122.348C104.282 122.324 104.275 122.299 104.274 122.273C104.271 122.22 104.288 122.168 104.322 122.127C104.369 122.07 104.394 121.998 104.394 121.924C104.392 121.896 104.386 121.869 104.376 121.844C104.37 121.824 104.36 121.805 104.349 121.788L101.324 120.601L98.2995 119.418C98.2302 119.395 98.1633 119.365 98.0995 119.329C98.0368 119.292 97.9783 119.249 97.9251 119.199C97.7625 119.044 97.6595 118.837 97.6339 118.613C97.5973 118.289 97.585 117.963 97.5971 117.637V117.338C97.5971 117.234 97.5971 117.124 97.5971 117.007C97.5971 116.861 97.5971 116.727 97.5971 116.613C97.5971 116.5 97.5971 116.401 97.5891 116.327V86.327C97.5886 86.2873 97.6 86.2484 97.6219 86.2152C97.6437 86.182 97.675 86.1562 97.7118 86.141C97.7485 86.1258 97.7889 86.122 97.8278 86.1301C97.8667 86.1382 97.9023 86.1577 97.9299 86.1862C97.9488 86.2045 97.9638 86.2264 97.974 86.2506C97.9842 86.2748 97.9893 86.3008 97.9891 86.327V116.321C97.9891 116.393 97.9891 116.489 97.9971 116.605C98.0051 116.722 97.9971 116.857 97.9971 117.005C97.9971 117.122 97.9971 117.234 97.9971 117.338V117.636C97.9877 117.924 97.9962 118.213 98.0227 118.5C98.0287 118.652 98.0915 118.796 98.1987 118.903C98.2306 118.933 98.266 118.96 98.3043 118.981C98.3458 119.005 98.3898 119.024 98.4355 119.037L101.511 120.244L104.588 121.452L104.602 121.466L104.618 121.482C104.725 121.599 104.787 121.751 104.794 121.909C104.8 122.085 104.74 122.256 104.626 122.389C104.606 122.411 104.582 122.429 104.556 122.441C104.529 122.452 104.501 122.458 104.472 122.458Z" fill="#2B3D0A"/>
<path d="M97.2835 86.2987H97.2611C97.235 86.2957 97.2096 86.2876 97.1866 86.2748C97.1635 86.2619 97.1433 86.2447 97.1269 86.224C97.1106 86.2034 97.0984 86.1797 97.0913 86.1543C97.0841 86.129 97.082 86.1024 97.0851 86.0763L98.1348 76.9675L99.1923 67.8571C99.1982 67.8043 99.2247 67.756 99.2659 67.7227C99.2867 67.7062 99.3107 67.6942 99.3362 67.6874C99.3618 67.6805 99.3885 67.6789 99.4148 67.6827C99.4407 67.6853 99.4659 67.6931 99.4887 67.7058C99.5116 67.7184 99.5316 67.7356 99.5475 67.7563C99.5639 67.7768 99.576 67.8004 99.5831 67.8257C99.5902 67.851 99.5923 67.8774 99.5892 67.9035L98.5315 77.0187L97.4819 86.1275C97.4771 86.1764 97.4536 86.2217 97.4163 86.2539C97.3791 86.2846 97.3318 86.3005 97.2835 86.2987Z" fill="#AD4D4D"/>
<path d="M125.17 59.7944C125.216 59.8136 125.263 59.8312 125.312 59.8472C125.362 59.8632 125.41 59.8792 125.463 59.892C125.729 59.9652 126.003 60.0018 126.279 60.0008C126.716 60.0053 127.142 59.8558 127.48 59.5784C127.807 59.2913 128.026 58.9013 128.101 58.4728C128.183 58.0419 128.135 57.5965 127.964 57.1928C127.807 56.8351 127.555 56.5273 127.236 56.3032C126.911 56.076 126.533 55.9371 126.138 55.9C126.431 55.8844 126.72 55.8234 126.994 55.7192C127.351 55.5846 127.666 55.3583 127.908 55.0632C128.233 54.6564 128.411 54.1519 128.415 53.6312C128.419 53.0831 128.251 52.5475 127.935 52.1C127.766 51.8951 127.57 51.7143 127.352 51.5624C126.96 51.2797 126.487 51.1315 126.004 51.14C125.432 51.1704 124.893 51.4135 124.492 51.8216C124.041 52.2682 123.75 52.8498 123.661 53.4776C123.459 52.9704 123.091 52.5472 122.616 52.2776C122.17 52.0194 121.645 51.9324 121.14 52.0328C120.746 52.116 120.385 52.311 120.1 52.5944C119.805 52.8852 119.602 53.2546 119.512 53.6584C119.401 54.1727 119.482 54.7101 119.74 55.1688L119.658 55.1L119.576 55.0312C119.364 54.8513 119.119 54.7149 118.854 54.6299C118.59 54.5448 118.311 54.5127 118.034 54.5355C117.757 54.5582 117.487 54.6353 117.239 54.7624C116.992 54.8894 116.772 55.0639 116.592 55.276C116.412 55.488 116.276 55.7333 116.191 55.998C116.106 56.2627 116.074 56.5416 116.097 56.8187C116.119 57.0958 116.196 57.3657 116.323 57.613C116.451 57.8603 116.625 58.0802 116.837 58.26L117.637 58.9464L118.447 59.6328L116.421 62.0184L114.392 64.4088L115.557 65.3976L116.72 66.3848L118.746 63.9992L120.772 61.6136L121.58 62.3L122.392 62.9864C122.604 63.1668 122.849 63.3036 123.114 63.389C123.379 63.4745 123.658 63.5068 123.935 63.4842C124.212 63.4616 124.482 63.3845 124.729 63.2574C124.977 63.1302 125.197 62.9555 125.376 62.7432C125.734 62.3221 125.912 61.778 125.874 61.2271C125.836 60.6762 125.584 60.1621 125.172 59.7944H125.17Z" fill="#666538"/>
<path d="M103.055 73.1273L105.721 69.0345L108.386 64.9417C109.089 63.8299 110.075 62.9257 111.244 62.3225C112.226 61.7951 113.343 61.5697 114.453 61.6745C115.563 61.7792 116.617 62.2095 117.484 62.9113C117.883 63.215 118.243 63.5664 118.556 63.9577C118.804 64.2796 119.018 64.6259 119.196 64.9913C119.5 65.6132 119.679 66.289 119.722 66.9801C119.768 67.9936 119.55 69.0016 119.092 69.9065C118.766 70.5908 118.314 71.2078 117.761 71.7257L107.226 81.0185L96.6886 90.3113C96.3717 90.5903 95.9658 90.7473 95.5437 90.7544C95.1215 90.7614 94.7107 90.6179 94.3846 90.3497L93.7766 89.8489L93.1702 89.3465C92.8202 89.0574 92.5942 88.6453 92.5385 88.1948C92.4829 87.7443 92.6019 87.2896 92.871 86.9241L97.9638 80.0265C99.6598 77.7257 101.357 75.4259 103.055 73.1273Z" fill="#F98638"/>
<path d="M110.655 77.5417C110.629 77.5417 110.604 77.5368 110.58 77.5273C110.555 77.5175 110.533 77.5028 110.514 77.4841L108.792 75.7689L107.077 74.0537C107.04 74.0164 107.018 73.9658 107.018 73.9129C107.019 73.8596 107.04 73.8085 107.077 73.7705C107.096 73.7521 107.118 73.7375 107.142 73.7277C107.166 73.7178 107.192 73.7128 107.218 73.7129C107.271 73.7129 107.322 73.7335 107.36 73.7705L109.076 75.4857L110.789 77.2009C110.808 77.2191 110.823 77.241 110.833 77.2652C110.844 77.2894 110.849 77.3154 110.848 77.3417C110.849 77.3682 110.843 77.3944 110.833 77.4188C110.823 77.4433 110.808 77.4654 110.789 77.4841C110.771 77.5028 110.748 77.5175 110.724 77.5273C110.702 77.536 110.678 77.5409 110.655 77.5417Z" fill="#2B3D0A"/>
<path d="M115.983 73.4985C115.957 73.4985 115.932 73.4936 115.908 73.4841C115.883 73.4743 115.861 73.4596 115.842 73.4409L113.812 71.4345L111.78 69.4313C111.742 69.394 111.721 69.3434 111.72 69.2905C111.72 69.2642 111.725 69.2382 111.735 69.2138C111.745 69.1895 111.759 69.1673 111.778 69.1486C111.796 69.1299 111.818 69.1149 111.842 69.1047C111.867 69.0945 111.893 69.0891 111.919 69.0889C111.972 69.0885 112.023 69.1092 112.061 69.1465L114.092 71.1497L116.124 73.1545C116.142 73.1729 116.157 73.1948 116.167 73.219C116.177 73.2432 116.182 73.2691 116.182 73.2953C116.182 73.3214 116.177 73.3474 116.167 73.3715C116.157 73.3957 116.142 73.4176 116.124 73.4361C116.105 73.4561 116.082 73.4715 116.056 73.4809C116.033 73.492 116.008 73.498 115.983 73.4985Z" fill="#2B3D0A"/>
<path d="M86.9091 74.1768L86.3555 77.5192L85.8019 80.8584C85.6742 81.6602 85.6959 82.4788 85.8659 83.2728C86.1523 84.5144 86.9491 85.8232 88.9859 86.0952H97.2835V79.5352L95.2755 79.5112L93.2723 79.484L93.6195 77.292L93.9619 75.0984L90.4419 74.636L86.9091 74.1768Z" fill="#FF94AC"/>
<path d="M95.0455 86.2985C95.0192 86.2984 94.9933 86.2932 94.9691 86.283C94.945 86.2728 94.9231 86.258 94.9047 86.2393C94.8858 86.221 94.8709 86.1991 94.8607 86.175C94.8505 86.1508 94.8454 86.1248 94.8455 86.0985V79.5049C94.8454 79.4787 94.8505 79.4527 94.8607 79.4285C94.8709 79.4043 94.8858 79.3824 94.9047 79.3641C94.9231 79.3453 94.9452 79.3304 94.9695 79.3201C94.9938 79.3099 95.0199 79.3047 95.0463 79.3047C95.0726 79.3047 95.0987 79.3099 95.123 79.3201C95.1474 79.3304 95.1694 79.3453 95.1879 79.3641C95.2247 79.4017 95.2454 79.4523 95.2455 79.5049V86.0985C95.2455 86.1516 95.2244 86.2024 95.1869 86.2399C95.1494 86.2774 95.0985 86.2985 95.0455 86.2985Z" fill="#AD4D4D"/>
<path d="M97.2837 79.5325C97.6644 79.5659 98.0479 79.5378 98.4197 79.4493C99.2684 79.2623 100.026 78.786 100.562 78.1021C100.723 77.9135 100.906 77.7453 101.108 77.6013C101.428 77.3837 101.812 77.2349 102.124 77.5053C102.256 77.6209 102.339 77.782 102.357 77.9565C102.378 78.1326 102.339 78.3104 102.247 78.4621L101.658 79.4301L101.069 80.3901C101.002 80.5798 100.98 80.7823 101.004 80.9821C101.048 81.2797 101.25 81.5821 101.876 81.6013H105.295C105.505 81.5794 105.717 81.6079 105.914 81.6845C105.986 81.7081 106.053 81.7475 106.108 81.7998C106.163 81.8521 106.206 81.916 106.234 81.9869C106.244 82.0206 106.249 82.0557 106.248 82.0909C106.248 82.1456 106.238 82.1998 106.218 82.2509C106.269 82.2839 106.314 82.3238 106.354 82.3693C106.43 82.4557 106.475 82.5649 106.482 82.6797C106.486 82.7943 106.452 82.907 106.384 82.9997C106.314 83.0989 106.215 83.1738 106.1 83.2141C106.114 83.2528 106.124 83.2931 106.128 83.3341C106.132 83.366 106.132 83.3982 106.128 83.4301C106.103 83.5886 106.017 83.731 105.888 83.8269C105.727 83.9516 105.539 84.039 105.34 84.0829C104.548 84.4336 103.737 84.7386 102.911 84.9965C101.089 85.5913 99.2016 85.9595 97.2901 86.0925V79.5325H97.2837Z" fill="#FFAA9F"/>
<path d="M102.413 82.7981C102.363 82.7977 102.316 82.7789 102.279 82.7453C102.241 82.7121 102.218 82.6657 102.213 82.6157C102.209 82.5628 102.226 82.5104 102.26 82.4697C102.294 82.4291 102.343 82.4034 102.396 82.3981L104.295 82.2269L106.194 82.0557C106.22 82.053 106.247 82.0557 106.272 82.0633C106.297 82.071 106.32 82.0837 106.341 82.1005C106.361 82.1173 106.378 82.138 106.39 82.1614C106.402 82.1847 106.409 82.2102 106.412 82.2365C106.417 82.2897 106.401 82.3429 106.368 82.3845C106.334 82.4261 106.286 82.4528 106.232 82.4589L104.33 82.6189L102.431 82.7901H102.413V82.7981Z" fill="#AD4D4D"/>
<path d="M102.503 83.8874C102.454 83.8866 102.408 83.869 102.371 83.8378C102.335 83.8054 102.312 83.7611 102.306 83.713C102.302 83.6869 102.304 83.6604 102.311 83.6349C102.317 83.6095 102.329 83.5856 102.345 83.5648C102.361 83.5439 102.381 83.5265 102.404 83.5135C102.427 83.5005 102.452 83.4922 102.479 83.489L104.272 83.2586L106.072 83.0218C106.125 83.0159 106.178 83.0302 106.221 83.0618C106.263 83.0944 106.29 83.1421 106.296 83.1946C106.3 83.2208 106.298 83.2475 106.291 83.2731C106.285 83.2986 106.273 83.3226 106.256 83.3434C106.24 83.3643 106.22 83.3817 106.198 83.3946C106.175 83.4076 106.149 83.4157 106.123 83.4186L104.33 83.6522L102.535 83.8858H102.507L102.503 83.8874Z" fill="#AD4D4D"/>
<path d="M112.091 75.7562H106.443C106.356 75.7562 106.268 75.7658 106.183 75.785C106.097 75.8033 106.015 75.8341 105.938 75.8762C105.802 75.9484 105.689 76.0556 105.608 76.1866C105.502 76.3751 105.455 76.5916 105.474 76.8074C105.292 76.79 105.11 76.8433 104.967 76.9562C104.833 77.0546 104.742 77.2004 104.712 77.3636C104.683 77.5269 104.716 77.6953 104.807 77.8346C104.893 77.9699 105.022 78.0729 105.173 78.1274C105.148 78.3077 105.16 78.4914 105.21 78.6666C105.291 78.9418 105.506 79.2234 106.027 79.2554C106.052 79.4447 106.11 79.6279 106.2 79.7962C106.281 79.9611 106.409 80.0987 106.567 80.192C106.726 80.2853 106.908 80.3301 107.091 80.321H111.925C112.818 80.3273 113.7 80.128 114.503 79.7386C115.291 79.3386 115.943 78.7162 116.208 77.8282C116.338 77.4084 116.392 76.9691 116.368 76.5306C116.35 76.0932 116.241 75.6644 116.048 75.2714C115.787 74.7721 115.363 74.3769 114.847 74.1514C114.331 73.931 113.791 73.77 113.239 73.6714C112.949 73.6106 112.663 73.5402 112.373 73.4762C112.083 73.4122 111.795 73.3562 111.501 73.3162C111.342 73.2962 111.182 73.2845 111.021 73.281C110.859 73.2764 110.698 73.2942 110.541 73.3338C110.473 73.3516 110.41 73.3849 110.357 73.4309C110.303 73.4769 110.261 73.5346 110.234 73.5994C110.179 73.7313 110.174 73.8784 110.219 74.0138C110.283 74.1963 110.409 74.3505 110.575 74.449C110.74 74.5502 110.917 74.6313 111.101 74.6906C111.325 74.769 111.554 74.8346 111.786 74.8938C112.018 74.953 112.253 75.001 112.485 75.0538C112.603 75.0735 112.716 75.117 112.816 75.1818C112.868 75.212 112.907 75.2591 112.928 75.315C112.949 75.3709 112.95 75.4323 112.931 75.489C112.888 75.6362 112.739 75.7034 112.571 75.7338C112.413 75.7597 112.252 75.7673 112.091 75.7562Z" fill="#FFAA9F"/>
<path d="M110.233 79.4554H106.033C106.006 79.4558 105.98 79.451 105.956 79.4413C105.932 79.4316 105.91 79.4172 105.891 79.3989C105.873 79.3806 105.858 79.3587 105.848 79.3346C105.838 79.3106 105.833 79.2847 105.833 79.2586C105.833 79.2056 105.854 79.1547 105.891 79.1172C105.929 79.0797 105.979 79.0586 106.033 79.0586H110.233C110.259 79.0587 110.285 79.0639 110.309 79.0741C110.333 79.0843 110.355 79.0991 110.373 79.1178C110.392 79.1361 110.407 79.158 110.417 79.1822C110.427 79.2064 110.433 79.2324 110.433 79.2586C110.433 79.2851 110.427 79.3113 110.417 79.3357C110.407 79.3602 110.392 79.3824 110.373 79.401C110.335 79.4365 110.285 79.456 110.233 79.4554Z" fill="#AD4D4D"/>
<path d="M110.143 78.3229H105.183C105.143 78.3229 105.104 78.3112 105.071 78.2891C105.038 78.267 105.013 78.2356 104.997 78.1989C104.982 78.1622 104.979 78.1218 104.986 78.0829C104.994 78.044 105.014 78.0083 105.042 77.9804C105.08 77.9437 105.13 77.9231 105.183 77.9229H110.143C110.182 77.9228 110.221 77.9344 110.254 77.9563C110.287 77.9782 110.312 78.0093 110.328 78.0457C110.343 78.0822 110.347 78.1224 110.339 78.1611C110.332 78.1999 110.313 78.2356 110.285 78.2637C110.267 78.2825 110.244 78.2974 110.22 78.3075C110.195 78.3177 110.169 78.3229 110.143 78.3229Z" fill="#AD4D4D"/>
<path d="M110.011 77.0094H105.474C105.447 77.0094 105.421 77.0042 105.397 76.9941C105.372 76.9839 105.35 76.969 105.331 76.9502C105.304 76.9221 105.285 76.8864 105.277 76.8477C105.27 76.8089 105.274 76.7687 105.289 76.7323C105.304 76.6958 105.33 76.6647 105.363 76.6428C105.396 76.6209 105.434 76.6093 105.474 76.6094H110.011C110.064 76.6096 110.114 76.6303 110.152 76.667C110.18 76.6951 110.198 76.7308 110.206 76.7694C110.213 76.8081 110.209 76.8481 110.194 76.8845C110.179 76.9209 110.154 76.9521 110.122 76.9743C110.089 76.9965 110.051 77.0087 110.011 77.0094Z" fill="#AD4D4D"/>
<path d="M96.2499 66.0557L95.9363 67.8813L95.6243 69.7069L97.5043 68.7933L99.3827 67.8813L97.8163 66.9677L96.2499 66.0557Z" fill="#F98638"/>
<path d="M99.3828 67.8813L100.871 67.4221L102.357 66.9629L102.469 68.8173L102.583 70.6701L100.983 69.2749L99.3828 67.8813Z" fill="#F98638"/>
<path d="M164.8 122.274H170.41C170.604 122.275 170.795 122.323 170.966 122.415C171.137 122.507 171.282 122.64 171.389 122.802L172.683 124.774L173.979 126.745C174.006 126.791 174.047 126.827 174.097 126.848C174.146 126.868 174.201 126.871 174.253 126.856C174.304 126.842 174.349 126.81 174.381 126.767C174.412 126.724 174.429 126.672 174.427 126.618V112.138C174.427 111.895 174.33 111.663 174.158 111.491C173.986 111.319 173.753 111.222 173.51 111.222H164.8V122.274Z" fill="#F98638"/>
<path d="M140.407 78.9747C141.313 79.4438 142.311 79.7107 143.33 79.7571C144.04 79.7914 144.752 79.7263 145.444 79.5635C145.455 79.4739 145.463 79.3827 145.469 79.2915C145.476 79.2003 145.469 79.1075 145.469 79.0147C145.469 78.0744 145.184 77.1563 144.651 76.3819C144.117 75.6076 143.361 75.0135 142.483 74.6785C141.604 74.3435 140.644 74.2833 139.731 74.5059C138.817 74.7286 137.993 75.2235 137.367 75.9251C137.67 76.5008 138.047 77.0348 138.487 77.5139C139.037 78.1086 139.687 78.6029 140.407 78.9747Z" fill="#423C52"/>
<path d="M97.2835 79.7382L95.1587 79.7126L93.0339 79.687L93.4003 77.3814L93.7667 75.0758C93.7705 75.0499 93.7796 75.025 93.7933 75.0027C93.8071 74.9805 93.8253 74.9612 93.8467 74.9462C93.8896 74.9148 93.943 74.9016 93.9955 74.9094C94.0475 74.9183 94.0939 74.947 94.1251 74.9894C94.1565 75.0322 94.1697 75.0857 94.1619 75.1382L93.8323 77.2182L93.5027 79.2982L95.3955 79.3206L97.2883 79.343C97.3146 79.343 97.3406 79.3483 97.3648 79.3584C97.389 79.3686 97.4109 79.3836 97.4292 79.4023C97.4476 79.4211 97.4619 79.4434 97.4716 79.4678C97.4812 79.4923 97.4858 79.5184 97.4851 79.5446C97.4852 79.5706 97.48 79.5964 97.4698 79.6203C97.4596 79.6442 97.4447 79.6658 97.4259 79.6838C97.407 79.7018 97.3846 79.7159 97.3602 79.7252C97.3357 79.7346 97.3097 79.739 97.2835 79.7382Z" fill="#AD4D4D"/>
<path d="M100.153 72.1703L100.106 72.1495L100.06 72.1303C99.4273 71.8575 98.8352 71.4995 98.2997 71.0663C96.9073 69.9444 95.9859 68.3414 95.7173 66.5735C95.6274 65.9832 95.6092 65.3842 95.6629 64.7895C95.6653 64.7632 95.6729 64.7377 95.6853 64.7143C95.6977 64.691 95.7145 64.6703 95.7349 64.6535C95.755 64.6368 95.7782 64.6242 95.8032 64.6165C95.8282 64.6088 95.8545 64.6061 95.8805 64.6087C95.9333 64.6132 95.9822 64.6385 96.0164 64.679C96.0506 64.7195 96.0673 64.7719 96.0629 64.8247C96.0105 65.3868 96.0272 65.9531 96.1125 66.5111C96.3609 68.1527 97.2064 69.6448 98.4869 70.7015C98.9852 71.1143 99.5375 71.4572 100.129 71.7207C100.737 71.3393 101.291 70.8775 101.777 70.3479C102.924 69.1196 103.596 67.5229 103.673 65.8439C103.701 65.2364 103.656 64.6276 103.537 64.0311C103.531 64.0054 103.531 63.9788 103.536 63.953C103.541 63.9272 103.551 63.9026 103.565 63.8807C103.58 63.8589 103.599 63.8401 103.621 63.8256C103.643 63.811 103.667 63.8009 103.693 63.7959C103.745 63.7855 103.799 63.7959 103.844 63.8247C103.887 63.8549 103.918 63.9007 103.929 63.9527C104.054 64.5819 104.102 65.224 104.071 65.8647C104.043 66.4975 103.935 67.1243 103.751 67.7303C103.402 68.8391 102.804 69.8536 102.004 70.6967C101.484 71.2476 100.892 71.7255 100.244 72.1175L100.2 72.1431L100.153 72.1703Z" fill="#2B3D0A"/>
<path d="M99.2147 73.8373C99.1972 73.8388 99.1795 73.8388 99.1619 73.8373C99.1444 73.8321 99.1277 73.8246 99.1123 73.8149C99.0897 73.8018 99.07 73.7843 99.0543 73.7634C99.0386 73.7425 99.0273 73.7186 99.0211 73.6933C99.0146 73.6677 99.0132 73.6411 99.017 73.615C99.0209 73.5889 99.0299 73.5639 99.0435 73.5413L99.5123 72.7621L99.9731 71.9877C99.9934 71.9549 100.021 71.927 100.053 71.9061C100.086 71.8849 100.123 71.8722 100.162 71.8693C100.201 71.8656 100.239 71.8711 100.276 71.8853C100.311 71.8998 100.343 71.9223 100.368 71.9509L100.997 72.6581L101.626 73.3669C101.661 73.4071 101.679 73.4592 101.677 73.5125C101.675 73.5522 101.661 73.5903 101.637 73.6219C101.613 73.6536 101.58 73.6774 101.542 73.6902C101.505 73.7031 101.464 73.7045 101.426 73.6942C101.387 73.6839 101.353 73.6624 101.327 73.6325L100.768 73.0037L100.2 72.3781L99.7939 73.0613L99.3859 73.7445C99.3686 73.7749 99.3431 73.7998 99.3123 73.8165C99.2819 73.8311 99.2485 73.8382 99.2147 73.8373Z" fill="#2B3D0A"/>
<path d="M103.992 63.5639C103.993 64.5635 103.647 65.5324 103.013 66.3054C102.379 67.0783 101.497 67.6076 100.516 67.8029C99.5359 67.9981 98.5181 67.8474 97.6365 67.3763C96.7548 66.9052 96.0638 66.143 95.6812 65.2195C95.2986 64.2959 95.2482 63.2683 95.5384 62.3118C95.8287 61.3552 96.4417 60.5289 97.2729 59.9737C98.1042 59.4185 99.1023 59.1687 100.097 59.267C101.092 59.3653 102.022 59.8056 102.728 60.5127C103.129 60.9131 103.448 61.3887 103.664 61.9123C103.881 62.4359 103.993 62.9972 103.992 63.5639Z" fill="#FFAA9F"/>
<path d="M98.8725 64.1833C98.8723 64.2432 98.8544 64.3018 98.8209 64.3516C98.7875 64.4014 98.7401 64.4401 98.6847 64.4631C98.6293 64.486 98.5683 64.492 98.5095 64.4804C98.4507 64.4687 98.3966 64.44 98.3541 64.3977C98.326 64.3695 98.3037 64.3361 98.2886 64.2993C98.2735 64.2625 98.2659 64.223 98.2661 64.1833C98.2659 64.1435 98.2736 64.1041 98.2887 64.0673C98.3038 64.0305 98.3261 63.9971 98.3542 63.969C98.3823 63.9408 98.4158 63.9186 98.4525 63.9034C98.4893 63.8883 98.5287 63.8807 98.5685 63.8809C98.6084 63.8807 98.6479 63.8883 98.6847 63.9034C98.7216 63.9185 98.7551 63.9408 98.7834 63.9689C98.8116 63.997 98.8341 64.0304 98.8494 64.0672C98.8646 64.104 98.8725 64.1434 98.8725 64.1833Z" fill="#2B3D0A"/>
<path d="M101.433 63.8812C101.432 63.9408 101.414 63.999 101.381 64.0484C101.347 64.0979 101.3 64.1364 101.245 64.1593C101.19 64.1821 101.129 64.1883 101.071 64.1769C101.012 64.1656 100.958 64.1373 100.916 64.0956C100.887 64.0676 100.865 64.0342 100.849 63.9974C100.834 63.9606 100.826 63.9211 100.826 63.8812C100.826 63.8412 100.834 63.8017 100.849 63.7649C100.865 63.7281 100.887 63.6947 100.916 63.6667C100.944 63.6384 100.977 63.6159 101.014 63.6005C101.051 63.5852 101.09 63.5772 101.13 63.5771C101.211 63.5778 101.288 63.61 101.345 63.6667C101.401 63.7238 101.433 63.8009 101.433 63.8812Z" fill="#2B3D0A"/>
<path d="M99.9665 66.1867C99.695 66.1836 99.4286 66.1121 99.1921 65.9787C99.0773 65.9152 98.9699 65.839 98.8721 65.7515C98.8348 65.7139 98.8131 65.6636 98.8113 65.6107C98.8107 65.5844 98.8153 65.5583 98.8249 65.5338C98.8346 65.5093 98.849 65.4871 98.8673 65.4683C98.8852 65.4492 98.9067 65.434 98.9307 65.4235C98.9546 65.4131 98.9804 65.4076 99.0065 65.4075C99.0331 65.4068 99.0594 65.4114 99.0842 65.421C99.1089 65.4306 99.1314 65.4451 99.1505 65.4635C99.2467 65.5473 99.3545 65.6168 99.4705 65.6699C99.6792 65.7776 99.9174 65.8139 100.149 65.7732C100.38 65.7324 100.591 65.6169 100.751 65.4443C100.831 65.3605 100.899 65.2657 100.952 65.1627C100.976 65.1156 101.018 65.0796 101.067 65.0619C101.093 65.053 101.121 65.0494 101.148 65.0513C101.176 65.0532 101.203 65.0606 101.227 65.0731C101.274 65.0976 101.31 65.1395 101.327 65.1899C101.335 65.2146 101.338 65.2409 101.337 65.267C101.335 65.2931 101.327 65.3186 101.315 65.3419C101.241 65.4874 101.145 65.6206 101.031 65.7371C100.842 65.9318 100.603 66.0712 100.341 66.1403C100.281 66.1568 100.219 66.1691 100.157 66.1771C100.094 66.1838 100.03 66.187 99.9665 66.1867Z" fill="#AD4D4D"/>
<path d="M97.9893 63.4362C98.5089 63.3029 98.9847 63.0365 99.3701 62.6634C99.5866 62.4591 99.774 62.226 99.9269 61.9706C100.121 62.0171 100.32 62.0359 100.519 62.0266C100.878 62.0181 101.227 61.907 101.525 61.7066C101.767 61.5379 101.966 61.3142 102.104 61.0538C102.246 60.7868 102.33 60.493 102.351 60.1914C101.76 59.7171 101.053 59.4089 100.303 59.2985C99.5527 59.188 98.7869 59.2793 98.084 59.563C97.3811 59.8467 96.7664 60.3125 96.3032 60.9125C95.84 61.5126 95.545 62.2251 95.4485 62.977C95.7691 63.1812 96.1194 63.3344 96.4869 63.4314C96.9791 63.5609 97.4963 63.5626 97.9893 63.4362Z" fill="#AD4D4D"/>
<path d="M147.607 116.719C147.581 116.719 147.555 116.714 147.532 116.704C147.507 116.695 147.485 116.68 147.466 116.661L144.496 113.735L141.527 110.8C141.508 110.782 141.493 110.76 141.483 110.736C141.472 110.712 141.467 110.686 141.468 110.66C141.468 110.606 141.488 110.555 141.525 110.517C141.562 110.48 141.613 110.458 141.666 110.458C141.719 110.458 141.77 110.479 141.808 110.516L144.773 113.447L147.738 116.376C147.775 116.414 147.797 116.464 147.799 116.517C147.799 116.544 147.794 116.57 147.784 116.594C147.773 116.619 147.758 116.641 147.74 116.66C147.721 116.679 147.699 116.694 147.674 116.704C147.653 116.713 147.63 116.718 147.607 116.719Z" fill="#2B3D0A"/>
<path d="M148.927 101.184C148.88 101.183 148.835 101.167 148.799 101.137C148.762 101.107 148.738 101.065 148.73 101.019L148.068 97.2989L147.407 93.5741C147.402 93.5484 147.402 93.522 147.407 93.4964C147.413 93.4708 147.424 93.4466 147.439 93.4253C147.454 93.4034 147.473 93.3847 147.495 93.3704C147.517 93.3561 147.542 93.3464 147.568 93.3421C147.594 93.3373 147.621 93.3378 147.646 93.3436C147.672 93.3494 147.696 93.3603 147.717 93.3757C147.739 93.3905 147.757 93.4094 147.772 93.4314C147.786 93.4533 147.796 93.4779 147.8 93.5037L148.461 97.2237L149.124 100.944C149.132 100.996 149.12 101.049 149.09 101.092C149.06 101.135 149.015 101.165 148.964 101.176H148.928L148.927 101.184Z" fill="#666538"/>
<path d="M137.716 100.887C137.456 100.89 137.198 100.842 136.958 100.743C136.718 100.645 136.5 100.499 136.317 100.314C135.471 99.4788 135.168 97.8644 135.08 96.4324C135.026 95.5056 135.043 94.5759 135.13 93.6516C135.132 93.6254 135.139 93.6 135.152 93.5769C135.164 93.5538 135.181 93.5334 135.202 93.5172C135.243 93.484 135.296 93.468 135.349 93.4724C135.402 93.4783 135.45 93.5047 135.484 93.546C135.5 93.5665 135.512 93.59 135.52 93.6153C135.527 93.6406 135.53 93.667 135.527 93.6932C135.451 94.5615 135.434 95.4339 135.477 96.3044C135.551 97.69 135.82 99.2628 136.597 100.029C136.769 100.204 136.98 100.335 137.213 100.412C137.455 100.486 137.711 100.507 137.962 100.472C137.988 100.469 138.014 100.471 138.04 100.478C138.065 100.485 138.089 100.497 138.11 100.513C138.13 100.529 138.148 100.549 138.16 100.572C138.173 100.595 138.181 100.621 138.184 100.647C138.188 100.673 138.186 100.699 138.179 100.724C138.172 100.75 138.16 100.773 138.144 100.794C138.111 100.836 138.063 100.863 138.01 100.869C137.96 100.869 137.911 100.879 137.861 100.882L137.716 100.887Z" fill="#666538"/>
<path d="M126.085 106.498L126.253 106.436C126.309 106.413 126.365 106.389 126.423 106.362C126.717 106.225 126.991 106.049 127.237 105.837C127.634 105.506 127.901 105.046 127.992 104.538C128.068 104.031 127.968 103.513 127.707 103.071C127.452 102.623 127.07 102.26 126.61 102.028C126.197 101.825 125.735 101.741 125.277 101.785C124.812 101.829 124.366 101.994 123.984 102.265C124.235 102.028 124.447 101.753 124.615 101.452C124.832 101.058 124.942 100.614 124.935 100.164C124.916 99.5496 124.691 98.9597 124.295 98.4901C123.881 97.9925 123.321 97.6376 122.695 97.4757C122.384 97.4216 122.068 97.4097 121.754 97.4405C121.187 97.4833 120.649 97.7077 120.219 98.0805C119.732 98.5432 119.432 99.1702 119.379 99.8405C119.317 100.592 119.503 101.343 119.909 101.978C119.341 101.677 118.687 101.578 118.055 101.697C117.456 101.805 116.918 102.128 116.539 102.604C116.251 102.979 116.076 103.43 116.035 103.901C115.99 104.39 116.088 104.881 116.317 105.314C116.462 105.588 116.657 105.833 116.891 106.036C117.122 106.236 117.387 106.393 117.674 106.5H117.423C117.095 106.5 116.771 106.564 116.468 106.69C116.165 106.815 115.89 106.999 115.659 107.23C115.427 107.462 115.243 107.737 115.118 108.04C114.993 108.342 114.928 108.667 114.928 108.994C114.928 109.322 114.992 109.646 115.118 109.949C115.243 110.252 115.427 110.527 115.658 110.759C115.89 110.991 116.165 111.175 116.468 111.3C116.77 111.426 117.095 111.49 117.423 111.49H119.923V122.276H123.523V111.485H126.024C126.352 111.485 126.676 111.421 126.979 111.295C127.282 111.17 127.557 110.986 127.789 110.754C128.02 110.522 128.204 110.247 128.329 109.944C128.454 109.642 128.519 109.317 128.519 108.989C128.519 108.338 128.264 107.713 127.809 107.248C127.355 106.782 126.736 106.513 126.085 106.498Z" fill="#E9CF81"/>
<path d="M180.152 75.0563L186.392 75.0003L192.632 74.9459C194.545 74.6222 196.273 73.6083 197.488 72.0963C198.699 70.6041 199.318 68.7183 199.227 66.7987C199.125 64.7779 198.25 63.3203 196.886 62.3507C195.523 61.3811 193.67 60.8979 191.616 60.8323L189.56 60.8867L187.502 60.9411C188.205 60.9411 188.902 60.9939 189.603 61.0467C190.306 61.1118 191.012 61.1306 191.717 61.1027C192.877 61.0496 194.023 60.8281 195.12 60.4451C196.221 60.0419 197.224 59.4227 197.93 58.5043C198.635 57.5859 198.907 56.3571 198.806 55.1587C198.707 53.9678 198.262 52.8318 197.526 51.8899C196.459 50.5619 194.915 49.8099 193.243 49.4019C191.571 48.9939 189.773 48.9459 188.195 49.0307C188.162 49.0307 187.918 49.0403 187.683 49.0563C187.448 49.0723 187.218 49.0947 187.214 49.1251C187.198 49.1292 187.182 49.1319 187.165 49.1331C187.141 49.1331 187.115 49.1331 187.114 49.1331C187.112 49.1331 188.05 48.8739 189.264 48.3683C190.478 47.8627 191.965 47.0739 193.043 45.9139C193.75 45.1461 194.285 44.237 194.613 43.2467C194.949 42.2115 195.022 41.0835 194.613 40.0371C194.341 39.3678 193.909 38.7759 193.354 38.3139C193.014 38.0265 192.643 37.7785 192.248 37.5747C190.09 36.4259 187.53 36.6339 185.47 37.1603C183.411 37.6867 181.851 38.5315 181.691 38.6515C182.149 35.3955 181.867 32.4867 181.051 30.2467C180.235 28.0067 178.918 26.4323 177.264 25.8547C176.532 25.6058 175.751 25.5377 174.987 25.6563C174.59 25.7123 174.202 25.8166 173.83 25.9667C172.208 26.6435 170.968 28.2691 170.288 30.5155C169.608 32.7619 169.488 35.6355 170.109 38.7875C168.586 38.3828 167.023 38.1483 165.448 38.0883C163.176 38.0227 160.648 38.4227 159.29 40.1875C159.166 40.3475 159.054 40.5159 158.954 40.6915C158.845 40.8821 158.75 41.0805 158.67 41.2851C158.488 41.8293 158.384 42.3965 158.362 42.9699C158.348 43.3757 158.387 43.7816 158.475 44.1779C158.752 45.4147 159.53 46.5379 160.683 47.4611C161.837 48.3843 163.368 49.1059 165.152 49.5411C165.973 49.6147 166.675 49.7203 167.171 49.8067C167.667 49.8931 167.96 49.9667 167.96 49.9667C167.466 49.9347 166.986 49.8814 166.52 49.8067C166.054 49.732 165.599 49.643 165.157 49.5395C163.571 49.3987 161.544 49.3795 159.696 49.8355C157.848 50.2915 156.176 51.2371 155.318 53.0243C154.839 54.0179 154.671 55.1336 154.838 56.2243C155.003 57.317 155.476 58.3401 156.202 59.1731C156.962 60.0331 157.896 60.7233 158.941 61.1987C160.17 61.7731 161.749 62.1939 163.773 62.2915L165.298 62.2515L166.821 62.2099C166.264 62.2627 165.733 62.2931 165.221 62.3059C164.709 62.3187 164.229 62.3139 163.768 62.2915L161.59 62.3491L159.408 62.4003C157.709 62.4451 156.086 63.1184 154.854 64.2899C153.622 65.4504 152.889 67.0439 152.808 68.7347C152.763 69.6501 152.908 70.5649 153.233 71.4218C153.558 72.2787 154.057 73.0591 154.698 73.7142C155.339 74.3693 156.108 74.8849 156.958 75.2287C157.808 75.5726 158.719 75.7372 159.635 75.7123L164.642 75.5331L169.648 75.3459L169.714 96.7011L169.781 118.056H180.195C180.195 114.322 180.181 105.439 180.174 96.5555C180.168 87.6723 180.16 78.7907 180.152 75.0563Z" fill="#BAB653"/>
<path d="M180.149 75.0576H174.277C175.258 76.856 176.24 78.6544 177.223 80.4528C178.205 82.2512 179.187 84.0502 180.168 85.8496L180.159 80.4528L180.149 75.0576Z" fill="#353519"/>
<path d="M187.221 49.3648H184.493C184.43 49.3648 184.368 49.3395 184.323 49.2945C184.278 49.2495 184.253 49.1884 184.253 49.1248C184.253 49.0932 184.259 49.0619 184.271 49.0328C184.283 49.0036 184.301 48.9772 184.324 48.9552C184.346 48.9328 184.372 48.9151 184.401 48.903C184.43 48.8909 184.462 48.8847 184.493 48.8848H187.221C187.253 48.8847 187.284 48.8909 187.313 48.903C187.342 48.9151 187.369 48.9328 187.391 48.9552C187.436 49.0002 187.461 49.0612 187.461 49.1248C187.461 49.1563 187.455 49.1875 187.443 49.2166C187.431 49.2457 187.413 49.2722 187.391 49.2944C187.369 49.317 187.342 49.335 187.313 49.3471C187.284 49.3592 187.253 49.3652 187.221 49.3648Z" fill="#666538"/>
<path d="M171.031 39.9207C171 39.9203 170.971 39.9143 170.943 39.9031C170.913 39.8918 170.887 39.875 170.864 39.8535L170.402 39.4071L169.939 38.9607C169.894 38.9166 169.867 38.8562 169.866 38.7927C169.866 38.7292 169.89 38.668 169.933 38.6215C169.977 38.5755 170.038 38.549 170.103 38.5479C170.134 38.5471 170.166 38.5527 170.195 38.5642C170.224 38.5758 170.251 38.5931 170.274 38.6151L170.735 39.0615L171.197 39.5079C171.242 39.5495 171.268 39.607 171.271 39.6679C171.272 39.716 171.258 39.7632 171.232 39.8035C171.206 39.8438 171.168 39.8751 171.123 39.8935C171.095 39.9091 171.063 39.9184 171.031 39.9207Z" fill="#666538"/>
<path d="M168.327 46.5667C168.295 46.5667 168.264 46.5605 168.235 46.5484C168.206 46.5364 168.179 46.5186 168.157 46.4962C168.112 46.4512 168.087 46.3902 168.087 46.3267V44.8962C168.087 44.8326 168.112 44.7716 168.157 44.7265C168.202 44.6815 168.263 44.6562 168.327 44.6562C168.39 44.6565 168.451 44.6818 168.496 44.7267C168.519 44.7489 168.536 44.7753 168.548 44.8044C168.561 44.8335 168.567 44.8647 168.567 44.8962V46.3267C168.567 46.3903 168.541 46.4513 168.496 46.4964C168.451 46.5414 168.39 46.5667 168.327 46.5667Z" fill="#666538"/>
<path d="M185.127 54.2005C185.095 54.2005 185.064 54.1943 185.035 54.1822C185.006 54.1702 184.979 54.1524 184.957 54.1301C184.935 54.108 184.917 54.0816 184.905 54.0525C184.892 54.0233 184.886 53.992 184.887 53.9605V52.5301C184.887 52.4664 184.912 52.4054 184.957 52.3603C185.002 52.3153 185.063 52.2901 185.127 52.2901C185.158 52.2897 185.19 52.2958 185.219 52.3079C185.248 52.32 185.274 52.3379 185.296 52.3605C185.319 52.3827 185.336 52.4091 185.349 52.4382C185.361 52.4673 185.367 52.4985 185.367 52.5301V53.9605C185.367 54.0241 185.341 54.0852 185.296 54.1302C185.251 54.1752 185.19 54.2005 185.127 54.2005Z" fill="#666538"/>
<path d="M171.978 62.0032C171.946 62.0032 171.915 61.9971 171.886 61.985C171.857 61.9729 171.83 61.9552 171.808 61.9328C171.785 61.9107 171.767 61.8843 171.755 61.8552C171.743 61.826 171.737 61.7947 171.738 61.7632V60.3328C171.738 60.2691 171.763 60.2081 171.808 60.1631C171.853 60.1181 171.914 60.0928 171.978 60.0928C172.009 60.0925 172.04 60.0985 172.07 60.1106C172.099 60.1227 172.125 60.1406 172.147 60.1632C172.17 60.1854 172.187 60.2118 172.199 60.2409C172.211 60.27 172.218 60.3013 172.218 60.3328V61.7632C172.218 61.8268 172.192 61.8879 172.147 61.9329C172.102 61.9779 172.041 62.0032 171.978 62.0032Z" fill="#666538"/>
<path d="M165.808 62.4839H161.232C161.201 62.484 161.169 62.4778 161.14 62.4657C161.111 62.4536 161.085 62.4359 161.063 62.4135C161.04 62.3915 161.022 62.3651 161.01 62.3359C160.998 62.3068 160.992 62.2755 160.992 62.2439C160.992 62.2123 160.998 62.181 161.01 62.1518C161.022 62.1227 161.04 62.0963 161.063 62.0743C161.085 62.0519 161.111 62.0342 161.14 62.0221C161.169 62.01 161.201 62.0038 161.232 62.0039H165.808C165.872 62.0039 165.933 62.0292 165.978 62.0742C166.023 62.1192 166.048 62.1803 166.048 62.2439C166.048 62.3075 166.023 62.3684 165.978 62.4135C165.956 62.4359 165.929 62.4536 165.9 62.4657C165.871 62.4778 165.84 62.484 165.808 62.4839Z" fill="#666538"/>
<path d="M175.944 65.8983C175.944 66.8159 175.626 67.7052 175.044 68.4145C174.462 69.1238 173.651 69.6093 172.751 69.7883C171.851 69.9672 170.917 69.8286 170.108 69.396C169.299 68.9634 168.664 68.2635 168.313 67.4157C167.962 66.5679 167.916 65.6246 168.182 64.7465C168.449 63.8683 169.011 63.1098 169.774 62.6C170.537 62.0902 171.454 61.8608 172.367 61.9508C173.28 62.0408 174.134 62.4446 174.783 63.0935C175.151 63.4617 175.443 63.8989 175.643 64.3802C175.842 64.8615 175.945 65.3774 175.944 65.8983Z" fill="#FF94AC"/>
<path d="M189.093 57.9266C189.093 58.8443 188.775 59.7335 188.192 60.4428C187.61 61.1521 186.8 61.6376 185.9 61.8166C185 61.9956 184.066 61.8569 183.257 61.4243C182.447 60.9917 181.813 60.2918 181.462 59.444C181.111 58.5962 181.065 57.6529 181.331 56.7748C181.597 55.8967 182.16 55.1381 182.923 54.6283C183.686 54.1185 184.602 53.8891 185.516 53.9791C186.429 54.0691 187.283 54.4729 187.931 55.1218C188.3 55.4899 188.592 55.9271 188.792 56.4084C188.991 56.8898 189.093 57.4057 189.093 57.9266Z" fill="#FF94AC"/>
<path d="M172.293 50.2928C172.293 51.2105 171.975 52.0997 171.392 52.809C170.81 53.5183 170 54.0038 169.1 54.1828C168.2 54.3618 167.266 54.2231 166.457 53.7905C165.647 53.3579 165.013 52.6581 164.662 51.8102C164.311 50.9624 164.265 50.0191 164.531 49.141C164.797 48.2629 165.36 47.5043 166.123 46.9945C166.886 46.4847 167.802 46.2553 168.715 46.3453C169.629 46.4353 170.482 46.8391 171.131 47.488C171.5 47.8561 171.792 48.2933 171.992 48.7747C172.191 49.256 172.293 49.7719 172.293 50.2928Z" fill="#FF94AC"/>
<path d="M148.825 106.499L148.985 106.436C149.041 106.414 149.098 106.39 149.156 106.363C149.45 106.225 149.724 106.049 149.97 105.838C150.367 105.508 150.635 105.049 150.729 104.542C150.804 104.035 150.703 103.517 150.442 103.075C150.187 102.626 149.805 102.263 149.345 102.032C148.932 101.829 148.471 101.745 148.013 101.788C147.547 101.833 147.101 101.999 146.719 102.268C146.97 102.032 147.183 101.758 147.349 101.456C147.567 101.062 147.677 100.618 147.669 100.168C147.651 99.5535 147.426 98.9636 147.029 98.494C146.616 97.9964 146.056 97.6415 145.429 97.4797C145.119 97.4255 144.802 97.4136 144.489 97.4444C143.922 97.4873 143.385 97.7117 142.956 98.0844C142.468 98.5471 142.169 99.1741 142.116 99.8444C142.055 100.595 142.243 101.345 142.65 101.979C142.081 101.676 141.426 101.575 140.793 101.692C140.194 101.801 139.656 102.123 139.277 102.6C138.988 102.975 138.813 103.425 138.772 103.897C138.728 104.386 138.826 104.876 139.055 105.31C139.199 105.584 139.393 105.829 139.628 106.032C139.859 106.231 140.124 106.388 140.41 106.496H140.161C139.499 106.496 138.864 106.758 138.396 107.226C137.928 107.694 137.665 108.328 137.665 108.99C137.665 109.652 137.928 110.287 138.396 110.755C138.864 111.223 139.499 111.486 140.161 111.486H142.665V122.272H146.263V111.486H148.764C149.426 111.486 150.061 111.223 150.529 110.755C150.997 110.287 151.26 109.652 151.26 108.99C151.26 108.339 151.005 107.714 150.55 107.248C150.095 106.782 149.476 106.513 148.825 106.499Z" fill="#E9CF81"/>
<path d="M105.453 106.499L105.613 106.436C105.671 106.414 105.727 106.39 105.785 106.363C106.079 106.225 106.352 106.049 106.599 105.838C106.996 105.508 107.265 105.05 107.357 104.542C107.433 104.035 107.332 103.517 107.071 103.075C106.817 102.626 106.435 102.263 105.973 102.032C105.561 101.829 105.1 101.745 104.642 101.788C104.176 101.833 103.73 101.999 103.348 102.268C103.599 102.032 103.812 101.757 103.98 101.456C104.197 101.061 104.307 100.617 104.3 100.168C104.282 99.5535 104.056 98.9636 103.66 98.494C103.246 97.9963 102.686 97.6414 102.06 97.4796C101.75 97.4255 101.434 97.4136 101.121 97.4444C100.554 97.4869 100.015 97.7114 99.5862 98.0844C99.0983 98.5471 98.7991 99.1741 98.7462 99.8444C98.6847 100.595 98.8713 101.345 99.2774 101.979C98.7089 101.678 98.0552 101.579 97.423 101.697C96.8247 101.806 96.2862 102.128 95.9078 102.604C95.6189 102.98 95.4435 103.43 95.4022 103.902C95.3581 104.39 95.4565 104.881 95.6854 105.315C95.8303 105.589 96.0251 105.834 96.2598 106.036C96.4906 106.236 96.7549 106.393 97.0406 106.5H96.7926C96.1309 106.5 95.4963 106.763 95.0283 107.231C94.5602 107.699 94.2971 108.333 94.2966 108.995C94.2966 109.657 94.5596 110.292 95.0277 110.76C95.4958 111.228 96.1307 111.491 96.7926 111.491H99.2934V122.276H102.893V111.486H105.394C106.056 111.486 106.69 111.222 107.158 110.754C107.626 110.286 107.889 109.652 107.889 108.99C107.889 108.339 107.634 107.714 107.179 107.249C106.725 106.783 106.106 106.514 105.455 106.499H105.453Z" fill="#E9CF81"/>
<path d="M190.527 99.3717H179.146C179.12 99.3716 179.094 99.3663 179.07 99.3562C179.045 99.346 179.023 99.3312 179.005 99.3125C178.986 99.2941 178.971 99.2722 178.961 99.2481C178.951 99.2239 178.946 99.1979 178.946 99.1717C178.946 99.1454 178.951 99.1195 178.961 99.0953C178.971 99.0711 178.986 99.0492 179.005 99.0309C179.023 99.0122 179.045 98.9973 179.07 98.9872C179.094 98.977 179.12 98.9718 179.146 98.9717H190.527C190.553 98.9718 190.579 98.977 190.603 98.9872C190.627 98.9973 190.649 99.0122 190.667 99.0309C190.686 99.0492 190.701 99.0711 190.711 99.0953C190.722 99.1195 190.727 99.1454 190.727 99.1717C190.727 99.1979 190.722 99.2239 190.711 99.2481C190.701 99.2722 190.686 99.2941 190.667 99.3125C190.649 99.3312 190.627 99.346 190.603 99.3562C190.579 99.3663 190.553 99.3716 190.527 99.3717Z" fill="#2B3D0A"/>
<path d="M118.002 86.716C117.984 86.7157 117.965 86.713 117.948 86.708C117.929 86.7032 117.911 86.6951 117.895 86.684C117.85 86.6548 117.819 86.6095 117.807 86.5576C117.796 86.5058 117.806 86.4518 117.834 86.4072L125.866 73.996L133.896 61.5864C133.911 61.5641 133.929 61.545 133.951 61.5301C133.972 61.5153 133.997 61.505 134.023 61.5C134.048 61.4941 134.075 61.4936 134.101 61.4982C134.127 61.5029 134.151 61.5127 134.173 61.5272C134.195 61.5415 134.214 61.56 134.229 61.5817C134.244 61.6034 134.254 61.6278 134.26 61.6536C134.265 61.6792 134.266 61.7057 134.261 61.7315C134.257 61.7574 134.247 61.782 134.232 61.804L126.202 74.2136L118.17 86.6184C118.152 86.6467 118.126 86.6698 118.096 86.6856C118.068 86.7038 118.036 86.7143 118.002 86.716Z" fill="#666538"/>
<path d="M108.023 15.431C107.567 14.6419 106.889 14.0051 106.072 13.6006C105.262 13.1995 104.358 13.0249 103.456 13.095C103.511 12.8763 103.552 12.6546 103.58 12.431C103.607 12.2022 103.621 11.9719 103.621 11.7414C103.619 10.5334 103.226 9.35844 102.502 8.39189C101.777 7.42535 100.759 6.71904 99.6005 6.37836C98.4415 6.03769 97.2034 6.08092 96.071 6.5016C94.9386 6.92228 93.9726 7.69786 93.3172 8.71259C93.0354 7.17605 92.1618 5.81149 90.8843 4.91244C89.6068 4.0134 88.0274 3.65172 86.486 3.9052C84.9445 4.15869 83.5641 5.00709 82.6418 6.26788C81.7194 7.52868 81.3288 9.10114 81.554 10.647C81.5988 10.9413 81.6662 11.2318 81.7556 11.5158C80.9032 11.139 79.9703 10.981 79.0415 11.0559C78.1126 11.1308 77.2171 11.4363 76.4361 11.9447C75.6552 12.4532 75.0134 13.1485 74.5691 13.9677C74.1248 14.7868 73.8919 15.7039 73.8916 16.6358C73.8908 17.0596 73.9385 17.4821 74.034 17.895C74.1252 18.295 74.261 18.6836 74.4388 19.0534C73.3993 19.1901 72.4286 19.6484 71.6626 20.3642C70.8966 21.08 70.3737 22.0175 70.167 23.0453C69.9603 24.0731 70.0802 25.1398 70.51 26.0961C70.9397 27.0524 71.6578 27.8503 72.5636 28.3782C71.9941 28.8309 71.5297 29.4019 71.2024 30.0517C70.8752 30.7014 70.693 31.4145 70.6683 32.1416C70.6436 32.8687 70.7771 33.5925 71.0595 34.263C71.3419 34.9334 71.7665 35.5346 72.3039 36.0249C72.8414 36.5152 73.4789 36.883 74.1724 37.1028C74.866 37.3227 75.5989 37.3893 76.3207 37.2981C77.0425 37.207 77.7359 36.9602 78.353 36.5748C78.97 36.1895 79.4961 35.6747 79.8948 35.0662C80.4484 36.367 81.8324 37.2454 83.65 37.6118C85.4676 37.9782 87.7204 37.8326 90.01 37.0854C92.1092 36.4022 93.8852 35.3254 95.13 34.0982C96.3748 32.871 97.0916 31.4854 97.0708 30.1846C97.931 30.6218 98.887 30.8363 99.8516 30.8086C100.865 30.7791 101.855 30.4969 102.732 29.9878C104.02 29.2522 104.991 28.0672 105.46 26.6598C105.915 25.3032 105.819 23.8221 105.194 22.535C105.336 22.4838 105.477 22.4246 105.616 22.3606C105.756 22.2966 105.893 22.2246 106.029 22.1462C107.187 21.4847 108.046 20.4038 108.429 19.127C108.617 18.5158 108.678 17.8726 108.608 17.237C108.538 16.6013 108.339 15.9867 108.023 15.431Z" fill="#F4ECE5"/>
<path d="M99.594 17.3738C100.316 19.0426 99.7108 21.097 98.154 23.0698C96.5972 25.0426 94.0724 26.9386 90.97 28.2762C87.8676 29.6138 84.7636 30.1562 82.258 29.9434C79.7524 29.7306 77.8404 28.7626 77.1124 27.0986C76.3844 25.4346 76.9956 23.3754 78.5524 21.4026C80.1092 19.4298 82.6308 17.5386 85.7332 16.1962C88.8356 14.8538 91.9396 14.3146 94.4452 14.529C96.9508 14.7434 98.8724 15.705 99.594 17.3738Z" fill="#F98638"/>
<path d="M120.775 61.614L120.08 61.0028L119.386 60.3916L119.276 61.95L119.165 63.5084L119.965 62.5612C120.235 62.2444 120.505 61.9287 120.775 61.614Z" fill="#353519"/>
<path d="M120.193 55.9624C120.167 55.9623 120.142 55.9574 120.119 55.948C120.096 55.9378 120.074 55.9237 120.055 55.9064L119.823 55.684L119.593 55.4632C119.573 55.445 119.558 55.4232 119.548 55.399C119.537 55.3748 119.532 55.3487 119.532 55.3224C119.531 55.2696 119.55 55.2185 119.586 55.18C119.604 55.1609 119.626 55.1456 119.65 55.1352C119.675 55.1247 119.701 55.1193 119.727 55.1192C119.78 55.118 119.831 55.1375 119.869 55.1736L120.1 55.396L120.332 55.6168C120.351 55.6349 120.366 55.6568 120.377 55.681C120.387 55.7052 120.392 55.7312 120.393 55.7576C120.394 55.8103 120.374 55.8615 120.338 55.9C120.318 55.9197 120.295 55.9355 120.269 55.9464C120.245 55.9566 120.219 55.962 120.193 55.9624Z" fill="#2B3D0A"/>
<path d="M126.306 56.1995H126.277L125.957 56.1531L125.637 56.1067C125.611 56.103 125.586 56.0942 125.564 56.0807C125.541 56.0672 125.521 56.0494 125.506 56.0283C125.49 56.0071 125.479 55.9831 125.473 55.9576C125.466 55.932 125.465 55.9055 125.469 55.8795C125.477 55.8271 125.505 55.7798 125.548 55.7481C125.59 55.7163 125.644 55.7026 125.696 55.7099L126.016 55.7563L126.336 55.8027C126.389 55.8107 126.436 55.839 126.468 55.8815C126.5 55.924 126.513 55.9774 126.506 56.0299C126.499 56.0781 126.474 56.1219 126.437 56.1531C126.401 56.1841 126.354 56.2006 126.306 56.1995Z" fill="#2B3D0A"/>
<path d="M111.101 105.482C111.084 105.484 111.066 105.484 111.049 105.482C111.031 105.477 111.015 105.47 110.999 105.461C110.976 105.448 110.957 105.43 110.941 105.409C110.925 105.388 110.914 105.364 110.908 105.338C110.9 105.311 110.898 105.284 110.902 105.256C110.905 105.229 110.915 105.202 110.929 105.178C110.929 105.178 111.012 105.039 111.108 104.845C111.219 104.633 111.31 104.412 111.38 104.183C111.395 104.132 111.429 104.089 111.476 104.063C111.5 104.049 111.526 104.04 111.554 104.037C111.582 104.034 111.609 104.037 111.636 104.045C111.687 104.06 111.73 104.094 111.756 104.14C111.769 104.164 111.778 104.191 111.781 104.218C111.784 104.245 111.781 104.273 111.773 104.3C111.697 104.549 111.598 104.79 111.479 105.021C111.375 105.229 111.289 105.377 111.281 105.389C111.263 105.419 111.238 105.444 111.207 105.461C111.175 105.478 111.138 105.485 111.101 105.482Z" fill="#2B3D0A"/>
<path d="M98.2963 106.696H96.7923C96.766 106.696 96.74 106.691 96.7158 106.68C96.6916 106.67 96.6697 106.655 96.6515 106.636C96.6327 106.618 96.6177 106.596 96.6075 106.572C96.5974 106.548 96.5922 106.522 96.5923 106.496C96.5931 106.443 96.6146 106.393 96.652 106.356C96.6894 106.319 96.7398 106.299 96.7923 106.299H98.2979C98.3509 106.299 98.4018 106.32 98.4393 106.357C98.4768 106.395 98.4979 106.446 98.4979 106.499C98.4975 106.552 98.4763 106.602 98.4388 106.64C98.4014 106.677 98.3508 106.698 98.2979 106.699L98.2963 106.696Z" fill="#666538"/>
<path d="M102.883 102.833C102.852 102.834 102.822 102.828 102.794 102.814C102.766 102.8 102.742 102.78 102.723 102.755C102.691 102.713 102.677 102.66 102.683 102.608C102.69 102.555 102.717 102.507 102.759 102.475L103.079 102.23L103.399 101.987C103.419 101.971 103.443 101.959 103.468 101.952C103.493 101.945 103.52 101.944 103.546 101.947C103.572 101.95 103.597 101.958 103.62 101.972C103.643 101.985 103.663 102.003 103.679 102.024C103.695 102.044 103.706 102.068 103.713 102.093C103.72 102.119 103.722 102.145 103.719 102.171C103.716 102.197 103.707 102.222 103.694 102.245C103.681 102.268 103.663 102.288 103.642 102.304L103.322 102.547L103.002 102.792C102.984 102.806 102.964 102.816 102.943 102.824C102.923 102.83 102.904 102.833 102.883 102.833Z" fill="#666538"/>
<path d="M126.085 106.779H124.727C124.7 106.779 124.674 106.774 124.65 106.763C124.626 106.753 124.604 106.738 124.586 106.72C124.567 106.701 124.552 106.68 124.542 106.655C124.532 106.631 124.527 106.605 124.527 106.579C124.527 106.552 124.532 106.526 124.542 106.502C124.552 106.477 124.567 106.455 124.586 106.437C124.624 106.4 124.674 106.379 124.727 106.379H126.085C126.138 106.379 126.189 106.4 126.226 106.437C126.264 106.475 126.285 106.526 126.285 106.579C126.285 106.632 126.263 106.682 126.226 106.72C126.189 106.757 126.138 106.778 126.085 106.779Z" fill="#666538"/>
<path d="M120.213 102.535C120.16 102.535 120.109 102.514 120.071 102.478L119.818 102.223L119.564 101.969C119.536 101.941 119.517 101.905 119.509 101.867C119.502 101.828 119.506 101.788 119.521 101.752C119.536 101.715 119.561 101.684 119.594 101.662C119.627 101.64 119.665 101.628 119.704 101.628C119.731 101.628 119.757 101.633 119.782 101.643C119.806 101.653 119.828 101.668 119.847 101.687L120.1 101.94L120.354 102.194C120.392 102.232 120.413 102.282 120.413 102.335C120.413 102.388 120.391 102.439 120.354 102.478C120.335 102.496 120.313 102.511 120.288 102.521C120.264 102.53 120.239 102.535 120.213 102.535Z" fill="#666538"/>
<path d="M141.38 106.664H140.066C140.027 106.664 139.988 106.652 139.955 106.63C139.922 106.608 139.896 106.577 139.881 106.541C139.866 106.504 139.862 106.464 139.869 106.425C139.877 106.387 139.896 106.351 139.924 106.323C139.942 106.304 139.965 106.289 139.989 106.279C140.013 106.269 140.04 106.264 140.066 106.264H141.38C141.406 106.264 141.432 106.269 141.457 106.279C141.481 106.289 141.503 106.304 141.522 106.323C141.55 106.351 141.569 106.387 141.576 106.425C141.584 106.464 141.58 106.504 141.565 106.541C141.549 106.577 141.524 106.608 141.491 106.63C141.458 106.652 141.419 106.664 141.38 106.664Z" fill="#666538"/>
<path d="M146.131 102.769C146.096 102.769 146.061 102.759 146.031 102.742C145.999 102.722 145.974 102.695 145.955 102.663C145.93 102.617 145.925 102.562 145.939 102.511C145.947 102.486 145.959 102.462 145.976 102.442C145.993 102.422 146.014 102.405 146.037 102.393L146.504 102.138L146.971 101.884C146.996 101.871 147.022 101.862 147.05 101.859C147.077 101.857 147.105 101.86 147.131 101.868C147.157 101.875 147.18 101.888 147.201 101.905C147.221 101.921 147.238 101.942 147.25 101.966C147.264 101.99 147.272 102.016 147.275 102.044C147.278 102.072 147.275 102.099 147.266 102.126C147.251 102.176 147.216 102.219 147.17 102.244L146.703 102.498L146.232 102.743C146.218 102.752 146.202 102.758 146.186 102.762C146.168 102.766 146.15 102.769 146.131 102.769Z" fill="#666538"/>
<path d="M64.8855 113.518C65.4612 113.459 66.0191 113.285 66.5256 113.005C67.032 112.725 67.4767 112.346 67.8327 111.889C68.1659 111.485 68.414 111.018 68.5622 110.516C68.7104 110.013 68.7556 109.486 68.6951 108.966C68.6345 108.446 68.4696 107.943 68.21 107.488C67.9505 107.033 67.6018 106.635 67.1847 106.318C66.3671 105.674 65.3444 105.347 64.3047 105.397C64.9393 105.182 65.5222 104.837 66.0164 104.385C66.5105 103.933 66.9052 103.382 67.1751 102.769C67.4375 102.219 67.581 101.619 67.5964 101.01C67.6118 100.4 67.4987 99.794 67.2645 99.2309C67.0303 98.6679 66.6802 98.1604 66.2369 97.7416C65.7937 97.3227 65.2673 97.0018 64.6919 96.7998C63.5372 96.3648 62.26 96.3866 61.1207 96.8606C61.4065 96.4874 61.6426 96.0786 61.8231 95.6446C62.195 94.7733 62.3114 93.8142 62.1587 92.8793C62.006 91.9444 61.5905 91.0722 60.9607 90.3646C60.5996 89.9394 60.1781 89.5696 59.7095 89.267C58.7597 88.8297 57.6984 88.6951 56.6695 88.8814C55.5878 89.0653 54.609 89.6339 53.9134 90.4824C53.2178 91.3309 52.8522 92.4022 52.8839 93.499C52.8979 94.7404 53.3624 95.9345 54.1911 96.859C53.5688 96.6419 52.9086 96.555 52.2513 96.6037C51.594 96.6524 50.9538 96.8357 50.3703 97.1422C49.2695 97.7198 48.4343 98.7006 48.1527 99.8622C48.031 100.418 48.0224 100.992 48.1274 101.551C48.2324 102.11 48.4489 102.642 48.7639 103.115C49.4264 104.154 50.4633 104.899 51.6599 105.195C50.5824 105.08 49.4957 105.3 48.5479 105.825C47.6788 106.297 47.006 107.063 46.6503 107.985C46.4263 108.608 46.3513 109.274 46.4311 109.931C46.5159 110.67 46.8151 111.369 47.2919 111.941C47.7866 112.525 48.4429 112.949 49.1783 113.161C49.5713 113.28 49.979 113.343 50.3895 113.349C49.3609 113.589 48.4437 114.169 47.7869 114.997C47.1301 115.824 46.7724 116.849 46.7719 117.905C46.7728 119.146 47.2662 120.336 48.1437 121.213C49.0212 122.09 50.2111 122.583 51.4519 122.584H63.2375C64.4783 122.583 65.6682 122.09 66.5457 121.213C67.4233 120.336 67.9167 119.146 67.9175 117.905C67.9167 116.952 67.6252 116.022 67.082 115.239C66.5389 114.456 65.7698 113.858 64.8775 113.523L64.8855 113.518Z" fill="#E9CF81"/>
<path d="M52.3445 113.401H50.0245C49.9982 113.401 49.9722 113.396 49.948 113.386C49.9238 113.376 49.902 113.361 49.8837 113.342C49.8648 113.324 49.8498 113.302 49.8396 113.277C49.8294 113.253 49.8243 113.227 49.8245 113.201C49.8249 113.148 49.8461 113.097 49.8835 113.06C49.9209 113.023 49.9716 113.001 50.0245 113.001H52.3445C52.3974 113.001 52.448 113.023 52.4854 113.06C52.5228 113.097 52.5441 113.148 52.5445 113.201C52.5447 113.227 52.5395 113.253 52.5293 113.277C52.5192 113.302 52.5042 113.324 52.4853 113.342C52.467 113.361 52.4451 113.376 52.4209 113.386C52.3967 113.396 52.3707 113.401 52.3445 113.401Z" fill="#666538"/>
<path d="M59.6723 97.9432C59.6369 97.9433 59.6021 97.9339 59.5715 97.916C59.5394 97.8984 59.5132 97.8717 59.4963 97.8392C59.4823 97.8153 59.4735 97.7887 59.4704 97.7611C59.4674 97.7335 59.4702 97.7056 59.4787 97.6792C59.4938 97.6282 59.5283 97.5851 59.5747 97.5592L60.5139 97.0472L61.4515 96.5336C61.4756 96.52 61.5023 96.5116 61.5298 96.5088C61.5574 96.5061 61.5852 96.509 61.6115 96.5176C61.6622 96.5328 61.7047 96.5674 61.7299 96.6139C61.7551 96.6603 61.7608 96.7149 61.7459 96.7656C61.7389 96.7909 61.7268 96.8144 61.7103 96.8348C61.6938 96.8552 61.6732 96.8719 61.6499 96.884L60.7123 97.3976L59.7731 97.9112C59.7587 97.9194 59.743 97.9254 59.7267 97.9288C59.7096 97.9368 59.6912 97.9417 59.6723 97.9432Z" fill="#666538"/>
<path d="M53.175 105.2H51.4006C51.361 105.2 51.3224 105.188 51.2895 105.166C51.2566 105.144 51.2309 105.113 51.2157 105.077C51.2004 105.04 51.1963 105 51.2039 104.962C51.2115 104.923 51.2303 104.887 51.2582 104.859C51.2768 104.84 51.299 104.825 51.3234 104.815C51.3479 104.805 51.3741 104.8 51.4006 104.8H53.175C53.2014 104.8 53.2276 104.805 53.2521 104.815C53.2765 104.825 53.2987 104.84 53.3174 104.859C53.3452 104.887 53.3641 104.923 53.3716 104.962C53.3792 105 53.3751 105.04 53.3599 105.077C53.3446 105.113 53.3189 105.144 53.286 105.166C53.2531 105.188 53.2145 105.2 53.175 105.2Z" fill="#666538"/>
<path d="M82.7458 81.0188C81.4672 80.4785 80.0675 80.2896 78.6914 80.4716C77.4233 80.6347 76.2405 81.1986 75.3154 82.0812C74.7376 82.6506 74.2881 83.3368 73.997 84.0939C73.7991 84.6027 73.6632 85.1335 73.5922 85.6747C72.0921 85.4346 70.5548 85.6186 69.1538 86.206C67.8086 86.7618 66.6657 87.716 65.8786 88.9404C65.3158 89.8359 64.9635 90.8474 64.8482 91.8988C64.7295 92.9624 64.8308 94.0391 65.1458 95.062C65.5854 96.485 66.4324 97.7481 67.582 98.695C68.7317 99.6419 70.1336 100.231 71.6146 100.39C72.0008 100.431 72.3898 100.442 72.7778 100.422C73.1961 100.399 73.6116 100.339 74.0194 100.243C75.7794 99.8252 77.341 98.726 78.4802 97.1836C79.687 95.5148 80.3648 93.5221 80.4258 91.4636C80.8901 91.3232 81.3372 91.1311 81.7586 90.8908C82.3682 90.5456 82.9102 90.093 83.3586 89.5547C84.429 88.2667 84.7042 86.7723 84.7026 85.5643C84.7027 84.7945 84.5912 84.0286 84.3714 83.2908L83.5586 82.1596L82.7458 81.0188Z" fill="#BAB653"/>
<path d="M67.0323 98.1804C67.0049 98.1799 66.9778 98.1744 66.9523 98.1644C66.9271 98.1529 66.9042 98.1366 66.8851 98.1164C66.867 98.0972 66.8529 98.0746 66.8439 98.0498C66.8348 98.0251 66.8309 97.9987 66.8323 97.9724C66.8339 97.9196 66.8564 97.8695 66.8947 97.8332L74.8211 90.4588L82.7411 83.0988C82.7806 83.0633 82.8321 83.0444 82.8851 83.046C82.9114 83.0466 82.9373 83.0525 82.9612 83.0632C82.9852 83.074 83.0068 83.0895 83.0247 83.1087C83.0426 83.1279 83.0564 83.1506 83.0654 83.1752C83.0744 83.1999 83.0784 83.2262 83.0771 83.2524C83.0765 83.2786 83.0707 83.3044 83.06 83.3283C83.0493 83.3522 83.0339 83.3737 83.0147 83.3916L75.0947 90.7628L67.1747 98.1324C67.1559 98.1502 67.1336 98.1638 67.1091 98.1724C67.0844 98.1806 67.0582 98.1833 67.0323 98.1804Z" fill="#666538"/>
</g>
<defs>
<clipPath id="clip0_6346_36431">
<rect width="256" height="120" rx="8" fill="white"/>
</clipPath>
</defs>
</svg>
