<svg width="256" height="120" viewBox="0 0 256 120" fill="none" xmlns="http://www.w3.org/2000/svg">
<g clip-path="url(#clip0_6346_36433)">
<rect width="256" height="120" rx="8" fill="#3A4A29"/>
<path d="M178.309 88.4896C176.383 89.7645 174.323 90.8249 172.167 91.6521C170.012 92.4822 167.768 93.0568 165.479 93.3642C162.837 93.6908 160.169 93.7638 157.513 93.5822C154.874 93.4269 152.238 93.1052 149.577 92.7916C142.183 91.9165 134.615 91.9738 127.088 92.669C119.605 93.3956 112.173 94.5792 104.834 96.2131C98.8022 97.5403 92.5913 97.8536 86.4565 97.14C80.2789 96.3712 74.2975 94.4138 69.2567 90.8697L65.9116 99.321L62.5665 107.786C65.9663 109.997 69.5425 111.923 73.2588 113.546C76.9687 115.165 80.7965 116.5 84.709 117.538C86.8708 118.116 89.0611 118.583 91.271 118.936C93.4818 119.289 95.7127 119.5 97.9503 119.569C98.3674 119.569 100.854 119.593 103.228 119.498C105.603 119.402 107.863 119.203 107.847 118.789L108.236 125.092L108.629 131.395H159.901V118.65C159.901 118.713 160.836 118.65 161.81 118.585C162.783 118.519 163.756 118.418 163.854 118.405C165.602 118.176 167.333 117.83 169.034 117.369C170.734 116.906 172.406 116.346 174.042 115.692C178.591 113.84 182.847 111.337 186.676 108.26C190.507 105.191 193.991 101.712 197.065 97.8842C197.624 97.1972 198.156 96.4993 198.701 95.7932C199.246 95.0871 199.761 94.3756 200.277 93.6586L193.704 86.7585L187.131 79.8584C185.937 81.5197 184.609 83.0807 183.161 84.5257C181.679 86.0041 180.053 87.3319 178.309 88.4896Z" fill="#E9CF81"/>
<path d="M214.461 64.0957C214.25 63.9143 214.001 63.7804 213.733 63.7031C213.515 63.6384 213.288 63.6027 213.06 63.5968C213.096 63.0763 212.963 62.5581 212.681 62.1192C212.423 61.707 212.027 61.3999 211.563 61.2522C211.279 61.1712 210.982 61.1504 210.689 61.1913C210.397 61.2321 210.116 61.3337 209.865 61.4894C209.59 61.6533 209.351 61.8703 209.162 62.1278C208.972 62.3852 208.836 62.678 208.761 62.9888C208.314 62.6986 207.788 62.5565 207.256 62.5826C206.405 62.6399 205.348 63.226 204.568 65.3334C204.462 65.606 204.353 65.9004 204.235 66.184C204.118 66.4675 204.001 66.7292 203.87 67.0182C203.342 68.1374 202.758 69.2292 202.12 70.2897C201.377 71.5511 200.491 72.723 199.481 73.782C199.294 73.9666 199.066 74.1053 198.816 74.1872C198.567 74.269 198.301 74.2918 198.041 74.2536C197.78 74.2177 197.53 74.1261 197.308 73.985C197.085 73.8439 196.896 73.6566 196.752 73.4358C196.631 73.2476 196.553 73.0358 196.522 72.8147C196.491 72.5936 196.508 72.3684 196.572 72.1544C196.71 71.7212 196.875 71.2969 197.065 70.884C197.45 70.0194 197.751 69.1203 197.965 68.1987C198.148 67.1954 198.049 66.244 197.169 65.8078C196.237 65.3443 195.454 65.7369 194.827 66.413C194.247 67.1069 193.774 67.8833 193.423 68.7167C192.51 70.6877 191.558 72.6206 190.525 74.4881C189.507 76.3447 188.378 78.1382 187.145 79.8588L193.717 86.7589L200.29 93.659C201.468 92.0232 202.602 90.3602 203.72 88.6809C204.838 87.0015 205.936 85.314 207.041 83.6292C208.601 81.256 210.029 78.7987 211.318 76.2683C212.605 73.7339 213.742 71.1258 214.723 68.4577L214.753 68.384C214.761 68.358 214.77 68.3326 214.78 68.3077C214.884 68.0255 214.97 67.7368 215.037 67.4435C215.105 67.1494 215.151 66.8505 215.173 66.5493C215.212 66.1476 215.198 65.7425 215.132 65.3443C215.056 64.8641 214.82 64.4239 214.461 64.0957Z" fill="#FFAA9F"/>
<path d="M114.983 77.5306C114.982 78.6767 114.585 79.7872 113.858 80.6729C113.13 81.5587 112.119 82.1649 110.995 82.3883C109.871 82.6117 108.704 82.4385 107.693 81.8981C106.683 81.3577 105.891 80.4836 105.452 79.4247C105.014 78.3659 104.956 77.1878 105.289 76.0911C105.622 74.9945 106.325 74.0472 107.278 73.4106C108.231 72.7741 109.375 72.4876 110.515 72.6001C111.656 72.7126 112.722 73.217 113.532 74.0275C113.993 74.4867 114.359 75.0328 114.608 75.634C114.857 76.2353 114.984 76.8799 114.983 77.5306Z" fill="#AD4D4D"/>
<path d="M114.983 63.8229C114.982 66.3282 114.053 68.7558 112.353 70.6921C110.654 72.6284 108.289 73.9537 105.662 74.442C103.035 74.9304 100.308 74.5516 97.9459 73.3703C95.5838 72.189 93.7328 70.2782 92.7082 67.9635C91.6835 65.6488 91.5486 63.0734 92.3265 60.6761C93.1044 58.2788 94.7469 56.2079 96.9743 54.8164C99.2016 53.4248 101.876 52.7986 104.541 53.0445C107.207 53.2904 109.699 54.3931 111.593 56.1648C112.67 57.1688 113.525 58.3624 114.107 59.6768C114.688 60.9912 114.986 62.4003 114.983 63.8229Z" fill="#AD4D4D"/>
<path d="M124.083 82.3109C124.083 83.5502 123.653 84.7511 122.867 85.7089C122.081 86.6668 120.986 87.3224 119.771 87.564C118.555 87.8055 117.294 87.6182 116.201 87.0338C115.108 86.4494 114.251 85.5042 113.777 84.3591C113.303 83.2141 113.241 81.9401 113.601 80.7542C113.961 79.5683 114.721 78.5439 115.751 77.8555C116.782 77.1671 118.019 76.8574 119.252 76.979C120.486 77.1006 121.639 77.6461 122.515 78.5226C123.013 79.02 123.407 79.6106 123.676 80.2606C123.945 80.9106 124.084 81.6073 124.083 82.3109Z" fill="#AD4D4D"/>
<path d="M137.613 79.9147C137.708 81.1155 138.345 82.2538 139.415 83.1358C140.485 84.0177 141.921 84.5888 143.48 84.7516C145.039 84.9144 146.623 84.6589 147.963 84.0286C149.303 83.3983 150.315 82.4322 150.828 81.295C151.341 80.1578 151.323 78.9197 150.776 77.7917C150.229 76.6638 149.188 75.7157 147.829 75.109C146.471 74.5024 144.879 74.2747 143.326 74.4647C141.773 74.6548 140.353 75.2508 139.31 76.1512C138.718 76.6625 138.263 77.2581 137.972 77.9038C137.681 78.5496 137.558 79.2329 137.613 79.9147Z" fill="#AD4D4D"/>
<path d="M140.121 67.8213C140.3 70.7741 141.498 73.5733 143.51 75.7422C145.521 77.911 148.223 79.3152 151.154 79.7155C154.085 80.1159 157.064 79.4875 159.583 77.9376C162.103 76.3877 164.007 74.0122 164.972 71.2156C165.936 68.4191 165.902 65.3745 164.873 62.6008C163.845 59.827 161.887 57.4956 159.332 56.0038C156.778 54.512 153.785 53.9521 150.864 54.4194C147.943 54.8867 145.275 56.3524 143.313 58.5667C142.197 59.8223 141.34 61.2866 140.792 62.8749C140.244 64.4633 140.016 66.1444 140.121 67.8213Z" fill="#AD4D4D"/>
<path d="M67.4763 89.5392C66.3322 88.597 65.2731 87.5561 64.3111 86.4286C63.3542 85.3381 62.4682 84.1522 61.5849 82.9417C60.9379 82.0044 60.2284 81.1118 59.4611 80.27C58.5206 79.2831 57.4492 78.4925 56.5577 78.7733C56.3904 78.8284 56.2382 78.9217 56.1133 79.0459C55.9849 79.1648 55.8819 79.3086 55.8107 79.4685C55.6498 79.8456 55.5906 80.2582 55.639 80.6653C55.729 81.3988 55.9734 82.105 56.356 82.7372C56.4961 82.9846 56.6499 83.224 56.8167 83.4542C56.983 83.686 57.1575 83.9095 57.3347 84.1303C57.4549 84.2807 57.566 84.4382 57.6673 84.602C57.7459 84.7299 57.8177 84.8619 57.8827 84.9973C58.0033 85.2268 58.1027 85.4668 58.1798 85.7143C58.2207 85.8181 58.238 85.9296 58.2304 86.0409C58.2229 86.1522 58.1907 86.2604 58.1362 86.3577C58.0602 86.4598 57.953 86.5345 57.8309 86.5703C57.7419 86.5967 57.6506 86.614 57.5582 86.6221C56.4214 86.7285 54.8729 85.5616 53.6106 84.3648C52.8148 83.6055 52.0664 82.7979 51.3697 81.9466C51.1979 81.7394 50.1565 80.4881 48.9597 79.2749C47.7629 78.0618 46.4052 76.8867 45.6037 76.8213C45.4038 76.8072 45.203 76.8312 45.0121 76.8922C44.9332 76.9161 44.8572 76.949 44.7858 76.9903C44.4734 77.2073 44.2566 77.5363 44.1806 77.9091C44.1167 78.1668 44.0856 78.4315 44.0879 78.697C43.8806 78.628 43.6653 78.5859 43.4473 78.5716C43.1613 78.5475 42.8751 78.6143 42.6294 78.7624C42.4266 78.918 42.2624 79.1182 42.1494 79.3475C42.0364 79.5768 41.9777 79.829 41.9778 80.0846C41.9483 80.798 42.1386 81.5031 42.5231 82.1048C42.3447 82.1441 42.1791 82.2277 42.0414 82.3477C41.9038 82.4678 41.7985 82.6204 41.7352 82.7918C41.4789 83.4052 41.498 84.5584 42.5967 86.7203C44.9617 91.02 47.8871 94.9868 51.2961 98.5167C54.6931 102.034 58.4808 105.152 62.5854 107.81L65.9305 99.3455L69.2756 90.8941C68.973 90.6815 68.6731 90.4634 68.3759 90.2426C68.0788 90.0217 67.7652 89.7737 67.4763 89.5392Z" fill="#FFAA9F"/>
<path d="M145.768 86.5002C145.767 89.2759 144.803 91.9652 143.04 94.1096C141.278 96.2541 138.826 97.721 136.104 98.2603C133.381 98.7996 130.555 98.378 128.109 97.0673C125.662 95.7566 123.745 93.6379 122.686 91.0724C121.626 88.5069 121.489 85.6533 122.298 82.9981C123.107 80.3428 124.811 78.0503 127.121 76.5111C129.431 74.972 132.203 74.2816 134.965 74.5575C137.727 74.8334 140.308 76.0587 142.268 78.0244C143.381 79.1369 144.263 80.4584 144.864 81.9129C145.465 83.3675 145.772 84.9265 145.768 86.5002Z" fill="#FFAA9F"/>
<path d="M129.91 82.4954C129.911 82.6678 129.853 82.8354 129.744 82.9694C129.636 83.1034 129.484 83.1956 129.315 83.2302C129.146 83.2648 128.971 83.2397 128.818 83.1592C128.666 83.0786 128.546 82.9477 128.479 82.7886C128.413 82.6296 128.403 82.4524 128.453 82.2872C128.503 82.1221 128.608 81.9792 128.751 81.8831C128.894 81.787 129.066 81.7436 129.238 81.7603C129.41 81.777 129.57 81.8528 129.692 81.9747C129.831 82.1126 129.909 82.2998 129.91 82.4954Z" fill="#2B3D0A"/>
<path d="M137.481 82.495C137.481 82.666 137.422 82.8318 137.313 82.964C137.205 83.0963 137.054 83.1868 136.886 83.2202C136.718 83.2536 136.544 83.2278 136.393 83.1472C136.243 83.0665 136.125 82.9361 136.059 82.778C135.994 82.62 135.985 82.4442 136.035 82.2806C136.085 82.117 136.19 81.9757 136.332 81.8808C136.474 81.786 136.645 81.7435 136.815 81.7605C136.986 81.7775 137.145 81.8531 137.265 81.9743C137.403 82.1126 137.48 82.2998 137.481 82.495Z" fill="#2B3D0A"/>
<path d="M133.203 89.6405C132.821 89.6396 132.442 89.5675 132.085 89.4279C131.722 89.2857 131.387 89.0777 131.098 88.8145C130.774 88.5228 130.512 88.1687 130.327 87.7734C130.143 87.378 130.04 86.9495 130.024 86.5135C130.022 86.4687 130.029 86.424 130.045 86.3819C130.06 86.3398 130.084 86.3011 130.114 86.2682C130.177 86.2032 130.262 86.1642 130.352 86.1591C130.396 86.1558 130.442 86.1621 130.484 86.1776C130.526 86.1931 130.565 86.2175 130.597 86.2491C130.662 86.3124 130.701 86.3981 130.706 86.489C130.716 86.8334 130.797 87.172 130.943 87.4841C131.092 87.7944 131.3 88.0724 131.556 88.3019C131.799 88.5249 132.084 88.6972 132.393 88.809C132.696 88.9212 133.018 88.9685 133.339 88.948C133.958 88.9062 134.538 88.6292 134.959 88.1738C135.393 87.7144 135.644 87.1123 135.665 86.4808C135.669 86.3897 135.708 86.3037 135.774 86.2409C135.806 86.2099 135.844 86.1859 135.886 86.1704C135.928 86.155 135.972 86.1483 136.017 86.1509C136.107 86.1545 136.192 86.1934 136.254 86.2592C136.315 86.325 136.349 86.4124 136.346 86.5026C136.32 87.3039 135.999 88.0674 135.447 88.6482C134.907 89.2236 134.17 89.5734 133.383 89.6269H133.293L133.203 89.6405Z" fill="#AD4D4D"/>
<path d="M129.679 79.1639C130.56 78.8349 131.387 78.3754 132.132 77.8007C132.645 77.403 133.116 76.9546 133.539 76.4621C133.929 76.9935 134.381 77.4776 134.883 77.9043C135.682 78.5862 136.609 79.1015 137.609 79.4201C138.637 79.7446 139.722 79.8513 140.794 79.7336C141.627 79.6415 142.444 79.4332 143.22 79.1148C142.117 77.7101 140.716 76.5684 139.117 75.7724C137.424 74.933 135.556 74.5056 133.666 74.525C131.776 74.5445 129.918 75.0102 128.242 75.8842C126.588 76.7526 125.159 77.9929 124.065 79.5074C124.863 79.6947 125.68 79.7862 126.5 79.78C127.587 79.7602 128.663 79.5518 129.679 79.1639Z" fill="#AD4D4D"/>
<path d="M46.2124 83.2661C46.1979 83.2661 46.1836 83.2638 46.1698 83.2592C46.1549 83.2547 46.1409 83.2477 46.1283 83.2385C45.5523 82.8249 44.6307 81.7801 43.8243 80.8193C43.0179 79.8585 42.3521 78.9853 42.2979 78.9139C42.2864 78.8988 42.278 78.8815 42.2732 78.8631C42.2684 78.8448 42.2672 78.8256 42.2698 78.8068C42.2723 78.788 42.2786 78.7698 42.2882 78.7534C42.2977 78.737 42.3104 78.7226 42.3256 78.7111C42.3407 78.6996 42.3579 78.6912 42.3763 78.6864C42.3947 78.6816 42.4138 78.6804 42.4327 78.683C42.4515 78.6855 42.4696 78.6918 42.4861 78.7014C42.5025 78.7109 42.5168 78.7237 42.5283 78.7388C42.5422 78.7561 43.2069 79.6224 44.0063 80.582C44.8058 81.5416 45.7424 82.6014 46.2988 83.0012C46.3142 83.0121 46.3272 83.026 46.3371 83.042C46.347 83.058 46.3536 83.0759 46.3564 83.0945C46.3625 83.1322 46.3534 83.1707 46.3311 83.2016C46.3175 83.2204 46.2998 83.2358 46.2792 83.2466C46.2589 83.2585 46.236 83.2652 46.2124 83.2661Z" fill="#AD4D4D"/>
<path d="M45.3459 84.514C45.3281 84.514 45.3105 84.5105 45.2941 84.5036C45.2765 84.497 45.2604 84.4868 45.2469 84.4737C44.9646 84.2064 44.6858 83.9311 44.4128 83.6511C44.1398 83.3712 43.8725 83.0855 43.6064 82.7964C43.2562 82.4077 42.9156 82.0092 42.5846 81.6006C42.2536 81.192 41.9345 80.7757 41.6273 80.3518C41.605 80.3209 41.5959 80.2823 41.6019 80.2447C41.6049 80.2261 41.6115 80.2083 41.6214 80.1923C41.6313 80.1763 41.6443 80.1624 41.6595 80.1514C41.6747 80.1399 41.692 80.1317 41.7104 80.1272C41.7288 80.1226 41.748 80.1218 41.7667 80.1249C41.804 80.1314 41.8374 80.152 41.86 80.1825C42.1641 80.6018 42.4809 81.0154 42.8081 81.4186C43.1352 81.8218 43.4739 82.225 43.8195 82.6028C44.0776 82.8893 44.3422 83.1715 44.6133 83.4495C44.884 83.7272 45.1605 84.0002 45.4392 84.2652C45.4668 84.2916 45.4829 84.3278 45.484 84.3659C45.4851 84.4041 45.4711 84.4411 45.445 84.4691C45.4312 84.4832 45.4148 84.4946 45.3966 84.5025C45.3805 84.5091 45.3634 84.5129 45.3459 84.514Z" fill="#AD4D4D"/>
<path d="M84.211 50.0564C84.1367 48.6373 83.5205 47.301 82.4897 46.3229C81.4589 45.3448 80.0921 44.7996 78.6711 44.7998H64.6754C63.2759 44.8006 61.9284 45.3302 60.903 46.2826C59.8775 47.235 59.2499 48.5398 59.1458 49.9354C58.4175 49.9354 57.6962 50.0789 57.0233 50.3577C56.3504 50.6364 55.739 51.045 55.224 51.5601C54.709 52.0752 54.3005 52.6867 54.0219 53.3597C53.7433 54.0327 53.5999 54.7539 53.6001 55.4823C53.6001 56.2107 53.7436 56.9319 54.0224 57.6048C54.3011 58.2777 54.7097 58.8891 55.2248 59.4041C55.7399 59.9191 56.3514 60.3276 57.0244 60.6062C57.6973 60.8848 58.4186 61.0282 59.147 61.028H83.0441C83.7724 61.0282 84.4937 60.8848 85.1667 60.6062C85.8396 60.3276 86.4511 59.9191 86.9662 59.4041C87.4813 58.8891 87.8899 58.2777 88.1687 57.6048C88.4475 56.9319 88.5909 56.2107 88.5909 55.4823C88.5913 54.214 88.1569 52.984 87.3604 51.9971C86.5638 51.0102 85.4531 50.326 84.2133 50.0587L84.211 50.0564Z" fill="#F4ECE5"/>
<path d="M106.746 91.0077H105.479C105.456 91.008 105.434 91.0037 105.413 90.995C105.392 90.9862 105.373 90.9733 105.357 90.957C105.341 90.941 105.328 90.922 105.319 90.901C105.31 90.8801 105.306 90.8576 105.306 90.8349C105.306 90.7891 105.324 90.7452 105.357 90.7128C105.373 90.6967 105.392 90.6839 105.413 90.6752C105.434 90.6665 105.456 90.6621 105.479 90.6621H106.746C106.769 90.6621 106.791 90.6665 106.812 90.6752C106.833 90.6839 106.852 90.6967 106.868 90.7128C106.9 90.7452 106.919 90.7891 106.919 90.8349C106.919 90.8576 106.914 90.8801 106.906 90.901C106.897 90.922 106.884 90.941 106.868 90.957C106.852 90.9733 106.833 90.9862 106.812 90.995C106.791 91.0037 106.769 91.008 106.746 91.0077Z" fill="#666538"/>
<path d="M65.5249 108.747H65.4785C65.4623 108.75 65.4458 108.75 65.4296 108.747C65.3913 108.736 65.3559 108.716 65.3256 108.69C65.2953 108.664 65.2708 108.631 65.2538 108.595C65.2331 108.558 65.2206 108.517 65.2172 108.475C65.2139 108.432 65.2197 108.39 65.2342 108.35L67.7988 100.42L70.3658 92.4905C70.3777 92.4519 70.3973 92.4161 70.4233 92.3853C70.4493 92.3545 70.4813 92.3294 70.5172 92.3113C70.5544 92.2911 70.5954 92.2791 70.6375 92.2761C70.6796 92.2732 70.7219 92.2793 70.7615 92.2941C70.8001 92.3057 70.8358 92.3252 70.8665 92.3514C70.8972 92.3776 70.9222 92.4099 70.9398 92.4463C70.9599 92.4836 70.972 92.5247 70.9753 92.5669C70.9787 92.6092 70.9732 92.6517 70.9593 92.6917L68.3703 100.604L65.8057 108.534C65.7858 108.596 65.7464 108.65 65.6934 108.688C65.6442 108.724 65.5856 108.745 65.5249 108.747Z" fill="#2B3D0A"/>
<path d="M65.2101 109.669H65.1591C65.1413 109.671 65.1232 109.671 65.1054 109.669C65.0633 109.656 65.0243 109.635 64.991 109.606C64.9577 109.577 64.9307 109.542 64.9119 109.503C64.8892 109.462 64.8755 109.417 64.8718 109.371C64.868 109.325 64.8744 109.278 64.8904 109.235L67.7115 100.584L70.5352 91.9339C70.5483 91.8918 70.5698 91.8527 70.5984 91.8192C70.627 91.7856 70.6622 91.7581 70.7017 91.7384C70.7426 91.7163 70.7877 91.7032 70.834 91.7C70.8804 91.6968 70.9269 91.7035 70.9704 91.7197C71.0129 91.7323 71.0522 91.7535 71.086 91.7821C71.1197 91.8107 71.1472 91.846 71.1665 91.8857C71.1886 91.9263 71.202 91.9712 71.2057 92.0173C71.2094 92.0634 71.2034 92.1097 71.188 92.1534L68.3401 100.785L65.5191 109.436C65.4972 109.504 65.4539 109.563 65.3955 109.604C65.3414 109.643 65.2769 109.666 65.2101 109.669Z" fill="#2B3D0A"/>
<path d="M199.248 95.2553L199.298 95.232C199.317 95.2261 199.335 95.2178 199.351 95.2074C199.387 95.1764 199.416 95.1388 199.436 95.0971C199.457 95.0553 199.468 95.0104 199.469 94.9651C199.474 94.9172 199.468 94.8694 199.452 94.8248C199.435 94.7803 199.409 94.7402 199.375 94.7072L192.869 87.9833L186.361 81.2606C186.33 81.2276 186.292 81.2013 186.249 81.1832C186.206 81.1652 186.16 81.1559 186.113 81.1557C186.063 81.1539 186.013 81.1625 185.966 81.1807C185.919 81.1989 185.877 81.2264 185.841 81.2613C185.805 81.2924 185.775 81.3301 185.755 81.372C185.734 81.414 185.722 81.4592 185.72 81.5048C185.716 81.5526 185.722 81.6003 185.739 81.6447C185.755 81.6891 185.781 81.7293 185.815 81.7627L192.339 88.457L198.844 95.1809C198.895 95.2339 198.963 95.2689 199.039 95.2806C199.109 95.292 199.182 95.2832 199.248 95.2553Z" fill="#2B3D0A"/>
<path d="M108.071 118.803L110.771 115.812L113.471 112.819V94.438C114.106 94.3176 114.751 94.2025 115.405 94.093C116.058 93.9834 116.719 93.8748 117.387 93.7671C118.324 93.6229 119.248 93.4887 120.159 93.3645C121.071 93.2413 121.966 93.129 122.851 93.0277V108.553C122.851 109.721 123.315 110.842 124.141 111.669C124.967 112.496 126.088 112.961 127.257 112.962H141.519C142.688 112.961 143.809 112.496 144.635 111.669C145.461 110.842 145.926 109.721 145.926 108.553V92.2773C146.671 92.3376 147.424 92.3978 148.182 92.4663C148.941 92.5348 149.708 92.6087 150.48 92.6854C151.375 92.7785 152.263 92.8743 153.136 92.9757C154.01 93.077 154.875 93.1811 155.727 93.2906V112.962L158.049 115.801L160.371 118.641V131.466H108.857L108.462 125.134L108.071 118.803Z" fill="#FF94AC"/>
<path d="M118.614 121.301C117.808 121.3 117.027 121.02 116.405 120.508C115.782 119.997 115.357 119.285 115.2 118.494C115.043 117.704 115.166 116.883 115.546 116.173C115.927 115.463 116.542 114.906 117.286 114.598C118.031 114.29 118.86 114.25 119.631 114.485C120.402 114.719 121.067 115.214 121.515 115.884C121.962 116.554 122.163 117.359 122.083 118.161C122.004 118.963 121.649 119.713 121.079 120.282C120.756 120.606 120.371 120.864 119.948 121.038C119.525 121.213 119.072 121.302 118.614 121.301ZM118.614 115.714C118.125 115.714 117.65 115.883 117.272 116.193C116.894 116.503 116.634 116.935 116.539 117.414C116.443 117.894 116.516 118.392 116.747 118.824C116.977 119.256 117.35 119.594 117.802 119.781C118.254 119.969 118.757 119.994 119.225 119.852C119.693 119.71 120.098 119.41 120.37 119.003C120.641 118.596 120.764 118.108 120.716 117.621C120.668 117.134 120.452 116.679 120.106 116.333C119.911 116.136 119.678 115.98 119.422 115.874C119.166 115.768 118.891 115.713 118.614 115.714Z" fill="#F4ECE5"/>
<path d="M150.984 121.301C150.178 121.3 149.397 121.02 148.775 120.508C148.152 119.997 147.726 119.285 147.57 118.494C147.413 117.704 147.536 116.883 147.916 116.173C148.296 115.463 148.911 114.906 149.656 114.598C150.401 114.29 151.229 114.25 152 114.485C152.771 114.719 153.437 115.214 153.885 115.884C154.332 116.554 154.533 117.359 154.453 118.161C154.374 118.963 154.019 119.713 153.448 120.282C153.125 120.606 152.741 120.864 152.318 121.038C151.895 121.213 151.442 121.302 150.984 121.301ZM150.984 115.714C150.495 115.714 150.02 115.883 149.642 116.193C149.263 116.503 149.004 116.935 148.908 117.414C148.813 117.894 148.886 118.392 149.117 118.824C149.347 119.256 149.72 119.594 150.172 119.781C150.624 119.969 151.127 119.994 151.595 119.852C152.063 119.71 152.468 119.41 152.739 119.003C153.011 118.596 153.134 118.108 153.086 117.621C153.038 117.134 152.822 116.679 152.476 116.333C152.281 116.136 152.048 115.98 151.792 115.874C151.536 115.768 151.261 115.713 150.984 115.714Z" fill="#F4ECE5"/>
<path d="M135.718 67.0482C135.718 70.0599 134.599 72.9782 132.553 75.3059C130.507 77.6336 127.659 79.2267 124.496 79.8138C121.333 80.4008 118.05 79.9455 115.206 78.5254C112.363 77.1053 110.134 74.8083 108.9 72.0257C107.667 69.2432 107.504 66.1472 108.441 63.2653C109.377 60.3835 111.355 57.8941 114.037 56.2212C116.718 54.5484 119.938 53.7956 123.147 54.0912C126.357 54.3868 129.357 55.7124 131.637 57.8422C132.934 59.0491 133.963 60.484 134.664 62.064C135.364 63.6441 135.723 65.3381 135.718 67.0482Z" fill="#AD4D4D"/>
<path d="M116.826 48.1556C116.825 51.1673 115.707 54.0856 113.66 56.4133C111.614 58.741 108.767 60.3341 105.604 60.9212C102.441 61.5083 99.1577 61.053 96.3139 59.6329C93.4701 58.2128 91.2414 55.9157 90.0078 53.1332C88.7741 50.3506 88.6117 47.2546 89.5483 44.3727C90.4849 41.4909 92.4625 39.0015 95.1441 37.3286C97.8257 35.6558 101.045 34.903 104.255 35.1986C107.464 35.4942 110.464 36.8198 112.744 38.9497C114.042 40.1565 115.07 41.5914 115.771 43.1715C116.472 44.7515 116.83 46.4455 116.826 48.1556Z" fill="#AD4D4D"/>
<path d="M91.0784 10.6195C91.0779 13.6311 89.9592 16.5495 87.9129 18.8772C85.8666 21.2049 83.0194 22.798 79.8564 23.3851C76.6934 23.9721 73.4103 23.5168 70.5665 22.0967C67.7226 20.6766 65.494 18.3796 64.2603 15.597C63.0267 12.8144 62.8643 9.71846 63.8009 6.83661C64.7374 3.95476 66.715 1.46535 69.3966 -0.207495C72.0783 -1.88034 75.298 -2.63311 78.5073 -2.33752C81.7166 -2.04194 84.7169 -0.716309 86.997 1.41352C88.2944 2.62038 89.323 4.05527 90.0236 5.63533C90.7241 7.21539 91.0826 8.90936 91.0784 10.6195Z" fill="#AD4D4D"/>
<path d="M181.338 51.3825C181.337 55.6201 179.765 59.7264 176.89 63.0017C174.015 66.277 170.015 68.5187 165.571 69.3447C161.127 70.1707 156.515 69.5301 152.519 67.5319C148.524 65.5337 145.393 62.3016 143.659 58.3863C141.926 54.471 141.698 50.1147 143.014 46.0597C144.33 42.0047 147.108 38.5019 150.876 36.1481C154.643 33.7943 159.167 32.7351 163.676 33.151C168.185 33.5669 172.4 35.4321 175.603 38.429C177.426 40.1271 178.871 42.1461 179.856 44.3694C180.84 46.5927 181.344 48.9762 181.338 51.3825Z" fill="#AD4D4D"/>
<path d="M204.768 10.32C204.767 14.5576 203.195 18.6639 200.321 21.9392C197.446 25.2145 193.445 27.4562 189.002 28.2822C184.558 29.1082 179.945 28.4676 175.95 26.4694C171.954 24.4712 168.823 21.2391 167.09 17.3238C165.356 13.4085 165.128 9.05219 166.444 4.9972C167.76 0.942205 170.538 -2.5606 174.306 -4.91442C178.074 -7.26825 182.597 -8.32745 187.106 -7.91154C191.615 -7.49563 195.83 -5.63036 199.034 -2.63353C200.857 -0.935377 202.302 1.08363 203.286 3.3069C204.27 5.53017 204.774 7.91371 204.768 10.32Z" fill="#AD4D4D"/>
<path d="M185.6 28.0052C185.599 34.6682 183.127 41.1246 178.605 46.2745C174.084 51.4243 167.793 54.9489 160.804 56.2477C153.815 57.5465 146.561 56.5392 140.277 53.3974C133.993 50.2556 129.069 45.1736 126.343 39.0175C123.617 32.8613 123.258 26.0118 125.328 19.636C127.397 13.2603 131.767 7.75272 137.692 4.05173C143.617 0.350749 150.732 -1.31466 157.823 -0.660713C164.914 -0.00676632 171.544 2.92604 176.582 7.63805C179.448 10.3081 181.721 13.4826 183.269 16.9783C184.817 20.474 185.609 24.2218 185.6 28.0052Z" fill="#AD4D4D"/>
<path d="M139.2 20.805C139.199 27.468 136.727 33.9244 132.205 39.0743C127.684 44.2241 121.393 47.7487 114.404 49.0475C107.415 50.3463 100.161 49.339 93.8768 46.1972C87.5931 43.0554 82.6688 37.9734 79.9429 31.8173C77.217 25.6611 76.8582 18.8116 78.9276 12.4359C80.9971 6.06007 85.3667 0.552524 91.292 -3.14846C97.2173 -6.84945 104.332 -8.51485 111.423 -7.86091C118.514 -7.20696 125.144 -4.27415 130.182 0.43785C133.048 3.1079 135.321 6.28243 136.869 9.77814C138.417 13.2739 139.209 17.0216 139.2 20.805Z" fill="#AD4D4D"/>
<path d="M149.542 45.9684C149.542 50.2061 147.97 54.3124 145.095 57.5877C142.22 60.8629 138.22 63.1046 133.776 63.9306C129.332 64.7567 124.719 64.116 120.724 62.1178C116.729 60.1196 113.597 56.8875 111.864 52.9722C110.131 49.0569 109.903 44.7006 111.219 40.6456C112.534 36.5906 115.313 33.0878 119.08 30.734C122.848 28.3802 127.372 27.321 131.881 27.7369C136.39 28.1528 140.605 30.0181 143.808 33.0149C145.631 34.7131 147.076 36.7321 148.06 38.9553C149.045 41.1786 149.548 43.5621 149.542 45.9684Z" fill="#AD4D4D"/>
<path d="M157.146 65.4359C157.145 68.4476 156.027 71.3659 153.98 73.6936C151.934 76.0213 149.087 77.6144 145.924 78.2015C142.761 78.7885 139.478 78.3332 136.634 76.9131C133.79 75.493 131.561 73.196 130.328 70.4134C129.094 67.6308 128.932 64.5349 129.868 61.653C130.805 58.7712 132.782 56.2818 135.464 54.6089C138.146 52.9361 141.365 52.1833 144.575 52.4789C147.784 52.7745 150.784 54.1001 153.064 56.2299C154.362 57.4368 155.39 58.8717 156.091 60.4517C156.791 62.0318 157.15 63.7258 157.146 65.4359Z" fill="#AD4D4D"/>
<path d="M208.498 30.7729C208.504 30.7027 208.508 30.6324 208.511 30.561C208.515 30.4895 208.511 30.4181 208.511 30.3455C208.511 28.8747 207.927 27.4641 206.887 26.4241C205.847 25.3841 204.436 24.7998 202.965 24.7998H183.945C182.474 24.8007 181.064 25.3853 180.025 26.4252C178.985 27.4651 178.401 28.8751 178.4 30.3455C178.4 31.8166 178.985 33.2273 180.025 34.2674C181.065 35.3076 182.476 35.8921 183.947 35.8924H189.613C189.613 35.9097 189.613 35.9281 189.613 35.9454C189.613 35.9627 189.613 35.98 189.613 35.9984C189.613 37.4692 190.197 38.8798 191.237 39.9198C192.277 40.9598 193.687 41.5441 195.158 41.5441H206.639C207.367 41.5443 208.089 41.4009 208.762 41.1223C209.435 40.8437 210.046 40.4352 210.561 39.9202C211.076 39.4052 211.485 38.7938 211.764 38.1209C212.043 37.448 212.186 36.7268 212.186 35.9984C212.185 34.8536 211.831 33.7369 211.171 32.8014C210.511 31.8659 209.578 31.1574 208.5 30.7729H208.498Z" fill="#F4ECE5"/>
<path d="M140.149 11.1457C140.022 11.5765 139.679 12.7585 139.359 14.2757C139.038 15.7929 138.739 17.6349 138.698 19.3859C138.689 19.8203 138.678 20.2972 138.698 20.8352C138.718 21.4444 138.775 22.0519 138.869 22.6542C138.946 23.1576 139.014 23.4606 139.099 23.8062C139.185 24.1518 139.271 24.5388 139.397 25.2151C139.522 25.8913 139.605 26.4892 139.663 27.0156C139.72 27.5421 139.751 27.9879 139.77 28.3335C139.754 28.9211 139.721 29.5239 139.673 30.1422C139.624 30.7596 139.558 31.3909 139.47 32.0349C139.075 34.9613 138.318 37.8274 137.218 40.5678C136.317 42.8106 135.21 44.9652 133.912 47.004H132.414C133.012 45.7115 133.736 44.0987 134.498 42.2658C135.261 40.433 136.064 38.3836 136.822 36.2167C137.119 35.3676 137.43 34.4414 137.682 33.4081C137.961 32.275 138.129 31.1176 138.184 29.9521C138.219 29.1768 138.202 28.4418 138.17 27.8462C138.137 27.2507 138.09 26.7968 138.067 26.579C137.98 25.7974 137.854 25.0208 137.688 24.252C137.557 23.6483 137.44 23.2359 137.398 23.0735C137.179 22.2429 137.052 20.9999 137.186 19.0703C137.32 17.1407 137.724 14.5118 138.568 10.9072L139.359 11.0224L140.149 11.1457Z" fill="#F4ECE5"/>
<path d="M145.75 24.9512H147.577C147.281 25.2634 146.941 25.6424 146.578 26.087C146.215 26.5317 145.829 27.0444 145.443 27.6227C145.163 28.0408 144.811 28.5708 144.455 29.2101C144.052 29.9297 143.712 30.6828 143.44 31.4611C143.098 32.4456 142.877 33.468 142.783 34.5059C142.713 35.3557 142.692 36.2088 142.72 37.061C142.733 38.0776 142.839 39.0909 143.035 40.0885C143.225 41.0192 143.327 41.9657 143.341 42.9155C143.353 43.8718 143.289 44.8275 143.148 45.7736C143.043 46.4914 142.895 47.2023 142.705 47.9025H140.962C141.21 47.1662 141.405 46.4132 141.546 45.6492C141.731 44.6448 141.817 43.6245 141.8 42.6033C141.785 41.7114 141.677 40.8235 141.479 39.9537C141.27 38.9775 141.157 37.9832 141.142 36.985C141.113 36.1678 141.133 35.3496 141.2 34.5347C141.298 33.4374 141.522 32.355 141.867 31.3091C142.123 30.5395 142.441 29.7918 142.817 29.073C143.136 28.4613 143.432 27.9901 143.623 27.678C143.964 27.1401 144.334 26.6206 144.73 26.1216C145.096 25.6689 145.441 25.2783 145.75 24.9512Z" fill="#F4ECE5"/>
<path d="M149.336 28.4251L146.016 26.2029L142.695 23.9807C142.67 23.9629 142.65 23.9379 142.638 23.9088C142.626 23.8797 142.623 23.8478 142.63 23.8171C142.635 23.7839 142.648 23.7524 142.668 23.7254C142.688 23.6985 142.715 23.677 142.745 23.6627L144.43 22.8563L146.117 22.0499C146.506 21.8601 146.936 21.7695 147.368 21.7861C147.779 21.8037 148.178 21.9336 148.52 22.1617C148.835 22.3736 149.092 22.6621 149.265 23.0003C149.445 23.3542 149.541 23.7449 149.545 24.1419L149.578 26.1937L149.611 28.2454C149.611 28.2802 149.603 28.3145 149.586 28.3451C149.57 28.3757 149.546 28.4016 149.516 28.4205C149.49 28.439 149.459 28.4492 149.427 28.4501C149.395 28.4509 149.363 28.4422 149.336 28.4251Z" fill="#F98638"/>
<path d="M145.318 12.306L139.504 11.283L133.691 10.2589C133.646 10.2497 133.604 10.228 133.571 10.1961C133.538 10.1643 133.515 10.1238 133.504 10.0792C133.491 10.032 133.49 9.98232 133.5 9.93454C133.511 9.88676 133.533 9.84229 133.565 9.80502L135.356 7.74179L137.149 5.6797C137.562 5.19765 138.088 4.82526 138.68 4.59567C139.248 4.37714 139.864 4.31663 140.463 4.42057C141.015 4.5185 141.534 4.75382 141.971 5.10486C142.425 5.47006 142.789 5.9358 143.032 6.46537L144.306 9.18524L145.58 11.9051C145.601 11.9511 145.61 12.0017 145.606 12.0521C145.602 12.1025 145.585 12.1511 145.557 12.1931C145.533 12.2332 145.497 12.2652 145.454 12.2853C145.412 12.3053 145.364 12.3125 145.318 12.306Z" fill="#F98638"/>
<path d="M122.72 22.9481L125.617 22.9227L128.516 22.8974C129.401 22.7461 130.2 22.2756 130.762 21.5749C131.324 20.8825 131.611 20.0073 131.568 19.1165C131.521 18.1799 131.115 17.5037 130.482 17.0533C129.85 16.6028 128.985 16.3794 128.038 16.3483C128.597 16.477 129.181 16.4405 129.72 16.2434C130.229 16.0598 130.666 15.7179 130.967 15.2677C131.288 14.768 131.419 14.1703 131.338 13.5823C131.281 13.0798 131.089 12.6021 130.783 12.1999C130.287 11.5836 129.571 11.2322 128.796 11.0479C128.027 10.8802 127.238 10.8224 126.452 10.8763C126.437 10.8763 126.325 10.8763 126.215 10.8878C126.141 10.8857 126.068 10.8966 125.997 10.92H125.974C125.963 10.92 125.951 10.92 125.95 10.92C125.949 10.92 126.384 10.8048 126.948 10.5664C127.511 10.3279 128.201 9.96502 128.702 9.42703C129.03 9.07066 129.278 8.64899 129.43 8.18979C129.604 7.70801 129.604 7.18088 129.43 6.6991C129.304 6.38871 129.104 6.11414 128.846 5.89961C128.689 5.76542 128.516 5.64948 128.333 5.55401C127.331 5.02064 126.144 5.1174 125.189 5.36163C124.576 5.51275 123.986 5.74521 123.434 6.05283C123.646 4.54256 123.516 3.19241 123.14 2.15331C122.765 1.1142 122.144 0.386138 121.377 0.117722C121.037 0.00245822 120.675 -0.0287686 120.32 0.0267151C120.136 0.0520067 119.956 0.099987 119.784 0.169563C119.034 0.484059 118.455 1.23862 118.138 2.28118C117.822 3.32374 117.764 4.65315 118.056 6.11964C117.349 5.93182 116.623 5.82287 115.892 5.79478C114.838 5.76483 113.668 5.9503 113.034 6.76937C112.977 6.84239 112.925 6.91938 112.878 6.99977C112.828 7.08825 112.784 7.18026 112.747 7.2751C112.662 7.52766 112.614 7.79108 112.604 8.05731C112.598 8.24537 112.615 8.43349 112.656 8.61718C112.785 9.19318 113.146 9.71273 113.681 10.1413C114.295 10.609 115.002 10.938 115.755 11.1055C115.019 11.0398 114.079 11.0295 113.221 11.2437C112.362 11.458 111.59 11.8935 111.19 12.7229C110.968 13.1832 110.891 13.6995 110.968 14.2044C111.044 14.7116 111.264 15.1864 111.601 15.573C111.953 15.9715 112.385 16.2917 112.868 16.513C113.575 16.8272 114.337 16.9994 115.111 17.0199L115.818 17.0014L116.526 16.983C116.266 17.0072 116.02 17.021 115.785 17.0268C115.55 17.0325 115.324 17.0268 115.111 17.0199L114.101 17.0475L113.09 17.074C112.304 17.0962 111.553 17.4085 110.982 17.9507C110.411 18.4891 110.07 19.2284 110.033 20.0128C110.012 20.4373 110.079 20.8616 110.23 21.259C110.381 21.6564 110.612 22.0183 110.909 22.3222C111.207 22.6261 111.563 22.8654 111.957 23.025C112.351 23.1846 112.774 23.2612 113.199 23.2499L115.522 23.1658L117.845 23.0828L117.876 32.99L117.906 42.8972H122.744C122.744 41.1692 122.737 37.0416 122.734 32.9198C122.73 28.7979 122.723 24.6818 122.72 22.9481Z" fill="#BAB653"/>
<path d="M122.7 22.9297H121.337H119.975L121.337 25.0344L122.7 27.1402V25.0344V22.9297Z" fill="#353519"/>
<path d="M125.999 11.0878H124.732C124.709 11.0881 124.687 11.0838 124.666 11.075C124.645 11.0663 124.626 11.0534 124.61 11.0371C124.594 11.0211 124.581 11.0021 124.572 10.9811C124.564 10.9602 124.559 10.9377 124.559 10.915C124.559 10.8692 124.578 10.8253 124.61 10.7929C124.626 10.7768 124.645 10.764 124.666 10.7553C124.687 10.7466 124.709 10.7421 124.732 10.7422H125.999C126.022 10.7421 126.045 10.7466 126.065 10.7553C126.086 10.764 126.105 10.7768 126.121 10.7929C126.154 10.8253 126.172 10.8692 126.172 10.915C126.172 10.9377 126.168 10.9602 126.159 10.9811C126.15 11.0021 126.138 11.0211 126.121 11.0371C126.106 11.0534 126.087 11.0663 126.066 11.075C126.045 11.0838 126.022 11.0881 125.999 11.0878Z" fill="#666538"/>
<path d="M118.486 6.70455C118.465 6.70474 118.443 6.70083 118.423 6.69302C118.402 6.68446 118.383 6.67195 118.366 6.65616L118.152 6.44995L117.938 6.24259C117.905 6.21081 117.886 6.16735 117.885 6.12163C117.884 6.09889 117.888 6.07625 117.897 6.05508C117.905 6.0339 117.917 6.01461 117.933 5.99837C117.965 5.96549 118.009 5.94645 118.054 5.94538C118.077 5.94475 118.1 5.94871 118.121 5.95702C118.142 5.96533 118.161 5.97783 118.178 5.99376L118.392 6.20112L118.606 6.40733C118.623 6.42305 118.636 6.44197 118.645 6.46296C118.654 6.48395 118.659 6.50656 118.659 6.52944C118.66 6.55201 118.656 6.57446 118.647 6.59545C118.639 6.61644 118.627 6.63552 118.611 6.65155C118.594 6.66875 118.575 6.68247 118.553 6.69187C118.532 6.70006 118.509 6.70435 118.486 6.70455Z" fill="#666538"/>
<path d="M115.163 15.4873L114.455 15.5057L113.748 15.5242C113.961 15.5345 114.186 15.538 114.422 15.5311C114.658 15.5242 114.904 15.5115 115.163 15.4873Z" fill="#BAB653"/>
<path d="M116.065 17.1757H113.943C113.92 17.176 113.897 17.1716 113.876 17.1629C113.855 17.1542 113.836 17.1413 113.821 17.125C113.804 17.109 113.792 17.09 113.783 17.069C113.774 17.0481 113.77 17.0256 113.77 17.0029C113.77 16.9571 113.788 16.9132 113.821 16.8808C113.837 16.8647 113.856 16.8519 113.877 16.8432C113.898 16.8345 113.92 16.83 113.943 16.8301H116.066C116.112 16.8302 116.156 16.8484 116.189 16.8808C116.221 16.9133 116.239 16.9572 116.239 17.0029C116.239 17.0256 116.234 17.0482 116.226 17.0692C116.217 17.0902 116.204 17.1093 116.188 17.1254C116.172 17.1415 116.153 17.1542 116.132 17.1628C116.111 17.1715 116.089 17.1758 116.066 17.1757H116.065Z" fill="#666538"/>
<path d="M111.257 32.4017C111.265 33.2063 111.386 34.0058 111.615 34.7771C111.842 35.5528 112.201 36.2835 112.676 36.9371C112.995 37.3689 113.37 37.7563 113.791 38.0891C114.21 38.4235 114.676 38.6952 115.174 38.8955C115.702 39.1131 116.275 39.1981 116.844 39.1432C117.41 39.0748 117.964 38.9286 118.49 38.7089C118.865 38.5542 119.263 38.4646 119.667 38.4439C120.073 38.4268 120.472 38.5451 120.802 38.7803C121.128 39.0246 121.393 39.3397 121.579 39.7019C121.767 40.0609 121.913 40.4405 122.013 40.8332L122.278 41.7651L122.544 42.6959L123.476 42.4471L124.408 42.1983C124.461 42.1845 124.332 41.6937 124.178 41.1834C124.023 40.673 123.856 40.1466 123.823 40.0579C123.643 39.5845 123.42 39.1287 123.157 38.6962C122.898 38.2638 122.584 37.8666 122.224 37.5143C121.956 37.2561 121.655 37.0356 121.328 36.8588C121.001 36.6804 120.645 36.561 120.277 36.5063C119.859 36.4581 119.437 36.491 119.032 36.603C118.623 36.7032 118.225 36.8484 117.824 36.9659C117.418 37.0884 116.994 37.1425 116.57 37.126C116.146 37.1108 115.73 37.0048 115.35 36.815C114.162 36.2113 113.622 35.064 113.386 33.7887C113.149 32.5134 113.223 31.1091 113.261 29.9871C113.281 29.4376 113.306 28.8351 113.341 28.1854C113.375 27.5356 113.417 26.8398 113.471 26.1014L112.497 26.0058L111.523 25.9102C111.456 26.6136 111.4 27.3371 111.356 28.0805C111.311 28.8239 111.281 29.5858 111.265 30.3661C111.257 30.7117 111.253 31.0573 111.252 31.3948C111.251 31.7324 111.252 32.0699 111.257 32.4017Z" fill="#BAB653"/>
<path d="M113.238 32.3975L113.232 31.8791V31.3619V31.2824C113.232 31.2605 113.232 31.2421 113.232 31.2225C113.232 31.1776 113.232 31.1177 113.232 31.0313C113.232 30.9449 113.232 30.8343 113.24 30.6857C113.26 30.0947 113.285 29.7376 113.304 29.4369C113.322 29.1362 113.336 28.892 113.33 28.5245C113.33 28.2941 113.318 28.1939 113.307 28.0695C113.297 27.9451 113.284 27.7964 113.272 27.4716C113.258 27.1122 113.253 26.7804 113.254 26.5016C113.255 26.2228 113.261 25.9728 113.268 25.7793L112.141 25.8761L111.014 25.974C111.014 26.3035 111.026 26.7355 111.034 27.1917C111.042 27.6478 111.052 28.1259 111.06 28.5533C111.078 29.5625 111.092 30.3262 111.122 31.0025C111.152 31.6787 111.195 32.2697 111.272 32.9298C111.292 33.1037 111.313 33.2615 111.332 33.3998C111.35 33.538 111.366 33.6555 111.38 33.7454L112.762 32.7374L113.237 32.3918L113.238 32.3975Z" fill="#353519"/>
<path d="M114.244 36.5568C113.849 36.1016 113.309 35.7961 112.716 35.6916C112.287 35.6078 111.844 35.6287 111.425 35.7527C111.413 35.6893 111.399 35.6271 111.383 35.5649C111.308 35.282 111.175 35.0175 110.993 34.7881C110.812 34.5586 110.584 34.369 110.326 34.231C110.068 34.093 109.784 34.0096 109.492 33.986C109.2 33.9624 108.907 33.9991 108.63 34.0938C108.483 34.1433 108.341 34.2073 108.206 34.285C108.062 33.8483 107.771 33.4749 107.383 33.2289C106.994 32.9829 106.532 32.8793 106.076 32.936C105.852 32.9631 105.636 33.0378 105.443 33.1552C105.25 33.2726 105.084 33.43 104.957 33.6167C104.83 33.8035 104.745 34.0152 104.706 34.2378C104.668 34.4604 104.678 34.6886 104.735 34.9071C104.856 35.3741 105.142 35.7812 105.541 36.0527C105.939 36.3242 106.423 36.4415 106.902 36.3828C106.934 36.3828 106.965 36.3702 106.996 36.3644C106.995 36.5784 107.023 36.7916 107.079 36.998C107.154 37.2817 107.287 37.5469 107.469 37.777C107.651 38.0071 107.878 38.1973 108.137 38.3355C108.396 38.4738 108.681 38.5572 108.973 38.5806C109.266 38.604 109.56 38.5668 109.837 38.4714C109.978 38.4224 110.114 38.3595 110.243 38.2836C110.309 38.3997 110.386 38.5092 110.473 38.6108C110.873 39.0586 111.41 39.3618 112.001 39.4737C112.591 39.5855 113.201 39.4997 113.738 39.2294C113.977 39.1151 114.185 38.9463 114.347 38.7364C114.509 38.5265 114.618 38.2816 114.668 38.0214C114.717 37.7612 114.705 37.493 114.631 37.2386C114.558 36.9842 114.425 36.7506 114.245 36.5568H114.244Z" fill="#BAB653"/>
<path d="M113.36 37.7962H113.343H113.325C112.882 37.681 112.438 37.5658 111.998 37.4333C111.558 37.3009 111.123 37.1557 110.694 37.0013C109.663 36.6276 108.655 36.1902 107.678 35.6915C106.695 35.1941 105.743 34.6367 104.828 34.0223C104.812 34.0117 104.799 33.9981 104.788 33.9823C104.778 33.9665 104.771 33.9487 104.767 33.9301C104.76 33.8925 104.768 33.8537 104.789 33.8218C104.811 33.7905 104.844 33.769 104.881 33.7619C104.9 33.758 104.919 33.7578 104.937 33.7613C104.956 33.7649 104.974 33.7721 104.989 33.7826C105.895 34.3916 106.837 34.9445 107.81 35.4381C108.776 35.9294 109.771 36.3603 110.791 36.7283C111.216 36.8819 111.646 37.024 112.082 37.1546C112.517 37.2859 112.956 37.4068 113.394 37.514C113.431 37.524 113.463 37.5474 113.483 37.5796C113.502 37.6127 113.508 37.6519 113.499 37.6891C113.492 37.7207 113.473 37.7487 113.447 37.7686C113.422 37.7869 113.391 37.7966 113.36 37.7962Z" fill="#666538"/>
<path d="M114.715 18.9609C116.184 16.4414 116.218 14.8021 115.585 14.4358C114.951 14.0695 113.65 14.9772 112.445 17.5531C112.499 14.6109 111.673 13.2274 110.922 13.3829C110.171 13.5384 109.495 15.2318 109.845 18.4448C108.295 15.5648 106.759 14.5637 106.064 14.8966C105.37 15.2295 105.514 16.8965 107.324 19.3548C104.804 17.8872 103.164 17.8515 102.798 18.4851C102.433 19.1187 103.34 20.4193 105.916 21.6243C102.974 21.5713 101.59 22.3961 101.746 23.1472C101.901 23.8983 103.589 24.5746 106.807 24.2243C103.927 25.7749 102.926 27.3106 103.259 28.0064C103.592 28.7022 105.259 28.557 107.718 26.7472C106.25 29.2667 106.214 30.906 106.848 31.2723C107.481 31.6386 108.782 30.7308 109.987 28.155C109.934 31.096 110.759 32.4796 111.51 32.3252C112.261 32.1708 112.937 30.482 112.587 27.2633C114.138 30.1433 115.673 31.1444 116.369 30.8115C117.065 30.4786 116.92 28.8105 115.11 26.3521C117.629 27.8209 119.269 27.8555 119.635 27.223C120.001 26.5906 119.092 25.2876 116.518 24.0827C119.459 24.1368 120.842 23.3108 120.688 22.5609C120.534 21.8109 118.839 21.1324 115.626 21.4837C118.506 19.932 119.507 18.3964 119.174 17.7017C118.841 17.0071 117.173 17.1511 114.715 18.9609Z" fill="#F4ECE5"/>
<path d="M112.898 22.4669C113.02 22.8975 112.989 23.3572 112.811 23.7676C112.632 24.178 112.317 24.5137 111.918 24.7177C111.52 24.9217 111.063 24.9812 110.625 24.8862C110.188 24.7912 109.797 24.5475 109.519 24.1966C109.241 23.8457 109.093 23.4094 109.101 22.9618C109.109 22.5143 109.271 22.0832 109.561 21.742C109.851 21.4009 110.25 21.1707 110.69 21.0907C111.131 21.0107 111.585 21.0859 111.977 21.3034C112.199 21.427 112.395 21.5934 112.554 21.7931C112.712 21.9928 112.829 22.2218 112.898 22.4669Z" fill="#FF94AC"/>
<path d="M137.811 22.7292L137.243 22.7442L136.675 22.7591C136.667 22.7591 136.663 22.7591 136.663 22.7488C136.662 22.7456 136.663 22.7422 136.664 22.7394C136.666 22.7366 136.669 22.7346 136.672 22.7338C137.091 22.5916 137.476 22.3623 137.801 22.061C138.084 21.7992 138.287 21.4625 138.387 21.0899C138.469 20.7317 138.449 20.3579 138.33 20.0105C138.267 19.8159 138.18 19.6301 138.07 19.4575C137.754 18.9825 137.284 18.631 136.739 18.4622C136.131 18.2698 135.481 18.2518 134.863 18.4103C135.452 18.2759 135.977 17.9467 136.355 17.4761C136.694 17.0653 136.886 16.5533 136.9 16.0211C136.915 15.489 136.751 14.9672 136.436 14.5385C136.148 14.1265 135.733 13.8203 135.254 13.6669C134.776 13.5135 134.26 13.5215 133.786 13.6895C133.28 13.8624 132.838 14.183 132.517 14.6099C132.788 14.0771 132.887 13.4736 132.802 12.8819C132.722 12.314 132.458 11.788 132.051 11.3843C131.631 10.9785 131.09 10.7198 130.51 10.647C129.95 10.566 129.379 10.6838 128.897 10.9799C128.321 11.3486 127.939 11.9937 127.823 12.7275C127.702 13.5282 127.891 14.3449 128.352 15.0108C128.357 15.0159 128.359 15.0226 128.359 15.0294C128.359 15.0363 128.356 15.0428 128.351 15.0475C128.346 15.0523 128.339 15.055 128.333 15.055C128.326 15.055 128.319 15.0524 128.314 15.0477C128.074 14.8719 127.801 14.7455 127.512 14.6757C127.223 14.606 126.923 14.5941 126.629 14.641C126.358 14.678 126.097 14.7709 125.864 14.9136C125.63 15.0564 125.429 15.246 125.273 15.4704C125.121 15.7163 125.024 15.9922 124.988 16.2791C124.953 16.5661 124.98 16.8573 125.068 17.1328C125.158 17.4361 125.311 17.717 125.517 17.9572C125.723 18.1973 125.977 18.3914 126.264 18.5267C125.902 18.4512 125.529 18.4478 125.166 18.5166C124.803 18.5853 124.457 18.725 124.148 18.9276C123.572 19.3043 123.185 19.8711 123.104 20.4713C123.045 21.0236 123.198 21.5776 123.531 22.0219C123.89 22.5246 124.407 22.8931 125 23.069L124.416 23.084L123.832 23.1001C123.449 23.1104 123.072 23.1961 122.722 23.3523C122.372 23.5084 122.057 23.732 121.794 24.0102C121.531 24.2884 121.325 24.6157 121.188 24.9735C121.052 25.3313 120.987 25.7125 120.998 26.0953C121.018 26.8677 121.345 27.6003 121.905 28.132C122.466 28.6636 123.215 28.9508 123.987 28.9304L126.389 28.8659L128.791 28.8025L128.991 37.9356L129.191 47.0687H133.587L133.375 37.878L133.167 28.6816L135.569 28.6171L137.971 28.5537C138.354 28.5436 138.731 28.458 139.081 28.3019C139.431 28.1458 139.747 27.9223 140.01 27.6441C140.273 27.3659 140.479 27.0385 140.616 26.6806C140.753 26.3227 140.817 25.9414 140.806 25.5585C140.796 25.1756 140.711 24.7984 140.555 24.4486C140.399 24.0987 140.175 23.7831 139.897 23.5198C139.619 23.2565 139.291 23.0506 138.933 22.9139C138.575 22.7773 138.194 22.7125 137.811 22.7234V22.7292Z" fill="#666538"/>
<path d="M133.162 28.6816H131.991H130.821L132.021 30.2956L133.223 31.9095L133.192 30.2956L133.162 28.6816Z" fill="#353519"/>
<path d="M127.269 18.6718H126.262C126.243 18.6718 126.224 18.6681 126.207 18.6608C126.189 18.6535 126.173 18.6427 126.16 18.6292C126.14 18.609 126.126 18.5833 126.121 18.5554C126.115 18.5274 126.118 18.4985 126.129 18.4723C126.14 18.446 126.159 18.4236 126.182 18.4079C126.206 18.3921 126.234 18.3838 126.262 18.3838H127.269C127.298 18.3834 127.326 18.3916 127.35 18.4074C127.374 18.4231 127.392 18.4457 127.403 18.4721C127.414 18.4985 127.417 18.5276 127.411 18.5556C127.405 18.5836 127.391 18.6093 127.371 18.6292C127.358 18.6428 127.342 18.6536 127.324 18.6609C127.307 18.6682 127.288 18.6719 127.269 18.6718Z" fill="#2B3D0A"/>
<path d="M136.78 22.9355H133.64C133.602 22.9355 133.565 22.9203 133.538 22.8933C133.511 22.8663 133.496 22.8297 133.496 22.7915C133.496 22.7534 133.511 22.7169 133.538 22.69C133.565 22.663 133.602 22.6478 133.64 22.6475H136.78C136.799 22.6475 136.818 22.6513 136.835 22.6586C136.852 22.6659 136.868 22.6766 136.881 22.6901C136.895 22.7033 136.906 22.719 136.913 22.7364C136.92 22.7538 136.924 22.7726 136.924 22.7915C136.924 22.8105 136.92 22.8294 136.913 22.847C136.906 22.8646 136.895 22.8806 136.881 22.894C136.854 22.9204 136.818 22.9353 136.78 22.9355Z" fill="#2B3D0A"/>
<path d="M132.195 15.2027C132.181 15.2025 132.166 15.2006 132.153 15.1969C132.138 15.1921 132.125 15.1851 132.112 15.1762C132.097 15.1653 132.083 15.1515 132.073 15.1355C132.063 15.1194 132.057 15.1015 132.053 15.0829C132.05 15.0643 132.05 15.0452 132.055 15.0268C132.059 15.0084 132.067 14.991 132.078 14.9757L132.239 14.7453L132.399 14.5149C132.421 14.4838 132.455 14.4627 132.492 14.4562C132.53 14.4497 132.568 14.4584 132.6 14.4804C132.631 14.5024 132.652 14.5359 132.658 14.5734C132.665 14.611 132.656 14.6496 132.634 14.6808L132.474 14.9112L132.313 15.1416C132.3 15.1611 132.282 15.1769 132.261 15.1877C132.24 15.1978 132.218 15.2029 132.195 15.2027Z" fill="#2B3D0A"/>
<path d="M126.486 30.2858C126.523 30.2743 126.558 30.2605 126.601 30.2467C126.644 30.2328 126.675 30.2156 126.716 30.1983C126.908 30.108 127.086 29.9917 127.246 29.8527C127.501 29.6371 127.673 29.3386 127.73 29.0094C127.779 28.6796 127.714 28.343 127.545 28.0556C127.378 27.7643 127.13 27.5287 126.83 27.3782C126.562 27.2458 126.262 27.1908 125.964 27.2192C125.662 27.2469 125.372 27.3529 125.123 27.5268C125.286 27.373 125.425 27.1946 125.533 26.998C125.675 26.7424 125.747 26.4539 125.742 26.1617C125.73 25.7626 125.585 25.3789 125.328 25.073C125.06 24.7503 124.697 24.5198 124.291 24.4141C124.089 24.3783 123.884 24.3706 123.68 24.391C123.311 24.42 122.961 24.5679 122.683 24.8127C122.363 25.1147 122.168 25.5258 122.137 25.9647C122.095 26.4499 122.213 26.9355 122.473 27.3471C122.103 27.1524 121.677 27.0886 121.266 27.1662C120.918 27.2353 120.603 27.4161 120.367 27.6811C120.132 27.946 119.989 28.2806 119.961 28.634C119.933 28.9875 120.021 29.3404 120.212 29.6392C120.403 29.9379 120.686 30.1662 121.018 30.2893H120.856C120.643 30.2885 120.432 30.3298 120.235 30.4107C120.037 30.4915 119.858 30.6105 119.707 30.7607C119.556 30.9109 119.436 31.0894 119.354 31.2861C119.271 31.4827 119.229 31.6936 119.228 31.9067C119.228 32.1198 119.27 32.3308 119.352 32.5277C119.433 32.7245 119.553 32.9034 119.704 33.054C119.854 33.2047 120.033 33.3241 120.23 33.4056C120.427 33.487 120.638 33.5289 120.851 33.5287H122.477V40.5409H124.818V33.5287H126.443C126.656 33.5289 126.867 33.487 127.064 33.4055C127.261 33.3241 127.44 33.2046 127.591 33.054C127.741 32.9033 127.861 32.7244 127.942 32.5276C128.024 32.3307 128.065 32.1197 128.065 31.9067C128.065 31.4839 127.9 31.0778 127.605 30.775C127.31 30.4722 126.909 30.2966 126.486 30.2858Z" fill="#E9CF81"/>
<path d="M121.834 30.4296H120.856C120.837 30.4296 120.818 30.4259 120.801 30.4186C120.783 30.4113 120.767 30.4005 120.754 30.387C120.733 30.3668 120.72 30.3411 120.714 30.3132C120.709 30.2852 120.712 30.2563 120.723 30.2301C120.734 30.2038 120.752 30.1814 120.776 30.1657C120.8 30.1499 120.828 30.1416 120.856 30.1416H121.834C121.863 30.1416 121.89 30.1499 121.914 30.1657C121.938 30.1814 121.956 30.2038 121.967 30.2301C121.978 30.2563 121.981 30.2852 121.976 30.3132C121.97 30.3411 121.957 30.3668 121.937 30.387C121.923 30.4005 121.907 30.4113 121.89 30.4186C121.872 30.4259 121.853 30.4296 121.834 30.4296Z" fill="#666538"/>
<path d="M124.817 27.9175C124.795 27.9176 124.774 27.9125 124.755 27.9025C124.734 27.8928 124.717 27.8787 124.703 27.8611C124.691 27.8461 124.683 27.8291 124.678 27.8108C124.673 27.7925 124.671 27.7735 124.674 27.7547C124.676 27.736 124.682 27.7179 124.692 27.7015C124.701 27.6852 124.714 27.6709 124.729 27.6595L124.935 27.5005L125.142 27.3415C125.157 27.33 125.174 27.3215 125.192 27.3165C125.21 27.3116 125.229 27.3103 125.248 27.3127C125.285 27.3179 125.32 27.3377 125.343 27.3679C125.366 27.398 125.377 27.4362 125.372 27.474C125.37 27.4929 125.364 27.5111 125.354 27.5275C125.345 27.544 125.332 27.5583 125.317 27.5696L125.111 27.7286L124.905 27.8876C124.893 27.8973 124.878 27.9047 124.863 27.9095C124.848 27.915 124.832 27.9177 124.817 27.9175Z" fill="#666538"/>
<path d="M156.346 30.596C156.413 31.8033 156.313 33.014 156.048 34.1937C155.785 35.3798 155.32 36.5118 154.673 37.5403C154.238 38.2205 153.715 38.8403 153.117 39.3835C152.52 39.9289 151.847 40.3845 151.119 40.736C150.348 41.115 149.497 41.3005 148.638 41.2762C147.825 41.2544 147.007 41.0631 146.125 40.7901C145.54 40.6011 144.922 40.531 144.309 40.5839C143.726 40.6368 143.163 40.8237 142.664 41.1299C142.208 41.4202 141.828 41.8152 141.557 42.2819C141.282 42.7474 141.071 43.2471 140.928 43.768C140.879 43.9374 140.697 44.7991 140.529 45.6181C140.361 46.4372 140.211 47.216 140.229 47.2194L138.894 46.9809L137.558 46.7356C137.558 46.7356 137.621 46.2575 137.74 45.5951C137.871 44.8376 138.042 44.0876 138.254 43.3487C138.437 42.716 138.673 42.0995 138.958 41.5055C139.336 40.7272 139.824 40.0075 140.408 39.3685C140.785 38.9537 141.217 38.5924 141.693 38.2949C142.165 37.995 142.685 37.7802 143.232 37.6601C143.853 37.5466 144.491 37.5536 145.11 37.6808C145.733 37.796 146.351 37.9665 146.954 38.1025C147.575 38.2459 148.217 38.2848 148.851 38.2177C149.486 38.1518 150.1 37.9507 150.65 37.6279C152.37 36.6026 153.07 34.8285 153.291 32.8908C153.512 30.9532 153.266 28.8588 153.095 27.1781C153.011 26.3544 152.913 25.4501 152.795 24.4835C152.678 23.517 152.546 22.4721 152.39 21.3731L153.842 21.1324L155.293 20.8916C155.465 21.9399 155.622 23.0193 155.763 24.1299C155.904 25.2404 156.026 26.3805 156.129 27.5502C156.175 28.0693 156.216 28.5831 156.251 29.0915C156.287 29.6 156.318 30.1015 156.346 30.596Z" fill="#BAB653"/>
<path d="M153.371 31.9775C153.358 31.5167 153.343 31.0597 153.329 30.6066C153.314 30.1535 153.3 29.6965 153.285 29.2357C153.285 29.1885 153.285 29.1505 153.277 29.1205C153.269 29.0906 153.277 29.0583 153.277 29.0307C153.277 28.9638 153.267 28.8728 153.255 28.7438C153.244 28.6148 153.23 28.4477 153.208 28.2266C153.116 27.305 153.028 26.4917 152.964 25.9157C152.899 25.3397 152.857 24.9941 152.857 24.9941C152.797 24.5021 152.729 23.9503 152.653 23.3455C152.577 22.7407 152.49 22.0783 152.396 21.3722L153.847 21.1314L155.299 20.8906C155.435 21.659 155.551 22.3709 155.65 23.0149C155.749 23.6589 155.832 24.236 155.901 24.736C155.915 24.8408 156.05 25.8408 156.174 27.1471C156.321 28.5585 156.392 29.9768 156.386 31.3957C156.386 31.7079 156.366 32.0374 156.336 32.3887C156.306 32.7401 156.26 33.111 156.19 33.5085C156.146 33.7642 156.098 33.9981 156.05 34.2054C156.002 34.4128 155.957 34.5948 155.915 34.7457L154.648 33.3633L153.371 31.9775Z" fill="#666538"/>
<path d="M165.561 37.7649C165.435 37.4277 165.24 37.1207 164.988 36.8638C164.736 36.607 164.432 36.4061 164.098 36.2743C163.413 36.0085 162.658 35.9889 161.96 36.2188C161.263 36.4487 160.667 36.9138 160.275 37.5345C160.099 37.3622 159.906 37.2078 159.699 37.0737C159.308 36.8181 158.868 36.6459 158.407 36.5678C157.945 36.4897 157.473 36.5074 157.019 36.6198C156.565 36.7322 156.139 36.9369 155.768 37.2211C155.397 37.5053 155.088 37.863 154.861 38.2718C154.811 38.3594 154.765 38.4504 154.723 38.5425C154.123 38.1882 153.446 37.9831 152.75 37.9447C151.792 37.8733 150.839 38.1331 150.049 38.6808C149.338 39.1946 148.873 39.9353 148.821 40.7809C148.769 41.6264 149.142 42.4179 149.785 43.0135C150.51 43.643 151.422 44.0159 152.38 44.0742C153.338 44.1325 154.289 43.873 155.084 43.336C155.256 43.2122 155.415 43.0726 155.56 42.919C155.734 43.0868 155.924 43.2369 156.128 43.3671C156.52 43.6229 156.96 43.7952 157.421 43.8733C157.882 43.9514 158.354 43.9336 158.808 43.8211C159.262 43.7086 159.688 43.5037 160.06 43.2193C160.431 42.9348 160.74 42.5769 160.966 42.1679C161.134 41.8715 161.26 41.5537 161.342 41.2232C161.388 41.2451 161.434 41.2659 161.483 41.2855C162.199 41.5649 162.993 41.5739 163.716 41.3108C164.438 41.0477 165.041 40.5305 165.41 39.8558C165.581 39.5377 165.683 39.1869 165.709 38.8265C165.735 38.4662 165.684 38.1044 165.561 37.7649Z" fill="#BAB653"/>
<path d="M151.254 40.8604H150.979C150.96 40.8604 150.941 40.8566 150.924 40.8493C150.906 40.8419 150.891 40.8313 150.877 40.8178C150.851 40.7907 150.836 40.7543 150.836 40.7164C150.837 40.6784 150.852 40.6421 150.878 40.615C150.892 40.6016 150.907 40.5909 150.925 40.5836C150.942 40.5763 150.961 40.5725 150.98 40.5724C151.703 40.5782 152.43 40.5632 153.156 40.531C153.882 40.4987 154.604 40.4457 155.323 40.3766C157.048 40.2077 158.761 39.9322 160.452 39.5518C162.153 39.1687 163.83 38.6816 165.472 38.0933C165.491 38.0863 165.51 38.0832 165.53 38.0842C165.55 38.0852 165.569 38.0902 165.587 38.0991C165.604 38.107 165.62 38.1184 165.632 38.1325C165.645 38.1465 165.655 38.163 165.661 38.1809C165.669 38.1991 165.673 38.2187 165.673 38.2385C165.673 38.2583 165.669 38.2779 165.661 38.2961C165.644 38.33 165.615 38.3563 165.579 38.3698C163.926 38.9612 162.238 39.4513 160.525 39.8374C158.823 40.2204 157.098 40.4978 155.361 40.668C154.683 40.7337 154 40.7832 153.316 40.8166C152.632 40.8501 151.934 40.8604 151.254 40.8604Z" fill="#666538"/>
<path d="M146.769 24.1315C146.388 24.6849 146.183 25.3411 146.183 26.0132C146.183 26.6853 146.386 27.3417 146.767 27.8955C147.148 28.4493 147.688 28.8744 148.316 29.1146C148.944 29.3548 149.63 29.3988 150.283 29.2406H150.292C150.415 29.9012 150.735 30.509 151.21 30.9837C151.686 31.4584 152.294 31.7776 152.955 31.899C153.616 32.0205 154.298 31.9386 154.911 31.664C155.524 31.3895 156.04 30.9353 156.39 30.3615C156.943 30.7417 157.6 30.9448 158.271 30.944C158.943 30.9433 159.599 30.7387 160.152 30.3574C160.705 29.976 161.129 29.4358 161.369 28.8081C161.608 28.1805 161.651 27.495 161.493 26.8422V26.8341C162.153 26.7115 162.761 26.3912 163.236 25.9157C163.711 25.4402 164.03 24.8318 164.151 24.171C164.273 23.5102 164.191 22.8281 163.916 22.2148C163.642 21.6016 163.188 21.0861 162.614 20.7366C162.994 20.1827 163.197 19.5265 163.196 18.8548C163.196 18.183 162.991 17.5273 162.61 16.9743C162.228 16.4212 161.688 15.997 161.06 15.7575C160.433 15.5181 159.747 15.4747 159.094 15.6332H159.086C158.964 14.9723 158.644 14.3641 158.168 13.8892C157.693 13.4142 157.084 13.0949 156.423 12.9735C155.762 12.8521 155.08 12.9344 154.467 13.2094C153.853 13.4843 153.338 13.9391 152.989 14.5135C152.435 14.1333 151.779 13.9302 151.107 13.9309C150.435 13.9317 149.78 14.1363 149.227 14.5176C148.673 14.899 148.249 15.4392 148.01 16.0668C147.77 16.6945 147.727 17.38 147.885 18.0328V18.0409C147.225 18.1637 146.617 18.4841 146.143 18.9596C145.668 19.4352 145.349 20.0436 145.228 20.7044C145.106 21.3652 145.189 22.0473 145.463 22.6604C145.738 23.2736 146.192 23.7889 146.766 24.1384L146.769 24.1315Z" fill="#FF94AC"/>
<path d="M151.035 22.5171C151.015 23.3561 151.287 24.1759 151.804 24.837C152.321 25.4981 153.051 25.9595 153.87 26.1425C154.689 26.3256 155.547 26.2191 156.296 25.841C157.045 25.463 157.64 24.8368 157.979 24.0693C158.319 23.3018 158.382 22.4403 158.157 21.6316C157.933 20.823 157.435 20.1172 156.748 19.6346C156.061 19.1519 155.229 18.9222 154.392 18.9847C153.555 19.0471 152.766 19.3977 152.158 19.9769C151.813 20.3054 151.536 20.6989 151.343 21.1348C151.15 21.5708 151.046 22.0405 151.035 22.5171Z" fill="#F4ECE5"/>
<path d="M137.341 41.2383C137.115 40.6808 137.102 40.0598 137.303 39.493C137.49 38.9545 137.877 38.5087 138.384 38.2489C138.809 38.042 139.29 37.9786 139.755 38.068C140.241 38.1597 140.688 38.3967 141.037 38.7477C141.266 38.0749 141.645 37.4631 142.145 36.9586C142.647 36.454 143.26 36.0854 143.903 35.9956C144.637 35.8987 145.382 36.0482 146.022 36.4206C146.352 36.6052 146.653 36.8381 146.915 37.1118C147.444 37.6748 147.827 38.3598 148.028 39.106C148.218 39.7939 148.196 40.5233 147.963 41.198C147.81 41.6064 147.612 41.9963 147.372 42.3604C147.197 42.6476 146.981 42.9083 146.732 43.1345C147.578 43.3294 148.322 43.8279 148.823 44.5353C149.302 45.1975 149.504 46.0192 149.389 46.8278C149.28 47.4886 148.961 48.0967 148.479 48.5616C147.976 49.0511 147.339 49.3793 146.648 49.5039L141.997 45.3682L137.341 41.2383Z" fill="#666538"/>
<path d="M101.345 34.2724C101.839 34.7668 102.147 35.4175 102.216 36.1135C102.285 36.8095 102.11 37.5078 101.722 38.0894C101.333 38.671 100.755 39.0999 100.086 39.3031C99.4168 39.5062 98.6978 39.471 98.0516 39.2035C97.4054 38.936 96.872 38.4526 96.5422 37.8359C96.2124 37.2191 96.1067 36.5071 96.2431 35.8211C96.3795 35.1352 96.7495 34.5177 97.2901 34.074C97.8307 33.6303 98.5084 33.3877 99.2078 33.3877C99.6047 33.3872 99.9978 33.4651 100.365 33.6169C100.731 33.7687 101.064 33.9915 101.345 34.2724Z" fill="#F4ECE5"/>
<path d="M96.9024 37.7654C96.7884 37.7658 96.6755 37.743 96.5706 37.6986C96.4625 37.6527 96.3649 37.5853 96.2837 37.5005C96.2574 37.4729 96.243 37.4361 96.2434 37.398C96.2446 37.3599 96.2607 37.3239 96.2883 37.2977C96.3155 37.2709 96.3521 37.2559 96.3903 37.2559C96.4285 37.2559 96.4651 37.2709 96.4923 37.2977C96.5728 37.383 96.6779 37.441 96.7929 37.4636C96.9063 37.4862 97.0238 37.4729 97.1293 37.4256C97.2302 37.3787 97.3145 37.3024 97.3712 37.2067C97.4292 37.1095 97.4573 36.9973 97.4519 36.8842C97.4499 36.8517 97.4558 36.8193 97.4691 36.7897C97.4826 36.7595 97.5032 36.7331 97.5291 36.7125C97.5547 36.6924 97.5848 36.6785 97.6168 36.6721C97.6488 36.6657 97.6819 36.6669 97.7134 36.6756C97.8455 36.7131 97.9865 36.7046 98.1131 36.6515C98.2242 36.6086 98.3151 36.5257 98.368 36.419C98.4209 36.3124 98.4319 36.1898 98.3988 36.0755C98.3665 35.9617 98.3021 35.8598 98.2133 35.7817C98.199 35.7695 98.1874 35.7545 98.1791 35.7377C98.1707 35.7209 98.1659 35.7025 98.165 35.6838C98.1626 35.6457 98.175 35.6082 98.1995 35.5789C98.212 35.5647 98.2272 35.5531 98.2442 35.5448C98.2612 35.5365 98.2797 35.5317 98.2986 35.5306C98.3367 35.5282 98.3742 35.5406 98.4034 35.5651C98.5378 35.6832 98.6337 35.8389 98.6787 36.0121C98.7264 36.1824 98.7128 36.3641 98.6401 36.5254C98.5675 36.6867 98.4405 36.8174 98.2813 36.8945C98.1137 36.9799 97.9234 37.0101 97.7376 36.9809C97.7266 37.1328 97.6757 37.279 97.5901 37.4049C97.5033 37.5306 97.3838 37.6302 97.2445 37.6929C97.19 37.7182 97.1328 37.7371 97.074 37.7493C97.0175 37.7606 96.96 37.766 96.9024 37.7654Z" fill="#FF94AC"/>
<path d="M183.56 16.0849C184.055 16.5793 184.362 17.23 184.431 17.926C184.5 18.622 184.325 19.3203 183.937 19.9019C183.548 20.4835 182.97 20.9124 182.301 21.1156C181.632 21.3187 180.913 21.2835 180.267 21.016C179.62 20.7485 179.087 20.2651 178.757 19.6484C178.428 19.0316 178.322 18.3196 178.458 17.6336C178.595 16.9477 178.965 16.3302 179.505 15.8865C180.046 15.4428 180.723 15.2002 181.423 15.2002C181.82 15.1997 182.213 15.2776 182.58 15.4294C182.946 15.5812 183.279 15.804 183.56 16.0849Z" fill="#F4ECE5"/>
<path d="M179.117 19.5779C179.003 19.5783 178.89 19.5555 178.785 19.5111C178.677 19.4652 178.58 19.3978 178.499 19.313C178.472 19.2854 178.458 19.2486 178.458 19.2105C178.459 19.1724 178.476 19.1364 178.503 19.1102C178.53 19.0834 178.567 19.0684 178.605 19.0684C178.643 19.0684 178.68 19.0834 178.707 19.1102C178.788 19.1955 178.893 19.2535 179.008 19.2761C179.121 19.2987 179.239 19.2854 179.344 19.2381C179.445 19.1912 179.529 19.1149 179.586 19.0192C179.644 18.922 179.672 18.8098 179.667 18.6967C179.665 18.6642 179.671 18.6318 179.684 18.6022C179.697 18.572 179.718 18.5456 179.744 18.525C179.77 18.5049 179.8 18.491 179.832 18.4846C179.864 18.4782 179.897 18.4794 179.928 18.4881C180.06 18.5256 180.201 18.5171 180.328 18.464C180.439 18.4211 180.53 18.3382 180.583 18.2315C180.636 18.1249 180.647 18.0023 180.614 17.888C180.581 17.7742 180.517 17.6723 180.428 17.5942C180.414 17.582 180.402 17.567 180.394 17.5502C180.386 17.5334 180.381 17.515 180.38 17.4963C180.377 17.4582 180.39 17.4207 180.414 17.3914C180.427 17.3772 180.442 17.3656 180.459 17.3573C180.476 17.349 180.495 17.3442 180.513 17.3431C180.552 17.3407 180.589 17.3531 180.618 17.3776C180.753 17.4957 180.849 17.6514 180.894 17.8246C180.941 17.9949 180.928 18.1766 180.855 18.3379C180.782 18.4992 180.655 18.6299 180.496 18.707C180.329 18.7924 180.138 18.8226 179.952 18.7934C179.941 18.9453 179.891 19.0915 179.805 19.2174C179.718 19.3431 179.599 19.4427 179.459 19.5054C179.405 19.5307 179.348 19.5496 179.289 19.5618C179.232 19.5731 179.175 19.5785 179.117 19.5779Z" fill="#FF94AC"/>
<path d="M135.779 44.5409H135.766C135.748 44.5395 135.729 44.5345 135.712 44.526C135.696 44.5175 135.681 44.5057 135.668 44.4913C135.644 44.462 135.632 44.4244 135.635 44.3865L136.297 36.2983L136.961 28.2101C136.963 28.1912 136.968 28.1729 136.977 28.1561C136.985 28.1393 136.997 28.1243 137.012 28.1122C137.026 28.0998 137.043 28.0904 137.061 28.0847C137.079 28.079 137.098 28.0769 137.117 28.0788C137.154 28.0821 137.189 28.0998 137.214 28.1283C137.239 28.158 137.251 28.196 137.248 28.2343L136.585 36.3213L135.922 44.4095C135.919 44.4457 135.902 44.4794 135.876 44.504C135.849 44.5283 135.815 44.5415 135.779 44.5409Z" fill="#666538"/>
<path d="M135.778 44.5412H135.75C135.741 44.5392 135.732 44.5361 135.724 44.532C135.706 44.525 135.69 44.5145 135.677 44.5013C135.663 44.488 135.653 44.4722 135.645 44.4548C135.638 44.4366 135.634 44.417 135.634 44.3972C135.634 44.3774 135.638 44.3578 135.645 44.3396L137.211 40.5576L138.776 36.7744C138.783 36.7571 138.794 36.7413 138.807 36.728C138.82 36.7148 138.836 36.7043 138.854 36.6973C138.872 36.6889 138.891 36.6846 138.911 36.6846C138.931 36.6846 138.951 36.6889 138.969 36.6973C138.986 36.7043 139.002 36.7148 139.016 36.7281C139.029 36.7414 139.04 36.7573 139.047 36.7748C139.055 36.7922 139.058 36.811 139.058 36.8299C139.058 36.8488 139.054 36.8676 139.047 36.885L137.482 40.667L135.916 44.4502C135.905 44.4767 135.886 44.4992 135.862 44.5147C135.837 44.5325 135.808 44.5418 135.778 44.5412Z" fill="#666538"/>
<path d="M143.305 34.1374C143.308 34.8369 143.068 35.5156 142.626 36.0579C142.184 36.6002 141.568 36.9726 140.883 37.1115C140.197 37.2504 139.485 37.1472 138.867 36.8197C138.249 36.4921 137.763 35.9603 137.494 35.315C137.224 34.6697 137.186 33.9508 137.387 33.2808C137.588 32.6108 138.015 32.0312 138.595 31.6407C139.175 31.2503 139.873 31.0732 140.569 31.1396C141.266 31.2061 141.918 31.5119 142.414 32.0051C142.695 32.2843 142.919 32.6164 143.072 32.9823C143.225 33.3482 143.304 33.7408 143.305 34.1374Z" fill="#FF94AC"/>
<path d="M139.53 33.8676C139.396 33.8663 139.264 33.8336 139.144 33.772C139.021 33.7078 138.914 33.6159 138.832 33.5036C138.717 33.6029 138.577 33.67 138.428 33.6983C138.267 33.7291 138.101 33.7118 137.95 33.6484C137.8 33.5851 137.671 33.4786 137.581 33.3423C137.482 33.1955 137.431 33.0217 137.435 32.8447C137.436 32.8068 137.451 32.7709 137.478 32.7444C137.492 32.7314 137.507 32.7212 137.524 32.7143C137.542 32.7073 137.56 32.7039 137.579 32.7041C137.616 32.705 137.652 32.7207 137.679 32.7479C137.692 32.7613 137.703 32.7774 137.709 32.795C137.716 32.8126 137.72 32.8315 137.719 32.8504C137.717 32.9678 137.75 33.0831 137.815 33.181C137.877 33.2767 137.967 33.3504 138.074 33.3917C138.18 33.4331 138.296 33.44 138.407 33.4114C138.519 33.3838 138.62 33.3232 138.697 33.2375C138.719 33.213 138.746 33.1941 138.777 33.1822C138.808 33.1708 138.841 33.1669 138.873 33.1707C138.906 33.1738 138.937 33.1849 138.965 33.203C138.992 33.2211 139.014 33.2456 139.03 33.2743C139.097 33.3941 139.203 33.4878 139.33 33.5405C139.449 33.5904 139.582 33.5929 139.703 33.5474C139.805 33.504 139.89 33.4278 139.944 33.3308C140.001 33.2276 140.028 33.11 140.02 32.9921C140.017 32.9541 140.03 32.9166 140.055 32.8879C140.08 32.8592 140.115 32.8416 140.153 32.8389C140.192 32.8365 140.229 32.8493 140.258 32.8746C140.272 32.887 140.284 32.9022 140.292 32.9192C140.301 32.9363 140.305 32.9548 140.306 32.9737C140.32 33.1515 140.28 33.3293 140.191 33.484C140.106 33.632 139.974 33.7478 139.816 33.8135C139.772 33.8318 139.726 33.8453 139.679 33.8538C139.63 33.8636 139.58 33.8682 139.53 33.8676Z" fill="#666538"/>
<path d="M142.383 23.5524C142.386 22.6826 142.147 21.8293 141.693 21.0873C141.239 20.3453 140.588 19.7439 139.813 19.3498C139.037 18.9558 138.168 18.7846 137.301 18.8554C136.434 18.9262 135.604 19.2362 134.902 19.7508C134.56 20.0281 134.254 20.3479 133.992 20.7024C133.549 21.2957 133.252 21.9852 133.126 22.7149C132.901 24.042 133.314 25.1721 133.799 25.9843C134.097 26.4899 134.469 26.9481 134.902 27.3437C135.09 27.4815 135.288 27.6051 135.494 27.7135C135.967 27.9616 136.479 28.1275 137.007 28.2042C137.23 28.2357 137.455 28.2515 137.68 28.2514C138.926 28.2514 140.122 27.7565 141.004 26.8754C141.886 25.9943 142.382 24.7991 142.383 23.5524Z" fill="#FF94AC"/>
<path d="M141.032 24.0855C140.721 24.0816 140.419 23.9792 140.17 23.7929C139.907 23.6008 139.709 23.3337 139.6 23.0268C139.29 23.181 138.942 23.246 138.597 23.2146C138.271 23.1853 137.962 23.0529 137.716 22.8367C137.506 22.6466 137.354 22.4016 137.277 22.1294C137.227 21.9607 137.201 21.7858 137.2 21.6098C137.2 21.5718 137.216 21.5355 137.242 21.5084C137.256 21.495 137.271 21.4843 137.289 21.477C137.306 21.4697 137.325 21.4659 137.344 21.4658C137.363 21.4657 137.381 21.4695 137.399 21.4768C137.416 21.4841 137.432 21.4949 137.445 21.5084C137.459 21.5218 137.469 21.5377 137.477 21.5554C137.484 21.573 137.487 21.5919 137.487 21.611C137.487 21.7568 137.509 21.9019 137.55 22.0418C137.612 22.2633 137.736 22.4629 137.906 22.6178C138.117 22.8013 138.383 22.9098 138.662 22.9266C138.961 22.9463 139.26 22.8808 139.523 22.7376C139.553 22.7216 139.587 22.7125 139.621 22.7109C139.655 22.7093 139.689 22.7153 139.72 22.7284C139.752 22.7417 139.78 22.7618 139.803 22.7872C139.827 22.8121 139.844 22.842 139.854 22.8747C139.945 23.1756 140.141 23.4341 140.406 23.6039C140.528 23.686 140.666 23.743 140.811 23.7715C140.955 23.7999 141.104 23.7994 141.249 23.7698C141.488 23.7128 141.702 23.5774 141.855 23.3851C142.019 23.1826 142.12 22.9362 142.145 22.6766C142.147 22.6578 142.152 22.6395 142.161 22.6229C142.17 22.6062 142.182 22.5916 142.197 22.5798C142.219 22.5631 142.246 22.5531 142.273 22.5511C142.301 22.5491 142.328 22.555 142.353 22.5683C142.377 22.5815 142.397 22.6015 142.41 22.6258C142.424 22.6501 142.43 22.6778 142.427 22.7054C142.396 23.0247 142.27 23.3274 142.066 23.5751C141.872 23.8126 141.606 23.9798 141.308 24.0509C141.261 24.0613 141.214 24.0682 141.167 24.0739C141.12 24.0797 141.08 24.0855 141.032 24.0855Z" fill="#666538"/>
<path d="M142.514 8.88473C142.482 8.99485 142.425 9.09609 142.347 9.18046C142.27 9.26483 142.174 9.33001 142.067 9.37087C141.814 9.46826 141.538 9.48465 141.277 9.41775C141.015 9.35085 140.78 9.204 140.606 8.99763C140.529 8.91216 140.474 8.80896 140.446 8.69721C140.419 8.58545 140.419 8.46861 140.448 8.35709C140.476 8.24557 140.532 8.14283 140.61 8.05802C140.688 7.9732 140.785 7.90895 140.894 7.87097C141.146 7.77323 141.422 7.75666 141.684 7.82358C141.946 7.8905 142.18 8.03756 142.355 8.24422C142.429 8.33138 142.482 8.43461 142.509 8.54576C142.537 8.65691 142.538 8.77295 142.514 8.88473Z" fill="#AD4D4D"/>
<path d="M143.04 10.6168C143.02 10.6871 142.983 10.7517 142.934 10.8055C142.884 10.8592 142.823 10.9007 142.754 10.9267C142.593 10.9888 142.417 10.9993 142.25 10.9568C142.083 10.9142 141.933 10.8208 141.821 10.6894C141.774 10.6334 141.74 10.5673 141.722 10.4962C141.705 10.425 141.704 10.3508 141.72 10.2793C141.74 10.2089 141.776 10.1442 141.826 10.0904C141.875 10.0366 141.937 9.99513 142.005 9.96936C142.166 9.90381 142.343 9.89328 142.51 9.93941C142.678 9.97954 142.829 10.0734 142.939 10.2067C142.986 10.2626 143.02 10.3287 143.037 10.3999C143.055 10.471 143.056 10.5452 143.04 10.6168Z" fill="#AD4D4D"/>
<path d="M132.577 49.6182L132.077 51.2241L131.575 52.8299H132.577H133.578L133.078 51.2241L132.577 49.6182Z" fill="#666538"/>
<path d="M134.626 47.8691L134.126 49.475L133.625 51.0809H134.626H135.627L135.126 49.475L134.626 47.8691Z" fill="#666538"/>
<path d="M147.734 59.0999C147.65 59.2867 147.547 59.4615 147.433 59.6362C147.451 59.7687 147.475 59.9015 147.493 60.0339C147.758 61.7754 147.86 63.6916 146.993 65.2039C146.342 66.3368 145.125 67.126 143.823 67.2467C142.835 68.4941 141.425 69.4099 139.871 69.7113C138.31 70.0185 136.647 69.7474 135.267 68.9702C134.345 69.7113 133.068 70.0429 131.917 69.7594C132.038 70.4643 131.989 71.1754 131.815 71.8683C131.736 72.1876 131.556 72.5553 131.23 72.5553C130.989 72.5553 130.808 72.3564 130.67 72.1638C129.513 70.6453 128.754 68.8257 128.482 66.9336C127.199 67.4276 125.608 67.0059 124.729 65.9514C123.927 66.0298 123.047 65.638 122.523 65.0236C122.144 64.5716 121.939 63.9812 121.945 63.3905C121.945 63.1735 121.975 62.9567 122.029 62.7517C121.872 62.7517 121.716 62.7517 121.565 62.7396C120.782 62.6794 120.065 62.408 119.54 61.8056C118.98 61.1551 118.673 60.209 118.733 59.3352C118.733 59.2327 118.745 59.1243 118.763 59.028C118.335 59.1845 117.889 59.2691 117.438 59.275H117.432C115.889 59.3111 114.304 58.5219 113.358 57.2807C112.189 55.7322 112.123 53.4362 113.178 51.8094C113.22 51.7433 113.262 51.6828 113.304 51.6225C113.208 51.4117 113.13 51.1946 113.069 50.9658V50.9596C112.78 49.8811 112.84 48.6519 113.286 47.6636C113.768 46.6091 114.654 45.7594 115.715 45.3015C115.865 45.2413 116.016 45.187 116.167 45.1388C116.209 44.9943 116.251 44.8736 116.305 44.7352C116.299 44.7291 116.299 44.7232 116.305 44.717C116.709 43.5783 117.468 42.56 118.475 41.8971C119.481 41.2283 120.698 40.897 121.897 40.9692H121.903C122.054 40.9754 122.199 40.9871 122.349 41.0053C122.452 40.9028 122.56 40.8065 122.668 40.7102C122.675 40.704 122.675 40.704 122.675 40.704C124.169 39.4084 126.127 38.6553 128.104 38.5769C130.092 38.5047 132.098 39.1311 133.695 40.3363C133.798 40.4147 133.906 40.499 134.009 40.5833C134.262 40.541 134.509 40.5048 134.762 40.4869C135.467 40.4205 136.172 40.4567 136.859 40.6376C137.624 40.8426 138.347 41.3005 138.757 41.9631C138.847 42.1076 138.925 42.2645 138.986 42.4331H139.197C140.89 42.4513 142.625 43.1803 143.824 44.3613C145.023 45.5482 145.74 47.2236 145.777 48.9165V49.1154C145.994 49.2719 146.193 49.4529 146.373 49.6517C147.367 50.7484 147.765 52.4176 147.337 53.8333C148.415 55.3219 148.547 57.4431 147.734 59.0999Z" fill="#FF94AC"/>
<path d="M139.113 42.3175C137.996 42.7119 137.001 43.4344 136.309 44.3996C136.212 44.533 136.042 44.5999 135.89 44.5087C135.762 44.4297 135.683 44.2235 135.781 44.0898C136.509 43.0823 137.517 42.2932 138.67 41.8438C138.761 41.9893 138.84 42.1473 138.901 42.3172L139.113 42.3175Z" fill="#D45F5F"/>
<path d="M146.343 49.5889C145.353 49.3401 144.315 49.3522 143.326 49.6374C142.949 49.7466 142.792 49.164 143.162 49.0548C144 48.8122 144.88 48.7453 145.742 48.8486V49.0489C145.96 49.2063 146.161 49.3886 146.343 49.5889Z" fill="#D45F5F"/>
<path d="M142.297 60.1889C139.76 60.438 137.25 60.0219 134.753 59.6132C137.067 59.0887 139.262 58.0937 141.177 56.6844C141.488 56.4552 141.186 55.9283 140.87 56.1603C138.644 57.7989 136.06 58.8642 133.326 59.271C133.25 59.2822 133.201 59.3177 133.165 59.3612C130.898 59.0128 128.465 58.7292 126.208 59.2203C127.022 58.4866 127.737 57.6496 128.33 56.7208C128.541 56.3905 128.016 56.086 127.806 56.4144C127.081 57.55 126.157 58.5609 125.082 59.3749C125.008 59.4312 124.958 59.5086 124.942 59.5926C123.85 60.0433 122.906 60.8539 122.597 62.0371C122.498 62.4153 123.084 62.5767 123.183 62.1985C123.646 60.4262 125.484 59.8256 127.299 59.6492C127.334 59.7062 127.388 59.7531 127.473 59.7733C128.497 60.0156 129.427 60.5432 130.158 61.2999C130.43 61.5814 130.859 61.1519 130.587 60.8707C130.062 60.3267 129.429 59.8981 128.743 59.5842C129.12 59.5845 129.479 59.5942 129.801 59.6085C132.482 59.7267 135.106 60.3509 137.763 60.6772C139.268 60.862 140.785 60.9447 142.297 60.796C142.682 60.7581 142.686 60.1506 142.297 60.1889Z" fill="#D45F5F"/>
<path d="M120.758 56.83C120.358 57.8558 119.623 58.7056 118.707 59.258C118.707 59.1548 118.719 59.0456 118.737 58.9485C118.306 59.1062 117.857 59.1915 117.402 59.1974C118.634 58.821 119.702 57.8742 120.176 56.6723C120.23 56.5206 120.376 56.4114 120.546 56.4599C120.691 56.5025 120.819 56.6782 120.758 56.83Z" fill="#D45F5F"/>
<path d="M144.629 58.5075C144.546 58.1436 144.444 57.7847 144.33 57.4295C144.373 57.3589 144.388 57.2708 144.376 57.1825C144.168 55.7396 144.342 54.2637 144.848 52.8992C144.983 52.5324 144.397 52.3741 144.262 52.7377C143.892 53.7371 143.708 54.7859 143.695 55.8416C142.923 54.2164 141.822 52.7464 140.464 51.5667C140.178 51.3185 139.88 51.0849 139.575 50.8606C139.595 50.7934 139.595 50.7182 139.557 50.6395C138.923 49.3412 138.772 47.8407 139.123 46.4404C139.219 46.0616 138.633 45.8998 138.538 46.279C138.202 47.6177 138.288 49.0202 138.762 50.3045C138.206 49.9536 137.627 49.6401 137.026 49.3726C135.668 48.7679 134.247 48.4367 132.789 48.172C131.146 47.8737 129.44 47.5978 127.974 46.7483C126.605 45.9552 125.498 44.5823 125.534 42.9366C125.543 42.5459 124.936 42.5459 124.927 42.9366C124.874 45.3972 126.83 47.0205 128.941 47.856C125.656 48.1938 122.482 49.3723 119.788 51.2964C119.473 51.5213 119.775 52.0482 120.094 51.8205C123.017 49.7331 126.503 48.5235 130.093 48.3726C130.184 48.3689 130.251 48.3312 130.3 48.2787C131.435 48.5648 132.596 48.735 133.742 48.9748C131.811 49.6755 130.077 50.8818 128.763 52.4684C128.516 52.7673 128.943 53.199 129.193 52.8976C130.655 51.1321 132.63 49.855 134.844 49.26C134.853 49.2575 134.858 49.2519 134.866 49.2491C136.014 49.5701 137.118 50.0239 138.145 50.6348C140.495 52.0314 142.382 54.1604 143.42 56.6957C143.939 57.9632 144.293 59.3554 144.306 60.7302C144.32 62.1672 143.759 63.4061 142.486 64.1324C141.04 64.9576 139.325 64.8926 137.723 64.7302C135.99 64.5545 134.245 64.2814 132.527 64.7206C132.149 64.8173 132.309 65.4027 132.688 65.3059C133.912 64.993 135.161 65.0683 136.412 65.198C135.453 65.5358 134.569 66.0754 133.831 66.7781C133.547 67.0478 133.977 67.4767 134.26 67.2073C135.203 66.3103 136.391 65.7193 137.67 65.4907C137.75 65.4764 137.812 65.4213 137.849 65.3517C139.249 65.4901 140.64 65.5386 141.991 65.0288C143.139 64.5955 144.145 63.7983 144.602 62.6329C145.113 61.3343 144.929 59.8341 144.629 58.5075Z" fill="#D45F5F"/>
<path d="M147.411 59.647C147.429 59.7805 147.453 59.9142 147.471 60.0477C147.119 59.0766 146.446 58.2449 145.547 57.7046C145.213 57.5043 145.523 56.9824 145.857 57.1827C146.634 57.6439 147.277 58.3177 147.714 59.1068C147.629 59.2949 147.526 59.471 147.411 59.647Z" fill="#D45F5F"/>
<path d="M83.1036 27.3537C83.1497 29.1004 82.5888 30.8091 81.5163 32.1887C80.4439 33.5682 78.9263 34.5333 77.2222 34.9194C75.518 35.3055 73.7327 35.0888 72.1704 34.3062C70.6081 33.5236 69.3654 32.2236 68.6542 30.6275C67.9429 29.0315 67.807 27.2382 68.2697 25.5532C68.7323 23.8682 69.7649 22.3958 71.1915 21.3867C72.618 20.3776 74.3503 19.8944 76.0932 20.0193C77.8361 20.1443 79.4817 20.8696 80.7498 22.0718C81.4709 22.7536 82.05 23.5713 82.454 24.4778C82.858 25.3842 83.0787 26.3616 83.1036 27.3537Z" fill="#F4ECE5"/>
<path d="M81.125 27.3906C80.72 27.386 80.3273 27.2512 80.005 27.006C79.6666 26.7527 79.4122 26.4035 79.275 26.0038C78.8729 26.2068 78.4223 26.294 77.9735 26.2557C77.5479 26.2203 77.1449 26.0494 76.8237 25.7681C76.5537 25.5225 76.3576 25.2063 76.2576 24.8553C76.1927 24.6377 76.1595 24.412 76.1587 24.1849C76.1587 24.14 76.1765 24.097 76.2083 24.0652C76.24 24.0335 76.2831 24.0156 76.328 24.0156C76.3502 24.0155 76.3722 24.0198 76.3927 24.0284C76.4132 24.037 76.4317 24.0497 76.4472 24.0657C76.463 24.0813 76.4755 24.0999 76.4841 24.1203C76.4927 24.1408 76.4972 24.1627 76.4973 24.1849C76.4971 24.3771 76.525 24.5682 76.5799 24.7524C76.6614 25.0459 76.8238 25.3105 77.0485 25.5162C77.3429 25.7699 77.7163 25.9135 78.1048 25.9225C78.5229 25.9363 78.9357 25.8261 79.2912 25.6056L79.3915 25.5447L79.4917 25.4824L79.5188 25.5975L79.5445 25.7126C79.6422 26.139 79.894 26.5142 80.2515 26.7663C80.4175 26.8871 80.6071 26.9719 80.8079 27.015C81.0088 27.0582 81.2164 27.0588 81.4175 27.0168C81.7323 26.9421 82.0131 26.7643 82.2152 26.5116C82.4316 26.245 82.5644 25.9204 82.5971 25.5785C82.6016 25.534 82.6235 25.4931 82.6581 25.4647C82.693 25.4363 82.7378 25.4226 82.7827 25.4268C82.8048 25.429 82.8263 25.4356 82.8459 25.4461C82.8656 25.4566 82.8829 25.4709 82.897 25.4881C82.9111 25.5054 82.9216 25.5252 82.928 25.5465C82.9345 25.5679 82.9366 25.5902 82.9344 25.6124C82.8944 26.0247 82.7322 26.4156 82.4685 26.7351C82.2193 27.0418 81.8754 27.2571 81.4906 27.3473C81.4303 27.3609 81.3693 27.3713 81.3078 27.3784C81.2471 27.3858 81.1861 27.3899 81.125 27.3906Z" fill="#FF94AC"/>
<path d="M71.5131 30.8965C71.3133 30.8941 71.1179 30.837 70.9484 30.7312C70.8426 30.667 70.7468 30.5876 70.664 30.4956C70.649 30.4789 70.6375 30.4594 70.63 30.4383C70.6226 30.4171 70.6194 30.3947 70.6206 30.3723C70.6236 30.3278 70.6435 30.2862 70.6761 30.2559C70.6929 30.2411 70.7124 30.2298 70.7336 30.2225C70.7547 30.2153 70.7771 30.2124 70.7994 30.2139C70.8216 30.2146 70.8434 30.2199 70.8634 30.2295C70.8835 30.239 70.9013 30.2526 70.9159 30.2694C70.9752 30.3352 71.0436 30.3922 71.119 30.4387C71.2367 30.5145 71.3732 30.5557 71.5131 30.5579C71.6941 30.5541 71.8681 30.487 72.0047 30.3683C72.1535 30.2409 72.2617 30.0728 72.3162 29.8848L72.3487 29.7724L72.3826 29.6586L72.4787 29.7263L72.5749 29.7954C72.7459 29.9161 72.9575 29.9647 73.164 29.9308C73.2536 29.9177 73.3396 29.887 73.4172 29.8405C73.4949 29.7941 73.5625 29.7327 73.6164 29.66C73.7 29.5376 73.7401 29.3907 73.7301 29.2428C73.7215 29.0857 73.6669 28.9345 73.573 28.8081C73.5466 28.7719 73.5355 28.7267 73.5421 28.6824C73.5486 28.638 73.5724 28.598 73.6082 28.5711C73.6445 28.5445 73.6897 28.5333 73.7342 28.5399C73.7782 28.5473 73.8179 28.571 73.8453 28.6063C73.9806 28.7909 74.0584 29.0114 74.0687 29.2401C74.0822 29.4723 74.0116 29.7015 73.8698 29.8858C73.728 30.0701 73.5246 30.1972 73.2968 30.2437C73.0512 30.2989 72.7944 30.2723 72.5654 30.1678C72.4689 30.3769 72.3184 30.5564 72.1293 30.6879C71.9493 30.8141 71.7356 30.8834 71.5158 30.887L71.5131 30.8965Z" fill="#FF94AC"/>
</g>
<defs>
<clipPath id="clip0_6346_36433">
<rect width="256" height="120" rx="8" fill="white"/>
</clipPath>
</defs>
</svg>
