<svg width="256" height="120" viewBox="0 0 256 120" fill="none" xmlns="http://www.w3.org/2000/svg">
<g clip-path="url(#clip0_6346_36434)">
<rect width="256" height="120" rx="8" fill="#4A3520"/>
<path d="M198.32 100.921H57.634V70.2531C57.6367 69.2444 58.0393 68.2779 58.7535 67.5655C59.4677 66.8532 60.4353 66.4531 61.444 66.4531H194.51C195.519 66.4531 196.486 66.8532 197.201 67.5655C197.915 68.2779 198.317 69.2444 198.32 70.2531V100.921Z" fill="#BAB653"/>
<path d="M68.6781 100.033H66.1781H63.6781V83.2394V66.4434H66.1781H68.6781V83.2394V100.033Z" fill="#F4ECE5"/>
<path d="M197.274 123.383H58.6739C57.9805 123.383 57.3156 123.107 56.8254 122.616C56.3353 122.126 56.0599 121.461 56.0599 120.767V102.811C56.0605 102.468 56.1286 102.128 56.2606 101.81C56.3925 101.493 56.5857 101.205 56.829 100.963C57.0723 100.72 57.3609 100.528 57.6785 100.397C57.9961 100.266 58.3364 100.199 58.6799 100.199H197.28C197.973 100.2 198.638 100.476 199.128 100.966C199.619 101.457 199.894 102.122 199.894 102.815V120.771C199.894 121.465 199.619 122.13 199.128 122.62C198.638 123.111 197.973 123.387 197.28 123.387L197.274 123.383Z" fill="#BAB653"/>
<path d="M165.848 59.2896H92.648C91.9453 59.2875 91.2721 59.007 90.7758 58.5096C90.2795 58.0122 90.0005 57.3383 90 56.6356V0.0856385C90.0005 -0.61843 90.2806 -1.29348 90.7786 -1.79114C91.2767 -2.28881 91.9519 -2.56836 92.656 -2.56836H165.856C166.56 -2.56836 167.235 -2.28881 167.733 -1.79114C168.231 -1.29348 168.511 -0.61843 168.512 0.0856385V56.6356C168.511 57.3397 168.231 58.0148 167.733 58.5124C167.235 59.0101 166.56 59.2896 165.856 59.2896H165.848Z" fill="#353519"/>
<path d="M198.256 59.2896H175.54C175.095 59.2891 174.669 59.1122 174.354 58.7976C174.04 58.483 173.863 58.0565 173.862 57.6116V-0.89036C173.863 -1.33523 174.04 -1.76173 174.354 -2.0763C174.669 -2.39087 175.095 -2.56783 175.54 -2.56836H198.256C198.701 -2.56783 199.127 -2.39087 199.442 -2.0763C199.757 -1.76173 199.934 -1.33523 199.934 -0.89036V57.6116C199.934 58.0565 199.757 58.483 199.442 58.7976C199.127 59.1122 198.701 59.2891 198.256 59.2896Z" fill="#353519"/>
<path d="M83.38 59.2896H60.664C60.2191 59.2891 59.7926 59.1122 59.478 58.7976C59.1635 58.483 58.9865 58.0565 58.986 57.6116V-0.89036C58.9865 -1.33523 59.1635 -1.76173 59.478 -2.0763C59.7926 -2.39087 60.2191 -2.56783 60.664 -2.56836H83.38C83.8248 -2.56783 84.2513 -2.39087 84.5659 -2.0763C84.8805 -1.76173 85.0574 -1.33523 85.058 -0.89036V57.6116C85.0574 58.0565 84.8805 58.483 84.5659 58.7976C84.2513 59.1122 83.8248 59.2891 83.38 59.2896Z" fill="#353519"/>
<path d="M84.9261 31.0953C84.9486 31.0912 84.9707 31.0852 84.9921 31.0773L85.0581 31.0593V24.8593C84.4741 24.7623 83.8746 24.8316 83.3281 25.0593C82.7561 25.2945 82.2571 25.6776 81.8821 26.1693C82.2305 25.482 82.3596 24.7044 82.2521 23.9413C82.1511 23.2006 81.8088 22.5139 81.2781 21.9873C80.7317 21.4617 80.0303 21.1264 79.2781 21.0313C78.5511 20.9263 77.8102 21.0791 77.1841 21.4633C76.8049 21.7218 76.4843 22.057 76.2431 22.4474C76.0019 22.8378 75.8455 23.2746 75.7841 23.7293C75.6281 24.7673 75.8734 25.8258 76.4701 26.6893C76.4753 26.6955 76.4782 26.7033 76.4782 26.7113C76.4782 26.7194 76.4753 26.7272 76.4701 26.7333C76.4636 26.7387 76.4555 26.7416 76.4471 26.7416C76.4387 26.7416 76.4306 26.7387 76.4241 26.7333C76.1141 26.5054 75.7621 26.3409 75.3883 26.2492C75.0146 26.1576 74.6264 26.1407 74.2461 26.1993C73.8823 26.2408 73.5325 26.3637 73.2227 26.5589C72.9129 26.7542 72.6511 27.0168 72.4568 27.3271C72.2625 27.6375 72.1407 27.9877 72.1004 28.3517C72.0601 28.7156 72.1024 29.084 72.2241 29.4293C72.3402 29.8238 72.5385 30.1893 72.806 30.5016C73.0735 30.8139 73.4041 31.066 73.7761 31.2413C72.829 31.0454 71.8429 31.2331 71.0341 31.7633C70.6803 31.9825 70.3767 32.274 70.1434 32.6186C69.91 32.9633 69.7522 33.3534 69.6801 33.7633C69.608 34.4758 69.8057 35.1895 70.2341 35.7633C70.7003 36.4145 71.3703 36.8917 72.1381 37.1193L71.3821 37.1393L70.6261 37.1593C69.6249 37.1866 68.6754 37.6101 67.9862 38.3368C67.2969 39.0635 66.9243 40.0341 66.9501 41.0353C66.9773 42.0364 67.4009 42.9857 68.1277 43.6746C68.8545 44.3635 69.825 44.7357 70.8261 44.7093L73.9401 44.6273L77.0541 44.5453L77.2741 51.9093L77.4961 59.2733H83.1661L82.9441 51.8333L82.7201 44.3933L83.8901 44.3633L85.0601 44.3313V31.0513L84.9941 31.0653L84.9261 31.0953Z" fill="#E9CF81"/>
<path d="M115.46 56.8981C114.586 56.2481 113.61 55.7341 112.66 55.1841C111.71 54.6341 110.8 54.0501 110.048 53.2621C109.426 52.5976 108.926 51.8276 108.574 50.9881C108.218 50.1442 107.974 49.2573 107.848 48.3501C107.618 46.6069 107.678 44.8376 108.026 43.1141C108.376 41.3726 108.867 39.6623 109.494 38.0001C110.094 36.3421 110.766 34.7021 111.36 33.0401C111.978 31.3912 112.454 29.6923 112.782 27.9621L110.556 27.4001L108.33 26.8301H108.308H108.284C107.714 29.0861 106.926 31.2761 106.128 33.4641C105.33 35.6521 104.516 37.8361 103.896 40.0801C103.244 42.3308 102.891 44.6574 102.846 47.0001C102.834 49.3301 103.224 51.6241 104.216 53.7301C104.693 54.7371 105.298 55.6783 106.016 56.5301C106.735 57.3869 107.557 58.1514 108.464 58.8061C108.582 58.8901 108.704 58.9721 108.83 59.0501C108.956 59.1281 109.086 59.2041 109.218 59.2781H117.768C117.449 58.8219 117.094 58.3913 116.708 57.9901C116.323 57.592 115.906 57.2267 115.46 56.8981Z" fill="#666538"/>
<path d="M107.222 30.2576L108.568 33.5695L109.914 36.8815C109.914 36.8815 110.438 35.5395 110.976 34.0975C111.514 32.6555 112.068 31.1175 112.128 30.7195L111.1 28.8276L110.072 26.9355L108.648 28.5995L107.222 30.2576Z" fill="#353519"/>
<path d="M103.068 15.6358C102.137 15.589 101.211 15.8082 100.4 16.2678C99.6083 16.7143 98.9708 17.3908 98.5721 18.2078C98.1596 19.0794 98.0161 20.0542 98.1601 21.0078C98.2928 21.9939 98.8069 22.8886 99.5921 23.4998C100.174 23.9344 100.868 24.1957 101.592 24.2538C102.355 24.316 103.121 24.1882 103.822 23.8818C102.846 24.3081 102.057 25.0722 101.6 26.0338C101.15 26.9739 101.061 28.0464 101.35 29.0478C101.654 30.0494 102.312 30.9065 103.2 31.4598C104.056 32.0171 105.09 32.2314 106.096 32.0598C107.009 31.8772 107.829 31.3821 108.416 30.6598C108.734 30.2863 108.996 29.8686 109.194 29.4198C109.355 29.953 109.594 30.4597 109.902 30.9238C110.465 31.8167 111.309 32.4961 112.302 32.8538C113.281 33.1857 114.339 33.2059 115.33 32.9118C116.334 32.6327 117.202 31.9988 117.774 31.1278C118.171 30.4952 118.392 29.7682 118.414 29.0218C118.432 28.5751 118.392 28.128 118.294 27.6918C119.013 28.5431 119.938 29.1965 120.98 29.5898C121.939 29.9543 122.988 30.0089 123.98 29.7458C124.457 29.6159 124.912 29.4179 125.332 29.1578C126.069 28.7123 126.636 28.0339 126.944 27.2298C127.252 26.3671 127.252 25.4245 126.944 24.5618C126.796 24.1119 126.581 23.6866 126.308 23.2998C127.381 23.6387 128.54 23.5739 129.568 23.1178C130.545 22.6959 131.321 21.9137 131.736 20.9338C132.109 20.0004 132.113 18.9602 131.748 18.0238C131.418 17.1313 130.832 16.3557 130.064 15.7938C129.527 15.4141 128.912 15.1592 128.264 15.0478C127.856 14.975 127.441 14.9522 127.028 14.9798C127.428 14.6939 127.79 14.3578 128.104 13.9798C128.593 13.4018 128.916 12.7025 129.04 11.9558C129.24 10.6658 128.758 9.31778 127.89 8.26978C127.022 7.22178 125.762 6.46978 124.396 6.38178C123.371 6.33235 122.357 6.61731 121.508 7.19378C121.025 7.50778 120.588 7.88666 120.208 8.31978C120.251 7.74761 120.221 7.17226 120.118 6.60778C119.972 5.74727 119.589 4.94421 119.014 4.28778C117.938 3.10378 116.214 2.58378 114.514 2.68778C112.814 2.79178 111.152 3.53778 110.2 4.88778C109.64 5.70601 109.338 6.67252 109.33 7.66378C109.317 8.27857 109.384 8.89247 109.53 9.48978C108.929 8.69937 108.133 8.07901 107.22 7.68978C106.352 7.3155 105.393 7.20827 104.464 7.38178C103.215 7.64996 102.109 8.36827 101.356 9.39978C100.616 10.4158 100.258 11.6618 100.544 12.8298C100.756 13.6141 101.207 14.3131 101.834 14.8298C102.208 15.1524 102.623 15.4235 103.068 15.6358Z" fill="#DEB8FC"/>
<path d="M111.548 15.3995C110.807 15.1627 110.023 15.0943 109.252 15.1995C108.865 15.2528 108.495 15.3888 108.166 15.5983C107.836 15.8078 107.556 16.0859 107.344 16.4135C107.06 16.8534 106.919 17.3706 106.941 17.8939C106.963 18.4171 107.146 18.9208 107.466 19.3355C107.768 19.7633 108.174 20.1067 108.646 20.3332C109.118 20.5597 109.64 20.6617 110.162 20.6295C110.108 20.6295 110.02 20.7555 109.94 20.8855C109.86 21.0155 109.79 21.1555 109.766 21.1955C109.574 21.51 109.45 21.8617 109.403 22.2274C109.356 22.5931 109.387 22.9646 109.494 23.3175C109.606 23.6688 109.794 23.991 110.046 24.2607C110.297 24.5305 110.605 24.7411 110.948 24.8775C111.64 25.1655 112.442 25.0455 113.148 24.7035C113.841 24.3754 114.417 23.8437 114.8 23.1795C114.963 22.8478 115.103 22.505 115.218 22.1535C115.338 21.8115 115.418 21.5355 115.418 21.5355C116.08 22.3095 116.482 22.7355 116.718 22.9795C116.813 23.0825 116.916 23.1769 117.028 23.2615C117.317 23.4374 117.63 23.5721 117.956 23.6615C118.58 23.8501 119.248 23.8319 119.86 23.6095C120.018 23.5494 120.171 23.4751 120.316 23.3875C120.467 23.2956 120.61 23.1898 120.742 23.0715C121.269 22.5951 121.615 21.9516 121.722 21.2495C121.785 20.9034 121.771 20.5477 121.68 20.2078C121.589 19.868 121.425 19.5523 121.198 19.2835C120.993 19.0695 120.77 18.8735 120.532 18.6975C120.306 18.5255 120.12 18.4015 120.12 18.4015L120.386 18.2715L120.622 18.1535C120.965 17.9732 121.269 17.7263 121.516 17.4272C121.762 17.1281 121.947 16.7828 122.058 16.4115C122.179 16.0394 122.223 15.6465 122.187 15.2568C122.151 14.8671 122.036 14.489 121.848 14.1455C121.616 13.7357 121.278 13.3965 120.869 13.164C120.459 12.9315 119.995 12.8145 119.524 12.8255C119.052 12.824 118.584 12.923 118.153 13.1162C117.722 13.3093 117.337 13.592 117.024 13.9455C117.036 13.7871 117.036 13.6279 117.024 13.4695C117.012 13.2617 116.978 13.0558 116.922 12.8555C116.755 12.2826 116.425 11.7706 115.972 11.3815C115.737 11.1741 115.475 10.9992 115.194 10.8615C114.639 10.6068 114.029 10.4974 113.42 10.5435C112.766 10.5834 112.149 10.8566 111.68 11.3135C111.286 11.7203 111.024 12.237 110.93 12.7955C110.877 13.0809 110.861 13.372 110.882 13.6615C110.9 13.8315 110.934 13.9995 110.982 14.1635C111.02 14.2911 111.067 14.416 111.122 14.5375C111.148 14.6095 111.214 14.8115 111.292 15.0015C111.37 15.1915 111.472 15.3675 111.548 15.3995Z" fill="#F98638"/>
<path d="M155.906 100.033H153.406H150.906V83.2394V66.4434H153.406H155.906V83.2394V100.033Z" fill="#F4ECE5"/>
<path d="M82.8 61.0875C82.8028 62.3598 82.3645 63.5937 81.5596 64.579C80.7547 65.5644 79.6331 66.2402 78.3858 66.4914C77.1386 66.7425 75.8428 66.5535 74.7193 65.9565C73.5957 65.3595 72.7139 64.3914 72.2241 63.2172C71.7342 62.043 71.6666 60.7353 72.0327 59.5168C72.3989 58.2983 73.1761 57.2445 74.2321 56.5348C75.2881 55.8251 76.5575 55.5034 77.824 55.6246C79.0905 55.7458 80.2758 56.3024 81.178 57.1995C81.6914 57.7085 82.0991 58.3142 82.3774 58.9814C82.6558 59.6487 82.7994 60.3644 82.8 61.0875Z" fill="#AD4D4D"/>
<path d="M77.748 69.1816C77.748 70.8672 77.1635 72.5007 76.0942 73.8037C75.0248 75.1068 73.5367 75.9987 71.8834 76.3275C70.2302 76.6564 68.514 76.4018 67.0274 75.6072C65.5408 74.8126 64.3757 73.5271 63.7306 71.9697C63.0856 70.4124 63.0004 68.6795 63.4898 67.0665C63.9791 65.4534 65.0126 64.0599 66.4142 63.1234C67.8157 62.1869 69.4987 61.7654 71.1762 61.9306C72.8537 62.0958 74.4221 62.8376 75.614 64.0296C76.2912 64.7057 76.8283 65.5088 77.1945 66.3929C77.5607 67.277 77.7488 68.2246 77.748 69.1816Z" fill="#AD4D4D"/>
<path d="M105.422 100.033H102.922H100.422V83.2394V66.4434H102.922H105.422V83.2394V100.033Z" fill="#F4ECE5"/>
<path d="M198.32 100.445H57.7621C57.6963 100.445 57.6332 100.419 57.5861 100.373C57.5626 100.35 57.5439 100.322 57.5312 100.292C57.5185 100.261 57.512 100.228 57.5121 100.195C57.512 100.163 57.5184 100.13 57.5312 100.1C57.5439 100.07 57.5626 100.042 57.5861 100.019C57.6091 99.996 57.6365 99.9774 57.6667 99.9647C57.6969 99.952 57.7293 99.9454 57.7621 99.9453H198.32C198.386 99.9458 198.45 99.9723 198.496 100.019C198.543 100.066 198.57 100.129 198.57 100.195C198.57 100.262 198.544 100.325 198.497 100.372C198.45 100.419 198.386 100.445 198.32 100.445Z" fill="#666538"/>
<path d="M119.518 127.424H126.9H134.282V95.1099V62.7959L125.802 62.8219L117.322 62.8479L118.42 95.1359L119.518 127.424Z" fill="#666538"/>
<path d="M111.174 126.384L108.174 115.022L105.174 103.66C104.907 102.656 104.633 101.656 104.352 100.66C104.071 99.6636 103.782 98.667 103.486 97.6696C102.993 96.0099 102.709 94.2955 102.64 92.5656C102.574 90.5056 102.872 88.2296 103.97 86.1656L109.666 74.4236L115.364 62.6816L123.574 62.7396L131.786 62.7976C129.846 68.087 127.905 73.3756 125.964 78.6636C124.023 83.9516 122.082 89.241 120.142 94.5316L122.878 108.92L125.614 123.308L118.4 124.848L111.174 126.384Z" fill="#666538"/>
<path d="M161.7 25.1494L160.78 25.1754L159.858 25.1994C159.853 25.1995 159.848 25.1978 159.844 25.1945C159.84 25.1912 159.837 25.1865 159.836 25.1814C159.835 25.1762 159.837 25.1708 159.84 25.1664C159.843 25.162 159.847 25.1588 159.852 25.1574C160.533 24.9264 161.157 24.5543 161.684 24.0654C162.144 23.641 162.475 23.0944 162.636 22.4894C162.769 21.9081 162.736 21.3013 162.542 20.7374C162.441 20.4213 162.3 20.1195 162.122 19.8394C161.61 19.0694 160.848 18.4994 159.964 18.2254C158.977 17.9128 157.922 17.883 156.918 18.1394C157.873 17.922 158.726 17.3886 159.34 16.6254C159.89 15.9583 160.201 15.1268 160.224 14.2628C160.248 13.3987 159.983 12.5515 159.47 11.8554C159.003 11.1896 158.331 10.6947 157.557 10.4459C156.782 10.1972 155.948 10.2082 155.18 10.4774C154.356 10.7542 153.634 11.2719 153.108 11.9634C153.545 11.103 153.707 10.129 153.572 9.17342C153.445 8.24626 153.016 7.3867 152.352 6.72742C151.67 6.06683 150.792 5.64569 149.85 5.52742C148.94 5.39469 148.012 5.5858 147.228 6.06742C146.755 6.39125 146.355 6.81117 146.055 7.29982C145.755 7.78846 145.561 8.33487 145.486 8.90343C145.289 10.203 145.596 11.5285 146.344 12.6094C146.351 12.6171 146.355 12.6271 146.355 12.6374C146.355 12.6478 146.351 12.6577 146.344 12.6654C146.336 12.6723 146.326 12.6761 146.316 12.6761C146.306 12.6761 146.296 12.6723 146.288 12.6654C145.899 12.3801 145.456 12.1748 144.987 12.0615C144.518 11.9482 144.031 11.9292 143.554 12.0054C143.098 12.0569 142.66 12.2105 142.272 12.4548C141.884 12.6992 141.556 13.028 141.313 13.4167C141.069 13.8054 140.917 14.244 140.866 14.6998C140.816 15.1557 140.869 15.617 141.022 16.0494C141.168 16.543 141.416 17.0002 141.751 17.3911C142.085 17.782 142.499 18.0976 142.964 18.3174C141.779 18.0706 140.545 18.3044 139.532 18.9674C138.606 19.5794 137.968 20.4994 137.836 21.4734C137.737 22.3719 137.982 23.2746 138.522 23.9994C139.106 24.8146 139.945 25.4121 140.906 25.6974L139.958 25.7234L139.01 25.7474C137.757 25.7815 136.568 26.3116 135.706 27.2214C134.843 28.1312 134.377 29.3462 134.41 30.5994C134.426 31.2201 134.565 31.8315 134.818 32.3987C135.07 32.9658 135.432 33.4776 135.883 33.9048C136.333 34.332 136.864 34.6662 137.444 34.8884C138.023 35.1105 138.641 35.2162 139.262 35.1994L143.16 35.0954L147.06 34.9914L147.424 47.1374L147.8 59.2894H154.9L154.532 47.0494L154.164 34.8114L158.064 34.7074L161.962 34.6034C163.215 34.5694 164.404 34.0392 165.266 33.1295C166.129 32.2197 166.595 31.0047 166.562 29.7514C166.528 28.4979 165.998 27.3091 165.087 26.4465C164.177 25.5839 162.962 25.1181 161.708 25.1514L161.7 25.1494Z" fill="#BAB653"/>
<path d="M132.498 59.2893C132.415 57.542 132.74 55.7995 133.446 54.1993C134.622 51.5413 137.202 48.6633 142.82 47.7753C144.751 47.4675 146.724 47.5539 148.62 48.0293C150.512 48.5031 152.276 49.3911 153.784 50.6293C154.624 51.3283 155.369 52.1353 155.998 53.0293C156.329 53.493 156.623 53.9818 156.878 54.4913C157.311 55.3643 157.633 56.2882 157.836 57.2413C157.978 57.9141 158.062 58.598 158.086 59.2853H132.486L132.498 59.2893Z" fill="#F4ECE5"/>
<path d="M184.25 100.033H181.75H179.25V83.2394V66.4434H181.75H184.25V83.2394V100.033Z" fill="#F4ECE5"/>
<path d="M106.852 47.0234C107.397 45.8343 108.068 44.7066 108.852 43.6594C110.008 42.1168 111.418 40.7824 113.022 39.7134C113.502 39.3955 113.998 39.1024 114.508 38.8354C115.31 38.4128 116.145 38.0576 117.006 37.7734C120.052 36.7734 123.024 36.9194 125.458 37.4134C127.271 37.79 129.031 38.3899 130.696 39.1994C130.696 39.1994 133.076 40.1014 135.614 42.5294C138.152 44.9574 140.85 48.9154 141.484 55.0234L142.72 66.4514L143.956 77.8794L138.4 78.4334L132.85 78.9994L131.774 70.9014L130.696 62.7994L123.574 62.8294L116.452 62.8574C115.539 62.8608 114.66 62.5134 113.996 61.887C113.332 61.2606 112.934 60.403 112.884 59.4914C111.973 60.5344 110.962 61.4862 109.866 62.3334C108.28 63.5334 106.228 64.5974 104.066 64.4394C103.537 64.3955 103.015 64.2915 102.51 64.1294C102.291 64.0621 102.077 63.9813 101.868 63.8874C101.208 63.575 100.611 63.1431 100.108 62.6134C99.6771 62.1642 99.3048 61.6622 99 61.1194C98.8324 60.8178 98.6841 60.5059 98.556 60.1854C98.4285 59.8646 98.3197 59.5368 98.23 59.2034L95.926 50.6954L93.624 42.1994L99.024 40.4574L104.424 38.7154L105.634 42.8754L106.852 47.0234Z" fill="#E9CF81"/>
<mask id="mask0_6346_36434" style="mask-type:luminance" maskUnits="userSpaceOnUse" x="93" y="37" width="51" height="42">
<path d="M106.852 47.0234C107.397 45.8343 108.067 44.7066 108.852 43.6594C110.007 42.1168 111.418 40.7824 113.022 39.7134C113.502 39.3955 113.998 39.1024 114.508 38.8354C115.309 38.4128 116.145 38.0576 117.006 37.7734C120.052 36.7734 123.024 36.9194 125.458 37.4134C127.271 37.79 129.03 38.3899 130.696 39.1994C130.696 39.1994 133.076 40.1014 135.614 42.5294C138.152 44.9574 140.85 48.9154 141.484 55.0234L142.72 66.4514L143.956 77.8794L138.4 78.4334L132.85 78.9994L131.774 70.9014L130.696 62.7994L123.574 62.8294L116.452 62.8574C115.539 62.8608 114.659 62.5134 113.995 61.887C113.331 61.2606 112.933 60.403 112.884 59.4914C111.972 60.5344 110.961 61.4862 109.866 62.3334C108.28 63.5334 106.228 64.5974 104.066 64.4394C103.537 64.3955 103.015 64.2915 102.51 64.1294C102.291 64.0621 102.076 63.9813 101.868 63.8874C101.207 63.575 100.611 63.1431 100.108 62.6134C99.6767 62.1642 99.3044 61.6622 98.9997 61.1194C98.832 60.8178 98.6837 60.5059 98.5557 60.1854C98.4282 59.8646 98.3193 59.5368 98.2297 59.2034L95.9257 50.6954L93.6237 42.1994L99.0237 40.4574L104.424 38.7154L105.634 42.8754L106.852 47.0234Z" fill="white"/>
</mask>
<g mask="url(#mask0_6346_36434)">
<path d="M147.336 64.7333C147.354 64.588 147.362 64.4416 147.36 64.2953C147.358 64.1457 147.344 63.9966 147.318 63.8493C147.208 63.2014 146.887 62.6081 146.405 62.1617C145.923 61.7153 145.306 61.441 144.652 61.3814C143.997 61.3218 143.342 61.4804 142.787 61.8323C142.232 62.1843 141.809 62.7099 141.584 63.3273C141.294 63.1678 140.981 63.0564 140.656 62.9973C140.02 62.8842 139.365 62.981 138.788 63.2729C138.212 63.5649 137.747 64.0362 137.462 64.6158C137.177 65.1955 137.088 65.852 137.209 66.4865C137.33 67.1209 137.654 67.6989 138.132 68.1333C137.553 68.6691 137.211 69.4124 137.18 70.2003C137.149 70.9881 137.431 71.7562 137.966 72.336C138.5 72.9159 139.242 73.2601 140.03 73.2934C140.818 73.3266 141.587 73.0461 142.168 72.5133C142.445 73.1932 142.964 73.7467 143.624 74.0676C144.285 74.3884 145.04 74.4539 145.746 74.2515C146.452 74.0492 147.058 73.5932 147.448 72.9711C147.838 72.349 147.985 71.6048 147.86 70.8813C147.86 70.8433 147.846 70.8033 147.836 70.7653C147.826 70.7273 147.818 70.6873 147.808 70.6493H147.82C148.555 70.5246 149.216 70.1289 149.673 69.5403C150.131 68.9518 150.351 68.2132 150.29 67.4703C150.229 66.7275 149.892 66.0345 149.345 65.5281C148.798 65.0217 148.081 64.7388 147.336 64.7353V64.7333Z" fill="#F4ECE5"/>
<path d="M134.304 48.8894C134.322 48.7448 134.33 48.5991 134.328 48.4534C134.326 48.3031 134.312 48.1533 134.286 48.0054C134.22 47.6196 134.079 47.2505 133.87 46.9194C133.662 46.5882 133.39 46.3014 133.07 46.0753C132.751 45.8493 132.39 45.6884 132.008 45.6019C131.627 45.5154 131.232 45.5051 130.846 45.5714C130.32 45.6601 129.828 45.8895 129.422 46.2354C129.029 46.5703 128.73 47.0008 128.552 47.4854C128.263 47.325 127.949 47.2135 127.624 47.1554C127.153 47.0719 126.668 47.1031 126.212 47.2464C125.755 47.3898 125.34 47.641 125.001 47.9788C124.661 48.3167 124.409 48.7312 124.264 49.1873C124.119 49.6435 124.086 50.1278 124.168 50.5994C124.281 51.2528 124.609 51.8497 125.1 52.2954C124.735 52.6312 124.46 53.0533 124.3 53.5229C124.141 53.9925 124.101 54.4946 124.186 54.9834C124.263 55.4415 124.447 55.875 124.722 56.2494C124.997 56.6238 125.356 56.9285 125.77 57.1392C126.185 57.3499 126.642 57.4608 127.107 57.4629C127.571 57.465 128.03 57.3583 128.446 57.1514C128.696 57.0262 128.928 56.8667 129.134 56.6774C129.39 57.2982 129.847 57.8151 130.432 58.1454C130.923 58.4228 131.482 58.5552 132.045 58.5273C132.608 58.4993 133.152 58.3121 133.613 57.9874C134.074 57.6627 134.433 57.2139 134.649 56.6931C134.864 56.1722 134.928 55.6009 134.832 55.0454C134.832 55.0054 134.818 54.9674 134.808 54.9274C134.798 54.8874 134.79 54.8514 134.78 54.8134H134.792C135.525 54.6862 136.184 54.2894 136.639 53.7012C137.094 53.1129 137.313 52.3756 137.252 51.6343C137.192 50.8929 136.856 50.201 136.311 49.6945C135.766 49.1881 135.052 48.9037 134.308 48.8974L134.304 48.8894Z" fill="#F4ECE5"/>
<path d="M117.314 39.7757C117.403 39.6601 117.482 39.5377 117.552 39.4097C117.624 39.2809 117.687 39.1472 117.74 39.0097C117.969 38.3936 117.987 37.719 117.793 37.0913C117.598 36.4635 117.201 35.9177 116.664 35.539C116.127 35.1603 115.48 34.9699 114.823 34.9975C114.166 35.0251 113.537 35.2692 113.034 35.6917C112.865 35.4075 112.649 35.1539 112.396 34.9417C112.134 34.7202 111.836 34.5469 111.514 34.4297C111.147 34.2937 110.757 34.2314 110.366 34.2463C109.975 34.2612 109.591 34.353 109.235 34.5164C108.88 34.6799 108.56 34.9118 108.294 35.1989C108.028 35.486 107.821 35.8227 107.686 36.1897C107.569 36.5041 107.506 36.8362 107.502 37.1717C107.497 37.4951 107.544 37.8173 107.642 38.1257C107.016 38.2682 106.453 38.609 106.036 39.0974C105.619 39.5858 105.372 40.1957 105.33 40.8362C105.288 41.4768 105.454 42.1138 105.803 42.6525C106.152 43.1911 106.666 43.6026 107.268 43.8257C107.54 43.9251 107.825 43.9851 108.114 44.0037C108.393 44.021 108.673 43.9988 108.946 43.9377C108.856 44.6033 108.993 45.2798 109.336 45.8577C109.623 46.342 110.041 46.7351 110.542 46.9915C111.043 47.2478 111.607 47.3568 112.167 47.306C112.728 47.2551 113.263 47.0464 113.709 46.704C114.156 46.3617 114.497 45.8997 114.692 45.3717C114.706 45.3337 114.72 45.2957 114.73 45.2577C114.74 45.2197 114.754 45.1817 114.764 45.1437H114.776C115.475 45.4037 116.246 45.3921 116.936 45.1112C117.627 44.8302 118.187 44.3003 118.506 43.6263C118.825 42.9523 118.88 42.1831 118.659 41.4709C118.438 40.7586 117.958 40.1551 117.314 39.7797V39.7757Z" fill="#F4ECE5"/>
<path d="M107.766 60.186C107.87 60.0838 107.967 59.9742 108.056 59.858C108.145 59.7381 108.227 59.6125 108.3 59.482C108.615 58.9055 108.731 58.2409 108.63 57.5917C108.528 56.9424 108.214 56.3451 107.738 55.8927C107.261 55.4403 106.648 55.1582 105.995 55.0904C105.341 55.0227 104.683 55.173 104.124 55.518C103.908 54.9997 103.549 54.553 103.09 54.2295C102.631 53.906 102.09 53.7189 101.529 53.6896C100.968 53.6603 100.41 53.7902 99.9202 54.0641C99.4299 54.3381 99.027 54.745 98.758 55.238C98.4401 55.82 98.3267 56.4919 98.436 57.146C97.95 57.186 97.4808 57.3424 97.068 57.602C96.5693 57.9204 96.1766 58.38 95.9399 58.9222C95.7032 59.4645 95.6331 60.0649 95.7386 60.6471C95.8441 61.2292 96.1204 61.7669 96.5323 62.1916C96.9443 62.6163 97.4733 62.9088 98.052 63.032C98.3261 63.0887 98.6068 63.1069 98.886 63.086C98.6836 63.7912 98.7484 64.5462 99.0681 65.2066C99.3878 65.867 99.9398 66.3862 100.618 66.6648C101.297 66.9435 102.055 66.962 102.746 66.7168C103.438 66.4716 104.014 65.98 104.366 65.336L104.42 65.23L104.468 65.122C105.122 65.4767 105.885 65.574 106.607 65.3947C107.329 65.2155 107.958 64.7726 108.37 64.1532C108.782 63.5338 108.948 62.7827 108.834 62.0475C108.72 61.3123 108.336 60.6461 107.756 60.18L107.766 60.186Z" fill="#F4ECE5"/>
<path d="M98.6 43.5361C98.7044 43.4339 98.8013 43.3242 98.89 43.2081C98.9798 43.0878 99.0613 42.9615 99.134 42.8301C99.3844 42.3688 99.5085 41.8496 99.4938 41.3249C99.4791 40.8003 99.3261 40.2888 99.0502 39.8423C98.7744 39.3958 98.3855 39.03 97.923 38.782C97.4604 38.5341 96.9405 38.4126 96.416 38.4301C95.8995 38.4485 95.3966 38.6001 94.956 38.8701C94.8301 38.5647 94.6536 38.2827 94.434 38.0361C94.2053 37.7807 93.9348 37.5663 93.634 37.4021C92.9413 37.0268 92.1282 36.9409 91.3724 37.1631C90.6165 37.3853 89.9793 37.8976 89.6 38.5881C89.4387 38.8819 89.3291 39.2012 89.276 39.5321C89.224 39.8513 89.224 40.1768 89.276 40.4961C88.8859 40.5256 88.5056 40.6317 88.1565 40.8082C87.8075 40.9848 87.4967 41.2284 87.2418 41.5251C86.9869 41.8217 86.7929 42.1657 86.6709 42.5374C86.549 42.909 86.5014 43.301 86.531 43.6911C86.5605 44.0811 86.6666 44.4615 86.8432 44.8105C87.0197 45.1595 87.2633 45.4704 87.56 45.7253C87.8566 45.9802 88.2006 46.1741 88.5723 46.2961C88.9439 46.4181 89.3359 46.4656 89.726 46.4361C89.5302 47.1388 89.5989 47.8889 89.9192 48.5443C90.2395 49.1997 90.789 49.7148 91.4637 49.9921C92.1384 50.2695 92.8914 50.2897 93.58 50.049C94.2686 49.8083 94.845 49.3233 95.2 48.6861L95.254 48.5781L95.302 48.4701C95.955 48.8244 96.7167 48.922 97.4379 48.7438C98.1591 48.5656 98.7878 48.1244 99.2006 47.5068C99.6135 46.8892 99.7807 46.1396 99.6696 45.4051C99.5585 44.6705 99.177 44.004 98.6 43.5361Z" fill="#F4ECE5"/>
<path d="M122.618 65.0234C122.722 64.9211 122.819 64.8115 122.908 64.6954C122.997 64.5754 123.079 64.4498 123.152 64.3194C123.402 63.8581 123.526 63.3389 123.512 62.8142C123.497 62.2896 123.344 61.7781 123.068 61.3316C122.792 60.8851 122.404 60.5193 121.941 60.2713C121.478 60.0233 120.959 59.9019 120.434 59.9194C119.918 59.9395 119.415 60.0917 118.974 60.3614C118.725 59.764 118.289 59.264 117.73 58.9368C117.172 58.6097 116.522 58.4734 115.88 58.5484C115.237 58.6234 114.636 58.9058 114.168 59.3527C113.7 59.7996 113.39 60.3868 113.286 61.0254C113.234 61.3446 113.234 61.6701 113.286 61.9894C112.8 62.0294 112.331 62.1858 111.918 62.4454C111.419 62.7638 111.027 63.2233 110.79 63.7656C110.553 64.3078 110.483 64.9082 110.589 65.4904C110.694 66.0726 110.97 66.6102 111.382 67.0349C111.794 67.4596 112.323 67.7522 112.902 67.8754C113.176 67.9321 113.457 67.9502 113.736 67.9294C113.531 68.635 113.594 69.3916 113.913 70.0536C114.232 70.7156 114.784 71.2363 115.464 71.5155C116.144 71.7947 116.903 71.8127 117.595 71.566C118.287 71.3194 118.864 70.8255 119.214 70.1794C119.234 70.1434 119.252 70.1074 119.268 70.0734C119.284 70.0394 119.302 70.0014 119.318 69.9654C119.972 70.3201 120.735 70.4174 121.457 70.2381C122.179 70.0588 122.808 69.616 123.22 68.9966C123.632 68.3772 123.797 67.6261 123.684 66.8908C123.57 66.1556 123.186 65.4895 122.606 65.0234H122.618Z" fill="#F4ECE5"/>
</g>
<path d="M130.696 63.0437C130.635 63.0438 130.576 63.0218 130.53 62.9817C130.484 62.941 130.455 62.8847 130.448 62.8237L129.894 58.1557L129.342 53.4857C129.336 53.4523 129.338 53.4181 129.346 53.3852C129.354 53.3523 129.368 53.3213 129.389 53.2942C129.409 53.2671 129.435 53.2445 129.464 53.2276C129.493 53.2107 129.526 53.2 129.56 53.196C129.593 53.1921 129.627 53.195 129.66 53.2047C129.692 53.2143 129.722 53.2305 129.749 53.2521C129.775 53.2738 129.796 53.3005 129.811 53.3307C129.827 53.3609 129.836 53.3939 129.838 53.4277L130.4 58.0957L130.952 62.7657C130.959 62.8314 130.941 62.8973 130.9 62.9493C130.859 63.0013 130.8 63.0352 130.734 63.0437H130.704H130.696Z" fill="#2B3D0A"/>
<path d="M112.884 59.7376C112.818 59.7373 112.755 59.7115 112.708 59.6656C112.662 59.6183 112.636 59.5555 112.634 59.4896L112.586 56.3516L112.54 53.2116C112.54 53.1457 112.565 53.0822 112.611 53.035C112.657 52.9877 112.72 52.9607 112.786 52.9596C112.819 52.9571 112.852 52.962 112.884 52.9737C112.915 52.9854 112.943 53.0039 112.966 53.0276C113.013 53.0752 113.039 53.139 113.04 53.2056L113.086 56.3436L113.134 59.4836C113.135 59.5499 113.11 59.6139 113.064 59.6616C113.017 59.7086 112.954 59.7358 112.888 59.7376H112.884Z" fill="#2B3D0A"/>
<path d="M78.2621 37.872C78.2624 38.3209 78.1071 38.7561 77.8226 39.1033C77.538 39.4505 77.1419 39.6883 76.7016 39.7761C76.2614 39.8639 75.8043 39.7964 75.4083 39.5849C75.0123 39.3735 74.7019 39.0313 74.53 38.6166C74.3581 38.2019 74.3353 37.7404 74.4655 37.3108C74.5957 36.8812 74.8709 36.5101 75.2441 36.2606C75.6174 36.0112 76.0656 35.8989 76.5123 35.9429C76.959 35.987 77.3767 36.1845 77.6941 36.502C77.8743 36.6817 78.0173 36.8952 78.1148 37.1303C78.2122 37.3655 78.2623 37.6175 78.2621 37.872Z" fill="#F98638"/>
<path d="M96.4199 32.7996C96.4946 32.7932 96.5676 32.7743 96.6359 32.7436C96.6754 32.7249 96.7134 32.7036 96.7499 32.6796C96.9679 32.5356 97.1019 32.2796 97.1399 31.7716C97.1621 30.9806 97.1051 30.1893 96.9699 29.4096V29.3876C96.8766 28.721 96.7613 28.0576 96.6239 27.3976C96.4866 26.7376 96.3319 26.083 96.1599 25.4336C96.1059 25.2336 96.0539 25.0216 96.0019 24.8136C95.9499 24.6056 95.8979 24.3936 95.8479 24.1796C95.8079 24.0076 95.7699 23.8356 95.7319 23.6656C95.6939 23.4956 95.6579 23.3276 95.6219 23.1616C95.5742 22.9292 95.5986 22.6878 95.6919 22.4696C95.7839 22.2527 95.9478 22.074 96.1559 21.9636L96.2039 21.9396L96.2539 21.9176C96.4732 21.8306 96.7135 21.8111 96.9439 21.8616C97.1806 21.9142 97.3972 22.0336 97.5679 22.2056C97.7089 22.0423 97.8913 21.92 98.0959 21.8516C98.2986 21.785 98.5156 21.7749 98.7235 21.8225C98.9314 21.8701 99.1224 21.9735 99.2759 22.1216C99.4283 22.2695 99.5388 22.4551 99.5959 22.6596C99.702 22.6245 99.8123 22.6037 99.9239 22.5976C100.188 22.5841 100.45 22.6554 100.672 22.8011C100.893 22.9467 101.062 23.1593 101.154 23.4076C101.364 23.9536 101.576 24.4996 101.786 25.0476L102.42 26.6856C102.969 28.0929 103.339 29.5638 103.52 31.0636L103.98 34.8876L104.438 38.7136L99.5719 40.2816L94.7059 41.8496L93.3579 36.7616L91.9999 31.6636C91.817 31.0404 91.6833 30.4038 91.5999 29.7596C91.5338 29.3688 91.5372 28.9693 91.6099 28.5796C91.6437 28.4396 91.6969 28.305 91.7679 28.1796C91.8368 28.0545 91.9367 27.9491 92.0579 27.8736C92.5359 27.5816 92.9299 27.7636 93.2399 28.0996C93.5275 28.4501 93.7607 28.8418 93.9319 29.2616C94.1059 29.6476 94.3839 30.2716 94.7019 30.8856C94.9696 31.4472 95.312 31.9699 95.7199 32.4396C95.8452 32.5735 95.9981 32.6786 96.1679 32.7476C96.2476 32.7817 96.3333 32.7994 96.4199 32.7996Z" fill="#FFAA9F"/>
<path d="M99.02 27.4314C98.9659 27.4314 98.9133 27.4138 98.87 27.3814C98.8268 27.3489 98.7952 27.3033 98.78 27.2514L98.052 24.7594L97.324 22.2674C97.3068 22.2036 97.3146 22.1355 97.346 22.0774C97.3781 22.0193 97.4318 21.9762 97.4955 21.9575C97.5591 21.9388 97.6276 21.9459 97.686 21.9774C97.7438 22.0101 97.7868 22.0638 97.806 22.1274L98.532 24.6194L99.26 27.1114C99.278 27.175 99.2703 27.2432 99.2385 27.3012C99.2067 27.3592 99.1534 27.4023 99.09 27.4214H99.054L99.02 27.4314Z" fill="#AD4D4D"/>
<path d="M100.918 27.1419C100.865 27.1414 100.813 27.1241 100.77 27.0925C100.728 27.0609 100.696 27.0166 100.68 26.9659L100.016 24.8459L99.354 22.7259C99.3435 22.6948 99.3395 22.6619 99.3423 22.6292C99.345 22.5966 99.3545 22.5648 99.37 22.5359C99.4013 22.4773 99.4545 22.4335 99.518 22.4139C99.5505 22.4021 99.5852 22.3974 99.6197 22.4002C99.6542 22.4029 99.6877 22.4131 99.718 22.4299C99.7765 22.4612 99.8204 22.5144 99.84 22.5779L100.504 24.6959L101.168 26.8159C101.187 26.8793 101.18 26.9476 101.15 27.0062C101.119 27.0648 101.067 27.1092 101.004 27.1299H100.966L100.918 27.1419Z" fill="#AD4D4D"/>
<path d="M60.6639 59.2632H60.6439C60.578 59.2568 60.5171 59.2253 60.4739 59.1752C60.4525 59.1503 60.4363 59.1214 60.4263 59.0901C60.4163 59.0588 60.4128 59.0259 60.4159 58.9932L61.6899 43.4432L62.9639 27.8932C62.9665 27.8605 62.9757 27.8286 62.9908 27.7994C63.0059 27.7702 63.0267 27.7443 63.0519 27.7232C63.0767 27.7017 63.1056 27.6855 63.1369 27.6755C63.1682 27.6655 63.2012 27.662 63.2339 27.6652C63.2666 27.6679 63.2985 27.677 63.3277 27.6921C63.3569 27.7073 63.3828 27.728 63.4039 27.7532C63.4254 27.778 63.4416 27.807 63.4516 27.8382C63.4616 27.8695 63.4651 27.9025 63.4619 27.9352L62.1879 43.4832L60.9139 59.0332C60.9086 59.096 60.8801 59.1545 60.8339 59.1972C60.7876 59.24 60.7269 59.2636 60.6639 59.2632Z" fill="#666538"/>
<path d="M60.664 59.2632H60.616L60.57 59.2492C60.5089 59.2231 60.4601 59.1744 60.434 59.1132C60.4206 59.0816 60.4137 59.0476 60.4137 59.0132C60.4137 58.9789 60.4206 58.9449 60.434 58.9132L63.444 51.6412L66.444 44.3692C66.4701 44.3081 66.5189 44.2593 66.58 44.2332C66.6117 44.2198 66.6457 44.2129 66.68 44.2129C66.7144 44.2129 66.7484 44.2198 66.78 44.2332C66.8102 44.2459 66.8376 44.2645 66.8606 44.2878C66.8836 44.3112 66.9018 44.3388 66.914 44.3692C66.9285 44.4006 66.9361 44.4347 66.9361 44.4692C66.9361 44.5038 66.9285 44.5379 66.914 44.5692L63.914 51.8412L60.904 59.1132C60.8842 59.1594 60.8516 59.199 60.81 59.2272C60.7661 59.2537 60.7152 59.2662 60.664 59.2632Z" fill="#666538"/>
<path d="M168.504 51.4878C168.052 50.7598 167.556 50.0038 167.008 49.2258C166.46 48.4478 165.864 47.6498 165.208 46.8378C164.36 45.7818 163.51 44.8158 162.676 43.9358C161.842 43.0558 161.028 42.2598 160.248 41.5478C159.673 41.0138 158.991 40.6081 158.248 40.3578C157.657 40.1435 157.007 40.1628 156.43 40.4118C156.322 40.4642 156.219 40.5264 156.122 40.5978C155.965 40.7113 155.829 40.8522 155.722 41.0138C155.438 41.4518 155.382 42.0338 155.536 42.6678C155.735 43.3995 156.1 44.0755 156.602 44.6438C157.178 45.4278 157.83 46.2578 158.568 47.1138C159.306 47.9698 160.13 48.8478 161.046 49.7318C163.297 51.902 165.797 53.7978 168.494 55.3798V51.4878H168.504Z" fill="#E9CF81"/>
<path d="M168.504 54.55C167.61 54.306 166.72 54.06 165.83 53.806C164.94 53.552 164.052 53.288 163.17 53.006C161.17 52.382 159.936 52.268 159.156 52.364C158.376 52.46 158.052 52.764 157.876 52.996C157.721 53.2009 157.626 53.4444 157.6 53.7C157.566 53.9371 157.592 54.179 157.676 54.4033C157.76 54.6277 157.899 54.8274 158.08 54.984C158.434 55.344 159.052 55.76 160.126 56.194C161.494 56.7279 162.925 57.0835 164.384 57.252C165.711 57.4131 167.048 57.4746 168.384 57.436C168.406 57.372 168.428 57.302 168.448 57.236C168.468 57.17 168.484 57.08 168.496 56.992L168.508 56.89V56.794C168.508 56.42 168.508 56.048 168.508 55.674C168.508 55.3 168.504 54.924 168.504 54.55Z" fill="#E9CF81"/>
<path d="M168.504 44.5698C168.388 44.3258 167.162 41.7318 165.826 39.0058C164.49 36.2798 163.046 33.4238 162.496 32.6538C162.382 32.4946 162.252 32.3478 162.108 32.2158C161.984 32.1018 161.874 32.0158 161.8 31.9618C161.464 31.7058 161.078 31.5244 160.666 31.4298C160.304 31.3445 159.926 31.3689 159.578 31.4998C159.367 31.5836 159.175 31.7079 159.012 31.8658C158.906 31.9693 158.811 32.0832 158.728 32.2058C158.507 32.5277 158.37 32.8996 158.328 33.2878C158.289 33.6481 158.305 34.0121 158.374 34.3678C158.429 34.6662 158.513 34.9583 158.626 35.2398C158.736 35.5212 158.87 35.7928 159.026 36.0518L163.762 43.7698L168.498 51.4878V44.5698H168.504Z" fill="#E9CF81"/>
<path d="M177.444 13.8593C177.692 13.0773 178.12 12.0433 178.748 11.3253C179.376 10.6073 180.208 10.2073 181.262 10.6953C182.556 11.2953 182.768 12.6653 182.564 14.1213C182.36 15.5773 181.744 17.1213 181.38 18.0433C180.891 19.2913 180.399 20.5387 179.904 21.7853C179.409 23.032 178.913 24.2773 178.414 25.5213C178.065 26.3987 177.713 27.2767 177.358 28.1553C177.003 29.034 176.65 29.9113 176.298 30.7873L175.71 32.2433L175.12 33.7013C175.012 33.9673 174.904 34.2333 174.798 34.5013L174.474 35.3013C174.392 35.5013 174.24 35.7713 174.106 36.0453C173.974 36.2817 173.891 36.5422 173.862 36.8113V26.2933C174.142 25.1747 174.441 24.0367 174.758 22.8793C175.075 21.722 175.415 20.546 175.778 19.3513C175.978 18.6613 176.194 17.9513 176.408 17.2273C176.622 16.5033 176.84 15.7873 177.068 15.0833C177.13 14.8833 177.192 14.6833 177.254 14.4833C177.316 14.2833 177.378 14.0693 177.444 13.8593Z" fill="#E9CF81"/>
<path d="M73.6959 37.4961H71.4199C71.3536 37.4961 71.29 37.4698 71.2431 37.4229C71.1963 37.376 71.1699 37.3124 71.1699 37.2461C71.17 37.2133 71.1766 37.1809 71.1893 37.1507C71.202 37.1205 71.2206 37.0931 71.2439 37.0701C71.2668 37.0466 71.2941 37.0279 71.3244 37.0152C71.3546 37.0024 71.3871 36.996 71.4199 36.9961H73.6959C73.729 36.996 73.7618 37.0025 73.7923 37.0152C73.8229 37.028 73.8506 37.0466 73.8739 37.0701C73.9087 37.1052 73.9323 37.1498 73.9417 37.1982C73.9512 37.2467 73.9461 37.2969 73.927 37.3425C73.908 37.388 73.8759 37.427 73.8348 37.4543C73.7936 37.4816 73.7453 37.4962 73.6959 37.4961Z" fill="#00AA61"/>
<path d="M75.1239 39.2899C75.124 40.6341 74.6581 41.9367 73.8055 42.9759C72.9528 44.015 71.7662 44.7264 70.4479 44.9887C69.1296 45.2511 67.7611 45.0482 66.5755 44.4147C65.39 43.7811 64.4609 42.7561 63.9464 41.5143C63.4319 40.2725 63.3639 38.8907 63.7539 37.6044C64.144 36.318 64.9681 35.2068 66.0857 34.4599C67.2033 33.713 68.5452 33.3768 69.883 33.5084C71.2207 33.6401 72.4714 34.2315 73.4219 35.1819C73.9619 35.721 74.3902 36.3614 74.6822 37.0663C74.9743 37.7712 75.1244 38.5269 75.1239 39.2899Z" fill="#DEB8FC"/>
<path d="M173.862 36.8097C176.644 32.0097 179.106 27.8637 181.034 24.7157C182.962 21.5677 184.348 19.4097 184.98 18.5777C185.472 17.9347 186.107 17.4149 186.834 17.0597C187.582 16.7157 188.394 16.6377 189.09 17.1377C189.786 17.6377 189.954 18.4297 189.89 19.2677C189.814 20.0791 189.601 20.8717 189.26 21.6117C188.498 23.3217 187.184 25.2817 185.986 26.9057C184.788 28.5297 183.702 29.8117 183.4 30.1677L178.636 35.7997C177.044 37.6757 175.453 39.5531 173.862 41.4317V36.8097Z" fill="#E9CF81"/>
<path d="M173.862 41.4331C173.862 41.4331 174.17 39.8331 175.832 37.3131C177.494 34.7931 180.506 31.3811 185.918 27.7571C186.197 27.5813 186.49 27.4294 186.794 27.3031C187.434 27.0207 188.125 26.8736 188.824 26.8711C188.968 26.8723 189.111 26.8877 189.252 26.9171C189.453 26.9596 189.643 27.0434 189.81 27.1631C189.928 27.2508 190.034 27.3552 190.122 27.4731C190.184 27.5528 190.236 27.6402 190.276 27.7331C190.413 28.1389 190.384 28.5824 190.196 28.9671C190.051 29.3 189.864 29.6132 189.64 29.8991L181.752 38.7091L173.862 47.5091V41.4331Z" fill="#E9CF81"/>
<path d="M87.6 61.5698C88.3532 61.6567 89.0969 61.812 89.822 62.0338C90.8221 62.3399 91.7776 62.7763 92.664 63.3318C92.986 63.5318 93.288 63.7457 93.574 63.9657C93.86 64.1857 94.126 64.4098 94.374 64.6398C95.3456 65.5372 96.1573 66.5936 96.774 67.7638C97.3887 68.9363 97.812 70.1996 98.028 71.5058L99.324 79.3058L100.62 87.1058C100.746 87.7969 100.785 88.501 100.736 89.2018C100.673 90.1937 100.392 91.1595 99.912 92.0298C99.086 93.5058 97.68 94.6298 95.958 95.2618C94.0712 95.9271 92.0346 96.0443 90.084 95.5998L81.884 93.3478L73.684 91.0937L78.338 76.0937L82.99 61.0938L85.292 61.3357L87.6 61.5698Z" fill="#F4ECE5"/>
<path d="M173.862 46.4941C174.622 46.0301 175.429 45.5454 176.284 45.0401C177.139 44.5347 178.04 44.0127 178.988 43.4741C179.817 43.0071 180.671 42.5858 181.546 42.2121C182.79 41.6921 184.166 41.2741 184.908 41.5701C185.181 41.6759 185.428 41.8397 185.632 42.0501C185.715 42.1332 185.787 42.2266 185.846 42.3281C185.92 42.4687 185.969 42.6209 185.992 42.7781C186.007 42.8746 186.013 42.9724 186.01 43.0701C185.992 43.5271 185.817 43.964 185.516 44.3081C185.283 44.5873 185.019 44.8396 184.73 45.0601C184.11 45.5581 182.79 46.2461 180.93 47.0401C179.07 47.8341 176.658 48.7341 173.864 49.6581V46.4941H173.862Z" fill="#E9CF81"/>
<path d="M90.6561 93.7698H84.0981C83.7344 93.7698 83.3743 93.6981 83.0383 93.5589C82.7024 93.4197 82.3972 93.2156 82.1401 92.9584C81.883 92.7011 81.6792 92.3957 81.5402 92.0597C81.4012 91.7236 81.3298 91.3635 81.3301 90.9998V77.8838H93.4241V90.9998C93.4241 91.3633 93.3525 91.7232 93.2134 92.0591C93.0743 92.3949 92.8704 92.7 92.6133 92.9571C92.3563 93.2141 92.0512 93.418 91.7153 93.5571C91.3795 93.6962 91.0196 93.7678 90.6561 93.7678V93.7698Z" fill="#F98638"/>
<path d="M75.926 89.7158C74.6682 89.7616 73.4465 90.1488 72.392 90.8358C70.592 91.9898 68.7 94.3338 68.392 99.0918L66.254 113.53L64.1179 127.97C64.0895 128.173 64.1171 128.381 64.198 128.57C64.2836 128.762 64.4224 128.926 64.598 129.042C65.7001 129.795 66.9544 130.296 68.272 130.51C69.932 130.76 71.942 130.51 74.038 129.038C74.9538 129.715 75.9923 130.209 77.0959 130.492C78.9559 130.976 81.4759 130.976 84.1179 129.038C85.112 129.617 86.1873 130.044 87.308 130.304C89.216 130.76 91.754 130.858 94.264 129.434C94.4542 129.327 94.6092 129.167 94.7099 128.974C94.8119 128.78 94.8537 128.561 94.83 128.344L93.528 115.836L92.2 103.336C92.5947 103.057 92.9708 102.753 93.326 102.426C93.7806 102.008 94.1988 101.551 94.576 101.062C94.576 101.062 94.674 100.934 94.812 100.742C94.95 100.55 95.128 100.288 95.288 100.022C95.72 99.2998 96.028 98.0838 96.152 96.5098C96.2726 94.6238 96.1901 92.7302 95.906 90.8618L85.906 90.2878L75.926 89.7158Z" fill="#E9CF81"/>
<path d="M67.8759 38.7436C67.6176 38.742 67.3636 38.6775 67.1359 38.5556C66.8971 38.431 66.6914 38.2514 66.5359 38.0316C66.3177 38.2265 66.051 38.3592 65.7639 38.4156C65.4581 38.4778 65.1407 38.4473 64.8525 38.3279C64.5642 38.2085 64.3181 38.0057 64.1459 37.7456C63.9601 37.4678 63.8644 37.1396 63.8719 36.8056C63.8729 36.74 63.8997 36.6774 63.9465 36.6314C63.9933 36.5854 64.0562 36.5596 64.1219 36.5596C64.1885 36.5613 64.2518 36.5893 64.2979 36.6376C64.3208 36.6611 64.3388 36.6889 64.3509 36.7195C64.3629 36.7501 64.3687 36.7827 64.3679 36.8156C64.3621 37.0464 64.4278 37.2734 64.5559 37.4656C64.682 37.6555 64.8646 37.801 65.0779 37.8816C65.2846 37.956 65.5088 37.9671 65.7219 37.9136C65.9378 37.8587 66.1327 37.7411 66.2819 37.5756C66.3212 37.5326 66.3697 37.4991 66.4239 37.4776C66.4791 37.4578 66.538 37.451 66.5963 37.4576C66.6545 37.4642 66.7105 37.484 66.7599 37.5156C66.8085 37.5486 66.8489 37.5924 66.8779 37.6436C67.0102 37.879 67.2181 38.0629 67.4679 38.1656C67.7031 38.2642 67.9671 38.2692 68.2059 38.1796C68.4069 38.0943 68.5737 37.9444 68.6799 37.7536C68.7937 37.5502 68.8458 37.3181 68.8299 37.0856C68.8263 37.0192 68.8485 36.954 68.8919 36.9036C68.9132 36.8789 68.9392 36.8588 68.9684 36.8444C68.9976 36.83 69.0294 36.8215 69.0619 36.8196C69.1282 36.816 69.1934 36.8382 69.2439 36.8816C69.2686 36.9032 69.2888 36.9295 69.3033 36.9591C69.3177 36.9886 69.3261 37.0207 69.3279 37.0536C69.351 37.3903 69.2722 37.7262 69.1019 38.0176C68.9401 38.2983 68.6907 38.5183 68.3919 38.6436C68.2247 38.7085 68.0472 38.7424 67.8679 38.7436H67.8759Z" fill="#666538"/>
<path d="M157.696 98.7793L155 101.545L152.298 104.309C152.298 104.309 151.752 104.789 151.298 106.021C150.844 107.253 150.486 109.241 150.856 112.253C150.96 113.101 151.056 113.949 151.164 114.797C151.272 115.645 151.364 116.495 151.442 117.345L152.072 123.673L152.694 129.999L158.532 129.291L164.37 128.583L163.57 120.783L162.77 112.995L165.096 110.999L167.414 108.987L169.782 110.947L172.152 112.905L171.376 120.599L170.6 128.287L176.456 128.717L182.312 129.145L183.176 123.345L184.04 117.545C184.09 117.197 184.15 116.775 184.218 116.291C184.286 115.807 184.362 115.259 184.442 114.663C184.624 113.313 184.726 112.479 184.784 111.939C184.842 111.399 184.858 111.157 184.868 110.993C184.924 110.039 184.962 109.319 184.938 108.695C184.926 108.108 184.823 107.525 184.632 106.969C184.501 106.617 184.327 106.281 184.116 105.969C183.862 105.569 183.516 105.091 183.036 104.461C181.902 102.969 180.734 101.607 179.85 100.617C178.966 99.6273 178.364 99.0173 178.364 99.0173L173.1 98.9653L157.696 98.7793Z" fill="#AD4D4D"/>
<path d="M92.2002 103.585C92.1388 103.585 92.0796 103.563 92.0342 103.521C91.9871 103.481 91.9577 103.423 91.9522 103.361L91.8182 102.053L91.6842 100.747C91.6808 100.714 91.684 100.681 91.6936 100.65C91.7032 100.618 91.7191 100.589 91.7402 100.563C91.7605 100.538 91.7859 100.516 91.8148 100.501C91.8437 100.485 91.8755 100.476 91.9082 100.473C91.9406 100.47 91.9734 100.472 92.0047 100.482C92.036 100.491 92.065 100.506 92.0902 100.527C92.1418 100.569 92.1748 100.629 92.1822 100.695L92.3162 102.003L92.4502 103.309C92.4561 103.376 92.436 103.442 92.3942 103.493C92.3525 103.545 92.2921 103.578 92.2262 103.585H92.2002Z" fill="#666538"/>
<path d="M151.842 83.0318C151.774 82.9758 152.22 82.3418 152.704 81.6998C153.188 81.0578 153.704 80.4078 153.788 80.2998C154.282 79.7159 154.808 79.1604 155.364 78.6358C155.92 78.1109 156.503 77.6162 157.112 77.1538C159.871 75.0923 163.164 73.8658 166.6 73.6198C170.039 73.3319 173.485 74.0801 176.494 75.7678C178.246 76.7678 179.674 78.1398 180.954 79.6578C182.234 81.1758 183.354 82.8418 184.508 84.4418L181.26 86.8658L178 89.2918L178.178 94.1398L178.356 98.9878L168.022 98.8838L157.688 98.7798L157.842 93.5218L157.998 88.2638L154.916 85.6478L151.842 83.0318Z" fill="#F98638"/>
<path d="M176.212 98.7194C176.211 98.793 176.184 98.8638 176.136 98.9194C176.087 98.9757 176.02 99.0132 175.946 99.0254L169.946 99.9614L167.874 100.283L165.688 99.9414L159.82 99.0254C159.743 99.0154 159.672 98.9778 159.62 98.9194C159.573 98.8634 159.547 98.7926 159.546 98.7194V86.7994C159.546 86.7538 159.556 86.7088 159.575 86.6675C159.594 86.6262 159.622 86.5897 159.657 86.5605C159.692 86.5312 159.733 86.5101 159.777 86.4985C159.821 86.4869 159.867 86.4852 159.912 86.4934L165.512 87.4674L167.832 87.8674C167.849 87.8693 167.867 87.8693 167.884 87.8674C167.902 87.8694 167.92 87.8694 167.938 87.8674L170.254 87.4674L175.854 86.4934C175.899 86.4852 175.945 86.4871 175.99 86.4989C176.034 86.5106 176.075 86.532 176.11 86.5614C176.145 86.5903 176.173 86.6267 176.193 86.6678C176.212 86.709 176.222 86.7539 176.222 86.7994V98.7194H176.212Z" fill="#DEB8FC"/>
<path d="M184.51 84.4414L181.26 86.8654L178 89.2914L178.754 90.9734L179.51 92.6554H176.084L175.128 91.3254L174.174 89.9994C174.174 89.9994 174.14 89.9434 174.086 89.8694C174.023 89.7826 173.951 89.7033 173.87 89.6334C173.816 89.5889 173.753 89.5568 173.686 89.5394C173.62 89.5225 173.552 89.5225 173.486 89.5394C173.431 89.5522 173.38 89.5782 173.337 89.6151C173.294 89.6521 173.261 89.6988 173.24 89.7514C173.177 89.9675 173.185 90.198 173.262 90.4094L173.334 90.6814C173.356 90.7734 173.378 90.8634 173.398 90.9554L173.564 91.7554L173.732 92.5554C173.736 92.5743 173.734 92.5938 173.727 92.6118C173.721 92.6298 173.709 92.6456 173.694 92.6574C173.679 92.6696 173.661 92.6772 173.642 92.6793C173.623 92.6815 173.603 92.678 173.586 92.6694L171.736 91.7574L169.886 90.8454L169.744 90.7734L169.602 90.7014L169.402 90.5954L169.322 90.5554C169.229 90.509 169.131 90.4734 169.03 90.4494C168.881 90.4112 168.723 90.421 168.58 90.4774C168.451 90.5383 168.345 90.6394 168.278 90.7654C168.236 90.8415 168.203 90.9229 168.182 91.0074C168.058 90.9457 167.919 90.9207 167.782 90.9354C167.65 90.9496 167.526 91.0056 167.428 91.0954C167.367 91.1526 167.318 91.2213 167.284 91.2975C167.249 91.3737 167.231 91.4559 167.228 91.5394C167.223 91.7206 167.285 91.8973 167.402 92.0354C167.337 92.0934 167.281 92.1608 167.236 92.2354C167.205 92.2846 167.181 92.3377 167.164 92.3934C167.105 92.5917 167.119 92.8047 167.204 92.9934C167.302 93.2154 167.454 93.4093 167.646 93.5574L169.204 95.1274L170.764 96.6974C171.164 97.1019 171.589 97.48 172.038 97.8294C172.486 98.1784 172.958 98.4946 173.452 98.7754C173.834 98.9966 174.231 99.1904 174.64 99.3554C175.024 99.5131 175.428 99.6168 175.84 99.6634L180.4 99.9074L184.968 100.169C185.584 100.209 186.202 100.152 186.8 99.9994C187.397 99.8445 187.962 99.5881 188.472 99.2414C189.123 98.8099 189.645 98.2099 189.982 97.5054C190.34 96.7354 190.492 95.7554 190.262 94.5054C190.179 94.0562 190.05 93.6166 189.878 93.1934C189.706 92.7691 189.496 92.3609 189.252 91.9734L186.878 88.1994L184.51 84.4414Z" fill="#FFAA9F"/>
<path d="M167.846 100.33C167.813 100.33 167.781 100.324 167.75 100.311C167.72 100.298 167.693 100.279 167.67 100.256C167.647 100.233 167.628 100.206 167.615 100.175C167.602 100.145 167.596 100.113 167.596 100.08L167.614 94.0898L167.632 88.0898C167.632 88.0235 167.658 87.9599 167.705 87.9131C167.752 87.8662 167.816 87.8398 167.882 87.8398C167.915 87.8397 167.947 87.8462 167.978 87.8589C168.008 87.8716 168.035 87.8903 168.058 87.9138C168.081 87.9368 168.1 87.9642 168.113 87.9944C168.125 88.0246 168.132 88.0571 168.132 88.0898L168.114 94.0898L168.096 100.08C168.096 100.146 168.069 100.209 168.022 100.255C167.975 100.302 167.912 100.328 167.846 100.328V100.33Z" fill="#2B3D0A"/>
<path d="M171.476 93.5993C171.45 93.599 171.425 93.5956 171.4 93.5893C171.375 93.581 171.351 93.5689 171.33 93.5534L169.68 92.3794L168.028 91.1993C168.001 91.1804 167.978 91.1563 167.961 91.1285C167.943 91.1007 167.931 91.0697 167.926 91.0373C167.915 90.9716 167.93 90.9041 167.968 90.8493C167.987 90.8225 168.011 90.7996 168.039 90.7821C168.067 90.7647 168.098 90.7529 168.131 90.7475C168.163 90.7421 168.197 90.7432 168.229 90.7507C168.261 90.7583 168.291 90.7721 168.318 90.7914L169.968 91.9653L171.62 93.1393C171.647 93.1583 171.669 93.1824 171.687 93.2102C171.704 93.238 171.716 93.269 171.722 93.3013C171.733 93.3671 171.718 93.4346 171.68 93.4893C171.656 93.5221 171.624 93.5488 171.588 93.5674C171.554 93.587 171.515 93.598 171.476 93.5993Z" fill="#AD4D4D"/>
<path d="M170.6 94.7457C170.545 94.7465 170.491 94.7281 170.448 94.6937L168.848 93.4577L167.248 92.2217C167.196 92.181 167.162 92.1214 167.154 92.0558C167.145 91.9902 167.164 91.924 167.204 91.8717C167.224 91.8455 167.249 91.8236 167.277 91.807C167.305 91.7905 167.337 91.7798 167.369 91.7756C167.402 91.7713 167.435 91.7735 167.467 91.7821C167.498 91.7907 167.528 91.8055 167.554 91.8257L169.154 93.0617L170.754 94.2977C170.806 94.3384 170.84 94.398 170.848 94.4636C170.856 94.5292 170.838 94.5954 170.798 94.6477C170.775 94.6791 170.745 94.7045 170.71 94.7217C170.675 94.7376 170.638 94.7458 170.6 94.7457Z" fill="#AD4D4D"/>
<path d="M151.842 83.0312L154.924 85.6473L158 88.2633C157.72 88.9366 157.441 89.6093 157.162 90.2813L156.322 92.2993H159.758L160.712 90.9693L161.666 89.6393C161.666 89.6393 161.7 89.5833 161.754 89.5093C161.817 89.4225 161.889 89.3433 161.97 89.2733C162.024 89.2282 162.086 89.1954 162.154 89.1773C162.22 89.1615 162.288 89.1615 162.354 89.1773C162.409 89.1897 162.46 89.2154 162.503 89.2519C162.546 89.2885 162.579 89.335 162.6 89.3873C162.663 89.604 162.655 89.8352 162.578 90.0473L162.506 90.3193C162.484 90.4093 162.462 90.5013 162.444 90.5933L162.276 91.3933L162.11 92.1933C162.106 92.2119 162.107 92.2315 162.113 92.2495C162.119 92.2676 162.131 92.2835 162.146 92.2953C162.161 92.307 162.179 92.3144 162.198 92.3165C162.217 92.3186 162.237 92.3154 162.254 92.3073L164.104 91.3953L165.954 90.4833L166.096 90.4113L166.238 90.3393L166.438 90.2333L166.518 90.1913C166.611 90.1464 166.709 90.1116 166.81 90.0873C166.959 90.0489 167.117 90.0587 167.26 90.1153C167.389 90.1762 167.495 90.2772 167.562 90.4033C167.604 90.479 167.636 90.5596 167.658 90.6432C167.782 90.5821 167.921 90.5578 168.058 90.5733C168.19 90.5875 168.313 90.6428 168.412 90.7313C168.535 90.848 168.606 91.0081 168.612 91.1773C168.617 91.3581 168.556 91.5345 168.44 91.6733C168.505 91.7312 168.56 91.7986 168.604 91.8733C168.635 91.9227 168.66 91.9758 168.678 92.0313C168.736 92.2298 168.721 92.4427 168.636 92.6313C168.539 92.854 168.388 93.0488 168.196 93.1973L166.636 94.7673L165.076 96.3373C164.677 96.7416 164.251 97.1191 163.802 97.4673C163.358 97.811 162.889 98.1225 162.4 98.3993C162.018 98.6206 161.62 98.8138 161.21 98.9773C160.826 99.1358 160.422 99.2401 160.01 99.2873L155.442 99.5493L150.874 99.8113C150.257 99.8475 149.638 99.7875 149.04 99.6333C148.444 99.4779 147.878 99.2215 147.368 98.8753C146.717 98.4432 146.196 97.8434 145.858 97.1393C145.502 96.3693 145.35 95.3893 145.578 94.1393C145.663 93.6897 145.791 93.2496 145.962 92.8253C146.135 92.4018 146.344 91.9943 146.588 91.6073L149.21 87.3153L151.842 83.0312Z" fill="#FFAA9F"/>
<path d="M164.372 93.2379C164.333 93.2373 164.294 93.2285 164.258 93.2119C164.221 93.1937 164.19 93.166 164.168 93.1319C164.129 93.0781 164.113 93.0112 164.124 92.9459C164.136 92.8808 164.172 92.8228 164.226 92.7839L165.878 91.6099L167.53 90.4359C167.584 90.3971 167.651 90.3813 167.716 90.3919C167.781 90.4038 167.839 90.4403 167.878 90.4939C167.916 90.5479 167.931 90.6146 167.92 90.6797C167.909 90.7448 167.873 90.803 167.82 90.8419L166.168 92.0179L164.516 93.1999C164.494 93.2148 164.471 93.2262 164.446 93.2339C164.422 93.239 164.397 93.2404 164.372 93.2379Z" fill="#AD4D4D"/>
<path d="M165.246 94.3998C165.208 94.4002 165.171 94.3913 165.138 94.3738C165.103 94.3574 165.072 94.3327 165.048 94.3018C165.008 94.2494 164.99 94.1833 164.998 94.1178C165.002 94.085 165.012 94.0534 165.029 94.0248C165.045 93.9963 165.068 93.9714 165.094 93.9518L166.694 92.7158L168.294 91.4798C168.347 91.4393 168.414 91.4214 168.48 91.4298C168.546 91.4386 168.606 91.4731 168.646 91.5258C168.666 91.5516 168.681 91.5812 168.689 91.6128C168.698 91.6443 168.7 91.6773 168.696 91.7097C168.687 91.7754 168.652 91.8348 168.6 91.8758L167 93.1118L165.4 94.3478C165.379 94.3646 165.354 94.3775 165.328 94.3858C165.302 94.3955 165.274 94.4002 165.246 94.3998Z" fill="#AD4D4D"/>
<path d="M163.026 74.1338C162.906 75.2478 162.716 77.0018 162.562 78.5018C162.408 80.0018 162.282 81.2458 162.294 81.3418C162.296 81.376 162.307 81.4091 162.326 81.4378C162.333 81.4483 162.341 81.4572 162.352 81.4638C162.365 81.4661 162.377 81.4661 162.39 81.4638C162.428 81.4625 162.464 81.4515 162.496 81.4318C162.58 81.3858 163.384 80.4318 164.38 79.2518C165.376 78.0718 166.564 76.6278 167.416 75.5978L165.216 74.8618L163.026 74.1338Z" fill="#F4ECE5"/>
<path d="M167.416 75.6C168.24 76.596 169.065 77.596 169.89 78.6C170.715 79.604 171.54 80.6007 172.364 81.59C172.376 81.6034 172.391 81.6129 172.408 81.6172C172.425 81.6215 172.443 81.6204 172.46 81.614C172.476 81.6072 172.49 81.5954 172.499 81.5803C172.508 81.5651 172.512 81.5475 172.51 81.53L172.2 77.636L171.884 73.75L169.654 74.678L167.416 75.6Z" fill="#F4ECE5"/>
<path d="M167.724 80.9997C167.725 81.063 167.713 81.1258 167.689 81.1845C167.666 81.2432 167.63 81.2966 167.586 81.3417C167.541 81.3864 167.488 81.4219 167.43 81.4462C167.372 81.4704 167.309 81.4829 167.246 81.4829C167.183 81.4829 167.12 81.4704 167.062 81.4462C167.004 81.4219 166.951 81.3864 166.906 81.3417C166.815 81.2527 166.762 81.1312 166.76 81.0037C166.758 80.8762 166.807 80.7533 166.896 80.6618C166.985 80.5703 167.107 80.5178 167.234 80.5157C167.297 80.5146 167.36 80.526 167.419 80.5493C167.478 80.5725 167.532 80.6072 167.577 80.6512C167.623 80.6952 167.659 80.7477 167.684 80.8058C167.71 80.8639 167.723 80.9264 167.724 80.9897V80.9997Z" fill="#F4ECE5"/>
<path d="M167.724 85.9337C167.725 85.997 167.713 86.0598 167.689 86.1185C167.666 86.1772 167.63 86.2306 167.586 86.2757C167.541 86.3205 167.488 86.356 167.43 86.3802C167.372 86.4044 167.309 86.4169 167.246 86.4169C167.183 86.4169 167.12 86.4044 167.062 86.3802C167.004 86.356 166.951 86.3205 166.906 86.2757C166.814 86.1862 166.762 86.0639 166.76 85.9357C166.759 85.8404 166.786 85.7469 166.838 85.6669C166.89 85.587 166.964 85.5242 167.051 85.4865C167.139 85.4488 167.236 85.438 167.33 85.4553C167.423 85.4726 167.51 85.5173 167.578 85.5837C167.625 85.6292 167.662 85.6837 167.687 85.7438C167.712 85.804 167.725 85.8686 167.724 85.9337Z" fill="#F4ECE5"/>
<path d="M156.328 92.5498H153.384C153.318 92.5498 153.254 92.5235 153.207 92.4766C153.16 92.4297 153.134 92.3661 153.134 92.2998C153.134 92.2335 153.16 92.1699 153.207 92.123C153.254 92.0761 153.318 92.0498 153.384 92.0498H156.328C156.394 92.0498 156.458 92.0761 156.505 92.123C156.552 92.1699 156.578 92.2335 156.578 92.2998C156.578 92.3661 156.552 92.4297 156.505 92.4766C156.458 92.5235 156.394 92.5498 156.328 92.5498Z" fill="#AD4D4D"/>
<path d="M182.05 92.9053H179.518C179.469 92.9054 179.42 92.8908 179.379 92.8635C179.338 92.8361 179.306 92.7972 179.287 92.7516C179.268 92.7061 179.263 92.6559 179.272 92.6074C179.282 92.5589 179.305 92.5143 179.34 92.4793C179.363 92.4558 179.391 92.4371 179.422 92.4244C179.452 92.4117 179.485 92.4052 179.518 92.4053H182.05C182.083 92.4052 182.116 92.4117 182.146 92.4244C182.177 92.4371 182.205 92.4558 182.228 92.4793C182.263 92.5143 182.286 92.5589 182.296 92.6074C182.305 92.6559 182.3 92.7061 182.281 92.7516C182.262 92.7972 182.23 92.8361 182.189 92.8635C182.148 92.8908 182.099 92.9054 182.05 92.9053Z" fill="#AD4D4D"/>
<path d="M132.85 79L133.2 83L133.54 87.018C133.603 87.7744 133.707 88.5269 133.852 89.272C133.996 90.0156 134.183 90.7502 134.412 91.472C134.616 92.1667 134.895 92.8373 135.244 93.472C135.562 94.006 135.916 94.344 136.296 94.296C136.476 94.7021 136.75 95.0594 137.096 95.338C137.393 95.5805 137.765 95.7133 138.148 95.714C138.25 95.7112 138.352 95.6978 138.452 95.674C138.591 95.6394 138.726 95.587 138.852 95.518C138.975 95.6727 139.114 95.8136 139.268 95.938C139.465 96.0962 139.689 96.2187 139.928 96.3C140.048 96.342 140.173 96.3669 140.3 96.374C140.367 96.3784 140.435 96.3724 140.5 96.356C140.64 96.3217 140.769 96.253 140.876 96.156C140.945 96.0966 141.008 96.0295 141.062 95.956C141.24 95.72 141.29 95.4 141.214 94.82C141.138 94.24 140.942 93.406 140.628 92.134C140.602 92.028 140.556 91.844 140.494 91.602C140.432 91.36 140.352 91.054 140.258 90.708C140.226 90.594 140.204 90.508 140.186 90.454C140.168 90.4 140.158 90.352 140.148 90.312C140.047 89.9091 139.972 89.5003 139.922 89.088C139.876 88.716 139.856 88.382 139.848 88.088C139.848 87.72 139.834 87.35 139.848 86.982C139.86 86.6128 139.9 86.245 139.968 85.882C140.004 85.6656 140.065 85.4542 140.15 85.252C140.229 85.0461 140.383 84.8781 140.582 84.782C140.683 84.742 140.791 84.7236 140.9 84.7281C141.008 84.7326 141.115 84.7598 141.212 84.808C141.411 84.8997 141.579 85.0469 141.696 85.232C141.815 85.4346 141.901 85.6546 141.952 85.884C142.008 86.116 142.046 86.352 142.09 86.576C142.156 86.908 142.23 87.238 142.318 87.564C142.406 87.8907 142.515 88.2113 142.644 88.524C142.934 89.216 143.212 89.584 143.444 89.78C143.566 89.9062 143.728 89.9867 143.902 90.008C143.953 90.0129 144.005 90.0129 144.056 90.008C144.14 89.9979 144.222 89.9736 144.298 89.936C144.423 89.8584 144.531 89.7552 144.614 89.6333C144.697 89.5113 144.754 89.3732 144.78 89.228C144.874 88.812 144.893 88.3826 144.836 87.96C144.814 87.76 144.79 87.56 144.768 87.36C144.746 87.16 144.726 86.96 144.708 86.76L144.344 82.318L143.982 77.876L138.4 78.434L132.85 79Z" fill="#FFAA9F"/>
<path d="M138.84 95.7719C138.797 95.7722 138.754 95.7612 138.716 95.7399C138.677 95.7181 138.645 95.6854 138.624 95.6459C138.098 94.7259 137.598 93.1839 137.224 91.8459C136.85 90.5079 136.608 89.3839 136.588 89.2919C136.574 89.2272 136.587 89.1598 136.622 89.1039C136.64 89.0762 136.663 89.0523 136.69 89.0338C136.717 89.0152 136.748 89.0023 136.78 88.9959C136.812 88.9881 136.845 88.9872 136.878 88.993C136.91 88.9989 136.941 89.0114 136.968 89.0299C136.996 89.0474 137.019 89.0702 137.038 89.097C137.056 89.1238 137.069 89.154 137.076 89.1859C137.076 89.2079 137.322 90.3179 137.69 91.6439C138.058 92.9699 138.548 94.5099 139.056 95.3959C139.072 95.4245 139.083 95.4561 139.087 95.4888C139.091 95.5215 139.089 95.5547 139.08 95.5865C139.071 95.6182 139.057 95.648 139.036 95.674C139.016 95.7 138.991 95.7217 138.962 95.7379C138.944 95.7493 138.923 95.7574 138.902 95.7619C138.882 95.768 138.861 95.7714 138.84 95.7719Z" fill="#AD4D4D"/>
<path d="M136.286 94.5515C136.235 94.5517 136.185 94.5356 136.144 94.5055C136.101 94.4764 136.068 94.4344 136.05 94.3855C135.918 94.0235 135.792 93.6555 135.67 93.2855C135.548 92.9155 135.436 92.5415 135.33 92.1695C135.197 91.7069 135.074 91.2402 134.962 90.7695C134.85 90.2995 134.748 89.8255 134.658 89.3555C134.646 89.2903 134.659 89.2228 134.696 89.1675C134.714 89.1402 134.738 89.1168 134.765 89.0986C134.793 89.0804 134.824 89.0678 134.856 89.0615C134.922 89.0499 134.989 89.0643 135.044 89.1015C135.098 89.1388 135.136 89.1953 135.15 89.2595C135.238 89.7262 135.338 90.1929 135.45 90.6595C135.562 91.1262 135.682 91.5862 135.81 92.0395C135.917 92.4062 136.029 92.7715 136.146 93.1355C136.264 93.5015 136.39 93.8635 136.52 94.2215C136.533 94.2515 136.54 94.2839 136.54 94.3165C136.54 94.3492 136.533 94.3815 136.52 94.4115C136.492 94.4717 136.442 94.5185 136.38 94.5415C136.366 94.5465 136.351 94.5505 136.336 94.5535L136.286 94.5515Z" fill="#AD4D4D"/>
<path d="M79.226 82.1521L78.894 82.0561L78.56 81.9601C78.718 81.1141 78.9 80.2341 79.082 79.3601C79.264 78.4861 79.444 77.6021 79.604 76.7601C80.168 74.1508 80.7327 71.5401 81.298 68.9281L83 61.0881C82.1215 60.9589 81.2313 60.928 80.346 60.9961C79.0489 61.0929 77.78 61.4228 76.6 61.9701C73.93 63.2181 72.32 65.3301 71.366 67.2101C70.7474 68.4196 70.3075 69.7124 70.06 71.0481L69.6 73.9441L69.148 76.8421C69.004 77.7581 68.8553 78.6741 68.702 79.5901C68.55 80.5041 68.394 81.4201 68.24 82.3341C68.062 83.3941 67.882 85.1921 68.3 86.8601C68.718 88.5281 69.732 90.0601 71.942 90.6121L77.356 92.1161L82.77 93.6181L83.57 88.5741L84.37 83.5281C83.51 83.3148 82.6527 83.0934 81.798 82.8641C80.9433 82.6348 80.086 82.3974 79.226 82.1521Z" fill="#F4ECE5"/>
<path d="M90.2821 56.8754C90.283 58.1342 89.8475 59.3545 89.0498 60.3282C88.252 61.302 87.1413 61.9691 85.9069 62.2159C84.6725 62.4627 83.3907 62.2739 82.2799 61.6817C81.169 61.0894 80.2979 60.1304 79.8148 58.9679C79.3317 57.8055 79.2665 56.5115 79.6304 55.3064C79.9943 54.1013 80.7647 53.0596 81.8104 52.3588C82.8562 51.658 84.1125 51.3414 85.3655 51.4629C86.6185 51.5845 87.7905 52.1366 88.6821 53.0254C89.1897 53.5297 89.5925 54.1296 89.8671 54.7904C90.1417 55.4512 90.2827 56.1598 90.2821 56.8754Z" fill="#FFAA9F"/>
<path d="M83.0779 57.0237C83.0688 57.0714 83.0504 57.1169 83.0236 57.1574C82.9968 57.1979 82.9622 57.2327 82.9219 57.2597C82.8615 57.3015 82.79 57.3243 82.7166 57.3251C82.6431 57.3259 82.5711 57.3047 82.5098 57.2643C82.4485 57.2238 82.4008 57.166 82.3726 57.0982C82.3444 57.0304 82.3372 56.9557 82.3519 56.8837C82.3738 56.7908 82.4308 56.7099 82.511 56.658C82.5911 56.6061 82.6883 56.5872 82.7821 56.6053C82.8758 56.6234 82.959 56.6771 83.0141 56.755C83.0692 56.833 83.0921 56.9293 83.0779 57.0237Z" fill="#353519"/>
<path d="M85.7799 57.2736C85.7612 57.3698 85.7051 57.4547 85.6239 57.5096C85.5427 57.5636 85.4436 57.5836 85.3479 57.5652C85.2521 57.5469 85.1674 57.4917 85.1119 57.4116C85.0568 57.3301 85.0359 57.2303 85.0539 57.1336C85.0726 57.0373 85.1287 56.9525 85.2099 56.8976C85.2915 56.8431 85.3912 56.8231 85.4875 56.8418C85.5837 56.8605 85.6687 56.9165 85.7239 56.9976C85.751 57.0376 85.7699 57.0826 85.7795 57.13C85.7891 57.1773 85.7893 57.2261 85.7799 57.2736Z" fill="#353519"/>
<path d="M84 59.5771C83.6346 59.5748 83.2764 59.4754 82.962 59.2891C82.7749 59.1818 82.605 59.0469 82.458 58.8891C82.4358 58.865 82.4187 58.8366 82.4077 58.8056C82.3967 58.7747 82.392 58.7419 82.394 58.7091C82.3959 58.6763 82.4043 58.6442 82.4187 58.6147C82.4332 58.5851 82.4533 58.5588 82.478 58.5371C82.5022 58.5149 82.5305 58.4978 82.5615 58.4868C82.5924 58.4758 82.6252 58.4711 82.658 58.4731C82.6908 58.475 82.7229 58.4834 82.7524 58.4978C82.782 58.5123 82.8083 58.5324 82.83 58.5571C82.9425 58.6778 83.0718 58.7815 83.214 58.8651C83.4525 59.0071 83.7245 59.083 84.002 59.0851C84.268 59.0827 84.5292 59.0139 84.762 58.8851C84.9016 58.8099 85.0296 58.7149 85.142 58.6031C85.1884 58.5556 85.2516 58.5283 85.318 58.5271C85.3844 58.5271 85.4483 58.5529 85.496 58.5991C85.5435 58.6455 85.5708 58.7087 85.572 58.7751C85.572 58.8415 85.5462 58.9054 85.5 58.9531C85.3541 59.0996 85.1877 59.2243 85.006 59.3231C84.698 59.4926 84.3516 59.58 84 59.5771Z" fill="#AD4D4D"/>
<path d="M83.2959 54.1818C83.618 54.6461 84.0664 55.0084 84.5879 55.2258C85.1125 55.4457 85.6881 55.5149 86.2499 55.4258C86.3559 55.7453 86.5246 56.0404 86.7461 56.2938C86.9676 56.5473 87.2375 56.754 87.5399 56.9018C87.8086 57.0392 88.1036 57.1176 88.405 57.1318C88.7065 57.1459 89.0075 57.0955 89.2879 56.9838C89.4845 56.8984 89.6651 56.78 89.8219 56.6338C89.9808 56.4825 90.1157 56.3078 90.2219 56.1158C90.1194 55.385 89.8693 54.6827 89.4869 54.0516C89.1045 53.4205 88.5978 52.8737 87.9974 52.4446C87.3971 52.0154 86.7158 51.7128 85.9949 51.5552C85.274 51.3976 84.5285 51.3883 83.8039 51.5278C83.4755 51.5912 83.1535 51.6843 82.8419 51.8058C82.7494 52.2097 82.7405 52.6283 82.8159 53.0358C82.8924 53.4476 83.0561 53.8384 83.2959 54.1818Z" fill="#AD4D4D"/>
<path d="M97.2161 91.5878C97.1618 91.4278 97.0599 91.2882 96.9241 91.1878C96.7853 91.0833 96.6208 91.0184 96.4481 90.9998C96.5483 90.7277 96.5806 90.4352 96.5421 90.1478C96.4661 89.7258 96.1421 89.3138 95.1561 89.3478C94.8441 89.3778 94.5141 89.4018 94.1661 89.4158C93.8181 89.4298 93.4561 89.4338 93.0801 89.4158C92.4881 89.4015 91.8973 89.3561 91.3101 89.2798C90.7621 89.2078 90.2561 89.1158 89.7981 89.0138C89.5602 88.9874 89.332 88.9052 89.1321 88.7738C88.9659 88.6685 88.8437 88.5065 88.7881 88.3178C88.7767 88.2719 88.77 88.225 88.7681 88.1778C88.7626 88.0909 88.7748 88.0038 88.8041 87.9218C88.8646 87.8001 88.9515 87.6934 89.0584 87.6093C89.1653 87.5253 89.2895 87.466 89.4221 87.4358C89.8033 87.3239 90.2029 87.2879 90.5981 87.3298L91.8581 87.3478L93.1181 87.3658C93.2005 87.3681 93.283 87.3614 93.3641 87.3458C93.4446 87.3314 93.5227 87.3059 93.5961 87.2698C93.7372 87.1983 93.8602 87.0957 93.9561 86.9698C94.0755 86.8117 94.1422 86.6201 94.1469 86.422C94.1515 86.2239 94.0939 86.0294 93.9821 85.8658C93.8456 85.6581 93.639 85.5062 93.4001 85.4378C91.8827 85.1712 90.3701 84.8738 88.8621 84.5458C87.3541 84.2178 85.8527 83.8718 84.3581 83.5078L83.5581 88.5538L82.7581 93.5978L83.7281 93.8678L84.6961 94.1378C85.0361 94.2318 85.3741 94.3378 85.7121 94.4278L86.7241 94.7318C87.1581 94.8618 87.6401 94.9858 88.1661 95.0918C88.7313 95.2035 89.3021 95.285 89.8761 95.3358C90.7183 95.4082 91.565 95.4129 92.4081 95.3498C93.0724 95.2986 93.733 95.2064 94.3861 95.0738C94.7277 95.004 95.0624 94.9036 95.3861 94.7738C95.6192 94.679 95.8451 94.5674 96.0621 94.4398C96.2739 94.3252 96.4748 94.1913 96.6621 94.0398C96.8153 93.9177 96.9236 93.7482 96.9701 93.5578C97.0055 93.379 96.9896 93.1939 96.9241 93.0238C96.8782 92.899 96.8163 92.7807 96.7401 92.6718C96.9427 92.5659 97.103 92.3936 97.1941 92.1838C97.2724 91.9942 97.2802 91.7827 97.2161 91.5878Z" fill="#FFAA9F"/>
<path d="M91.7861 91.6811C91.3861 91.6811 90.9774 91.6691 90.5601 91.6451C90.1481 91.6191 89.7361 91.5831 89.3201 91.5351C89.2875 91.5315 89.256 91.5213 89.2274 91.5052C89.1989 91.489 89.1739 91.4672 89.1541 91.4411C89.1132 91.3893 89.0945 91.3234 89.102 91.2579C89.1095 91.1923 89.1426 91.1324 89.1941 91.0911C89.2198 91.0707 89.2493 91.0556 89.2809 91.0467C89.3125 91.0378 89.3455 91.0352 89.3781 91.0391C90.0381 91.1151 90.6961 91.1611 91.3441 91.1751C91.9921 91.1891 92.6361 91.1751 93.2661 91.1251C93.8041 91.0831 94.4661 91.0091 95.0661 90.9371C95.6661 90.8651 96.1701 90.7971 96.4021 90.7651H96.4261C96.4588 90.7616 96.4919 90.7645 96.5235 90.7738C96.555 90.7831 96.5845 90.7985 96.6101 90.8191C96.6359 90.8391 96.6574 90.8641 96.6732 90.8926C96.689 90.9212 96.6988 90.9527 96.7021 90.9851C96.706 91.0176 96.7034 91.0505 96.6946 91.0819C96.6857 91.1134 96.6707 91.1428 96.6505 91.1685C96.6302 91.1941 96.6051 91.2155 96.5765 91.2314C96.548 91.2473 96.5166 91.2574 96.4841 91.2611C96.2441 91.2951 95.7221 91.3651 95.1241 91.4371C94.5261 91.5091 93.8541 91.5851 93.3121 91.6371C93.0621 91.6551 92.8101 91.6711 92.5561 91.6791C92.3021 91.6871 92.0421 91.6811 91.7861 91.6811Z" fill="#AD4D4D"/>
<path d="M91.0861 93.3993C90.8141 93.3993 90.5441 93.3993 90.2741 93.3993C90.0041 93.3993 89.7361 93.3833 89.4741 93.3713C89.4414 93.3696 89.4094 93.3615 89.3799 93.3475C89.3503 93.3334 89.3239 93.3136 89.3021 93.2893C89.2795 93.2653 89.262 93.237 89.2506 93.2061C89.2392 93.1752 89.2342 93.1423 89.2359 93.1094C89.2376 93.0766 89.2459 93.0443 89.2604 93.0148C89.2748 92.9852 89.2951 92.9588 89.3201 92.9373C89.3439 92.915 89.3719 92.8977 89.4024 92.8864C89.433 92.8751 89.4655 92.8699 89.4981 92.8713C90.2161 92.9053 90.9401 92.9153 91.6621 92.9033C92.3841 92.8913 93.1061 92.8573 93.8201 92.8013C94.3021 92.7633 94.7841 92.7133 95.2661 92.6553C95.7481 92.5973 96.2281 92.5273 96.7021 92.4553C96.7681 92.4449 96.8355 92.4606 96.8901 92.4993C96.9433 92.5381 96.9792 92.5963 96.9901 92.6613C97.0012 92.7259 96.9864 92.7923 96.949 92.8462C96.9116 92.9001 96.8545 92.9371 96.7901 92.9493C96.3081 93.0293 95.8201 93.0993 95.3321 93.1493C94.8441 93.1993 94.3541 93.2593 93.8661 93.2973C93.4087 93.3333 92.9487 93.3606 92.4861 93.3793C92.0234 93.398 91.5567 93.4046 91.0861 93.3993Z" fill="#AD4D4D"/>
<path d="M92.696 94.9818C92.196 94.9818 91.696 94.9698 91.2 94.9418C90.704 94.9138 90.2 94.8778 89.706 94.8258C89.6401 94.8184 89.5798 94.7854 89.538 94.7338C89.5172 94.7083 89.5017 94.6789 89.4924 94.6473C89.4831 94.6157 89.4803 94.5825 89.484 94.5498C89.4869 94.5172 89.4963 94.4854 89.5118 94.4566C89.5273 94.4277 89.5484 94.4022 89.574 94.3818C89.5995 94.3609 89.629 94.3454 89.6606 94.3361C89.6922 94.3268 89.7253 94.324 89.758 94.3278C90.558 94.4118 91.358 94.4618 92.158 94.4778C92.958 94.4938 93.758 94.4778 94.558 94.4198L95.056 94.3798L95.55 94.3338C95.5824 94.3302 95.6152 94.3331 95.6465 94.3424C95.6778 94.3516 95.7069 94.3671 95.732 94.3878C95.7836 94.4295 95.8167 94.4899 95.824 94.5558C95.8276 94.5887 95.8247 94.6219 95.8153 94.6536C95.806 94.6853 95.7905 94.7149 95.7696 94.7405C95.7488 94.7662 95.7231 94.7875 95.694 94.8031C95.6649 94.8188 95.6329 94.8285 95.6 94.8318L95.098 94.8778C94.93 94.8938 94.76 94.9058 94.592 94.9178C94.276 94.9398 93.96 94.9558 93.642 94.9658C93.324 94.9758 93.014 94.9818 92.696 94.9818Z" fill="#AD4D4D"/>
<path d="M173.472 69.4314C173.471 70.8656 172.974 72.2553 172.064 73.3637C171.154 74.4722 169.887 75.2309 168.481 75.5105C167.074 75.7901 165.614 75.5735 164.349 74.8974C163.084 74.2213 162.093 73.1276 161.544 71.8026C160.995 70.4776 160.922 69.0033 161.339 67.6308C161.755 66.2583 162.634 65.0725 163.826 64.2753C165.018 63.4782 166.45 63.1191 167.877 63.2591C169.305 63.3992 170.639 64.0297 171.654 65.0434C172.231 65.6189 172.689 66.3028 173.001 67.0559C173.313 67.8089 173.473 68.6162 173.472 69.4314Z" fill="#FFAA9F"/>
<path d="M166.262 69.0959C166.262 69.499 166.123 69.8898 165.868 70.2016C165.612 70.5134 165.256 70.7269 164.861 70.8058C164.466 70.8847 164.055 70.824 163.7 70.6342C163.344 70.4443 163.065 70.137 162.911 69.7647C162.757 69.3923 162.736 68.9779 162.853 68.5922C162.97 68.2064 163.217 67.8731 163.552 67.6491C163.887 67.4252 164.29 67.3243 164.691 67.3639C165.092 67.4034 165.467 67.5808 165.752 67.8659C165.914 68.0272 166.042 68.2189 166.13 68.43C166.217 68.6411 166.262 68.8674 166.262 69.0959Z" fill="#F4ECE5"/>
<path d="M164.522 71.0879C164.059 71.0907 163.609 70.9327 163.249 70.6406C162.889 70.3486 162.642 69.9407 162.55 69.4866C162.457 69.0326 162.525 68.5605 162.742 68.1512C162.959 67.7418 163.312 67.4204 163.74 67.242C164.167 67.0637 164.643 67.0393 165.087 67.1731C165.531 67.3069 165.914 67.5906 166.172 67.9757C166.429 68.3608 166.545 68.8234 166.5 69.2845C166.454 69.7456 166.25 70.1766 165.922 70.5038C165.551 70.8761 165.048 71.0861 164.522 71.0879ZM164.522 67.6058C164.178 67.6062 163.844 67.7259 163.579 67.9445C163.313 68.1631 163.131 68.4671 163.064 68.8047C162.997 69.1423 163.049 69.4927 163.212 69.7961C163.374 70.0995 163.637 70.3373 163.955 70.4689C164.273 70.6004 164.627 70.6177 164.956 70.5176C165.285 70.4176 165.57 70.2066 165.761 69.9204C165.952 69.6342 166.038 69.2905 166.004 68.948C165.971 68.6055 165.819 68.2853 165.576 68.0418C165.438 67.9022 165.274 67.7912 165.093 67.7153C164.912 67.6394 164.718 67.6002 164.522 67.5999V67.6058Z" fill="#AD4D4D"/>
<path d="M171.296 69.0959C171.296 69.499 171.157 69.8898 170.902 70.2016C170.646 70.5134 170.29 70.7269 169.895 70.8058C169.5 70.8847 169.089 70.824 168.734 70.6342C168.378 70.4443 168.099 70.137 167.945 69.7647C167.791 69.3923 167.77 68.9779 167.887 68.5922C168.004 68.2064 168.251 67.8731 168.586 67.6491C168.921 67.4252 169.324 67.3243 169.725 67.3639C170.126 67.4034 170.501 67.5808 170.786 67.8659C171.112 68.1922 171.296 68.6346 171.296 69.0959Z" fill="#F4ECE5"/>
<path d="M169.554 71.0879C169.091 71.0907 168.641 70.9327 168.281 70.6406C167.921 70.3486 167.674 69.9407 167.582 69.4866C167.489 69.0326 167.557 68.5605 167.774 68.1512C167.991 67.7418 168.344 67.4204 168.771 67.242C169.199 67.0637 169.675 67.0393 170.119 67.1731C170.563 67.3069 170.946 67.5906 171.204 67.9757C171.461 68.3608 171.577 68.8234 171.532 69.2845C171.486 69.7456 171.282 70.1766 170.954 70.5038C170.583 70.8757 170.079 71.0857 169.554 71.0879ZM169.554 67.6058C169.209 67.6058 168.874 67.7256 168.607 67.9446C168.34 68.1637 168.158 68.4685 168.09 68.8071C168.023 69.1457 168.075 69.4972 168.238 69.8016C168.401 70.1061 168.665 70.3446 168.984 70.4765C169.303 70.6085 169.657 70.6258 169.988 70.5254C170.318 70.4249 170.603 70.2131 170.795 69.9259C170.987 69.6387 171.073 69.2939 171.039 68.9504C171.004 68.6068 170.852 68.2857 170.608 68.0418C170.47 67.9022 170.306 67.7912 170.125 67.7153C169.944 67.6394 169.75 67.6002 169.554 67.5999V67.6058Z" fill="#AD4D4D"/>
<path d="M167.746 69.3457H166.262C166.196 69.3457 166.132 69.3194 166.085 69.2725C166.038 69.2256 166.012 69.162 166.012 69.0957C166.012 69.0629 166.019 69.0305 166.031 69.0003C166.044 68.9701 166.063 68.9427 166.086 68.9197C166.109 68.8962 166.136 68.8775 166.167 68.8648C166.197 68.8521 166.229 68.8456 166.262 68.8457H167.746C167.779 68.8456 167.811 68.8521 167.842 68.8648C167.872 68.8775 167.899 68.8962 167.922 68.9197C167.946 68.9428 167.964 68.9703 167.977 69.0007C167.99 69.0311 167.996 69.0637 167.996 69.0967C167.996 69.1297 167.99 69.1623 167.977 69.1927C167.964 69.2231 167.946 69.2506 167.922 69.2737C167.875 69.3198 167.812 69.3456 167.746 69.3457Z" fill="#AD4D4D"/>
<path d="M147.104 28.846C147.105 29.4478 146.897 30.0314 146.516 30.4973C146.135 30.9631 145.604 31.2823 145.014 31.4004C144.424 31.5185 143.811 31.4283 143.28 31.1451C142.749 30.8618 142.333 30.4031 142.102 29.8473C141.872 29.2914 141.841 28.6727 142.016 28.0967C142.19 27.5208 142.559 27.0232 143.06 26.689C143.56 26.3547 144.161 26.2043 144.76 26.2636C145.359 26.3229 145.919 26.5881 146.344 27.014C146.585 27.254 146.777 27.5395 146.907 27.8539C147.038 28.1684 147.105 28.5056 147.104 28.846Z" fill="#DEB8FC"/>
<path d="M167.016 72.9378C166.698 72.9374 166.387 72.8497 166.116 72.6842C165.845 72.5188 165.625 72.282 165.48 71.9998C165.465 71.9707 165.455 71.939 165.452 71.9063C165.449 71.8736 165.452 71.8406 165.462 71.8092C165.472 71.7778 165.487 71.7486 165.508 71.7233C165.529 71.698 165.555 71.6771 165.584 71.6618C165.614 71.6453 165.648 71.6354 165.682 71.6326C165.717 71.6299 165.751 71.6343 165.784 71.6458C165.815 71.6552 165.844 71.6708 165.869 71.6918C165.894 71.7128 165.915 71.7386 165.93 71.7678C166.035 71.9687 166.195 72.1363 166.39 72.2518C166.534 72.3386 166.694 72.3951 166.861 72.4177C167.028 72.4403 167.197 72.4286 167.359 72.3833C167.521 72.3379 167.672 72.2599 167.803 72.1541C167.934 72.0482 168.042 71.9168 168.12 71.7678C168.135 71.7386 168.155 71.7128 168.18 71.6918C168.205 71.6708 168.235 71.6552 168.266 71.6458C168.299 71.6343 168.333 71.6299 168.368 71.6326C168.402 71.6354 168.436 71.6453 168.466 71.6618C168.495 71.6771 168.521 71.698 168.542 71.7233C168.563 71.7486 168.578 71.7778 168.588 71.8092C168.598 71.8406 168.601 71.8736 168.598 71.9063C168.595 71.939 168.585 71.9707 168.57 71.9998C168.424 72.2781 168.205 72.5116 167.936 72.6754C167.668 72.8392 167.36 72.9271 167.046 72.9298H167.032L167.016 72.9378Z" fill="#AD4D4D"/>
<path d="M172.932 62.3014C172.958 62.1974 172.978 62.0914 172.994 61.9834C173.009 61.8746 173.016 61.765 173.016 61.6554C173.016 61.3095 172.948 60.9671 172.816 60.6477C172.683 60.3282 172.489 60.038 172.244 59.7935C172 59.5491 171.709 59.3553 171.39 59.2231C171.07 59.091 170.728 59.0231 170.382 59.0234C170.234 59.0228 170.086 59.0356 169.94 59.0614C169.797 59.0867 169.657 59.1235 169.52 59.1714C169.22 58.8384 168.853 58.5738 168.442 58.3954C167.96 58.1883 167.439 58.0907 166.915 58.1098C166.391 58.1288 165.878 58.2639 165.412 58.5054C164.948 58.7486 164.556 59.1093 164.274 59.5514C164.12 59.4646 163.955 59.3974 163.784 59.3514C163.462 59.2698 163.126 59.2628 162.801 59.3309C162.475 59.399 162.17 59.5403 161.908 59.7441C161.646 59.948 161.433 60.209 161.287 60.5072C161.141 60.8055 161.065 61.1332 161.064 61.4654C161.064 61.7001 161.102 61.9332 161.178 62.1554C161.25 62.37 161.355 62.5723 161.488 62.7554C161.354 62.938 161.25 63.1405 161.178 63.3554C161.102 63.5775 161.064 63.8106 161.064 64.0454C161.063 64.4628 161.182 64.8716 161.407 65.2233C161.632 65.5749 161.953 65.8545 162.333 66.0287C162.712 66.203 163.133 66.2646 163.547 66.2062C163.96 66.1478 164.348 65.9719 164.664 65.6994C164.964 66.0016 165.322 66.2403 165.716 66.4014C166.512 66.7271 167.4 66.7499 168.212 66.4654C168.563 66.3436 168.891 66.1623 169.18 65.9294C169.623 66.2907 170.172 66.4977 170.744 66.519C171.316 66.5403 171.878 66.3747 172.347 66.0473C172.816 65.7198 173.166 65.2485 173.343 64.7046C173.52 64.1608 173.515 63.574 173.328 63.0334C173.235 62.77 173.102 62.523 172.932 62.3014Z" fill="#AD4D4D"/>
<path d="M73.6442 70.1997C75.501 70.2158 77.3442 70.5194 79.1082 71.0997C81.8062 72.0397 84.4302 73.9637 84.1442 77.8997H87.5802C87.5802 77.8997 88.0622 75.8997 89.6042 74.5717C91.1462 73.2437 93.7542 72.5577 98.0042 75.1837C97.6905 74.4097 97.2565 73.6902 96.7182 73.0517C95.5233 71.5833 93.8557 70.5752 92.0002 70.1997C92.0002 70.1997 91.9102 69.0697 92.5342 67.5197C93.1582 65.9697 94.5002 63.9977 97.3582 62.3197C96.3561 62.1742 95.3378 62.1823 94.3382 62.3437C92.6422 62.6077 90.5702 63.3797 89.0702 65.4077C89.0702 65.4077 89.2002 63.1217 89.4822 60.5917C89.7642 58.0617 90.2042 55.2837 90.8222 54.3037C90.8222 54.3037 89.5502 54.5197 88.1002 55.9437C86.6502 57.3677 85.0262 59.9997 84.3162 64.8177C83.68 64.2261 82.9686 63.721 82.2002 63.3157C80.9082 62.6357 79.1562 62.0977 77.3182 62.6597C78.0954 63.2338 78.8306 63.8627 79.5182 64.5417C80.6702 65.6757 81.9182 67.1937 82.3182 68.7417C81.2472 68.509 80.1541 68.393 79.0582 68.3957C77.2362 68.3997 75.0702 68.7597 73.6442 70.1997Z" fill="#BAB653"/>
<path d="M139.26 28.2793C139.258 29.6504 138.781 30.9785 137.91 32.0373C137.038 33.0961 135.827 33.8201 134.482 34.0861C133.137 34.3522 131.741 34.1437 130.533 33.4962C129.324 32.8488 128.377 31.8024 127.853 30.5352C127.33 29.2681 127.261 27.8585 127.66 26.5467C128.059 25.2348 128.9 24.1018 130.041 23.3405C131.181 22.5792 132.55 22.2367 133.914 22.3715C135.279 22.5062 136.554 23.1097 137.524 24.0793C138.076 24.6301 138.514 25.2849 138.812 26.0057C139.11 26.7266 139.262 27.4993 139.26 28.2793Z" fill="#AD4D4D"/>
<path d="M145.266 23.7253C145.266 24.6415 144.949 25.5294 144.367 26.2376C143.786 26.9459 142.977 27.4307 142.079 27.6095C141.18 27.7883 140.248 27.65 139.44 27.2182C138.632 26.7863 137.998 26.0877 137.648 25.2413C137.297 24.3949 137.251 23.4531 137.517 22.5763C137.782 21.6996 138.344 20.9422 139.106 20.4331C139.868 19.9241 140.782 19.6949 141.694 19.7847C142.606 19.8744 143.458 20.2775 144.106 20.9253C144.474 21.2926 144.766 21.7291 144.965 22.2096C145.165 22.6901 145.267 23.2052 145.266 23.7253Z" fill="#AD4D4D"/>
<path d="M130.342 33.988C130.342 35.3085 129.884 36.5883 129.047 37.6092C128.209 38.63 127.043 39.3288 125.748 39.5865C124.453 39.8442 123.108 39.6449 121.944 39.0224C120.779 38.4 119.866 37.3929 119.361 36.1729C118.855 34.9529 118.788 33.5953 119.172 32.3316C119.555 31.0679 120.365 29.9761 121.463 29.2424C122.561 28.5087 123.879 28.1784 125.193 28.3077C126.507 28.4371 127.736 29.0182 128.67 29.952C129.201 30.4816 129.621 31.1107 129.908 31.8033C130.195 32.4959 130.343 33.2383 130.342 33.988Z" fill="#FFAA9F"/>
<path d="M124.98 30.0393C124.993 30.9428 125.189 31.8343 125.558 32.6593C126.158 34.0233 127.424 35.4933 130.004 35.9233C130.115 35.618 130.199 35.3035 130.254 34.9833C130.399 34.1622 130.363 33.3192 130.148 32.5136C129.933 31.708 129.544 30.9594 129.008 30.3203C128.472 29.6813 127.803 29.1674 127.047 28.8148C126.292 28.4621 125.468 28.2794 124.634 28.2793C123.616 28.2777 122.617 28.5499 121.74 29.0673C122.095 29.4623 122.527 29.7802 123.01 30.0013C123.319 30.1391 123.653 30.2134 123.991 30.22C124.33 30.2265 124.666 30.1651 124.98 30.0393Z" fill="#AD4D4D"/>
<path d="M121.638 32.0737C121.64 32.1248 121.631 32.1756 121.613 32.2234C121.596 32.2712 121.568 32.315 121.533 32.3522C121.498 32.3894 121.456 32.4193 121.41 32.4402C121.363 32.461 121.313 32.4724 121.262 32.4737C121.16 32.4749 121.061 32.437 120.986 32.3677C120.94 32.324 120.905 32.2696 120.885 32.2094C120.866 32.1491 120.861 32.0849 120.872 32.0224C120.882 31.9599 120.908 31.901 120.947 31.851C120.986 31.8009 121.037 31.7612 121.095 31.7355C121.153 31.7097 121.216 31.6986 121.28 31.7032C121.343 31.7077 121.404 31.7278 121.458 31.7616C121.512 31.7955 121.556 31.842 121.587 31.8972C121.619 31.9523 121.636 32.0143 121.638 32.0777V32.0737Z" fill="#353519"/>
<path d="M124.112 33.4357C124.113 33.4864 124.105 33.5369 124.087 33.5843C124.068 33.6316 124.041 33.6749 124.006 33.7117C123.971 33.7487 123.929 33.7783 123.883 33.7989C123.837 33.8195 123.787 33.8307 123.736 33.8317C123.685 33.834 123.635 33.8257 123.587 33.8075C123.54 33.7893 123.496 33.7614 123.46 33.7257C123.423 33.6911 123.393 33.6494 123.372 33.6031C123.351 33.5568 123.34 33.5069 123.338 33.4561C123.337 33.4053 123.345 33.3547 123.363 33.3073C123.382 33.2598 123.409 33.2165 123.444 33.1797C123.515 33.1067 123.612 33.0638 123.714 33.0597C123.765 33.0583 123.815 33.0669 123.863 33.0851C123.91 33.1033 123.953 33.1307 123.99 33.1657C124.064 33.2368 124.107 33.3334 124.112 33.4357Z" fill="#353519"/>
<path d="M122.04 35.4795C121.745 35.4823 121.453 35.4137 121.19 35.2795C120.965 35.161 120.768 34.9968 120.61 34.7975C120.499 34.658 120.407 34.5039 120.338 34.3395C120.324 34.3081 120.316 34.274 120.316 34.2395C120.316 34.205 120.324 34.1709 120.338 34.1395C120.363 34.0776 120.411 34.028 120.472 34.0015C120.533 33.9762 120.602 33.9761 120.664 34.0011C120.725 34.0262 120.774 34.0745 120.8 34.1355C120.852 34.2564 120.919 34.3701 121 34.4735C121.116 34.6193 121.261 34.7398 121.426 34.8275C121.672 34.9556 121.951 35.0045 122.226 34.9675C122.383 34.9482 122.535 34.9065 122.68 34.8435C122.725 34.8225 122.775 34.8154 122.824 34.823C122.873 34.8306 122.919 34.8527 122.955 34.8864C122.992 34.92 123.018 34.9638 123.029 35.0121C123.041 35.0604 123.037 35.111 123.02 35.1575C122.997 35.2193 122.95 35.2695 122.89 35.2975C122.622 35.4154 122.333 35.4767 122.04 35.4775V35.4795Z" fill="#AD4D4D"/>
<path d="M113.922 140.659C113.881 140.66 113.84 140.649 113.804 140.629C113.766 140.61 113.734 140.581 113.712 140.545C113.676 140.49 113.663 140.422 113.676 140.357C113.69 140.293 113.729 140.236 113.784 140.199L116 138.745L118.2 137.291C118.384 137.172 118.551 137.028 118.696 136.863C118.835 136.707 118.951 136.53 119.038 136.339C119.151 136.08 119.219 135.803 119.238 135.521C119.262 135.157 119.267 134.791 119.252 134.425V134.183C119.252 133.983 119.252 133.783 119.252 133.595C119.252 133.407 119.252 133.195 119.252 133.007V132.715C119.252 132.617 119.252 132.515 119.252 132.421V127.421L118.428 103.207L117.62 78.9993C117.619 78.9665 117.624 78.9338 117.636 78.903C117.648 78.8723 117.665 78.8442 117.688 78.8202C117.71 78.7962 117.737 78.7769 117.767 78.7634C117.797 78.7499 117.829 78.7424 117.862 78.7414C117.895 78.7402 117.928 78.7457 117.959 78.7573C117.99 78.769 118.018 78.7867 118.042 78.8093C118.066 78.8314 118.085 78.858 118.098 78.8875C118.112 78.917 118.119 78.9489 118.12 78.9813L118.944 103.199L119.768 127.417V132.417C119.768 132.515 119.768 132.617 119.768 132.711V133.005C119.768 133.205 119.768 133.405 119.768 133.589C119.768 133.773 119.768 133.979 119.768 134.173V134.415C119.783 134.804 119.777 135.193 119.75 135.581C119.723 135.91 119.64 136.231 119.504 136.531C119.396 136.768 119.254 136.988 119.082 137.183C118.907 137.384 118.705 137.56 118.482 137.705L116.268 139.159L114.056 140.613C114.035 140.627 114.013 140.638 113.99 140.645C113.968 140.653 113.945 140.657 113.922 140.659Z" fill="#2B3D0A"/>
<path d="M199.934 57.6118V29.8818C199.555 29.8866 199.177 29.9404 198.812 30.0418C198.45 30.1426 198.105 30.297 197.788 30.4998C196.788 31.1418 196.12 32.2638 195.918 33.5438C195.706 34.9386 196.035 36.3617 196.838 37.5218C196.846 37.53 196.85 37.5407 196.85 37.5518C196.85 37.563 196.846 37.5737 196.838 37.5818C196.83 37.589 196.819 37.593 196.808 37.593C196.797 37.593 196.786 37.589 196.778 37.5818C196.36 37.2758 195.885 37.0557 195.381 36.9342C194.877 36.8127 194.354 36.7922 193.842 36.8738C193.353 36.9294 192.883 37.0946 192.466 37.357C192.05 37.6195 191.698 37.9725 191.436 38.3897C191.175 38.807 191.011 39.2778 190.957 39.7671C190.903 40.2564 190.96 40.7516 191.124 41.2158C191.279 41.745 191.544 42.2355 191.902 42.6552C192.26 43.075 192.702 43.4146 193.2 43.6518C192.57 43.5203 191.92 43.5142 191.287 43.6339C190.655 43.7537 190.052 43.997 189.514 44.3498C188.514 45.0058 187.838 45.9938 187.696 47.0398C187.594 48.0021 187.86 48.9673 188.44 49.7418C189.066 50.6192 189.967 51.2625 191 51.5698L189.984 51.5978L188.966 51.6238C187.62 51.66 186.344 52.2291 185.418 53.2062C184.492 54.1832 183.992 55.4881 184.028 56.8338C184.051 57.6996 184.296 58.5451 184.738 59.2898H198.256C198.701 59.2893 199.127 59.1124 199.442 58.7978C199.756 58.4832 199.933 58.0567 199.934 57.6118Z" fill="#BAB653"/>
<path d="M198.024 38.5875C198 38.5871 197.975 38.5837 197.952 38.5775C197.927 38.569 197.904 38.5576 197.882 38.5435L197.162 38.0415L196.44 37.5395C196.386 37.5018 196.348 37.4444 196.336 37.3795C196.325 37.3137 196.34 37.2463 196.378 37.1915C196.396 37.1646 196.42 37.1417 196.447 37.1241C196.475 37.1066 196.506 37.0948 196.538 37.0895C196.57 37.0832 196.604 37.0835 196.636 37.0903C196.668 37.0972 196.699 37.1105 196.726 37.1295L197.446 37.6315L198.168 38.1335C198.222 38.1711 198.26 38.2286 198.272 38.2935C198.283 38.3592 198.268 38.4267 198.23 38.4815C198.206 38.5142 198.175 38.5415 198.14 38.5615C198.104 38.579 198.064 38.5879 198.024 38.5875Z" fill="#666538"/>
<path d="M193.904 51.8193H190.124C190.074 51.8194 190.026 51.8049 189.985 51.7775C189.944 51.7502 189.912 51.7113 189.893 51.6657C189.874 51.6202 189.869 51.57 189.878 51.5215C189.887 51.473 189.911 51.4284 189.946 51.3933C189.969 51.3698 189.997 51.3512 190.027 51.3385C190.058 51.3258 190.091 51.3193 190.124 51.3193H193.904C193.937 51.3191 193.969 51.3255 193.999 51.3383C194.03 51.351 194.057 51.3697 194.08 51.3933C194.115 51.4283 194.138 51.4727 194.148 51.521C194.157 51.5693 194.152 51.6193 194.133 51.6648C194.115 51.7103 194.083 51.7492 194.042 51.7767C194.001 51.8042 193.953 51.819 193.904 51.8193Z" fill="#666538"/>
<path d="M84.358 83.7779H84.326H84.292L81.28 82.9639L78.266 82.1499L79.182 77.7239L80.096 73.2979C80.1095 73.2329 80.1483 73.176 80.2038 73.1396C80.2593 73.1032 80.327 73.0904 80.392 73.1039C80.457 73.1174 80.5139 73.1562 80.5503 73.2117C80.5867 73.2672 80.5995 73.3349 80.586 73.3999L79.72 77.5999L78.852 81.7999L81.638 82.5539L84.424 83.3059C84.4555 83.3147 84.485 83.3296 84.5108 83.3499C84.5365 83.3701 84.558 83.3953 84.574 83.4239C84.5907 83.4519 84.6016 83.483 84.606 83.5153C84.6105 83.5475 84.6084 83.5804 84.6 83.6119C84.5854 83.6657 84.553 83.7129 84.508 83.7459C84.4629 83.7729 84.4102 83.7842 84.358 83.7779Z" fill="#AD4D4D"/>
<path d="M160.252 25.3994H155.82C155.754 25.3994 155.69 25.3731 155.643 25.3262C155.596 25.2793 155.57 25.2157 155.57 25.1494C155.57 25.1166 155.576 25.0841 155.589 25.0539C155.602 25.0236 155.62 24.9963 155.644 24.9734C155.667 24.9498 155.694 24.9311 155.724 24.9183C155.755 24.9056 155.787 24.8992 155.82 24.8994H160.252C160.285 24.8995 160.317 24.9061 160.347 24.9188C160.378 24.9315 160.405 24.9501 160.428 24.9734C160.451 24.9963 160.47 25.0236 160.483 25.0539C160.496 25.0841 160.502 25.1166 160.502 25.1494C160.502 25.1825 160.496 25.2153 160.483 25.2458C160.47 25.2764 160.451 25.3041 160.428 25.3274C160.381 25.3733 160.318 25.3991 160.252 25.3994Z" fill="#666538"/>
<path d="M152.764 12.6696C152.738 12.6696 152.711 12.6655 152.686 12.6576C152.66 12.649 152.636 12.6361 152.614 12.6196C152.588 12.6002 152.566 12.5757 152.549 12.5475C152.533 12.5193 152.522 12.488 152.518 12.4556C152.513 12.423 152.515 12.3897 152.523 12.3577C152.531 12.3258 152.546 12.2958 152.566 12.2696L152.908 11.8136L153.252 11.3576C153.272 11.3312 153.296 11.3088 153.324 11.292C153.353 11.2751 153.384 11.264 153.417 11.2593C153.449 11.2547 153.482 11.2566 153.514 11.2648C153.546 11.2731 153.576 11.2877 153.602 11.3076C153.655 11.3475 153.69 11.4063 153.7 11.4716C153.708 11.5375 153.691 11.604 153.652 11.6576L153.308 12.1136L152.964 12.5716C152.94 12.6031 152.91 12.6285 152.874 12.6456C152.84 12.6616 152.802 12.6698 152.764 12.6696Z" fill="#666538"/>
<path d="M73.37 18.9393C73.3716 17.2682 72.9099 15.6294 72.0363 14.2048C71.1627 12.7802 69.9113 11.6256 68.4211 10.8694C66.9309 10.1131 65.2603 9.78466 63.5947 9.92058C61.9291 10.0565 60.3338 10.6514 58.986 11.6393V26.2393C60.3341 27.2256 61.929 27.8192 63.5938 27.9544C65.2587 28.0897 66.9285 27.7612 68.418 27.0054C69.9076 26.2496 71.1588 25.0961 72.0329 23.6727C72.9069 22.2493 73.3697 20.6117 73.37 18.9413V18.9393Z" fill="#DEB8FC"/>
<path d="M70.7661 19.9371C70.1676 19.9297 69.5872 19.7306 69.1101 19.3691C68.6071 18.9979 68.2291 18.4824 68.0261 17.8911C67.4315 18.1928 66.7641 18.321 66.1001 18.2611C65.4729 18.2085 64.8792 17.9561 64.4061 17.5411C64.0072 17.1789 63.7182 16.7118 63.5721 16.1931C63.4759 15.8718 63.4261 15.5385 63.4241 15.2031C63.4238 15.1703 63.4303 15.1378 63.443 15.1075C63.4557 15.0773 63.4745 15.0499 63.4981 15.0271C63.5209 15.0036 63.5483 14.9849 63.5785 14.9722C63.6088 14.9595 63.6413 14.953 63.6741 14.9531C63.7068 14.9532 63.7393 14.9598 63.7695 14.9725C63.7997 14.9852 63.8271 15.0038 63.8501 15.0271C63.8963 15.0749 63.9221 15.1387 63.9221 15.2051C63.9241 15.4881 63.9652 15.7694 64.0441 16.0411C64.1645 16.4745 64.4043 16.8654 64.7361 17.1691C65.1457 17.5258 65.6619 17.7368 66.2041 17.7691C66.7865 17.8074 67.3679 17.6791 67.8801 17.3991C67.9342 17.3714 67.9934 17.355 68.0541 17.3511C68.1157 17.3489 68.177 17.3598 68.2341 17.3831C68.2916 17.4063 68.343 17.4426 68.3841 17.4891C68.4262 17.5339 68.457 17.5881 68.4741 17.6471C68.6542 18.2314 69.0345 18.7334 69.5481 19.0651C69.7874 19.2279 70.0568 19.3412 70.3404 19.3986C70.6241 19.4559 70.9163 19.4561 71.2001 19.3991C71.6654 19.2898 72.0803 19.027 72.3781 18.6531C72.6985 18.2598 72.8948 17.7802 72.9421 17.2751C72.9453 17.2424 72.955 17.2107 72.9705 17.1817C72.9861 17.1527 73.0072 17.1271 73.0326 17.1063C73.0581 17.0855 73.0874 17.0699 73.1189 17.0604C73.1503 17.051 73.1834 17.0478 73.2161 17.0511C73.282 17.0587 73.3427 17.0908 73.3861 17.1411C73.4067 17.1667 73.4222 17.1962 73.4314 17.2277C73.4407 17.2593 73.4436 17.2924 73.4401 17.3251C73.3811 17.934 73.1415 18.5113 72.7521 18.9831C72.3837 19.4359 71.8761 19.7544 71.3081 19.8891C71.133 19.9255 70.9549 19.945 70.7761 19.9471L70.7661 19.9371Z" fill="#666538"/>
<path d="M77.2201 27.8499C77.1865 27.8492 77.1533 27.8425 77.1221 27.8299C77.0905 27.8155 77.062 27.7951 77.0381 27.7699L76.4961 27.1999L75.9521 26.6239C75.9069 26.575 75.8825 26.5104 75.8841 26.4439C75.8855 26.3944 75.9016 26.3465 75.9303 26.3062C75.959 26.2659 75.999 26.235 76.0453 26.2174C76.0915 26.1999 76.142 26.1964 76.1902 26.2076C76.2384 26.2187 76.2822 26.2438 76.3161 26.2799L76.8601 26.8579L77.4021 27.4339C77.4247 27.4575 77.4424 27.4855 77.454 27.516C77.4657 27.5466 77.4712 27.5792 77.4701 27.6119C77.4682 27.6785 77.4402 27.7417 77.3921 27.7879C77.3446 27.8301 77.2837 27.8542 77.2201 27.8559V27.8499Z" fill="#666538"/>
<path d="M84.9241 36.9834H83.6781C83.6118 36.9834 83.5482 36.9571 83.5013 36.9102C83.4544 36.8633 83.4281 36.7997 83.4281 36.7334C83.428 36.7006 83.4345 36.6681 83.4472 36.6379C83.4599 36.6076 83.4786 36.5803 83.5021 36.5574C83.5249 36.5338 83.5522 36.515 83.5825 36.5023C83.6127 36.4896 83.6453 36.4832 83.6781 36.4834H84.9241C84.9572 36.4833 84.99 36.4899 85.0205 36.5026C85.0511 36.5153 85.0788 36.5339 85.1021 36.5574C85.1256 36.5803 85.1443 36.6076 85.157 36.6379C85.1697 36.6681 85.1762 36.7006 85.1761 36.7334C85.1762 36.7665 85.1697 36.7993 85.1569 36.8298C85.1442 36.8604 85.1256 36.8881 85.1021 36.9114C85.0544 36.9576 84.9905 36.9834 84.9241 36.9834Z" fill="#666538"/>
<path d="M89.5219 35.2559L89.4639 35.2719L89.4039 35.2879L89.4639 35.2759L89.5219 35.2559Z" fill="#007362"/>
<path d="M82.7179 44.4092H81.1679H79.6199L81.2299 46.4472L82.8399 48.4832L82.7779 46.4472L82.7179 44.4092Z" fill="#353519"/>
<path d="M83.6999 30.8417C83.7003 31.2907 83.545 31.7258 83.2604 32.073C82.9759 32.4202 82.5797 32.658 82.1395 32.7458C81.6993 32.8337 81.2422 32.7661 80.8462 32.5547C80.4502 32.3432 80.1398 32.001 79.9679 31.5863C79.7959 31.1716 79.7731 30.7102 79.9034 30.2806C80.0336 29.851 80.3088 29.4798 80.682 29.2304C81.0552 28.9809 81.5034 28.8687 81.9502 28.9127C82.3969 28.9567 82.8146 29.1543 83.1319 29.4717C83.3122 29.6514 83.4552 29.865 83.5526 30.1001C83.6501 30.3352 83.7002 30.5872 83.6999 30.8417Z" fill="#F98638"/>
<path d="M157.588 17.8792C157.589 18.4811 157.381 19.0646 157 19.5305C156.619 19.9963 156.088 20.3155 155.498 20.4336C154.908 20.5517 154.295 20.4615 153.764 20.1783C153.233 19.895 152.817 19.4364 152.586 18.8805C152.356 18.3246 152.325 17.7059 152.5 17.1299C152.674 16.554 153.043 16.0564 153.544 15.7222C154.044 15.3879 154.645 15.2375 155.244 15.2968C155.843 15.3561 156.403 15.6213 156.828 16.0472C157.069 16.2872 157.261 16.5727 157.391 16.8872C157.522 17.2016 157.589 17.5388 157.588 17.8792Z" fill="#DEB8FC"/>
<path d="M154.154 34.8115H151.814H149.474L151.89 37.2995L154.304 39.7895L154.23 37.2995L154.154 34.8115Z" fill="#353519"/>
<path d="M153.884 53.9678C153.878 54.1997 153.82 54.4272 153.713 54.6331C153.607 54.8389 153.454 55.0177 153.268 55.1558C152.837 55.474 152.315 55.6457 151.779 55.6457C151.243 55.6457 150.721 55.474 150.29 55.1558C150.1 55.0218 149.944 54.844 149.837 54.6374C149.73 54.4309 149.674 54.2016 149.674 53.9688C149.674 53.7361 149.73 53.5068 149.837 53.3002C149.944 53.0937 150.1 52.9159 150.29 52.7818C150.721 52.4625 151.243 52.29 151.779 52.29C152.315 52.29 152.837 52.4625 153.268 52.7818C153.454 52.9196 153.606 53.0981 153.713 53.3036C153.82 53.5091 153.878 53.7363 153.884 53.9678Z" fill="#F98638"/>
<path d="M149.074 50.4118C149.071 50.5424 149.038 50.6705 148.978 50.7864C148.917 50.9022 148.831 51.0026 148.726 51.0798C148.484 51.2606 148.19 51.3583 147.888 51.3583C147.586 51.3583 147.292 51.2606 147.05 51.0798C146.943 51.0043 146.856 50.9042 146.796 50.7879C146.736 50.6717 146.704 50.5427 146.704 50.4118C146.704 50.2809 146.736 50.1519 146.796 50.0357C146.856 49.9195 146.943 49.8194 147.05 49.7438C147.293 49.5645 147.586 49.4678 147.888 49.4678C148.19 49.4678 148.483 49.5645 148.726 49.7438C148.831 49.8214 148.917 49.9218 148.977 50.0376C149.038 50.1533 149.071 50.2813 149.074 50.4118Z" fill="#F98638"/>
<path d="M93.2482 81.3692H81.5462C81.4799 81.3692 81.4163 81.3428 81.3694 81.296C81.3225 81.2491 81.2962 81.1855 81.2962 81.1192C81.2956 81.0862 81.3017 81.0534 81.3141 81.0229C81.3265 80.9923 81.3449 80.9645 81.3682 80.9412C81.3915 80.9179 81.4193 80.8995 81.4499 80.8871C81.4804 80.8747 81.5132 80.8686 81.5462 80.8692H93.2482C93.3145 80.8692 93.3781 80.8955 93.4249 80.9424C93.4718 80.9893 93.4982 81.0529 93.4982 81.1192C93.4976 81.1853 93.4711 81.2486 93.4244 81.2954C93.3776 81.3422 93.3143 81.3687 93.2482 81.3692Z" fill="#AD4D4D"/>
<path d="M197.2 45.9417C197.201 46.5436 196.993 47.1271 196.612 47.593C196.231 48.0588 195.7 48.378 195.11 48.4961C194.52 48.6142 193.907 48.524 193.376 48.2408C192.845 47.9575 192.429 47.4989 192.198 46.943C191.968 46.3871 191.937 45.7684 192.112 45.1924C192.286 44.6165 192.655 44.1189 193.156 43.7847C193.656 43.4504 194.257 43.3 194.856 43.3593C195.455 43.4186 196.015 43.6838 196.44 44.1097C196.681 44.3499 196.873 44.6354 197.003 44.9498C197.134 45.2642 197.2 45.6013 197.2 45.9417Z" fill="#DEB8FC"/>
<path d="M84.6939 65.8314C84.6481 65.8315 84.6031 65.8191 84.5639 65.7954C84.5228 65.7709 84.4901 65.7347 84.4699 65.6914L84.2699 65.3094L84.0819 64.9274C84.0588 64.8817 84.0501 64.8301 84.057 64.7794C84.0639 64.7287 84.0861 64.6813 84.1207 64.6435C84.1552 64.6058 84.2004 64.5794 84.2503 64.5679C84.3001 64.5565 84.3523 64.5605 84.3999 64.5794C84.4625 64.601 84.5141 64.6462 84.5439 64.7054L84.7339 65.0894L84.9219 65.4714C84.9366 65.5006 84.9453 65.5325 84.9473 65.5652C84.9494 65.5978 84.9448 65.6306 84.9339 65.6614C84.9235 65.6925 84.907 65.7213 84.8853 65.746C84.8637 65.7708 84.8374 65.7909 84.8079 65.8054C84.7911 65.815 84.7729 65.8217 84.7539 65.8254C84.7342 65.8297 84.714 65.8317 84.6939 65.8314Z" fill="#666538"/>
<path d="M90.0261 70.4952C89.9685 70.4953 89.9127 70.4755 89.8681 70.4392C89.824 70.4027 89.7931 70.3529 89.7801 70.2972C89.7669 70.2322 89.7798 70.1647 89.8161 70.1092C89.8339 70.0816 89.8571 70.0579 89.8842 70.0393C89.9114 70.0208 89.9419 70.0078 89.9741 70.0012C90.2252 69.9507 90.4789 69.914 90.7341 69.8912C91.1782 69.8388 91.6279 69.8577 92.0661 69.9472C92.1296 69.9641 92.1841 70.005 92.2181 70.0612C92.2513 70.1186 92.2613 70.1866 92.2461 70.2512C92.2291 70.3158 92.1875 70.3711 92.1301 70.4052C92.1021 70.4219 92.071 70.4328 92.0387 70.4372C92.0064 70.4417 91.9736 70.4396 91.9421 70.4312C91.5468 70.3534 91.1415 70.3406 90.7421 70.3932C90.3641 70.4292 90.0741 70.4892 90.0681 70.4892H90.0421L90.0261 70.4952Z" fill="#666538"/>
<path d="M84.0481 76.0293L85.8141 76.9573L87.5801 77.8833H84.1441C84.1441 77.8833 84.1621 77.5853 84.1581 77.2033C84.1625 76.8092 84.1257 76.4157 84.0481 76.0293Z" fill="#353519"/>
</g>
<defs>
<clipPath id="clip0_6346_36434">
<rect width="256" height="120" rx="8" fill="white"/>
</clipPath>
</defs>
</svg>
