<svg width="256" height="120" viewBox="0 0 256 120" fill="none" xmlns="http://www.w3.org/2000/svg">
<g clip-path="url(#clip0_6346_36435)">
<rect width="256" height="120" rx="8" fill="#3A4A29"/>
<path d="M64.1414 56.7283L54.1233 54.0425C53.6632 53.9191 53.2348 53.6966 52.8672 53.3902C52.4997 53.0838 52.2018 52.7006 51.9937 52.2668C51.7856 51.8331 51.6723 51.3589 51.6615 50.8768C51.6507 50.3946 51.7427 49.9157 51.9311 49.4728L58.3372 34.4459C58.6503 33.7079 59.2145 33.1083 59.9271 32.7562C60.6397 32.4041 61.4533 32.323 62.2199 32.5275L72.238 35.2133C72.6982 35.3369 73.1266 35.5596 73.4941 35.8662C73.8616 36.1729 74.1596 36.5562 74.3677 36.9901C74.5757 37.424 74.689 37.8983 74.6998 38.3806C74.7106 38.8629 74.6186 39.3419 74.4302 39.7849L68.024 54.8156C67.7099 55.5526 67.1454 56.151 66.4329 56.5019C65.7204 56.8529 64.9073 56.9332 64.1414 56.7283Z" fill="#77C8D6"/>
<path d="M52.6913 46.1063C53.5151 46.1063 54.1829 45.4385 54.1829 44.6147C54.1829 43.7909 53.5151 43.123 52.6913 43.123C51.8675 43.123 51.1997 43.7909 51.1997 44.6147C51.1997 45.4385 51.8675 46.1063 52.6913 46.1063Z" fill="#F2EADA"/>
<path d="M74.2293 43.9288C75.1149 43.9288 75.8329 43.2109 75.8329 42.3253C75.8329 41.4396 75.1149 40.7217 74.2293 40.7217C73.3437 40.7217 72.6257 41.4396 72.6257 42.3253C72.6257 43.2109 73.3437 43.9288 74.2293 43.9288Z" fill="#F2EADA"/>
<path d="M64.0354 35.3386C64.0354 34.1111 63.0816 33.1157 61.9051 33.1157C61.7004 33.1163 61.4968 33.147 61.301 33.207C61.1739 32.761 60.9031 32.3696 60.5306 32.0934C60.1581 31.8173 59.7048 31.672 59.2411 31.68C58.7775 31.688 58.3295 31.849 57.9668 32.1379C57.6041 32.4268 57.347 32.8274 57.2354 33.2775C56.9835 33.1708 56.7127 33.1158 56.4391 33.1157C55.2627 33.1157 54.3089 34.1111 54.3089 35.3386C54.3065 35.9233 54.5298 36.4864 54.9323 36.9104C54.7131 37.2692 54.5973 37.6816 54.5978 38.1021C54.5978 39.3296 55.5516 40.325 56.7281 40.325C56.9213 40.3244 57.1135 40.2964 57.299 40.242C57.4488 40.6642 57.7296 41.0275 58.1004 41.2789C58.4713 41.5302 58.9128 41.6565 59.3604 41.6392C59.8081 41.6219 60.2385 41.462 60.5889 41.1828C60.9392 40.9036 61.1912 40.5197 61.3079 40.0872C61.5002 40.1456 61.7 40.1754 61.901 40.1757C63.0774 40.1757 64.0313 39.1803 64.0313 37.9528C64.0311 37.4849 63.8863 37.0286 63.6166 36.6464C63.8876 36.2641 64.0339 35.8073 64.0354 35.3386Z" fill="#F2EADA"/>
<path d="M67.6354 55.5677C68.8008 55.1848 69.4699 54.0305 69.1284 52.9909C69.0689 52.8091 68.9802 52.6382 68.8657 52.4849C69.6288 51.961 70.0062 51.0542 69.7325 50.2192C69.4588 49.3842 68.5713 48.852 67.6188 48.9114C67.6471 48.656 67.6193 48.3974 67.5373 48.1539C67.1958 47.1143 65.9738 46.5821 64.807 46.965C64.2572 47.14 63.7905 47.5103 63.4951 48.006C63.0854 47.9243 62.6614 47.9505 62.2648 48.082C61.0994 48.4649 60.4303 49.6192 60.7718 50.6588C60.8281 50.8304 60.9106 50.9922 61.0165 51.1385C60.3253 51.6707 59.9935 52.5319 60.2548 53.3268C60.5313 54.1715 61.3911 54.6816 62.3284 54.6373C62.3285 54.8252 62.3584 55.0118 62.4169 55.1903C62.7583 56.2299 63.9803 56.7635 65.1471 56.3805C65.5876 56.2372 65.9773 55.9699 66.2696 55.6105C66.7194 55.7286 67.1939 55.7137 67.6354 55.5677Z" fill="#F2EADA"/>
<path d="M63.3179 49.3096L58.8942 48.1374C58.0302 47.9079 57.5961 46.8725 57.9776 45.949L61.0258 38.5739C61.3341 37.8274 62.0806 37.4113 62.7801 37.5966L67.2038 38.7675C68.0678 38.9969 68.5032 40.0337 68.1203 40.9572L65.0721 48.3309C64.7638 49.0788 64.0173 49.4949 63.3179 49.3096Z" stroke="#3B1534" stroke-width="0.6912" stroke-miterlimit="10" stroke-linecap="round"/>
<path d="M195.429 53.6783C196.268 53.6783 196.947 52.9987 196.947 52.1605C196.947 51.3222 196.268 50.6426 195.429 50.6426C194.591 50.6426 193.912 51.3222 193.912 52.1605C193.912 52.9987 194.591 53.6783 195.429 53.6783Z" fill="#F2EADA"/>
<path d="M194.158 61.3727C194.996 61.3727 195.676 60.6931 195.676 59.8548C195.676 59.0165 194.996 58.3369 194.158 58.3369C193.319 58.3369 192.64 59.0165 192.64 59.8548C192.64 60.6931 193.319 61.3727 194.158 61.3727Z" fill="#F2EADA"/>
<path d="M203.806 44.6517C203.478 44.7141 203.188 44.9039 203 45.1797C202.812 45.4554 202.741 45.7945 202.803 46.1226L203.521 49.9463C203.552 50.1088 203.614 50.2638 203.704 50.4023C203.794 50.5409 203.911 50.6603 204.047 50.7537C204.183 50.8472 204.337 50.9129 204.498 50.947C204.66 50.9812 204.827 50.9831 204.99 50.9527L210.732 49.8744L209.452 43.5928L203.806 44.6517Z" fill="#77C8D6"/>
<path d="M201.722 59.8551C202.561 59.8551 203.24 59.1755 203.24 58.3372C203.24 57.4989 202.561 56.8193 201.722 56.8193C200.884 56.8193 200.205 57.4989 200.205 58.3372C200.205 59.1755 200.884 59.8551 201.722 59.8551Z" fill="#F2EADA"/>
<path d="M206.453 48.4393C207.091 48.4393 207.608 47.9219 207.608 47.2836C207.608 46.6453 207.091 46.1279 206.453 46.1279C205.814 46.1279 205.297 46.6453 205.297 47.2836C205.297 47.9219 205.814 48.4393 206.453 48.4393Z" fill="#3B1534"/>
<path d="M224.703 79.1532L219.002 80.0905C217.592 80.3221 216.151 80.2738 214.759 79.9483C213.368 79.6228 212.055 79.0265 210.894 78.1934C209.733 77.3603 208.748 76.3067 207.995 75.0928C207.241 73.8789 206.734 72.5285 206.502 71.1187L205.858 67.1927C205.609 65.6755 205.661 64.1241 206.011 62.627C206.361 61.1299 207.003 59.7165 207.899 58.4674C208.796 57.2183 209.93 56.1581 211.236 55.3473C212.542 54.5365 213.996 53.991 215.513 53.7419L219.583 53.0756C222.646 52.5726 225.784 53.3072 228.306 55.1178C230.828 56.9284 232.528 59.6667 233.031 62.7303L233.675 66.6563C234.142 69.5032 233.459 72.419 231.777 74.7625C230.094 77.1061 227.55 78.6854 224.703 79.1532Z" fill="#F2EADA"/>
<path d="M213.086 76.0903C215.416 74.2297 218.189 73.0041 221.134 72.5327C224.078 72.0612 227.095 72.3601 229.89 73.4001" stroke="#77C8D6" stroke-width="1.3824" stroke-miterlimit="10" stroke-linecap="round"/>
<path d="M220.876 54.624L213.876 56.1281L209.908 50.0261L221.579 47.8281L220.876 54.624Z" fill="#FFC9D3"/>
<path d="M230.022 45.4011L223.11 41.5746C222.631 41.3098 222.075 41.2199 221.537 41.3202L209.449 43.5929L210.735 49.8745L229.884 46.2803C229.981 46.2635 230.07 46.2169 230.139 46.1469C230.208 46.0769 230.253 45.9872 230.268 45.8902C230.283 45.7932 230.268 45.6939 230.224 45.6062C230.18 45.5184 230.109 45.4467 230.022 45.4011Z" fill="#FFC9D3"/>
<path d="M221.275 47.8916L210.359 49.9431" stroke="#3B1534" stroke-width="1.3824" stroke-miterlimit="10" stroke-linecap="round"/>
<path d="M80.6683 92.972V79.506H90.2552V83.4459H96.5493V76.8366C96.5493 75.7935 96.1349 74.7932 95.3973 74.0556C94.6598 73.318 93.6594 72.9037 92.6163 72.9037H80.6683V67.7086H91.0819C91.4518 67.7086 91.8066 67.5617 92.0682 67.3001C92.3298 67.0385 92.4767 66.6837 92.4767 66.3138C92.4767 65.9439 92.3298 65.5891 92.0682 65.3275C91.8066 65.0659 91.4518 64.9189 91.0819 64.9189H73.5102V92.972H65.4563C63.894 92.9723 62.3957 93.5933 61.2911 94.6981C60.1865 95.803 59.5659 97.3014 59.5659 98.8638V111.98C59.5659 113.098 60.0099 114.17 60.8004 114.961C61.5908 115.752 62.6629 116.196 63.7809 116.196H124.073V92.972H80.6683Z" fill="#3B1534"/>
<path d="M174.74 122.398C176.27 122.424 180.739 122.217 184.647 119.378C188.556 116.538 191.86 111.071 191.087 100.566C190.949 98.744 190.7 96.9334 190.339 95.1452C189.973 93.3571 189.51 91.5921 188.952 89.8588L185.415 78.7905L181.878 67.7273C181.086 65.2396 180.043 62.8464 178.767 60.5877C177.491 58.3296 175.969 56.2334 174.23 54.3411C171.715 51.5513 168.699 49.3043 165.353 47.728C161.268 45.8727 156.776 45.2123 152.359 45.8178C151.238 45.9601 150.126 46.1756 149.03 46.4631C147.937 46.748 146.859 47.0926 145.8 47.4956L135.68 51.3675L125.57 55.2858C124.151 55.8233 122.791 56.5155 121.513 57.3508C120.239 58.1962 119.066 59.1942 118.015 60.3244C116.546 61.8919 115.381 63.7415 114.587 65.7708C113.655 68.2293 113.376 70.9045 113.78 73.5144C113.86 74.05 113.968 74.5808 114.102 75.1045C114.236 75.6207 114.389 76.137 114.563 76.6532L122.32 99.5332L130.053 122.398H149.402H161.028H172.659H173.699H174.74Z" fill="#FF94AC"/>
<path d="M146.225 40.5607C146.225 43.8387 145.089 47.0154 143.009 49.5495C140.93 52.0836 138.036 53.8183 134.822 54.4581C131.607 55.0978 128.269 54.6031 125.378 53.0581C122.487 51.5131 120.221 49.0135 118.967 45.9851C117.712 42.9568 117.546 39.5871 118.497 36.4502C119.449 33.3133 121.458 30.6033 124.184 28.782C126.909 26.9606 130.182 26.1406 133.444 26.4617C136.706 26.7828 139.756 28.225 142.074 30.5428C143.391 31.8573 144.436 33.4189 145.148 35.138C145.86 36.8571 146.226 38.6999 146.225 40.5607Z" fill="#A0505A"/>
<path d="M126.94 34.3398C126.943 36.3772 126.239 38.3526 124.949 39.9293C123.659 41.506 121.861 42.5863 119.864 42.986C117.866 43.3858 115.791 43.0803 113.993 42.1215C112.196 41.1628 110.786 39.6102 110.005 37.7284C109.224 35.8467 109.12 33.7523 109.71 31.8023C110.301 29.8523 111.549 28.1675 113.243 27.035C114.937 25.9026 116.971 25.3926 118.998 25.5921C121.026 25.7916 122.921 26.6882 124.362 28.129C125.18 28.943 125.829 29.9109 126.271 30.9768C126.714 32.0428 126.941 33.1857 126.94 34.3398Z" fill="#FFDB00"/>
<path d="M162.561 32.8336C162.565 34.8811 161.703 36.8664 160.123 38.4508C158.542 40.0353 156.341 41.121 153.894 41.5227C151.447 41.9245 148.906 41.6174 146.704 40.6539C144.502 39.6904 142.776 38.1301 141.819 36.239C140.863 34.3479 140.735 32.2432 141.458 30.2835C142.181 28.3239 143.711 26.6307 145.785 25.4926C147.859 24.3545 150.351 23.842 152.834 24.0425C155.317 24.243 157.639 25.144 159.404 26.592C160.406 27.4101 161.2 28.3827 161.742 29.4539C162.284 30.5252 162.562 31.6738 162.561 32.8336Z" fill="#FFDB00"/>
<path d="M182.6 35.5983C182.604 37.6458 181.742 39.631 180.161 41.2155C178.581 42.8 176.38 43.8856 173.933 44.2874C171.486 44.6891 168.945 44.3821 166.743 43.4186C164.541 42.4551 162.815 40.8947 161.858 39.0037C160.902 37.1126 160.774 35.0078 161.497 33.0482C162.22 31.0885 163.749 29.3953 165.824 28.2572C167.898 27.1192 170.389 26.6067 172.873 26.8072C175.356 27.0076 177.678 27.9087 179.442 29.3566C180.444 30.1747 181.239 31.1474 181.781 32.2186C182.323 33.2898 182.601 34.4384 182.6 35.5983Z" fill="#FFDB00"/>
<path d="M163.9 30.178C163.414 30.5048 162.974 30.8953 162.592 31.339C162.134 31.8753 161.767 32.4828 161.505 33.1377" stroke="#3B1534" stroke-width="0.6912" stroke-miterlimit="10" stroke-linecap="round"/>
<path d="M144.998 32.2711C144.655 31.7969 144.249 31.3708 143.792 31.0043C143.24 30.5652 142.62 30.2193 141.957 29.9804" stroke="#3B1534" stroke-width="0.6912" stroke-miterlimit="10" stroke-linecap="round"/>
<path d="M129.881 31.4534C130.36 32.7721 131.031 34.013 131.872 35.1361C133.429 37.3351 135.708 38.9197 138.311 39.615C139.917 40.0191 141.592 40.0667 143.218 39.7544C144.223 39.5671 145.201 39.2562 146.13 38.8287C145.692 35.2471 143.905 31.9673 141.132 29.6584C138.359 27.3495 134.81 26.1855 131.208 26.4039C127.606 26.6223 124.224 28.2066 121.75 30.8336C119.277 33.4607 117.899 36.9324 117.897 40.5407C117.898 40.9911 117.921 41.4413 117.967 41.8894C118.007 42.3373 118.071 42.7752 118.151 43.2032C121.146 42.8441 123.932 41.488 126.063 39.3531C128.193 37.2183 129.543 34.4287 129.896 31.4334L129.881 31.4534Z" fill="#FFDB00"/>
<path d="M123.538 44.3387C123.751 44.4784 123.899 44.6967 123.951 44.9458C123.978 45.0698 123.981 45.1979 123.957 45.3227C123.934 45.4475 123.887 45.5664 123.817 45.6724C123.677 45.8847 123.459 46.0331 123.21 46.0855C122.96 46.137 122.699 46.0874 122.486 45.9475C122.272 45.8076 122.123 45.5888 122.07 45.339C122.019 45.0895 122.07 44.8301 122.209 44.6174C122.278 44.5117 122.367 44.4208 122.471 44.3499C122.576 44.2789 122.693 44.2294 122.816 44.2043C123.065 44.1518 123.325 44.2001 123.538 44.3387Z" fill="#1E4240"/>
<path d="M129.899 43.237C130.005 43.3057 130.096 43.3948 130.167 43.499C130.238 43.6033 130.287 43.7206 130.312 43.8441C130.338 43.9676 130.339 44.095 130.316 44.219C130.293 44.343 130.245 44.4612 130.176 44.5668C130.107 44.6724 130.018 44.7633 129.913 44.8344C129.809 44.9056 129.692 44.9555 129.568 44.9813C129.445 45.0071 129.317 45.0083 129.193 44.9849C129.069 44.9615 128.951 44.9138 128.846 44.8448C128.74 44.7757 128.649 44.6865 128.578 44.5822C128.507 44.478 128.457 44.3608 128.431 44.2373C128.404 44.1133 128.402 43.9853 128.425 43.8606C128.448 43.7359 128.496 43.6171 128.566 43.511C128.635 43.405 128.725 43.3138 128.83 43.2428C128.935 43.1718 129.053 43.1224 129.178 43.0976C129.301 43.0715 129.429 43.0704 129.553 43.0943C129.676 43.1182 129.794 43.1667 129.899 43.237Z" fill="#1E4240"/>
<path d="M127.437 50.5635C127.251 50.5644 127.065 50.5544 126.88 50.5336C126.711 50.5336 126.561 50.4888 126.437 50.4639C126.356 50.4484 126.278 50.4171 126.209 50.3716C126.141 50.3262 126.081 50.2675 126.035 50.1991C125.989 50.1307 125.956 50.0537 125.94 49.9728C125.924 49.8919 125.923 49.8085 125.939 49.7274C125.975 49.5655 126.074 49.4243 126.213 49.3343C126.281 49.2886 126.357 49.2571 126.438 49.2417C126.518 49.2263 126.601 49.2273 126.681 49.2447C127 49.3117 127.326 49.3351 127.651 49.3143C128.115 49.2873 128.568 49.1617 128.98 48.9461C129.593 48.627 130.091 48.1241 130.403 47.5078C130.588 47.161 130.721 46.7887 130.796 46.403C130.827 46.2416 130.919 46.0987 131.055 46.0055C131.19 45.9123 131.356 45.8763 131.518 45.9053C131.681 45.9364 131.825 46.0291 131.921 46.1641C132.014 46.2993 132.05 46.4656 132.021 46.627C131.922 47.1485 131.744 47.6519 131.493 48.12C131.188 48.7134 130.755 49.2321 130.226 49.639C129.697 50.0459 129.084 50.331 128.432 50.4739C128.105 50.5392 127.771 50.5692 127.437 50.5635Z" fill="#AD4D4D"/>
<path d="M162.563 91.2373L152.818 89.6895L143.064 88.1368C142.983 88.1245 142.905 88.0962 142.835 88.0535C142.765 88.0108 142.704 87.9545 142.656 87.888C142.607 87.8223 142.573 87.7474 142.554 87.6678C142.535 87.5883 142.533 87.5057 142.547 87.4251C142.559 87.344 142.587 87.2661 142.63 87.196C142.673 87.126 142.729 87.0651 142.795 87.0171C142.93 86.9231 143.096 86.884 143.258 86.9076L151.908 88.2861L160.562 89.6597L157.91 83.3393L155.242 77.009C155.209 76.9303 155.191 76.8457 155.191 76.7602C155.191 76.6747 155.209 76.5901 155.242 76.5114C155.272 76.4353 155.317 76.3661 155.374 76.3079C155.431 76.2497 155.5 76.2038 155.576 76.173C155.654 76.1381 155.739 76.1201 155.824 76.1201C155.91 76.1201 155.995 76.1381 156.073 76.173C156.225 76.2359 156.346 76.3555 156.412 76.5064L159.497 83.8569L162.563 91.2373Z" fill="#2B3D0A"/>
<path d="M168.391 117.818H168.296C168.265 117.822 168.233 117.822 168.202 117.818L154.81 113.587L141.373 109.397C141.295 109.374 141.222 109.335 141.16 109.283C141.097 109.231 141.046 109.166 141.009 109.094C140.968 109.018 140.942 108.935 140.934 108.849C140.927 108.764 140.937 108.677 140.965 108.596C140.989 108.518 141.029 108.445 141.082 108.383C141.135 108.32 141.2 108.269 141.273 108.233C141.345 108.194 141.424 108.171 141.505 108.163C141.586 108.155 141.668 108.164 141.746 108.188L155.153 112.373L168.56 116.563C168.638 116.587 168.71 116.626 168.773 116.678C168.835 116.73 168.886 116.795 168.923 116.867C168.965 116.942 168.991 117.025 168.998 117.111C169.006 117.197 168.996 117.283 168.968 117.365C168.93 117.493 168.849 117.606 168.739 117.683C168.639 117.762 168.518 117.809 168.391 117.818Z" fill="#2B3D0A"/>
<path d="M101.624 112.69H67.3464C66.696 112.69 66.0722 112.431 65.6123 111.972C65.1524 111.512 64.894 110.888 64.894 110.237V98.5852C64.894 97.9348 65.1524 97.311 65.6123 96.8511C66.0722 96.3912 66.696 96.1328 67.3464 96.1328H101.63L101.624 112.69Z" fill="#FFC9D3"/>
<path d="M96.5482 83.4463H90.2085V98.6638H96.5482V83.4463Z" fill="#77C8D6"/>
<path d="M106.229 80.8607C108.801 80.8607 110.885 78.7761 110.885 76.2048C110.885 73.6334 108.801 71.5488 106.229 71.5488C103.658 71.5488 101.573 73.6334 101.573 76.2048C101.573 78.7761 103.658 80.8607 106.229 80.8607Z" fill="#F2EADA"/>
<path d="M129.841 101.909C129.841 100.376 129.283 98.8945 128.271 97.7416C127.26 96.5887 125.864 95.8429 124.343 95.643C124.204 94.4938 123.753 93.4047 123.037 92.4947C122.322 91.5846 121.37 90.8885 120.286 90.4823C119.202 90.0761 118.028 89.9754 116.89 90.1912C115.753 90.4069 114.697 90.9309 113.837 91.7059C112.929 90.8869 111.803 90.349 110.595 90.1573C109.387 89.9655 108.15 90.1283 107.033 90.6258C105.915 91.1234 104.967 91.9343 104.301 92.9603C103.636 93.9862 103.282 95.1832 103.284 96.4061C103.284 96.4517 103.284 96.4973 103.284 96.5443C102.105 96.7939 101.022 97.3753 100.162 98.2201C99.303 99.0648 98.7031 100.138 98.4335 101.312C98.1638 102.487 98.2356 103.714 98.6403 104.849C99.0451 105.984 99.7659 106.979 100.718 107.718C100.267 108.681 100.066 109.743 100.134 110.805C100.202 111.866 100.537 112.893 101.107 113.791C101.678 114.689 102.466 115.428 103.398 115.94C104.331 116.452 105.377 116.72 106.441 116.72C107.086 116.721 107.727 116.623 108.342 116.43C108.881 117.473 109.699 118.346 110.706 118.95C111.713 119.554 112.868 119.866 114.042 119.85C115.216 119.835 116.362 119.493 117.353 118.862C118.343 118.232 119.139 117.338 119.65 116.281C120.893 116.77 122.259 116.852 123.552 116.517C124.845 116.181 125.998 115.445 126.846 114.413C127.694 113.381 128.194 112.107 128.273 110.774C128.352 109.44 128.007 108.116 127.286 106.991C128.08 106.403 128.725 105.637 129.168 104.754C129.612 103.872 129.842 102.897 129.841 101.909Z" fill="#F2EADA"/>
<path d="M82.1086 108.891C83.9898 108.891 85.5149 107.366 85.5149 105.484C85.5149 103.603 83.9898 102.078 82.1086 102.078C80.2274 102.078 78.7024 103.603 78.7024 105.484C78.7024 107.366 80.2274 108.891 82.1086 108.891Z" fill="#F2EADA"/>
<path d="M92.2671 83.4463V92.0849" stroke="#3B1534" stroke-width="0.6912" stroke-miterlimit="10" stroke-linecap="round"/>
<path d="M94.342 80.0967V88.7339" stroke="#3B1534" stroke-width="0.6912" stroke-miterlimit="10" stroke-linecap="round"/>
<path d="M105.619 103.155C106.183 102.465 106.476 101.594 106.444 100.704C106.412 99.8133 106.058 98.9649 105.446 98.3169C105.806 97.7491 106.004 97.0932 106.016 96.4209C106.029 95.7486 105.856 95.0858 105.518 94.5049C105.179 93.9239 104.688 93.4472 104.096 93.1267C103.505 92.8063 102.838 92.6544 102.166 92.6878C102.058 91.9863 101.75 91.331 101.277 90.8015C100.805 90.2719 100.189 89.8908 99.5039 89.7042C98.8191 89.5177 98.095 89.5337 97.4192 89.7504C96.7433 89.9672 96.1449 90.3752 95.6963 90.9252L95.6479 90.9888C95.0262 90.6692 94.3261 90.534 93.63 90.5989C92.934 90.6638 92.271 90.9262 91.7191 91.3553C91.1671 91.7843 90.7493 92.3621 90.5147 93.0207C90.2801 93.6792 90.2385 94.391 90.3948 95.0724C89.753 95.3817 89.215 95.871 88.8464 96.4807C88.4778 97.0904 88.2946 97.7942 88.3191 98.5063C88.3435 99.2183 88.5746 99.9079 88.9842 100.491C89.3938 101.074 89.9641 101.525 90.6257 101.789C90.4849 102.456 90.5326 103.149 90.7633 103.79C90.9941 104.432 91.3989 104.996 91.9323 105.42C92.4657 105.845 93.1067 106.112 93.7835 106.192C94.4603 106.273 95.1461 106.163 95.7641 105.876C96.1438 106.553 96.7284 107.092 97.4339 107.416C98.1394 107.74 98.9294 107.831 99.6903 107.678C100.451 107.524 101.144 107.133 101.668 106.561C102.193 105.989 102.522 105.265 102.61 104.493C103.181 104.521 103.751 104.414 104.273 104.182C104.796 103.949 105.257 103.598 105.619 103.155Z" fill="#F2EADA"/>
<path d="M103.621 93.1201C103.621 93.1201 107.157 94.6532 105.295 98.4672C105.731 98.964 106.028 99.5665 106.158 100.215C106.288 100.863 106.245 101.533 106.034 102.16C105.52 103.626 104.085 104.633 102.458 104.648C102.42 105.245 102.216 105.82 101.868 106.307C100.921 107.651 99.3684 107.857 99.103 107.884" stroke="#77C8D6" stroke-width="0.6912" stroke-miterlimit="10" stroke-linecap="round"/>
<path d="M90.4473 83.1642L90.497 83.1048C90.8437 82.6755 91.283 82.3304 91.782 82.0951C92.281 81.8598 92.8268 81.7406 93.3785 81.7463C93.9302 81.752 94.4734 81.8825 94.9675 82.1281C95.4615 82.3737 95.8936 82.7279 96.2312 83.1642" stroke="#FF94AC" stroke-width="0.6912" stroke-miterlimit="10" stroke-linecap="round"/>
<path d="M80.4195 67.709H73.7522" stroke="#FF94AC" stroke-width="0.6912" stroke-miterlimit="10" stroke-linecap="round"/>
<path d="M143.149 87.5252C142.363 87.0891 141.541 86.7244 140.69 86.4353C139.426 85.9377 138.102 85.44 137.863 85.3106C136.978 84.8976 136.107 84.4646 135.241 84.0167C134.375 83.5688 133.524 83.091 132.683 82.5983C131.842 82.1057 131.11 81.6428 130.349 81.1402C129.587 80.6375 128.826 80.115 128.079 79.5825C127.477 79.1495 126.586 78.2687 125.591 77.5918C124.596 76.915 123.6 76.492 122.754 76.9399C122.147 77.2634 122.018 77.9352 122.112 78.6021C122.217 79.2517 122.467 79.8693 122.844 80.4086L124.944 83.5638L127.049 86.719L122.486 89.5656L117.932 92.4372C117.382 92.8085 116.946 93.3254 116.673 93.9302C116.375 94.5148 116.253 95.1738 116.324 95.8263V95.886C116.404 96.3225 116.587 96.7337 116.857 97.0854C117.02 97.2957 117.209 97.4846 117.419 97.6477C117.272 97.9182 117.163 98.208 117.096 98.5087C116.945 99.1633 117.009 99.8492 117.277 100.465C117.546 101.081 118.006 101.593 118.589 101.928C118.502 102.205 118.454 102.493 118.445 102.784C118.421 103.298 118.523 103.811 118.743 104.277C119.042 104.887 119.534 105.381 120.142 105.685C120.454 105.852 120.789 105.971 121.137 106.038C121.233 106.243 121.343 106.441 121.465 106.631C121.602 106.844 121.751 107.048 121.913 107.243C122.272 107.661 122.694 108.022 123.162 108.313C123.574 108.569 124.013 108.778 124.471 108.935C124.892 109.078 125.325 109.18 125.765 109.238C126.205 109.297 126.65 109.319 127.094 109.303L134.33 109.079L141.571 108.85L142.367 98.1653L143.149 87.5252Z" fill="#A0505A"/>
<path d="M117.43 98.2446C117.287 98.2448 117.148 98.1956 117.037 98.1053C116.923 98.0145 116.847 97.8852 116.823 97.742C116.79 97.5803 116.822 97.4124 116.912 97.2742C116.958 97.2069 117.017 97.1494 117.085 97.1049C117.154 97.0605 117.23 97.0301 117.31 97.0154L120.132 96.458L122.959 95.9205C123.039 95.9042 123.122 95.9041 123.202 95.9203C123.283 95.9366 123.359 95.9688 123.427 96.0151C123.495 96.0608 123.553 96.1195 123.598 96.1878C123.643 96.2561 123.675 96.3327 123.69 96.4132C123.705 96.4936 123.705 96.5762 123.688 96.6562C123.671 96.7363 123.638 96.8122 123.592 96.8797C123.546 96.9472 123.487 97.0049 123.418 97.0496C123.35 97.0942 123.273 97.1249 123.193 97.1398L120.371 97.6972L117.549 98.2496H117.489L117.43 98.2446Z" fill="#3B1534"/>
<path d="M118.977 102.49C118.834 102.488 118.696 102.438 118.586 102.348C118.475 102.257 118.399 102.132 118.37 101.992C118.353 101.912 118.353 101.829 118.369 101.748C118.385 101.668 118.418 101.592 118.464 101.524C118.509 101.456 118.566 101.397 118.634 101.352C118.702 101.307 118.778 101.276 118.858 101.26L121.679 100.708L124.501 100.151C124.663 100.122 124.83 100.156 124.969 100.245C125.038 100.29 125.097 100.349 125.142 100.417C125.187 100.485 125.218 100.562 125.233 100.643C125.249 100.724 125.249 100.806 125.233 100.887C125.217 100.967 125.184 101.043 125.138 101.111C125.045 101.246 124.905 101.34 124.745 101.375L121.923 101.927L119.096 102.48H119.037L118.977 102.49Z" fill="#3B1534"/>
<path d="M121.351 106.73C121.208 106.731 121.069 106.681 120.958 106.59C120.845 106.499 120.767 106.37 120.739 106.227C120.723 106.146 120.724 106.063 120.74 105.983C120.757 105.902 120.789 105.825 120.835 105.757C120.882 105.689 120.941 105.631 121.01 105.586C121.079 105.541 121.156 105.51 121.237 105.496L123.352 105.082L125.467 104.669C125.547 104.653 125.629 104.653 125.708 104.669C125.788 104.686 125.863 104.718 125.93 104.764C125.999 104.807 126.058 104.865 126.103 104.933C126.149 105 126.18 105.077 126.194 105.157C126.224 105.32 126.189 105.489 126.096 105.626C126.003 105.763 125.859 105.857 125.696 105.889L123.581 106.302L121.466 106.72H121.346L121.351 106.73Z" fill="#3B1534"/>
<path d="M130.972 92.8084C132.483 92.8084 133.708 91.5836 133.708 90.0727C133.708 88.5618 132.483 87.3369 130.972 87.3369C129.461 87.3369 128.237 88.5618 128.237 90.0727C128.237 91.5836 129.461 92.8084 130.972 92.8084Z" fill="#F2EADA"/>
<path d="M138.086 52.7541L144.169 47.501" stroke="#3B1534" stroke-width="0.6912" stroke-miterlimit="10" stroke-linecap="round"/>
<path d="M144.819 47.4179C147.315 47.4179 149.339 45.394 149.339 42.8974C149.339 40.4008 147.315 38.377 144.819 38.377C142.322 38.377 140.298 40.4008 140.298 42.8974C140.298 45.394 142.322 47.4179 144.819 47.4179Z" fill="#A0505A"/>
<path d="M134.513 44.4952L120.115 48.0729L120.8 54.4004C120.8 55.9378 122.513 57.7134 123.6 58.8004C124.687 59.8874 127.262 60.0004 128.8 60.0004L134.513 57.6004L138.064 53.2707C138.212 53.1103 138.313 52.9127 138.357 52.6992C138.401 52.4856 138.386 52.2641 138.314 52.0583L135.935 45.2638C135.836 44.9817 135.636 44.7465 135.373 44.6044C135.109 44.4622 134.803 44.4233 134.513 44.4952Z" fill="#F2EADA"/>
<path d="M120.8 51.6025L133.369 48" stroke="#77C8D6" stroke-width="0.6912" stroke-miterlimit="10" stroke-linecap="round"/>
<path d="M120.8 54.6846L130.199 52" stroke="#77C8D6" stroke-width="0.6912" stroke-miterlimit="10" stroke-linecap="round"/>
<path d="M144.91 44.5595C145.624 44.5595 146.204 43.9802 146.204 43.2656C146.204 42.551 145.624 41.9717 144.91 41.9717C144.195 41.9717 143.616 42.551 143.616 43.2656C143.616 43.9802 144.195 44.5595 144.91 44.5595Z" stroke="#3B1534" stroke-width="0.6912" stroke-miterlimit="10" stroke-linecap="round"/>
<path d="M135.321 45.013L141.957 39.4834" stroke="#3B1534" stroke-width="0.6912" stroke-miterlimit="10" stroke-linecap="round"/>
</g>
<defs>
<clipPath id="clip0_6346_36435">
<rect width="256" height="120" rx="8" fill="white"/>
</clipPath>
</defs>
</svg>
