<svg width="256" height="120" viewBox="0 0 256 120" fill="none" xmlns="http://www.w3.org/2000/svg">
<rect width="256" height="120" rx="8" fill="#293A4A"/>
<path d="M165.703 43.085L128.571 48.1428C121.953 49.0448 116.974 54.2587 116.752 60.5206L115.015 109.671H145.638L152.686 85.1159C157.025 71.1037 161.364 57.0934 165.703 43.085Z" fill="#F2EADA"/>
<path d="M171.946 42.2209L165.558 43.1174C161.134 57.8187 156.711 72.5206 152.287 87.2229C151.265 94.4085 154.717 101.326 160.596 104.315C167.81 107.98 177.536 105.151 182.169 97.2028C183.294 93.3291 184.783 88.1033 186.475 81.8895C189.517 70.7094 190.101 67.7484 190.283 64.0001C190.606 57.3646 190.856 51.7185 187.073 47.3376C182.268 41.7475 173.972 42.0837 171.946 42.2209Z" fill="#F2EADA"/>
<path d="M118.411 109.33L114.959 110.597C111.707 111.791 108.113 111.644 104.968 110.189C101.824 108.734 99.3863 106.089 98.192 102.836L87.0532 72.4911C86.5655 71.1639 86.344 69.7536 86.4015 68.3408C86.4589 66.928 86.7942 65.5404 87.3881 64.2572C87.9819 62.974 88.8228 61.8204 89.8627 60.8622C90.9025 59.9041 92.1209 59.1602 93.4483 58.673L101.21 55.8227C102.538 55.335 103.948 55.1135 105.361 55.171C106.774 55.2285 108.161 55.5637 109.444 56.1576C110.728 56.7515 111.881 57.5924 112.839 58.6322C113.797 59.672 114.541 60.8905 115.029 62.2179L126.166 92.5628C127.361 95.8147 127.215 99.4078 125.76 102.552C124.306 105.697 121.663 108.135 118.411 109.33Z" fill="#F2EADA"/>
<path d="M154.831 45.0418C152.047 46.9803 148.807 48.1604 145.429 48.4657C143.511 48.6275 141.579 48.4973 139.7 48.0794C138.845 43.8169 137.989 39.5544 137.133 35.292L152.263 32.2559L154.831 45.0418Z" fill="#A0505A"/>
<path d="M161.094 58.752L152.109 88.9344" stroke="#3B1534" stroke-width="0.73728" stroke-miterlimit="10" stroke-linecap="round"/>
<path d="M136.134 47.2622C137.837 49.2499 139.584 50.1715 140.779 50.6404C146.148 52.7196 153.028 50.3367 158.293 44.7422" stroke="#3B1534" stroke-width="0.73728" stroke-miterlimit="10" stroke-linecap="round"/>
<path d="M179.732 9.89872C180.44 9.89872 181.013 9.32502 181.013 8.61733C181.013 7.90964 180.44 7.33594 179.732 7.33594C179.024 7.33594 178.451 7.90964 178.451 8.61733C178.451 9.32502 179.024 9.89872 179.732 9.89872Z" fill="#77C8D6"/>
<path d="M187.881 10.8235C188.588 10.8235 189.162 10.2498 189.162 9.54214C189.162 8.83444 188.588 8.26074 187.881 8.26074C187.173 8.26074 186.599 8.83444 186.599 9.54214C186.599 10.2498 187.173 10.8235 187.881 10.8235Z" fill="#77C8D6"/>
<path d="M193.251 17.5813C193.959 17.5813 194.532 17.0076 194.532 16.2999C194.532 15.5923 193.959 15.0186 193.251 15.0186C192.543 15.0186 191.97 15.5923 191.97 16.2999C191.97 17.0076 192.543 17.5813 193.251 17.5813Z" fill="#77C8D6"/>
<path d="M192.691 24.7376C193.398 24.7376 193.972 24.1639 193.972 23.4562C193.972 22.7485 193.398 22.1748 192.691 22.1748C191.983 22.1748 191.409 22.7485 191.409 23.4562C191.409 24.1639 191.983 24.7376 192.691 24.7376Z" fill="#77C8D6"/>
<path d="M186.21 29.469C186.918 29.469 187.491 28.8953 187.491 28.1876C187.491 27.4799 186.918 26.9062 186.21 26.9062C185.502 26.9062 184.929 27.4799 184.929 28.1876C184.929 28.8953 185.502 29.469 186.21 29.469Z" fill="#77C8D6"/>
<path d="M177.948 28.5442C178.656 28.5442 179.229 27.9705 179.229 27.2628C179.229 26.5551 178.656 25.9814 177.948 25.9814C177.24 25.9814 176.667 26.5551 176.667 27.2628C176.667 27.9705 177.24 28.5442 177.948 28.5442Z" fill="#77C8D6"/>
<path d="M172.774 22.2483C173.482 22.2483 174.055 21.6746 174.055 20.9669C174.055 20.2592 173.482 19.6855 172.774 19.6855C172.066 19.6855 171.493 20.2592 171.493 20.9669C171.493 21.6746 172.066 22.2483 172.774 22.2483Z" fill="#77C8D6"/>
<path d="M173.72 14.3001C174.428 14.3001 175.002 13.7264 175.002 13.0187C175.002 12.311 174.428 11.7373 173.72 11.7373C173.013 11.7373 172.439 12.311 172.439 13.0187C172.439 13.7264 173.013 14.3001 173.72 14.3001Z" fill="#77C8D6"/>
<path d="M180.128 9.83691L185.702 27.0111" stroke="#3B1534" stroke-width="0.73728" stroke-miterlimit="10" stroke-linecap="round"/>
<path d="M187.433 10.7402L178.593 26.1553" stroke="#3B1534" stroke-width="0.73728" stroke-miterlimit="10" stroke-linecap="round"/>
<path d="M174.802 13.7949L191.467 23.0773" stroke="#3B1534" stroke-width="0.73728" stroke-miterlimit="10" stroke-linecap="round"/>
<path d="M191.992 16.5342L174.024 20.6895" stroke="#3B1534" stroke-width="0.73728" stroke-miterlimit="10" stroke-linecap="round"/>
<path d="M183.256 24.6012C186.68 24.6012 189.455 21.8258 189.455 18.4022C189.455 14.9785 186.68 12.2031 183.256 12.2031C179.833 12.2031 177.057 14.9785 177.057 18.4022C177.057 21.8258 179.833 24.6012 183.256 24.6012Z" fill="#77C8D6"/>
<path d="M69.0402 80.0052C69.7479 80.0052 70.3216 79.4315 70.3216 78.7238C70.3216 78.0161 69.7479 77.4424 69.0402 77.4424C68.3325 77.4424 67.7588 78.0161 67.7588 78.7238C67.7588 79.4315 68.3325 80.0052 69.0402 80.0052Z" fill="#77C8D6"/>
<path d="M77.1884 80.93C77.8961 80.93 78.4698 80.3563 78.4698 79.6486C78.4698 78.9409 77.8961 78.3672 77.1884 78.3672C76.4807 78.3672 75.907 78.9409 75.907 79.6486C75.907 80.3563 76.4807 80.93 77.1884 80.93Z" fill="#77C8D6"/>
<path d="M82.5587 87.6858C83.2664 87.6858 83.8401 87.1121 83.8401 86.4044C83.8401 85.6967 83.2664 85.123 82.5587 85.123C81.851 85.123 81.2773 85.6967 81.2773 86.4044C81.2773 87.1121 81.851 87.6858 82.5587 87.6858Z" fill="#77C8D6"/>
<path d="M81.9984 94.8421C82.7061 94.8421 83.2798 94.2684 83.2798 93.5607C83.2798 92.853 82.7061 92.2793 81.9984 92.2793C81.2907 92.2793 80.717 92.853 80.717 93.5607C80.717 94.2684 81.2907 94.8421 81.9984 94.8421Z" fill="#77C8D6"/>
<path d="M75.5177 99.5755C76.2254 99.5755 76.7991 99.0018 76.7991 98.2941C76.7991 97.5864 76.2254 97.0127 75.5177 97.0127C74.81 97.0127 74.2363 97.5864 74.2363 98.2941C74.2363 99.0018 74.81 99.5755 75.5177 99.5755Z" fill="#77C8D6"/>
<path d="M67.256 98.6507C67.9637 98.6507 68.5374 98.077 68.5374 97.3693C68.5374 96.6616 67.9637 96.0879 67.256 96.0879C66.5483 96.0879 65.9746 96.6616 65.9746 97.3693C65.9746 98.077 66.5483 98.6507 67.256 98.6507Z" fill="#77C8D6"/>
<path d="M62.0813 92.3548C62.789 92.3548 63.3627 91.7811 63.3627 91.0734C63.3627 90.3657 62.789 89.792 62.0813 89.792C61.3736 89.792 60.7999 90.3657 60.7999 91.0734C60.7999 91.7811 61.3736 92.3548 62.0813 92.3548Z" fill="#77C8D6"/>
<path d="M63.0281 84.4065C63.7358 84.4065 64.3095 83.8328 64.3095 83.1251C64.3095 82.4174 63.7358 81.8438 63.0281 81.8438C62.3204 81.8438 61.7467 82.4174 61.7467 83.1251C61.7467 83.8328 62.3204 84.4065 63.0281 84.4065Z" fill="#77C8D6"/>
<path d="M69.4353 79.9414L75.0091 97.1171" stroke="#3B1534" stroke-width="0.73728" stroke-miterlimit="10" stroke-linecap="round"/>
<path d="M76.7401 80.8467L67.9001 96.2617" stroke="#3B1534" stroke-width="0.73728" stroke-miterlimit="10" stroke-linecap="round"/>
<path d="M64.1089 83.9014L80.7744 93.1837" stroke="#3B1534" stroke-width="0.73728" stroke-miterlimit="10" stroke-linecap="round"/>
<path d="M81.2994 86.6396L63.3319 90.7964" stroke="#3B1534" stroke-width="0.73728" stroke-miterlimit="10" stroke-linecap="round"/>
<path d="M72.5642 94.7077C75.9878 94.7077 78.7632 91.9323 78.7632 88.5086C78.7632 85.085 75.9878 82.3096 72.5642 82.3096C69.1405 82.3096 66.3651 85.085 66.3651 88.5086C66.3651 91.9323 69.1405 94.7077 72.5642 94.7077Z" fill="#77C8D6"/>
<path d="M119.902 58.792L118.295 71.1105" stroke="#3B1534" stroke-width="0.73728" stroke-miterlimit="10" stroke-linecap="round"/>
<path d="M96.1304 39.3854C95.6143 39.3588 95.0982 39.3559 94.5821 39.3559L68.708 39.3234C67.6183 39.3234 65.6365 39.2468 64.9877 40.3365C64.3168 41.463 65.0482 43.0261 66.0494 43.6586C67.1273 44.3384 68.4721 44.3856 69.7461 44.4121L74.7817 44.5168C74.4514 45.7761 75.6665 46.9779 76.9434 47.2551C78.2204 47.5323 79.5298 47.205 80.8289 47.1548C82.4185 47.0958 84.1762 47.4969 85.3175 48.6766C86.7345 50.1393 87.6443 51.987 88.7355 53.6901C89.3931 54.7119 90.0626 55.725 90.7247 56.7409C90.9164 57.0358 92.5354 59.8375 92.7168 59.7977L107.61 56.1305C106.458 51.3735 105.05 46.5296 102.048 42.6648C101.181 41.5485 100.153 40.5016 98.8524 39.9442C98.0016 39.5712 97.0682 39.4355 96.1304 39.3854Z" fill="#77C8D6"/>
<path d="M108.107 46.8398H104.922V52.4859H108.107V46.8398Z" stroke="#3B1534" stroke-width="0.73728" stroke-miterlimit="10" stroke-linecap="round"/>
<path d="M111.125 53.6757C111.125 53.1857 110.931 52.7158 110.584 52.3693C110.238 52.0228 109.768 51.8281 109.278 51.8281H103.753C103.263 51.8281 102.793 52.0228 102.446 52.3693C102.1 52.7158 101.905 53.1857 101.905 53.6757V56.3875H111.125V53.6757Z" fill="#FFC9D3"/>
<path d="M111.123 56.3867H101.908V77.3387H111.123V56.3867Z" fill="#3B1534"/>
<path d="M111.122 58.8154H106.969" stroke="#F2EADA" stroke-width="0.73728" stroke-miterlimit="10" stroke-linecap="round"/>
<path d="M111.122 62.0273H106.969" stroke="#F2EADA" stroke-width="0.73728" stroke-miterlimit="10" stroke-linecap="round"/>
<path d="M111.122 65.4531H106.969" stroke="#F2EADA" stroke-width="0.73728" stroke-miterlimit="10" stroke-linecap="round"/>
<path d="M106.514 46.8396V39.5361" stroke="#3B1534" stroke-width="0.73728" stroke-miterlimit="10" stroke-linecap="round"/>
<path d="M106.023 35.3881C106.043 35.3734 106.061 35.356 106.076 35.3365C106.095 35.3127 106.109 35.2857 106.118 35.2569C106.621 33.5714 106.523 31.1812 106.523 31.1812C106.47 29.8629 106.424 29.0563 105.95 28.2099C105.828 27.9627 105.622 27.7667 105.369 27.657C104.578 27.3355 104.087 28.3751 103.983 28.9841C103.705 30.6061 104.239 32.1839 104.819 33.685C104.904 33.9121 105.64 35.6329 106.023 35.3881Z" fill="#77C8D6"/>
<path d="M107.398 37.5805C107.422 37.5857 107.447 37.5857 107.471 37.5805C107.501 37.5747 107.53 37.5642 107.557 37.5495C109.077 36.6648 110.643 34.857 110.643 34.857C111.506 33.8602 112.025 33.235 112.265 32.2986C112.344 32.0346 112.328 31.7513 112.219 31.4979C111.863 30.7223 110.794 31.1455 110.303 31.5201C108.986 32.5154 108.297 34.0268 107.693 35.5176C107.586 35.7388 106.951 37.4905 107.398 37.5805Z" fill="#77C8D6"/>
<path d="M109.045 75.278C109.045 75.278 106.147 75.71 104.416 62.3874C104.416 62.3874 103.961 56.61 101.006 58.4267C101.006 58.4267 99.4736 59.2112 100.47 67.5129L101.276 72.5854C101.276 72.5854 101.23 72.668 101.155 72.8184C100.505 74.1113 100.162 75.5367 100.153 76.9837C100.143 78.4307 100.468 79.8604 101.102 81.1615L104.868 88.9412C105.471 90.2052 106.277 91.3622 107.253 92.3666C107.961 93.0865 108.753 93.7182 109.613 94.2482C111.785 95.5743 114.304 96.2213 116.847 96.1061L125.783 86.725L122.468 82.2438C122.698 81.4583 122.837 80.6488 122.881 79.8314C122.944 78.6931 122.984 77.9661 122.558 77.2436C122.052 76.3854 121.176 76.0153 120.676 75.8575C120.644 75.5124 120.454 73.8049 118.985 72.6134C118.311 72.0747 117.498 71.7369 116.64 71.6388C116.624 71.1035 116.596 70.3235 116.552 69.3827C116.313 64.3603 115.986 63.2795 115.191 62.5555C115.005 62.3859 114.355 61.7946 113.41 61.771C113.237 61.771 112.525 61.7489 111.969 62.2001C111.329 62.7265 111.26 63.8457 111.22 66.0664C111.167 68.9727 111.233 69.1954 111.19 69.9563C111.126 71.1227 111.046 75.5198 109.045 75.278Z" fill="#77C8D6"/>
<path d="M115.048 79.3447C116.132 76.9482 116.682 74.3443 116.659 71.7139" stroke="#3B1534" stroke-width="0.73728" stroke-miterlimit="10" stroke-linecap="round"/>
<path d="M119.016 81.0376C119.016 81.0376 120.195 79.9936 120.676 75.8574" stroke="#3B1534" stroke-width="0.73728" stroke-miterlimit="10" stroke-linecap="round"/>
<path d="M120.349 85.6538C121.396 84.7684 122.138 83.5748 122.468 82.2432" stroke="#3B1534" stroke-width="0.73728" stroke-miterlimit="10" stroke-linecap="round"/>
<path d="M89.7206 20.013C88.8534 19.4488 87.8403 19.1504 86.8058 19.1543C85.7713 19.1583 84.7604 19.4644 83.8976 20.0351L83.8459 24.9704H89.8666C89.8155 23.3179 89.7668 21.6655 89.7206 20.013Z" fill="#77C8D6"/>
<path d="M86.8231 21.0968C88.3842 21.0968 89.6498 20.663 89.6498 20.128C89.6498 19.5929 88.3842 19.1592 86.8231 19.1592C85.2619 19.1592 83.9963 19.5929 83.9963 20.128C83.9963 20.663 85.2619 21.0968 86.8231 21.0968Z" stroke="#3B1534" stroke-width="0.73728" stroke-miterlimit="10" stroke-linecap="round"/>
<path d="M87.7096 24.9698V21.3232" stroke="#3B1534" stroke-width="0.73728" stroke-miterlimit="10" stroke-linecap="round"/>
<path d="M85.6965 24.8585V21.2119" stroke="#3B1534" stroke-width="0.73728" stroke-miterlimit="10" stroke-linecap="round"/>
<path d="M90.8253 24.9707H82.8199C81.8614 24.9707 81.0844 25.7477 81.0844 26.7063V39.8018C81.0844 40.7604 81.8614 41.5374 82.8199 41.5374H90.8253C91.7838 41.5374 92.5609 40.7604 92.5609 39.8018V26.7063C92.5609 25.7477 91.7838 24.9707 90.8253 24.9707Z" fill="#F2EADA"/>
<path d="M88.4365 38.5623H81.3291V28.6563H88.4365C88.5199 28.6562 88.6024 28.6727 88.6795 28.7047C88.7565 28.7366 88.8265 28.7834 88.8854 28.8425C88.9442 28.9015 88.9909 28.9716 89.0227 29.0487C89.0545 29.1258 89.0707 29.2084 89.0705 29.2918V37.9327C89.0694 38.1001 89.0021 38.2602 88.8833 38.3782C88.7645 38.4962 88.6039 38.5623 88.4365 38.5623Z" fill="#FFC9D3"/>
<path d="M74.782 44.5166C74.8601 42.6705 76.5677 42.0836 78.1514 41.9568C80.3735 41.7784 82.6679 41.9022 84.8975 41.8772" stroke="#3B1534" stroke-width="0.73728" stroke-miterlimit="10" stroke-linecap="round"/>
<path d="M142.787 116.864L120.12 109.229C113.759 107.087 111.64 99.152 116.084 94.1238L122.216 87.1933C123.158 86.1279 124.329 85.2905 125.642 84.7443C126.955 84.1982 128.375 83.9576 129.795 84.0407L173.479 84.0098C174.916 84.0102 176.334 84.3346 177.628 84.959C178.923 85.5833 180.059 86.4915 180.954 87.616C181.849 88.7404 182.479 90.0522 182.796 91.4536C183.114 92.855 183.111 94.31 182.789 95.7104C177.973 112.914 159.72 122.572 142.787 116.864Z" fill="#F2EADA"/>
<path d="M117.761 92.5703C118.718 94.2794 120.052 95.7479 121.662 96.8642C123.272 97.9805 125.115 98.7152 127.051 99.0127" stroke="#3B1534" stroke-width="0.73728" stroke-miterlimit="10" stroke-linecap="round"/>
<path d="M121.201 88.6738C124.765 89.111 128.047 90.8358 130.429 93.5237" stroke="#3B1534" stroke-width="0.73728" stroke-miterlimit="10" stroke-linecap="round"/>
<path d="M170.043 84.0186L149.429 84.3135C145.095 84.3754 140.602 84.4123 136.206 84.3356C133.925 84.2943 131.644 84.2201 129.366 84.1129C127.677 84.0333 125.871 83.9153 124.601 85.2498" stroke="#3B1534" stroke-width="0.73728" stroke-miterlimit="10" stroke-linecap="round"/>
<path d="M129.844 112.505L120.12 109.23C116.609 108.22 114.001 105.381 113.455 101.972C112.817 97.982 115.297 95.0536 115.667 94.6318" stroke="#3B1534" stroke-width="0.73728" stroke-miterlimit="10" stroke-linecap="round"/>
<path d="M155.556 24.4785C154.819 28.6622 152.654 32.4609 149.43 35.2273C146.205 37.9936 142.122 39.5565 137.875 39.6495C133.627 39.7425 129.479 38.36 126.137 35.7375C122.795 33.115 120.465 29.4148 119.546 25.2673C118.626 21.1198 119.173 16.7817 121.093 12.9922C123.013 9.20259 126.187 6.19604 130.076 4.48479C133.964 2.77354 138.326 2.46348 142.417 3.60742C146.508 4.75136 150.076 7.27853 152.513 10.7583C153.898 12.7325 154.88 14.9607 155.402 17.3151C155.925 19.6695 155.977 22.1038 155.556 24.4785Z" fill="#A0505A"/>
<path d="M136.746 9.1767C137.061 10.9676 137.638 12.7024 138.458 14.325C139.952 17.4823 142.503 20.0174 145.669 21.4908C147.628 22.3679 149.755 22.8056 151.901 22.773C153.226 22.7601 154.544 22.5834 155.825 22.2467C156.073 17.577 154.529 12.9886 151.51 9.41775C148.491 5.84688 144.223 3.56253 139.577 3.03073C134.931 2.49893 130.257 3.75975 126.508 6.55596C122.76 9.35218 120.22 13.4731 119.406 18.078C119.305 18.653 119.234 19.2328 119.192 19.815C119.142 20.3957 119.126 20.9692 119.131 21.5333C123.034 21.749 126.896 20.6453 130.095 18.4C133.294 16.1546 135.646 12.8982 136.77 9.15463L136.746 9.1767Z" fill="#FFDB00"/>
<path d="M125.751 24.1948C125.991 24.4209 126.132 24.733 126.142 25.0626C126.149 25.227 126.123 25.391 126.065 25.5451C126.008 25.6991 125.92 25.8401 125.807 25.9597C125.58 26.1991 125.268 26.3395 124.939 26.3503C124.608 26.3598 124.287 26.2379 124.046 26.0113C123.805 25.7847 123.663 25.4718 123.652 25.1411C123.644 24.8113 123.766 24.4915 123.993 24.2514C124.104 24.132 124.238 24.036 124.387 23.969C124.536 23.9019 124.697 23.8651 124.861 23.8608C125.19 23.8498 125.51 23.9699 125.751 24.1948Z" fill="#1E4240"/>
<path d="M134.363 23.3488C134.482 23.4604 134.578 23.5945 134.645 23.7435C134.713 23.8925 134.749 24.0533 134.754 24.2167C134.759 24.3801 134.732 24.543 134.674 24.696C134.616 24.849 134.529 24.9891 134.417 25.1083C134.305 25.2275 134.17 25.3235 134.021 25.3909C133.872 25.4582 133.712 25.4955 133.548 25.5006C133.385 25.5058 133.222 25.4787 133.069 25.4209C132.916 25.3631 132.776 25.2757 132.656 25.1638C132.537 25.0518 132.441 24.9175 132.374 24.7685C132.307 24.6194 132.269 24.4586 132.264 24.2951C132.258 24.1309 132.284 23.967 132.342 23.8131C132.399 23.6592 132.487 23.5182 132.599 23.3985C132.712 23.2787 132.847 23.1826 132.997 23.1156C133.147 23.0487 133.309 23.0123 133.473 23.0086C133.637 23.003 133.8 23.0303 133.953 23.0887C134.105 23.1472 134.245 23.2356 134.363 23.3488Z" fill="#1E4240"/>
<path d="M142.425 38.2095L151.371 32.8738" stroke="#3B1534" stroke-width="0.895795" stroke-miterlimit="10" stroke-linecap="round"/>
<path d="M152.219 32.9147C155.405 33.4766 158.444 31.3489 159.006 28.1625C159.568 24.9761 157.44 21.9376 154.254 21.3757C151.067 20.8139 148.029 22.9415 147.467 26.1279C146.905 29.3143 149.032 32.3529 152.219 32.9147Z" fill="#A0505A"/>
<path d="M139.723 26.8642L120.542 28.1903L119.992 36.4203C119.647 38.3826 121.433 41.0342 122.576 42.6662C123.719 44.2982 126.98 45.022 128.942 45.368L136.774 43.5905L142.281 38.8637C142.506 38.6922 142.679 38.4629 142.784 38.2002C142.888 37.9376 142.919 37.6515 142.873 37.3727L141.366 28.1654C141.303 27.783 141.1 27.4377 140.796 27.1971C140.492 26.9565 140.11 26.8378 139.723 26.8642Z" fill="#F2EADA"/>
<path d="M120.622 32.8499L137.474 31.0805" stroke="#77C8D6" stroke-width="0.895795" stroke-miterlimit="10" stroke-linecap="round"/>
<path d="M119.928 36.7838L132.528 35.4726" stroke="#77C8D6" stroke-width="0.895795" stroke-miterlimit="10" stroke-linecap="round"/>
<path d="M152.978 29.2865C153.89 29.4473 154.76 28.8383 154.921 27.9262C155.082 27.0142 154.473 26.1444 153.561 25.9836C152.649 25.8228 151.779 26.4318 151.618 27.3438C151.457 28.2559 152.066 29.1257 152.978 29.2865Z" stroke="#3B1534" stroke-width="0.895795" stroke-miterlimit="10" stroke-linecap="round"/>
<path d="M154.73 24.8652C154.73 24.8652 152.098 25.2383 151.666 26.9857" stroke="#3B1534" stroke-width="0.73728" stroke-miterlimit="10" stroke-linecap="round"/>
<path d="M140.639 27.7069L150.352 22.1427" stroke="#3B1534" stroke-width="0.895795" stroke-miterlimit="10" stroke-linecap="round"/>
<path d="M140.64 2.96237C130.74 1.21673 121.488 6.75359 119.976 15.3293L155.827 21.6508C157.339 13.0751 150.54 4.70801 140.64 2.96237Z" fill="#D9D9D9"/>
<path d="M122.174 13.1152L150.185 18.0543" stroke="#F2EADA" stroke-width="0.73728" stroke-miterlimit="10" stroke-linecap="round"/>
</svg>
